<?xml version="1.0" standalone="no"?>
<!DOCTYPE svg PUBLIC "-//W3C//DTD SVG 1.1//EN" "http://www.w3.org/Graphics/SVG/1.1/DTD/svg11.dtd" >
<svg xmlns="http://www.w3.org/2000/svg">
<metadata>Generated by IcoMoon</metadata>
<defs>
<font id="iconfont" horiz-adv-x="1024">
<font-face units-per-em="1024" ascent="960" descent="-64" />
<missing-glyph horiz-adv-x="1024" />
<glyph unicode="&#x20;" horiz-adv-x="512" d="" />
<glyph unicode="&#xe900;" glyph-name="angellist" d="M152.576 233.173c0 81.792 34.773 124.971 102.4 143.531-10.709 26.795-16.043 46.549-16.043 59.264 0 47.061 59.477 105.387 104.405 105.387 11.392 0 24.747-2.987 40.149-9.045-32.128 91.691-55.211 161.323-69.248 208.853-18.347 61.909-42.923 142.464 0 190.72 16.725 18.731 39.125 28.117 67.243 28.117 48.213 0 106.069-98.731 173.696-296.149l17.067-49.195c25.6 64 104.192 326.272 192.725 326.272 26.795 0 47.872-9.045 63.275-27.093 43.264-48.683 17.749-120.789 0-183.723-14.080-48.853-36.139-115.797-66.261-200.789 38.144-9.387 65.579-27.435 82.304-54.229 18.091-28.757 27.136-73.259 27.136-133.504 0-119.125-35.499-216.533-106.453-292.139-72.277-75.648-163.968-113.451-275.072-113.451-137.173 0-257.707 80.597-311.211 189.739-17.408 36.139-26.112 71.936-26.112 107.435zM217.856 238.165c0-41.941 27.989-92.544 53.205-126.464 59.051-76.373 136.277-109.44 226.901-109.44 86.315 0 158.933 32.469 217.813 97.365 58.24 64.256 87.381 145.579 87.381 243.968 0 33.664-0.128 83.968-25.131 105.429-18.048 15.36-53.547 28.757-106.411 40.149-52.864 12.032-109.099 18.048-168.661 18.048-22.997 0-35.115-3.456-35.115-26.112 0-27.435 15.36-46.848 46.165-58.197 33.451-14.080 88.661-21.077 165.632-21.077h28.117c15.744 0 29.696-8.235 34.133-42.197-28.843-28.843-76.373-32.725-108.416-57.216-26.752-19.413-48.171-42.496-64.256-69.248-15.403-26.112-23.083-50.859-23.083-74.283 0-14.080 3.328-31.147 10.027-51.2 7.381-22.101 11.051-36.48 11.051-43.179-0.171-6.229-2.005-10.539-9.515-13.568-31.147-7.040-45.355 8.192-58.752 33.621-11.392 21.419-17.749 48.853-19.072 82.347-4.053-1.365-18.731-1.024-23.083-1.024 0.683-3.328 0.981-7.339 0.981-12.032 0-20.096-7.68-37.163-23.083-51.2-15.403-14.080-33.451-21.077-54.187-21.077-31.488 0-63.275 15.061-95.403 45.184-32.128 30.763-48.171 60.885-48.171 90.325 0 17.493 7.467 26.539 19.072 38.144 16.725-20.736 28.117-35.115 34.133-43.136 28.117-39.509 53.547-59.264 76.288-59.264 12.8 0 23.083 9.472 23.083 16.085 0 5.333-4.011 15.061-12.032 29.099-11.733 22.016-58.069 83.456-82.304 103.424-10.069 9.344-17.408 14.037-22.101 14.037-22.571 0-55.211-28.971-55.211-77.312zM308.224 429.909c0-8.661 5.333-23.723 16.043-45.141 19.755-38.101 66.133-99.499 101.376-130.517 16.085-13.397 28.117-20.096 36.181-20.096 10.283 0 21.077 12.245 21.077 23.083 0 8.064-6.059 27.477-18.091 58.24-16.597 40.277-51.84 114.005-85.333 141.568-10.709 10.027-21.077 15.061-31.104 15.061-14.336 0-40.149-26.24-40.149-42.197zM353.365 863.616c0-22.741 8.064-58.539 24.107-107.392 14.72-47.531 36.821-111.104 66.261-190.763 15.147 9.088 51.883 4.779 71.296 3.029l-69.291 200.747c-18.731 53.547-33.451 88.363-44.16 104.405-8.704 14.080-17.408 21.12-26.112 21.12-14.549 0-22.101-16.469-22.101-31.147zM520.021 351.616c6.016-15.403 12.373-32.128 19.072-50.176 13.397 15.36 26.795 28.117 40.149 38.144-20.395 4.096-36.821 4.565-59.221 12.032zM625.451 556.416l67.243-12.032c30.123 82.987 53.205 149.589 69.291 199.765 9.259 29.995 36.053 98.347 18.048 121.472-6.059 10.667-24.832 13.824-46.165-20.053-12.715-19.413-27.093-53.205-43.179-101.419l-65.237-187.733z" />
<glyph unicode="&#xe901;" glyph-name="arrow-left" d="M663.259 912.66c30.409 29.57 79.031 28.89 108.601-1.518 26.882-27.644 28.764-70.341 6.037-100.092l-7.556-8.509-364.632-354.438 364.632-354.643c27.644-26.882 30.719-69.509 8.833-99.884l-7.315-8.717c-26.882-27.644-69.509-30.719-99.884-8.833l-8.717 7.315-401.333 390.265c-20.102 19.52-31.526 46.312-31.526 74.395 0 24.071 8.393 47.193 23.425 65.577l8.061 8.779 401.372 390.303z" />
<glyph unicode="&#xe902;" glyph-name="arrow-right" d="M252.14 911.141c26.882 27.644 69.509 30.719 99.884 8.833l8.717-7.315 401.333-390.265c20.102-19.52 31.526-46.312 31.526-74.395 0-24.071-8.393-47.193-23.425-65.577l-8.061-8.779-401.372-390.303c-30.409-29.57-79.031-28.89-108.601 1.518-26.882 27.644-28.764 70.341-6.037 100.092l7.556 8.509 364.53 354.54-364.53 354.54c-27.644 26.882-30.719 69.509-8.833 99.884l7.315 8.717z" />
<glyph unicode="&#xe903;" d="M352.416 63.872h-256c-51.104 0-92.896 39.968-95.84 90.368l-0.16 5.632v704c0 51.136 39.968 92.928 90.368 95.84l5.632 0.16h768c51.136 0 92.928-39.968 95.84-90.368l0.16-5.632v-256c0-17.664-14.304-32-32-32-16.416 0-29.92 12.352-31.776 28.256l-0.224 3.744v128h-832v-576c0-16.416 12.352-29.952 28.288-31.776l3.712-0.224h256c17.728-0.032 32-14.336 32-32 0-16.416-12.352-29.952-28.256-31.776l-3.744-0.224zM864.416 895.872h-768c-16.416-0.032-29.92-12.384-31.776-28.256l-0.224-3.744v-64h832v64c0 16.416-12.352 29.952-28.256 31.776l-3.744 0.224z" />
<glyph unicode="&#xe904;" d="M736.352 511.872c159.040 0 288-128.928 288-288s-128.96-288-288-288c-159.072 0-288 128.928-288 288s128.928 288 288 288zM915.552 357.824l-313.184-313.184c37.216-28.16 83.648-44.768 133.984-44.768 123.712 0 224 100.288 224 224 0 50.336-16.608 96.768-44.8 133.952zM870.304 403.104c-37.184 28.16-83.648 44.768-133.952 44.768-123.712 0-224-100.288-224-224 0-50.336 16.576-96.768 44.768-133.952l313.184 313.184z" />
<glyph unicode="&#xe905;" glyph-name="quotation-mark" horiz-adv-x="1235" d="M855.462-44.815c121.464 89.299 203.746 167.484 246.844 234.616 76.288 118.814 114.447 253.711 114.447 404.721 0 114.778-25.088 204.378-75.294 268.83-50.206 64.422-115.441 96.648-195.765 96.648-64.241 0-117.459-21.655-159.624-64.934-42.165-43.309-63.247-100.171-63.247-170.647 0-64.452 19.576-116.284 58.729-155.558s90.865-58.91 155.106-58.91c28.1 0 54.212 6.054 78.306 18.131-6.024-106.707-35.629-199.861-88.847-279.371-28.040-41.954-80.685-91.949-157.877-150.016-37.436-28.16-47.887-79.842-24.335-120.32 21.263-36.563 68.126-48.971 104.689-27.708 2.379 1.385 4.668 2.891 6.867 4.518zM132.638-44.815c121.464 89.299 203.746 167.484 246.844 234.616 76.288 118.814 114.447 253.711 114.447 404.721 0 114.778-25.088 204.378-75.294 268.83-50.206 64.422-115.441 96.648-195.765 96.648-64.241 0-117.459-21.655-159.624-64.934-42.165-43.309-63.247-100.171-63.247-170.647 0-64.452 19.576-116.284 58.729-155.558s90.865-58.91 155.106-58.91c28.1 0 54.212 6.054 78.306 18.131-6.024-106.707-35.629-199.861-88.847-279.371-28.040-41.954-80.685-91.949-157.877-150.016-37.436-28.16-47.887-79.842-24.335-120.32 21.263-36.563 68.126-48.971 104.689-27.708 2.379 1.385 4.668 2.891 6.867 4.518z" />
<glyph unicode="&#xe906;" glyph-name="close" d="M225.835 652.502l225.835-225.835-225.835-225.835c-16.683-16.683-16.683-43.691 0-60.331s43.691-16.683 60.331 0l225.835 225.835 225.835-225.835c16.683-16.683 43.691-16.683 60.331 0s16.683 43.691 0 60.331l-225.835 225.835 225.835 225.835c16.683 16.683 16.683 43.691 0 60.331s-43.691 16.683-60.331 0l-225.835-225.835-225.835 225.835c-16.683 16.683-43.691 16.683-60.331 0s-16.683-43.691 0-60.331z" />
<glyph unicode="&#xe907;" glyph-name="check" d="M838.352 859.701c30.949 47.334 94.41 60.616 141.744 29.667 43.953-28.738 58.545-85.51 35.626-131.372l-5.959-10.372-502.154-768c-34.328-52.501-106.374-61.374-152.382-21.708l-9.437 9.245-265.846 295.385c-37.833 42.036-34.425 106.783 7.611 144.615 38.803 34.922 96.956 34.705 135.43 1.402l9.186-9.014 176.815-196.463 429.366 656.614z" />
<glyph unicode="&#xe908;" d="M163.507 309.851l76.92 183.461c26.382 54.74 115.544 69.033 115.544 69.033 1.649 0.033 1.649 0.033 3.278-0.024 28.881-2.856 35.243-48.904-19.812-52.289-21.887-2.768-41.612-16.787-51.778-36.628-31.851-66.105-57.282-135.115-85.246-202.986l150.023-154.762 58.161 53.431c8.827 7.426 12.832 6.96 19.666 6.613 77.492-7.126 155.020-14.253 232.512-21.378 29.068-2.681 52.666 21.074 15.25 64.801-18.121-0.237-38.858 1.918-53.223 5.499-15.012 3.748-22.223 9.38-13.706 35.419 2.415 7.433 12.562 9.614 20.762 9.454 15.522-0.542 34.846-3.735 51.703-8.562 20.512 19.932 52.342 41.879 32.501 74.342-18.434-1.403-41.196 1.348-60.735 3.57-34.332 3.934-54.037 8.136-40.942 42.329 2.987 7.721 12.876 10.817 21.728 10.671 25.653-0.896 56.678-1.997 80.545-6.309 2.496 3.517 5.508 7.306 9.056 11.385 22.106 27.194 18.784 87.174-19.573 95.125-75.973 14.318-156.89 12.579-227.346 36.521-2.757 0.929-5.317 2.323-7.609 4.106-17.098 13.494-6.701 39.43 17.697 45.661l2.165-0.257c75.006-11.929 150.376-21.734 225.017-35.788 58.948-12.202 90.716-86.433 61.18-157.31-6.565-15.783-11.808-5.13-5.568-60.882 4.495-40.368-36.35-91.723-36.35-91.723 37.865-50.59-9.396-135.755-77.411-129.032l-221.047 20.344-58.587-53.688c3.841-23.301-2.876-48.116-19.584-64.957-44.263-41.871-111.738-98.002-109.822-42.625 0.997 28.547 73.629 68.975 78.374 87.647 0.715 2.837 1.073 5.831 0.941 8.788-2.016 3.476-3.229 7.63-3.675 11.974-46.637 63.901-193.47 199.551-193.47 199.551-24.759 20.282-75.083-70.156-106.725-69.069-19.375 0.695-32.224 26.411-17.86 43.026 37.971 38.033 71.27 81.302 114.755 81.178 15.417-0.43 30.329-5.986 42.29-15.659z" />
<glyph unicode="&#xe909;" d="M671.941 789.188c-99.553-40.049-218.451-73.391-240.668-127.117-20.247-52.799-41.39-105.349-58.864-159.132-6.77-22.695 29.564-48.144 46.289-21.486 27.782 46.594 52.174 95.173 78.234 142.751 13.733 22.922 61.457 6.729 44.913-24.59-45.307-85.759-78.921-184.206-147.852-181.419-47.388 1.945-85.093 55.028-69.875 101.808 31.645 89.786 49.112 194.738 126.36 230.929 67.175 29.388 131.025 61.591 198.483 91.839 0.264 18.448 7.53 36.669 21.474 49.568 32.796 28.868 59.619 66.657 85.388 67.514 19.657 0.654 29.304-27.559 16.054-42.891-28.379-28.424-73.372-54.874-72.569-76.493 0.367-9.214 126.327-154.351 192.728-214.558 26.586-22.918 82.981 90.402 120.774 64.213 35.865-24.872-40.501-95.454-81.95-113.804-10.063-4.449-21.027-6.167-31.812-5.337-41.227-67.987-82.367-132.989-128.305-201.029-15.167-22.474 36.073 35.039 10.268 110.42 39.958 66.945 29.085 47.6 71.153 113.221l-180.222 195.592z" />
<glyph unicode="&#xe90a;" d="M670.438 934.374c134.605-2.381 248.294-179.994 133.427-302.234-1.587-1.613-3.226-3.2-4.813-4.813-74.982-75.955-149.018-152.858-224.922-227.917-33.229-31.283-89.395-31.565-122.957 0-75.93 75.085-149.939 152.064-224.922 228.096-85.504 86.707-47.821 254.387 67.328 295.834 65.254 23.475 142.387 6.81 193.050-41.344l26.035-25.318c44.186 42.906 90.138 77.901 157.773 77.696zM665.958 883.149c-53.555-1.382-95.616-41.83-135.475-80.538-37.069-32.691-78.003 72.422-161.331 80-100.838 9.19-194.125-126.003-110.72-214.861 1.306-1.357 2.662-2.662 3.994-3.994 74.982-76.058 147.174-154.957 224.973-228.122 13.901-12.442 36.48-12.57 50.509 0 77.773 73.139 149.99 151.962 224.998 227.968 70.093 70.989 19.379 214.4-89.088 219.469-2.611 0.077-5.222 0.102-7.859 0.077z" />
<glyph unicode="&#xe90b;" d="M822.758 333.542c1.203 91.725 12.262 175.718 90.829 174.72 45.338-1.715 84.531-40.576 86.272-86.272 1.562-124.723 24.090-259.635-44.16-349.773l-87.808-104.090c-33.357-36.122-56.678 10.342-39.091 33.075 53.299 63.002 118.605 120.986 119.859 199.68 0.41 73.6 2.765 147.251-0.026 220.774-2.227 34.944-71.347 52.019-74.65 0-2.202-58.214 8.371-132.582-1.152-165.018 0.563-12.826-1.971-25.805-8.192-37.939-26.138-45.773-52.019-107.034-78.49-107.827-17.587-0.538-31.59 19.942-23.603 37.171 35.584 64.282 90.189 153.651 21.402 141.824-36.634-6.298-68.966-73.6-86.912-117.734-22.63-55.757 0.998-130.509-12.57-192.922-5.069-23.27-47.59-23.987-50.56 3.635-3.072 85.939-10.010 173.722 33.843 243.584 33.51 51.251 59.981 111.795 118.144 115.046 2.15 0.051 4.25 0.077 6.4 0.026 10.803-0.486 21.094-3.302 30.464-7.962zM155.93 248.525c-2.56 3.738-4.173 8.371-4.403 13.773 0 94.49 18.97 212.275-47.616 193.382-14.874-4.224-26.061-18.33-27.059-34.022-4.352-114.381-24.704-241.331 33.587-318.31l1.075-1.382c27.29-34.483 56.755-67.174 85.171-100.762 0 0 11.622-21.453-1.382-34.56-10.138-10.24-25.6-11.622-37.709 1.485l-84.813 100.275c-69.35 87.629-48.794 224.666-47.155 353.587 1.792 47.437 39.142 86.938 90.803 86.272 45.338-1.715 84.531-40.576 86.272-86.272 0.333-26.086 5.299-56.064 8.243-84.531 8.474 2.611 17.357 3.891 26.394 3.84 61.44-1.741 101.018-75.443 130.278-132.019 33.536-64.768 24.013-145.894 24.013-224.614-0.896-25.498-47.411-36.454-51.123-1.818-2.765 77.389 12.314 155.136-25.882 215.962-30.822 47.078-58.445 110.157-96.358 86.17-2.944-1.869-5.222-4.378-6.989-7.347-1.101-6.707-2.867-12.902-5.402-18.406-0.896-8.832 0.102-16.23 0.102-16.23l57.037-95.027c10.547-22.758-23.526-53.069-43.776-26.317-25.523 39.219-55.885 85.606-63.309 126.874z" />
<glyph unicode="&#xe90c;" d="M293.939 947.2c-101.094 0-208.435-193.894-256.794-439.654-37.299-190.618 7.885-390.784 71.347-455.654l4.762-4.608c49.254-44.928 147.482-59.366 237.286-50.97l10.445 1.101 1.894-0.819c46.208-19.021 132.045-28.595 238.080-25.907 105.907 0.051 212.173 28.749 303.181 82.355 140.672 102.477 129.408 310.912-44.237 423.552l-7.040 3.558c-132.787 64.282-353.101 13.414-461.286-76.544l-5.555-4.762-34.97 51.2c-20.915 31.642-34.714 57.395-42.394 81.306-1.408 4.403-2.586 8.678-3.507 12.826-2.432 15.616-1.997 25.958 1.357 39.578l2.304 8.474c0.896 3.072 2.176 7.424 2.022 6.912l2.33 8.397c1.434 5.427 2.611 10.547 3.584 15.667l0.461 2.944 1.459-0.179c10.675-0.768 21.427-0.41 32.077 1.101l3.712 0.819c41.062 12.288 77.85 35.942 106.138 68.25l1.92 2.483 2.611 4.147c15.718 26.496 14.285 59.238-2.202 84.019l-0.819 1.178 0.486 1.075c15.309 37.837 16.486 100.48-14.669 125.875-31.795 25.907-78.49 32.282-153.984 32.282zM293.939 896c62.208 0 102.989-5.581 121.626-20.762 11.494-9.37 4.608-64.614-3.456-73.165-9.498-10.086-9.165-25.677 0.23-35.354l4.736-4.326c8.32-8.525 10.266-21.581 4.762-32.179l-1.050-1.69-3.891-4.326c-19.405-20.326-43.341-35.712-69.811-44.902l-5.376-1.715 1.818 0.179c-14.054-1.997-28.365-0.947-42.010 3.046-16.179 4.762-32.461-7.168-32.794-24.038-0.282-13.978-1.766-23.834-5.197-36.634l-4.659-16.333c-6.707-23.603-8.32-41.933-3.968-69.248 1.562-7.27 3.149-13.005 5.018-18.842 8.525-26.624 22.349-53.325 42.24-84.429l9.242-14.054 28.314-41.293c8.525-12.544 13.67-20.915 16.154-26.342l0.794-1.894c7.040-18.15 30.95-22.093 43.469-7.194 77.466 92.237 312.858 155.776 433.894 91.981 142.131-92.339 151.040-257.178 42.035-336.691-80.998-47.59-178.304-73.856-275.763-73.933-106.445-2.662-189.85 7.654-223.693 24.678-4.557 2.304-9.702 3.174-14.771 2.534-82.458-10.624-181.018 2.074-216.73 38.605-50.662 51.789-91.981 234.854-57.728 410.010 43.776 222.464 141.133 398.31 206.566 398.31z" />
<glyph unicode="&#xe90d;" d="M859.085 186.317c12.16 7.194 27.878 3.149 35.072-9.011 7.194-12.186 3.149-27.878-9.011-35.072-133.632-78.976-262.323-94.95-418.918-54.989-13.696 3.482-21.965 17.434-18.458 31.13 3.482 13.696 17.434 21.965 31.13 18.483 143.77-36.685 258.534-22.451 380.186 49.459z" />
<glyph unicode="&#xe90e;" d="M612.608 353.024c3.669 1.451 6.144 4.949 6.315 8.875 5.376 102.016 89.6 181.973 191.744 182.101 24.192-0.085 48.128-4.907 70.485-14.165 3.243-1.451 6.997-1.152 10.027 0.768 2.987 1.92 4.821 5.248 4.821 8.789v228.608c0 35.328-28.672 64-64 64h-421.632c-8.064 0-15.445 4.565-19.072 11.776l-40.405 80.811c-10.837 21.717-33.067 35.456-57.344 35.413h-229.547c-35.328 0-64-28.672-64-64v-640c0-35.328 28.672-64 64-64h459.648c6.656 0 9.685 4.779 9.685 11.051v31.616c0 51.883 31.317 98.603 79.275 118.357z" />
<glyph unicode="&#xe90f;" d="M970.752 297.429c-6.272 1.024-10.837 6.443-10.752 12.8v41.813c0 82.475-66.859 149.333-149.333 149.333s-149.333-66.859-149.333-149.333v-41.088c0-6.656-4.736-12.373-11.307-13.568-30.379-5.461-52.565-31.829-52.693-62.72v-234.667c0-35.328 28.672-64 64-64h298.667c35.328 0 64 28.672 64 64v234.667c-0.171 31.061-22.613 57.557-53.248 62.763zM810.667 53.333c-23.552 0-42.667 19.115-42.667 42.667s19.115 42.667 42.667 42.667c23.552 0 42.667-19.115 42.667-42.667s-19.115-42.667-42.667-42.667zM874.667 309.333c0-5.888-4.779-10.667-10.667-10.667h-106.667c-5.888 0-10.667 4.779-10.667 10.667v42.667c0 35.328 28.672 64 64 64s64-28.672 64-64v-42.667z" />
<glyph unicode="&#xe910;" d="M970.368 438.315c22.144-0.128 41.728-13.568 49.664-33.92 8.021-20.48 2.645-43.733-13.483-58.624l-264.533-244.352c-21.675-19.968-55.381-18.603-75.349 3.029-9.6 10.411-14.677 24.192-14.123 38.315s6.741 27.477 17.152 37.077l144.427 133.333c3.243 2.944 4.309 7.595 2.731 11.691-1.579 4.011-5.376 6.656-9.941 6.784h-420.864c-29.653 0.171-53.333 23.979-53.333 53.333s23.68 53.163 53.333 53.333h584.32zM766.123 630.315h-549.077c-4.395-0.043-8.363 2.645-9.941 6.741-1.621 4.096-0.512 8.747 2.731 11.733l144.427 133.333c21.675 19.968 23.040 53.717 3.072 75.349-19.968 21.675-53.717 23.040-75.392 3.072l-264.747-244.352c-16.128-14.891-21.504-38.187-13.525-58.624 8.021-20.48 27.733-33.92 49.707-33.92h712.533c14.208-0.043 27.819 5.547 37.845 15.531 10.069 10.027 15.701 23.595 15.701 37.803 0 29.44-23.893 53.333-53.333 53.333z" />
<glyph unicode="&#xe911;" d="M298.752 311.851c-5.035 0.853-8.704 5.376-8.619 10.624v34.731c0 68.437-53.504 123.947-119.467 123.947s-119.467-55.509-119.467-123.947v-34.133c0-5.504-3.797-10.24-9.045-11.264-24.32-4.523-42.069-26.411-42.155-52.053v-194.816c0-29.312 22.912-53.12 51.2-53.12h238.933c28.288 0 51.2 23.808 51.2 53.12v194.816c-0.128 25.813-18.091 47.787-42.581 52.096zM170.667 97.152c-23.552 0-42.667 19.115-42.667 42.667s19.115 42.667 42.667 42.667c23.552 0 42.667-19.115 42.667-42.667s-19.115-42.667-42.667-42.667zM213.333 318.251c0-4.267-3.2-7.765-7.125-7.765h-71.083c-3.925 0-7.125 3.499-7.125 7.765v31.019c0 25.728 19.115 46.549 42.667 46.549s42.667-20.821 42.667-46.549v-31.019z" />
<glyph unicode="&#xe912;" d="M1024 789.333c0 23.552-19.115 42.667-42.667 42.667h-938.667c-23.552 0-42.667-19.115-42.667-42.667v-682.667c0-23.552 19.115-42.667 42.667-42.667h938.667c23.552 0 42.667 19.115 42.667 42.667v682.667z" />
<glyph unicode="&#xe913;" d="M482.176 230.613c3.413 0.043 6.357 1.963 7.723 4.949l15.787 34.133c0.811 1.877 2.304 3.328 4.181 4.181 4.267 1.963 9.344 0.085 11.307-4.181l15.701-34.133c1.408-3.029 4.437-4.949 7.765-4.949h35.627c2.219 0 4.352-0.896 5.931-2.432 3.371-3.285 3.456-8.661 0.171-12.075l-27.435-28.288c-2.048-2.091-2.859-5.12-2.133-7.979l10.709-43.435c0.512-2.133 0.213-4.352-0.896-6.229-2.304-4.096-7.509-5.547-11.605-3.243l-37.376 21.205c-2.603 1.493-5.803 1.493-8.405 0l-37.419-21.205c-1.877-1.067-4.096-1.365-6.229-0.853-4.565 1.109-7.381 5.717-6.229 10.325l10.667 43.435c0.683 2.859-0.128 5.888-2.176 7.979l-27.392 28.288c-1.536 1.621-2.389 3.755-2.389 5.973 0 4.651 3.712 8.448 8.533 8.533h35.584zM304.384 298.88c3.413 0.043 6.357 1.963 7.765 4.949l15.744 34.133c0.853 1.877 2.347 3.328 4.181 4.181 4.267 1.963 9.344 0.128 11.307-4.181l15.744-34.133c1.365-3.029 4.395-4.949 7.723-4.949h35.627c2.219 0 4.352-0.853 5.931-2.432 3.413-3.243 3.499-8.661 0.213-12.032l-27.435-28.288c-2.091-2.133-2.901-5.12-2.176-7.979l10.709-43.435c0.512-2.133 0.213-4.352-0.853-6.272-2.347-4.096-7.552-5.547-11.648-3.2l-37.333 21.163c-2.603 1.493-5.803 1.493-8.448 0l-37.376-21.205c-1.92-1.067-4.139-1.365-6.272-0.853-4.565 1.152-7.381 5.76-6.229 10.325l10.667 43.477c0.725 2.859-0.085 5.845-2.133 7.979l-27.435 28.288c-1.536 1.579-2.389 3.712-2.389 5.931 0 4.651 3.755 8.448 8.533 8.533h35.584zM659.925 298.88c3.413 0.043 6.357 1.963 7.765 4.949l15.744 34.133c0.853 1.877 2.347 3.328 4.181 4.181 4.267 1.963 9.344 0.128 11.307-4.181l15.744-34.133c1.408-3.029 4.395-4.949 7.765-4.949h35.584c2.219 0 4.352-0.853 5.973-2.432 3.371-3.243 3.456-8.661 0.171-12.032l-27.435-28.288c-2.048-2.133-2.901-5.12-2.176-7.979l10.709-43.477c0.512-2.091 0.213-4.352-0.853-6.229-2.347-4.096-7.552-5.547-11.648-3.2l-37.376 21.163c-2.603 1.493-5.803 1.493-8.405 0l-37.376-21.205c-1.92-1.067-4.139-1.365-6.272-0.853-4.565 1.152-7.339 5.76-6.229 10.325l10.709 43.477c0.683 2.859-0.128 5.845-2.176 7.979l-27.435 28.288c-1.536 1.579-2.389 3.712-2.389 5.931 0 4.651 3.755 8.448 8.533 8.533h35.584zM759.253 482.645c3.413 0.085 6.357 2.005 7.723 4.949l15.787 34.176c0.853 1.835 2.347 3.328 4.181 4.181 4.267 1.963 9.344 0.085 11.307-4.181l15.744-34.133c1.365-3.029 4.395-4.992 7.723-4.992h35.627c2.219 0 4.352-0.853 5.931-2.389 3.371-3.285 3.456-8.704 0.171-12.075l-27.435-28.288c-2.048-2.091-2.859-5.12-2.133-7.979l10.667-43.435c0.555-2.133 0.213-4.352-0.853-6.272-2.304-4.096-7.509-5.504-11.605-3.2l-37.333 21.205c-2.645 1.451-5.845 1.451-8.448 0l-37.419-21.205c-1.877-1.067-4.096-1.408-6.229-0.896-4.565 1.152-7.381 5.76-6.229 10.325l10.667 43.477c0.725 2.859-0.085 5.888-2.133 7.979l-27.435 28.288c-1.536 1.579-2.389 3.712-2.389 5.931 0 4.693 3.712 8.448 8.533 8.533h35.584zM205.056 482.645c3.413 0.085 6.4 2.005 7.765 4.992l15.744 34.133c0.853 1.835 2.347 3.328 4.181 4.181 4.267 1.963 9.344 0.085 11.307-4.181l15.744-34.133c1.408-3.029 4.437-4.992 7.765-4.992h35.627c2.219 0 4.352-0.853 5.931-2.389 3.371-3.285 3.456-8.704 0.171-12.075l-27.435-28.288c-2.048-2.091-2.859-5.12-2.176-7.979l10.709-43.435c0.512-2.133 0.213-4.352-0.853-6.272-2.347-4.096-7.552-5.547-11.648-3.2l-37.376 21.205c-2.603 1.451-5.803 1.451-8.405 0l-37.376-21.205c-1.877-1.067-4.139-1.408-6.229-0.853-4.608 1.109-7.381 5.717-6.272 10.325l10.709 43.435c0.683 2.859-0.128 5.888-2.176 7.979l-27.392 28.288c-1.536 1.579-2.432 3.712-2.432 5.931 0 4.693 3.755 8.448 8.533 8.533h35.584zM304.384 668.544c3.413 0.043 6.357 1.963 7.765 4.949l15.744 34.133c0.853 1.877 2.347 3.328 4.181 4.181 4.267 1.963 9.344 0.128 11.307-4.181l15.744-34.133c1.365-3.029 4.395-4.949 7.723-4.949h35.627c2.219 0 4.352-0.853 5.931-2.432 3.413-3.243 3.499-8.661 0.213-12.032l-27.435-28.288c-2.091-2.133-2.901-5.163-2.176-7.979l10.709-43.435c0.512-2.133 0.213-4.395-0.853-6.272-2.347-4.096-7.552-5.547-11.648-3.2l-37.333 21.163c-2.603 1.493-5.803 1.493-8.448 0l-37.376-21.205c-1.92-1.067-4.139-1.365-6.272-0.853-4.565 1.109-7.381 5.76-6.229 10.325l10.667 43.477c0.725 2.859-0.085 5.845-2.133 7.979l-27.435 28.288c-1.536 1.579-2.389 3.712-2.389 5.931 0 4.651 3.755 8.448 8.533 8.533h35.584zM659.925 668.544c3.413 0.043 6.357 1.963 7.765 4.949l15.744 34.133c0.853 1.877 2.347 3.328 4.181 4.181 4.267 1.963 9.344 0.128 11.307-4.181l15.744-34.133c1.408-3.029 4.395-4.949 7.765-4.949h35.584c2.219 0 4.352-0.853 5.973-2.432 3.371-3.243 3.456-8.661 0.171-12.032l-27.435-28.288c-2.048-2.133-2.901-5.163-2.176-7.979l10.709-43.477c0.512-2.091 0.213-4.352-0.853-6.229-2.347-4.096-7.552-5.547-11.648-3.2l-37.376 21.163c-2.603 1.493-5.803 1.493-8.405 0l-37.376-21.205c-1.92-1.067-4.139-1.365-6.272-0.853-4.565 1.152-7.339 5.76-6.229 10.325l10.709 43.477c0.683 2.859-0.128 5.845-2.176 7.979l-27.435 28.288c-1.536 1.579-2.389 3.712-2.389 5.931 0 4.651 3.755 8.448 8.533 8.533h35.584zM482.176 733.397c3.413 0.043 6.357 2.005 7.723 4.949l15.787 34.176c0.811 1.835 2.304 3.328 4.181 4.181 4.267 1.963 9.344 0.085 11.307-4.181l15.701-34.133c1.408-3.029 4.437-4.992 7.765-4.992h35.584c2.219 0 4.352-0.853 5.973-2.389 3.371-3.285 3.456-8.704 0.171-12.075l-27.435-28.245c-2.048-2.133-2.859-5.163-2.133-8.021l10.709-43.435c0.512-2.133 0.213-4.352-0.896-6.272-2.304-4.096-7.509-5.547-11.605-3.2l-37.376 21.205c-2.603 1.451-5.803 1.451-8.405 0l-37.419-21.205c-1.877-1.109-4.096-1.408-6.229-0.896-4.565 1.152-7.381 5.76-6.272 10.325l10.709 43.52c0.683 2.816-0.128 5.845-2.176 7.936l-27.392 28.288c-1.536 1.579-2.389 3.712-2.389 5.931 0 4.651 3.712 8.448 8.533 8.533h35.584z" />
<glyph unicode="&#xe914;" glyph-name="facebook" d="M834.133 338.773c-1.323-10.752-10.496-18.859-21.333-18.773h-87.467c-11.776 0-21.333-9.557-21.333-21.333v-341.333c0-11.776 9.557-21.333 21.333-21.333h256c23.552 0 42.667 19.115 42.667 42.667v938.667c0 23.552-19.115 42.667-42.667 42.667h-938.667c-23.552 0-42.667-19.115-42.667-42.667v-938.667c0-23.552 19.115-42.667 42.667-42.667h469.333c11.776 0 21.333 9.557 21.333 21.333v341.333c0 11.776-9.557 21.333-21.333 21.333h-85.333c-11.776 0-21.333 9.557-21.333 21.333v128c0 11.776 9.557 21.333 21.333 21.333h85.333c11.776 0 21.333 9.557 21.333 21.333v55.893c0 134.101 108.672 242.773 242.773 242.773h55.893c11.776 0 21.333-9.557 21.333-21.333v-128c0-11.776-9.557-21.333-21.333-21.333h-55.893c-39.808 0-72.107-32.299-72.107-72.107v-55.893c0-11.776 9.557-21.333 21.333-21.333h103.68c6.144 0.043 11.989-2.56 16.085-7.125 4.053-4.565 5.973-10.667 5.248-16.768l-16.213-128z" />
<glyph unicode="&#xe915;" glyph-name="instagram" d="M512 960c-139.051 0-156.501-0.597-211.115-3.072-83.2-3.797-156.288-24.192-214.955-82.859s-79.061-131.755-82.859-214.955c-2.475-54.613-3.072-72.064-3.072-211.115s0.597-156.501 3.072-211.115c3.797-83.2 24.192-156.288 82.859-214.955s131.755-79.061 214.955-82.859c54.613-2.475 72.064-3.072 211.115-3.072s156.501 0.597 211.115 3.072c83.2 3.797 156.288 24.192 214.955 82.859s79.061 131.755 82.859 214.955c2.475 54.613 3.072 72.064 3.072 211.115s-0.597 156.501-3.072 211.115c-3.797 83.2-24.192 156.288-82.859 214.955s-131.755 79.061-214.955 82.859c-54.613 2.475-72.064 3.072-211.115 3.072zM512 867.755c136.704 0 152.917-0.512 206.891-2.987 58.283-2.645 112.341-14.336 153.941-55.936s53.291-95.659 55.936-153.941c2.475-53.973 2.987-70.187 2.987-206.891s-0.512-152.917-2.987-206.891c-2.645-58.283-14.336-112.341-55.936-153.941s-95.659-53.291-153.941-55.936c-53.973-2.475-70.187-2.987-206.891-2.987s-152.917 0.512-206.891 2.987c-58.283 2.645-112.341 14.336-153.941 55.936s-53.291 95.659-55.936 153.941c-2.475 53.973-2.987 70.187-2.987 206.891s0.512 152.917 2.987 206.891c2.645 58.283 14.336 112.341 55.936 153.941s95.659 53.291 153.941 55.936c53.973 2.475 70.187 2.987 206.891 2.987zM512 710.912c-145.195 0-262.912-117.717-262.912-262.912s117.717-262.912 262.912-262.912c145.195 0 262.912 117.717 262.912 262.912s-117.717 262.912-262.912 262.912zM512 277.333c-94.251 0-170.667 76.416-170.667 170.667s76.416 170.667 170.667 170.667c94.251 0 170.667-76.416 170.667-170.667s-76.416-170.667-170.667-170.667zM785.323 782.763c33.92 0 61.44-27.52 61.44-61.44s-27.52-61.44-61.44-61.44c-33.92 0-61.44 27.52-61.44 61.44s27.52 61.44 61.44 61.44z" />
<glyph unicode="&#xe916;" glyph-name="linkedin" d="M242.304 618.667c13.44 0 24.363-10.923 24.363-24.363v-633.941c0-13.44-10.923-24.363-24.363-24.363h-196.608c-13.44 0-24.363 10.923-24.363 24.363v633.941c0 13.44 10.923 24.363 24.363 24.363h196.608zM741.035 643.157l10.923-0.128c142.891 0 245.931-85.205 250.539-260.651l0.171-12.416v-409.6c0-12.117-8.917-22.144-20.565-24.064l-3.968-0.299h-147.2c-12.203 0-22.315 8.832-24.192 20.437l-0.341 3.925v365.739c0 67.328-54.912 121.899-122.667 121.899-65.237 0-118.571-50.603-122.453-114.475l-0.213-7.424v-365.739c0-12.117-8.917-22.144-20.565-24.064l-3.968-0.299h-147.2c-12.203 0-22.315 8.832-24.192 20.437l-0.341 3.925v633.941c0 12.117 8.917 22.144 20.565 24.064l3.968 0.299h147.2c12.203 0 22.315-8.832 24.192-20.437l0.341-3.925c-0.043-8.363 5.163-15.872 13.056-18.816 6.741-2.517 14.251-1.237 19.712 3.157l2.56 2.475c38.187 38.955 90.197 61.141 144.64 62.037zM143.019 960c67.2 0 121.685-54.571 121.685-121.899s-54.485-121.899-121.685-121.899c-67.2 0-121.685 54.571-121.685 121.899s54.485 121.899 121.685 121.899z" />
<glyph unicode="&#xe917;" glyph-name="lock" d="M797.835 530.596v141.428c0 159.045-127.973 287.976-285.835 287.976s-285.835-128.931-285.835-287.976v-141.428c-71.12-35.95-116.139-109.131-116.451-189.296v-191.984c0.117-117.762 94.843-213.198 211.729-213.316h381.113c116.886 0.118 211.613 95.553 211.729 213.316v191.984c-0.312 80.165-45.331 153.346-116.451 189.296zM596.692 258.021c0-47.124-37.918-85.326-84.692-85.326s-84.692 38.202-84.692 85.326c0 47.124 37.918 85.326 84.692 85.326s84.692-38.202 84.692-85.326zM512 853.257c99.33-0.117 179.83-81.202 179.97-181.276v-96.035c0-11.781-9.479-21.332-21.173-21.332h-317.594c-11.693 0-21.173 9.55-21.173 21.332v96.077c0.163 100.057 80.657 181.115 179.97 181.233z" />
<glyph unicode="&#xe918;" glyph-name="long-arrow-left" d="M214.342 384l150.272-146.112c23.424-22.72 25.664-59.008 6.528-84.416l-5.248-6.080c-22.784-23.424-59.008-25.664-84.416-6.528l-6.080 5.248-250.816 243.904c-15.68 15.168-24.576 36.032-24.576 57.984v0 0c0 18.816 6.528 36.8 18.24 51.136l6.272 6.784 250.88 243.968c25.344 24.64 65.856 24.064 90.496-1.28 22.72-23.36 24-59.712 4.16-84.544l-5.44-5.952-150.272-146.112h705.152c35.328 0 64-28.672 64-64 0-32.832-24.704-59.904-56.512-63.552l-7.488-0.448h-705.152z" />
<glyph unicode="&#xe919;" glyph-name="long-arrow-right" d="M617.611 748.618c22.746 23.391 59.021 25.673 84.398 6.505l6.103-5.239 250.825-243.908c15.654-15.201 24.557-36.081 24.557-57.975 0-18.767-6.541-36.788-18.247-51.107l-6.277-6.837-250.858-243.94c-25.341-24.642-65.859-24.075-90.501 1.265-22.746 23.391-24.013 59.715-4.143 84.547l5.408 5.954 216.067 210.117-216.067 210.117c-23.391 22.746-25.673 59.021-6.505 84.398l5.239 6.103zM919.494 512c35.346 0 64-28.654 64-64 0-32.821-24.707-59.872-56.536-63.569l-7.464-0.431h-855.494c-35.346 0-64 28.654-64 64 0 32.821 24.707 59.872 56.536 63.569l7.464 0.431h855.494z" />
<glyph unicode="&#xe91a;" glyph-name="mail" d="M571.733 337.067c-17.536-11.989-38.485-18.005-59.733-17.067-21.248-0.939-42.197 5.077-59.733 17.067l-452.267 243.2v-430.933c0-70.699 57.301-128 128-128h768c70.699 0 128 57.301 128 128v430.933l-452.267-243.2zM896 874.667c70.912-0.213 128-57.429 128-128v-42.667c0.085-15.659-8.021-30.208-21.333-38.4l-469.333-256c-6.571-3.456-13.952-4.949-21.333-4.267-7.381-0.683-14.763 0.811-21.333 4.267l-469.333 256c-13.312 8.192-21.419 22.741-21.333 38.4v42.667c0 70.571 57.088 127.787 128 128h768z" />
<glyph unicode="&#xe91b;" glyph-name="minus" d="M826.259 494.511c47.133-5.036 56.645-86.928 0-93.021-208.303-7.462-416.795-0.123-625.163-0.123-47.754 1.678-64.107 86.617-3.358 93.147 209.361 7.462 419.159 7.462 628.521 0z" />
<glyph unicode="&#xe91c;" d="M736 512c-159.072 0-288-128.928-288-288s128.928-288 288-288c159.072 0 288 128.928 288 288s-128.928 288-288 288zM736 448c123.712 0 224-100.288 224-224s-100.288-224-224-224c-123.712 0-224 100.288-224 224s100.288 224 224 224zM736 269.248l73.376 73.376c12.48 12.512 32.768 12.512 45.248 0 11.552-11.52 12.416-29.696 2.656-42.24l-2.656-3.008-73.376-73.376 73.376-73.376c12.512-12.48 12.512-32.768 0-45.248-11.52-11.552-29.696-12.416-42.24-2.656l-3.008 2.656-73.376 73.376-73.376-73.376c-12.48-12.512-32.768-12.512-45.248 0-11.552 11.52-12.416 29.696-2.656 42.24l2.656 3.008 73.376 73.376-73.376 73.376c-12.512 12.48-12.512 32.768 0 45.248 11.52 11.552 29.696 12.416 42.24 2.656l3.008-2.656 73.376-73.376z" />
<glyph unicode="&#xe91d;" d="M352 256h-256c-51.136 0-92.928 39.968-95.84 90.368l-0.16 5.632v512c0 51.136 39.968 92.928 90.368 95.84l5.632 0.16h704c51.136 0 92.928-39.968 95.84-90.368l0.16-5.632v-256c0-17.664-14.336-32-32-32-16.416 0-29.952 12.352-31.776 28.256l-0.224 3.744v96h-768v-352c0-16.416 12.352-29.952 28.256-31.776l3.744-0.224h256c17.696-0.032 32-14.336 32-32 0-16.416-12.352-29.952-28.256-31.776l-3.744-0.224zM288 416h-128c-17.664 0-32 14.336-32 32 0 16.416 12.352 29.952 28.256 31.776l3.744 0.224h128c17.664 0 32-14.336 32-32 0-16.416-12.352-29.952-28.256-31.776l-3.744-0.224zM416 544h-256c-17.664 0-32 14.336-32 32 0 16.416 12.352 29.952 28.256 31.776l3.744 0.224h256c17.664 0 32-14.336 32-32 0-16.416-12.352-29.952-28.256-31.776l-3.744-0.224zM800 896h-704c-16.448-0.032-29.952-12.384-31.776-28.256l-0.224-3.744v-96h768v96c0 16.416-12.352 29.952-28.256 31.776l-3.744 0.224z" />
<glyph unicode="&#xe91e;" glyph-name="plus" d="M467.517 495.379c0.85 78.661 1.983 157.313 1.983 235.974 0.85 24.314 13.936 43.518 45.564 42.385 20.851-2.267 37.117-18.585 39.331-39.331 2.833-79.679 3.347-159.359 2.886-239.028 80.361-0.451 160.775-2.099 241.127-4.985 42.951-4.586 51.629-79.228 0-84.779-80.582-2.886-161.227-3.347-241.924-2.833-0.797-79.396-1.983-158.792-1.983-238.125-1.585-44.263-79.165-56.499-84.895-3.064-2.886 80.582-3.347 161.227-2.833 241.924-79.396 0.797-158.792 1.983-238.125 1.983-43.518 1.532-58.429 78.945-3.064 84.895 80.582 2.886 161.279 4.533 241.924 4.985z" />
<glyph unicode="&#xe91f;" glyph-name="privacy" d="M1002.667 876.501c-0.043 34.304-27.819 62.123-62.123 62.165h-857.088c-34.304-0.043-62.080-27.861-62.123-62.165v-311.168c0.811-291.115 202.539-543.104 486.4-607.573 2.816-0.555 5.717-0.555 8.533 0 283.861 64.469 485.589 316.459 486.4 607.573v311.168zM746.667 265.899c0-11.776-9.557-21.333-21.333-21.333h-426.667c-11.776 0-21.333 9.557-21.333 21.333 0.896 29.397 7.979 58.325 20.779 84.821 15.744 31.531 64 49.323 131.115 73.941l8.107 3.029c4.181 1.536 6.955 5.547 6.955 9.984v19.243c0 2.688-1.024 5.291-2.859 7.296-12.757 13.397-21.077 30.336-23.936 48.597-0.256 1.707-0.896 3.285-1.92 4.651-3.84 5.589-6.571 11.861-8.021 18.517-3.584 13.397-2.133 27.648 4.139 40.021 1.365 2.475 1.664 5.376 0.896 8.107-11.605 27.051-10.795 57.813 2.261 84.181 6.101 8.235 14.848 14.123 24.747 16.725 2.005 0.555 3.797 1.707 5.163 3.243 23.595 19.669 54.144 28.885 84.651 25.6 41.6-0.981 88.704-15.445 96.256-53.12 2.603-26.539-1.877-53.291-13.056-77.483-1.067-2.773-0.896-5.888 0.427-8.533 5.632-12.075 6.827-25.728 3.413-38.613-1.451-6.613-4.181-12.885-8.021-18.475-1.024-1.365-1.664-2.987-1.92-4.651-2.859-18.261-11.179-35.243-23.936-48.64-1.835-2.005-2.859-4.608-2.859-7.296v-19.243c0-4.437 2.773-8.448 6.955-9.984l8.107-3.029c66.987-24.619 115.2-42.411 131.115-73.941 12.8-26.539 19.883-55.509 20.779-84.949z" />
<glyph unicode="&#xe920;" d="M714.88-9.805c-0.154 180.634-2.202 361.293 0.077 541.926 1.178 30.874 27.648 57.574 58.778 58.778 43.11 0.538 86.246 0.87 129.382 0.307 30.874-1.152 57.574-27.622 58.778-58.778 2.278-180.736 0.23-361.498 0.077-542.234h34.944c1.050-0.051 2.099-0.128 3.149-0.179 52.173-9.216 20.762-52.045-3.149-53.709h-61.926l-193.075-0.333-2.381 0.333h-138.445l-193.075-0.333-2.458 0.333h-139.546c-63.949-2.048-127.949-0.23-191.923-0.333l-2.662 0.333h-44.518c-53.53 3.098-25.446 52.403 0 53.888h19.661c-1.536 69.299-0.333 138.675 0.563 208 1.178 30.899 27.648 57.6 58.778 58.778 43.11 0.563 86.246 0.87 129.382 0.333 30.899-1.178 57.6-27.648 58.778-58.778 0.87-69.453 0.205-138.931 0.102-208.333h86.758c-0.128 136.115-1.613 272.23 0.102 408.346 1.178 30.899 27.648 57.6 58.778 58.778 43.136 0.563 86.272 0.87 129.382 0.333 30.899-1.178 57.6-27.648 58.778-58.778 1.741-136.218 0.23-272.435 0.102-408.678h86.81zM240.179-9.805v206.618c0 14.413-77.926 6.426-132.531 6.298-3.763-0.051-6.605-2.56-6.656-6.63v-206.285h139.187zM574.106-9.805v406.963c0 14.438-77.952 6.426-132.531 6.298-3.789-0.051-6.605-2.534-6.656-6.63v-406.63h139.187zM908.006-9.805v540.544c0 14.413-77.952 6.426-132.531 6.272-3.763-0.051-6.605-2.534-6.656-6.605v-540.211h139.187z" />
<glyph unicode="&#xe921;" d="M801.306 879.002l-83.789 31.437c-13.594 5.53-13.235 9.83-15.232 15.667-5.35 15.616 6.886 33.894 24.934 33.894 49.766-2.79 99.891-35.994 149.939-54.784 2.918-1.178 5.325-2.816 7.194-4.864 9.523-8.166 12.902-22.323 5.248-33.28-5.914-36.096-33.229-90.163-50.611-136.499-9.779-23.987-59.853-16.614-47.949 17.997l31.462 83.814-659.123-299.315c-46.592-18.304-44.493 34.509-21.171 46.618l659.098 299.315z" />
<glyph unicode="&#xe922;" d="M530.97 956.109c14.643-0.922 28.672-6.042 40.115-15.053l94.771-76.518c79.795 3.994 170.445 22.886 190.669-43.085l32.179-118.835c67.354-43.981 151.373-81.613 128.947-146.918l-43.802-115.072c28.518-74.88 74.419-155.034 17.92-194.662l-103.091-67.123c-21.171-77.875-32.077-170.778-101.453-168.038l-121.549 6.067-97.229-78.080c-24.832-13.67-57.344 20.173-31.258 43.802l102.656 82.688c8.627 6.221 11.674 5.914 18.253 5.914 43.853-2.176 87.706-4.352 131.533-6.554 6.989-0.333 13.261 4.352 15.13 11.034l34.611 127.206c3.328 10.138 5.99 11.648 11.29 15.514 50.611 32.947 125.21 64.691 116.045 89.6l-46.874 123.059c-3.277 10.112-2.022 12.902 0 19.174 15.616 41.037 31.232 82.074 46.874 123.085 2.458 6.451-0.026 13.926-5.786 17.792l-110.285 72.013c-22.656 16.538-25.318 89.216-46.234 144.333-2.304 5.734-8.243 9.549-14.592 9.318l-131.533-6.554c-28.083 0.051-72.909 57.37-122.24 89.728-5.248 3.302-12.314 2.893-17.28-1.024l-102.554-82.765c-22.784-16.512-92.877 3.533-151.578 0.742-6.195-0.435-11.648-4.89-13.363-10.982l-34.406-127.155c-8.73-26.65-77.107-51.686-122.982-88.55-4.736-3.994-6.554-10.803-4.352-16.768l46.899-123.085c3.277-10.138 2.022-12.928 0-19.174l-20.122-52.787c-22.17-49.357-58.419-6.323-50.355 19.2l16.461 43.187c-28.39 74.496-74.419 155.059-17.971 194.662l103.066 67.328c20.941 77.363 30.95 169.216 99.942 168.013l122.931-6.221c49.562 40.013 89.6 92.595 140.595 91.546z" />
<glyph unicode="&#xe923;" d="M418.79 621.235l-4.634 7.296c-10.829 18.714-4.608 43.622 25.958 41.216 14.592-2.355 16.41-7.808 19.533-12.339l282.675-445.338c7.194-12.39 4.787-15.283 3.43-20.838-4.966-20.326-35.456-27.469-48.922-8.038l-3.814 5.99-245.018-76.672c41.702-102.63-113.306-259.84-209.357-122.982-10.496 15.795-23.706 31.872-33.229 47.104l-80.102-25.062c4.736-22.426-26.88-51.482-47.462-23.117-45.696 68.813-115.84 161.664-50.79 159.462 4.864-0.358 9.677-2.304 14.336-5.632l377.395 478.95zM394.752 95.872l-134.63-42.112c11.955-20.454 23.859-39.987 40.448-51.098 30.925-20.736 77.875-7.706 95.437 27.034 10.419 20.582 5.171 44.621-1.254 66.176zM76.493 99.738c7.578-12.339 15.155-26.061 22.733-39.859l291.866 91.315c2.765 1.946 6.656 3.226 11.827 3.686l260.198 81.408-213.709 336.691-372.915-473.242z" />
<glyph unicode="&#xe924;" d="M215.373 332.237c-77.491 25.165-169.523 41.114-191.77 79.974-42.035 73.395 98.381 170.138 233.267 169.677 45.747-0.563 101.018-10.266 135.194-26.138 96.205 97.357 192.486 194.637 289.766 290.918 58.47 56.602 135.117 92.877 215.68 102.272l100.762 11.059c0.896-0.051 1.792-0.077 2.688-0.128 37.197-5.734 17.971-74.906 11.546-130.176-10.266-80.614-47.232-156.698-104.525-214.554l-287.565-289.382c5.632-14.797 9.6-32.87 14.746-49.050 34.125-110.362-1.741-240.538-88.448-314.419-9.344-7.45-20.634-11.341-32.154-12.058l-3.482-0.102c-24.294-0.154-48.947 13.542-58.24 37.555-19.635 56.090-49.715 121.651-54.656 161.638l-182.81 182.912zM579.149 283.034c-42.726-42.624-85.478-85.274-128.205-127.898 16.589-49.766 33.203-99.533 49.792-149.274 1.613-4.838 4.352-7.27 7.91-7.552h1.562c30.208 2.432 109.67 137.907 79.155 252.595-1.459 5.427-3.123 10.803-4.864 16.154l-5.35 15.974zM265.293 354.688l156.314-156.365c151.603 152.576 305.101 303.283 454.81 457.754 47.36 49.894 77.696 114.816 85.658 183.219l7.347 66.125c-22.042-2.458-44.083-4.915-66.125-7.347-70.579-8.243-137.446-40.32-188.032-90.368l-295.347-297.267c-1.126-1.741-2.509-3.456-4.147-5.222l-150.477-150.528zM349.261 512.461c-31.36 10.394-63.642 18.381-97.024 18.202-68.941-0.947-139.802-28.851-183.552-83.686-3.354-4.454-1.28-11.264 4.198-13.184l149.222-49.766 127.155 128.435zM770.611 755.149c57.446-4.378 52.378-130.022-22.554-98.33-41.574 17.613-44.698 100.019 22.554 98.33z" />
<glyph unicode="&#xe925;" d="M188.826 268.774c26.035-2.202 35.251-46.72-4.838-51.635-69.632-10.138-91.315-115.2-116.941-195.584 0 0-10.163-13.056 16.358-4.454 76.416 24.755 183.347 35.302 187.29 126.157 0 0 62.336 64.077 49.741-20.762-15.437-104.038-163.277-138.957-287.846-174.362 0 0-40.346 1.382-29.056 40.499 37.325 126.95 71.782 271.642 182.016 280.090 1.638 0.077 1.613 0.077 3.277 0.051z" />
<glyph unicode="&#xe926;" glyph-name="search" d="M980.751 126.645l-187.633 187.633c-8.493 8.493-19.998 13.192-32.045 13.192h-30.66c51.923 66.44 82.824 150.046 82.824 241.001 0 216.245-175.285 391.529-391.59 391.529-216.245 0-391.529-175.285-391.529-391.529 0-216.305 175.285-391.59 391.529-391.59 90.955 0 174.562 30.901 241.001 82.824v-30.66c0-12.047 4.698-23.552 13.192-32.045l187.633-187.633c17.709-17.709 46.321-17.709 63.849 0l53.248 53.248c17.709 17.709 17.709 46.321 0.181 64.030zM421.647 327.469c-133.060 0-240.941 107.701-240.941 241.001 0 133.060 107.701 240.941 240.941 240.941 133.12 0 241.001-107.701 241.001-240.941 0-133.12-107.701-241.001-241.001-241.001z" />
<glyph unicode="&#xe927;" glyph-name="slack" d="M375.467 413.867c56.533 0 102.4-45.867 102.4-102.4v-273.067c0-56.533-45.867-102.4-102.4-102.4s-102.4 45.867-102.4 102.4v273.067c0 56.533 45.867 102.4 102.4 102.4zM648.533 140.8c56.533 0 102.4-45.867 102.4-102.4s-45.867-102.4-102.4-102.4c-56.533 0-102.4 45.867-102.4 102.4v102.4h102.4zM921.6 413.867c56.533 0 102.4-45.867 102.4-102.4s-45.867-102.4-102.4-102.4h-273.067c-56.533 0-102.4 45.867-102.4 102.4s45.867 102.4 102.4 102.4h273.067zM204.8 413.867v-102.4c0-56.533-45.867-102.4-102.4-102.4s-102.4 45.867-102.4 102.4c0 56.533 45.867 102.4 102.4 102.4h102.4zM648.533 960c56.533 0 102.4-45.867 102.4-102.4v-273.067c0-56.533-45.867-102.4-102.4-102.4s-102.4 45.867-102.4 102.4v273.067c0 56.533 45.867 102.4 102.4 102.4zM375.467 686.933c56.533 0 102.4-45.867 102.4-102.4s-45.867-102.4-102.4-102.4h-273.067c-56.533 0-102.4 45.867-102.4 102.4s45.867 102.4 102.4 102.4h273.067zM921.6 686.933c56.533 0 102.4-45.867 102.4-102.4s-45.867-102.4-102.4-102.4h-102.4v102.4c0 56.533 45.867 102.4 102.4 102.4zM375.467 960c56.533 0 102.4-45.867 102.4-102.4v-102.4h-102.4c-56.533 0-102.4 45.867-102.4 102.4s45.867 102.4 102.4 102.4z" />
<glyph unicode="&#xe928;" d="M704 832v96c0 17.664 14.336 32 32 32 16.416 0 29.952-12.352 31.776-28.256l0.224-3.744v-96h160c53.056-0.032 96-43.008 96-96v-704c0-53.024-42.976-96-96-96h-832c-53.024 0-96 42.976-96 96v704c0 52.992 42.944 95.968 96 96h160v96c0 17.664 14.336 32 32 32 16.416 0 29.952-12.352 31.776-28.256l0.224-3.744v-96h384zM960 512h-896v-480c0-17.664 14.336-32 32-32h832c17.696 0.032 32 14.336 32 32v480zM768 768v-64c0-17.664-14.336-32-32-32-16.416 0-29.952 12.352-31.776 28.256l-0.224 3.744v64h-384v-64c0-17.664-14.336-32-32-32-16.416 0-29.952 12.352-31.776 28.256l-0.224 3.744v64h-160c-17.664 0-32-14.336-32-32v-160h896v160c0 17.664-14.336 32-32 32h-160z" />
<glyph unicode="&#xe929;" d="M382.080 234.848c-41.184-0.032-42.624 59.616-4.288 63.744l8.064 0.448c14.88 1.76 26.752 13.76 28.096 28.992 1.44 16.544-9.984 31.424-26.336 34.304-15.072 2.656-29.728-5.728-35.264-19.648l-1.184-3.584c-4.576-17.056-22.112-27.2-39.2-22.624-17.056 4.576-27.2 22.112-22.624 39.2 12.864 48.064 60.352 78.336 109.376 69.696s83.328-53.312 78.976-102.912c-1.632-18.656-8.512-35.648-19.104-49.632l-4.992-5.984 0.736-0.768c11.776-13.44 19.904-30.272 22.688-48.928l0.704-5.664c4.48-49.472-29.536-94.208-78.432-103.104-48.864-8.896-96.48 20.96-109.728 68.864-4.704 17.024 5.28 34.656 22.336 39.36 15.808 4.384 32.128-3.936 38.144-18.784l1.216-3.52c4.416-15.968 20.288-25.92 36.576-22.944 16.288 2.944 27.616 17.856 26.144 34.368-1.376 15.2-13.28 27.136-28.128 28.896l-3.776 0.224zM638.080 426.848c-53.024 0-96-43.008-96-96v-128c0-53.024 42.976-96 96-96s96 42.976 96 96v128c0 52.992-42.976 96-96 96zM638.080 362.848c17.664 0 32-14.336 32-32v-128c0-17.696-14.336-32-32-32s-32 14.304-32 32v128c0 17.664 14.336 32 32 32z" />
<glyph unicode="&#xe92a;" glyph-name="twitter" d="M1024 763.733c-38.4-17.067-76.8-29.867-119.467-34.133 42.667 25.6 76.8 68.267 93.867 115.2-42.667-25.6-85.333-42.667-132.267-51.2-38.4 42.667-93.867 68.267-153.6 68.267-115.2 0-209.067-93.867-209.067-209.067 0-17.067 0-34.133 4.267-46.933-179.2 8.533-332.8 93.867-435.2 221.867-21.333-34.133-29.867-68.267-29.867-106.667 0-72.533 38.4-136.533 93.867-174.933-34.133 0-68.267 8.533-93.867 25.6v-4.267c0-102.4 72.533-187.733 166.4-204.8-17.067-4.267-34.133-8.533-55.467-8.533-12.8 0-25.6 0-38.4 4.267 25.6-85.333 102.4-145.067 196.267-145.067-72.533-55.467-162.133-89.6-260.267-89.6-17.067 0-34.133 0-51.2 4.267 93.867-59.733 204.8-93.867 320-93.867 388.267 0 597.333 320 597.333 597.333v25.6c42.667 29.867 76.8 68.267 106.667 106.667z" />
<glyph unicode="&#xe92b;" glyph-name="xing" d="M1002.667 960c7.936-0.256 14.635-4.267 18.347-10.667 3.797-6.613 3.797-14.72 0-21.333l-335.36-585.813 213.333-374.187c3.797-6.571 3.797-14.677 0.043-21.291-3.797-6.571-10.795-10.667-18.389-10.709h-229.12c-7.595 0.043-14.549 4.096-18.347 10.667l-219.307 384c-3.797 6.613-3.797 14.72 0 21.333l341.333 597.333c3.712 6.4 10.411 10.411 18.347 10.667h229.12zM279.893 789.333c8.192-0.213 15.104-4.395 18.773-11.093l128-232.533c3.797-6.613 3.797-14.72 0-21.333l-170.667-279.467c-3.883-6.4-10.837-10.283-18.347-10.24h-216.32c-7.723-0.043-14.891 4.096-18.688 10.837s-3.669 14.976 0.341 21.589l163.84 268.8-121.6 221.867c-3.627 6.613-3.499 14.677 0.384 21.163 3.755 6.315 10.496 10.24 18.389 10.411h215.893z" />
<glyph unicode="&#xea0f;" glyph-name="cross" d="M1014.662 137.34c-0.004 0.004-0.008 0.008-0.012 0.010l-310.644 310.65 310.644 310.65c0.004 0.004 0.008 0.006 0.012 0.010 3.344 3.346 5.762 7.254 7.312 11.416 4.246 11.376 1.824 24.682-7.324 33.83l-146.746 146.746c-9.148 9.146-22.45 11.566-33.828 7.32-4.16-1.55-8.070-3.968-11.418-7.31 0-0.004-0.004-0.006-0.008-0.010l-310.648-310.652-310.648 310.65c-0.004 0.004-0.006 0.006-0.010 0.010-3.346 3.342-7.254 5.76-11.414 7.31-11.38 4.248-24.682 1.826-33.83-7.32l-146.748-146.748c-9.148-9.148-11.568-22.452-7.322-33.828 1.552-4.16 3.97-8.072 7.312-11.416 0.004-0.002 0.006-0.006 0.010-0.010l310.65-310.648-310.65-310.652c-0.002-0.004-0.006-0.006-0.008-0.010-3.342-3.346-5.76-7.254-7.314-11.414-4.248-11.376-1.826-24.682 7.322-33.83l146.748-146.746c9.15-9.148 22.452-11.568 33.83-7.322 4.16 1.552 8.070 3.97 11.416 7.312 0.002 0.004 0.006 0.006 0.010 0.010l310.648 310.65 310.648-310.65c0.004-0.002 0.008-0.006 0.012-0.008 3.348-3.344 7.254-5.762 11.414-7.314 11.378-4.246 24.684-1.826 33.828 7.322l146.746 146.748c9.148 9.148 11.57 22.454 7.324 33.83-1.552 4.16-3.97 8.068-7.314 11.414z" />
</font>
</defs>
</svg>
