<?xml version="1.0" standalone="no"?>
<!DOCTYPE svg PUBLIC "-//W3C//DTD SVG 20010904//EN"
 "http://www.w3.org/TR/2001/REC-SVG-20010904/DTD/svg10.dtd">
<svg version="1.0" xmlns="http://www.w3.org/2000/svg"
 width="700.000000pt" height="700.000000pt" viewBox="0 0 700.000000 700.000000"
 preserveAspectRatio="xMidYMid meet">
<metadata>
Created by potrace 1.11, written by Peter Selinger 2001-2013
</metadata>
<g transform="translate(0.000000,700.000000) scale(0.100000,-0.100000)"
fill="#000000" stroke="none">
<path d="M629 6636 c-103 -28 -199 -111 -247 -214 l-27 -57 0 -2865 0 -2865
32 -66 c39 -80 111 -150 191 -187 l57 -27 2865 0 2865 0 66 32 c80 39 150 111
187 191 l27 57 0 2865 0 2865 -27 57 c-37 80 -107 152 -187 191 l-66 32 -2845
2 c-2233 1 -2855 -1 -2891 -11z m2018 -1130 c74 -34 138 -97 176 -175 30 -62
32 -72 32 -176 0 -98 -3 -116 -27 -167 -38 -81 -105 -149 -181 -184 -80 -36
-186 -39 -260 -6 -151 68 -248 255 -218 421 21 113 88 216 177 271 84 53 205
59 301 16z m2000 -7 c126 -61 205 -211 188 -354 -18 -145 -499 -1476 -772
-2135 -302 -729 -653 -1210 -1101 -1511 -122 -82 -186 -104 -284 -97 -176 13
-320 157 -321 322 0 124 44 201 180 314 317 262 414 374 535 610 46 88 47 94
35 125 -8 18 -152 364 -321 770 l-308 738 4 87 c6 146 70 247 196 309 50 25
68 28 153 28 90 0 100 -2 165 -35 48 -25 79 -49 104 -82 25 -34 93 -194 245
-582 116 -294 213 -532 217 -528 3 4 144 430 312 947 190 584 317 957 334 985
75 121 286 164 439 89z"/>
<path d="M642 308 c30 -8 5686 -8 5716 0 13 4 -1273 7 -2858 7 -1585 0 -2871
-3 -2858 -7z"/>
</g>
</svg>
