<?xml version="1.0" encoding="UTF-8"?>
<svg width="516px" height="402px" viewBox="0 0 516 402" version="1.1" xmlns="http://www.w3.org/2000/svg" xmlns:xlink="http://www.w3.org/1999/xlink">
    <title>automate-your-processes</title>
    <defs>
        <rect id="path-1" x="0" y="0" width="445" height="324" rx="8"></rect>
        <path d="M6.07448806,8.58693226 L6.07448806,7.05773026 L7.66053771,7.05773026 L7.66053771,6.25902067 L6.07448806,6.25902067 L6.07448806,5.3238767 L7.82255353,5.3238767 L7.82255353,4.48537374 L5.03133354,4.48537374 L5.03133354,8.58693226 L6.07448806,8.58693226 Z M11.3726898,8.58693226 L11.3726898,7.72569024 L9.63030905,7.72569024 L9.63030905,4.48537374 L8.58715453,4.48537374 L8.58715453,8.58693226 L11.3726898,8.58693226 Z M12.8905222,8.58693226 L13.1548638,7.68589688 L14.4936262,7.68589688 L14.7494406,8.58693226 L15.8863938,8.58693226 L14.5078381,4.48537374 L13.2316082,4.48537374 L11.8558949,8.58693226 L12.8905222,8.58693226 Z M14.2975018,6.9355078 L13.3538306,6.9355078 L13.8029271,5.40914818 L13.8569324,5.40914818 L14.2975018,6.9355078 Z M18.2256749,8.69778519 C19.3853671,8.69778519 20.0874357,8.00708615 20.0874357,6.87866014 L20.0874357,6.34997692 L18.3308431,6.34997692 L18.3308431,7.06625741 L19.0812322,7.06625741 L19.0783898,7.1344746 C19.0528083,7.5494625 18.7230919,7.82801602 18.248414,7.82801602 C17.6515136,7.82801602 17.2677919,7.3334414 17.2677919,6.52051989 C17.2677919,5.7218103 17.6145626,5.24428998 18.1972511,5.24428998 C18.6065542,5.24428998 18.9135316,5.46315346 19.0158574,5.82413609 L20.0448,5.82413609 C19.9424742,4.9572093 19.1977699,4.37452081 18.1972511,4.37452081 C16.9664993,4.37452081 16.2047407,5.19881185 16.2047407,6.53188943 C16.2047407,7.8820213 16.9636569,8.69778519 18.2256749,8.69778519 Z M22.6939008,8.69778519 C23.853593,8.69778519 24.5556616,8.00708615 24.5556616,6.87866014 L24.5556616,6.34997692 L22.799069,6.34997692 L22.799069,7.06625741 L23.5494581,7.06625741 L23.5466157,7.1344746 C23.5210342,7.5494625 23.1913178,7.82801602 22.7166399,7.82801602 C22.1197395,7.82801602 21.7360178,7.3334414 21.7360178,6.52051989 C21.7360178,5.7218103 22.0827885,5.24428998 22.665477,5.24428998 C23.0747801,5.24428998 23.3817575,5.46315346 23.4840833,5.82413609 L24.5130259,5.82413609 C24.4107001,4.9572093 23.6659958,4.37452081 22.665477,4.37452081 C21.4347252,4.37452081 20.6729666,5.19881185 20.6729666,6.53188943 C20.6729666,7.8820213 21.4318828,8.69778519 22.6939008,8.69778519 Z M28.1455912,8.58693226 L28.1455912,7.7484293 L26.377629,7.7484293 L26.377629,6.90992635 L28.040423,6.90992635 L28.040423,6.14248297 L26.377629,6.14248297 L26.377629,5.3238767 L28.1455912,5.3238767 L28.1455912,4.48537374 L25.3344745,4.48537374 L25.3344745,8.58693226 L28.1455912,8.58693226 Z M30.7577411,8.58693226 C31.9913352,8.58693226 32.6763495,7.84222794 32.6763495,6.49493845 C32.6763495,5.21302376 31.9799657,4.48537374 30.7577411,4.48537374 L29.035257,4.48537374 L29.035257,8.58693226 L30.7577411,8.58693226 Z M30.5701438,7.7484293 L30.0784116,7.7484293 L30.0784116,5.3238767 L30.5701438,5.3238767 C31.2267343,5.3238767 31.6132983,5.75023413 31.6132983,6.51483513 C31.6132983,7.32775663 31.2466309,7.7484293 30.5701438,7.7484293 Z" id="path-3"></path>
        <path d="M5.72213617,8.58693226 L5.98647778,7.68589688 L7.32524012,7.68589688 L7.58105458,8.58693226 L8.71800773,8.58693226 L7.33945203,4.48537374 L6.06322211,4.48537374 L4.6875088,8.58693226 L5.72213617,8.58693226 Z M7.1291157,6.9355078 L6.18544458,6.9355078 L6.63454108,5.40914818 L6.68854635,5.40914818 L7.1291157,6.9355078 Z M10.8668492,8.58693226 L11.5404939,6.07426578 L11.5916568,6.07426578 L12.2766711,8.58693226 L13.2544508,8.58693226 L14.3260292,4.48537374 L13.2516084,4.48537374 L12.7143981,7.20553417 L12.6632352,7.20553417 L11.9839057,4.48537374 L11.1482451,4.48537374 L10.4916547,7.20553417 L10.4404918,7.20553417 L9.89475425,4.48537374 L8.81180637,4.48537374 L9.88338472,8.58693226 L10.8668492,8.58693226 Z M15.4572976,8.58693226 L15.7216392,7.68589688 L17.0604015,7.68589688 L17.316216,8.58693226 L18.4531691,8.58693226 L17.0746134,4.48537374 L15.7983835,4.48537374 L14.4226702,8.58693226 L15.4572976,8.58693226 Z M16.8642771,6.9355078 L15.920606,6.9355078 L16.3697025,5.40914818 L16.4237077,5.40914818 L16.8642771,6.9355078 Z M20.1841803,8.58693226 L20.1841803,4.48537374 L19.1410258,4.48537374 L19.1410258,8.58693226 L20.1841803,8.58693226 Z M23.1487857,8.58693226 L23.1487857,5.3238767 L24.3340593,5.3238767 L24.3340593,4.48537374 L20.9260422,4.48537374 L20.9260422,5.3238767 L22.1084735,5.3238767 L22.1084735,8.58693226 L23.1487857,8.58693226 Z M26.1190758,8.58693226 L26.1190758,4.48537374 L25.0759213,4.48537374 L25.0759213,8.58693226 L26.1190758,8.58693226 Z M28.0746352,8.58693226 L28.0746352,6.25617829 L28.1286405,6.25617829 L29.8425974,8.58693226 L30.6697308,8.58693226 L30.6697308,4.48537374 L29.6805815,4.48537374 L29.6805815,6.79338865 L29.6265763,6.79338865 L27.9183042,4.48537374 L27.085486,4.48537374 L27.085486,8.58693226 L28.0746352,8.58693226 Z M33.4637932,8.69778519 C34.6234854,8.69778519 35.325554,8.00708615 35.325554,6.87866014 L35.325554,6.34997692 L33.5689613,6.34997692 L33.5689613,7.06625741 L34.3193504,7.06625741 L34.316508,7.1344746 C34.2909266,7.5494625 33.9612102,7.82801602 33.4865322,7.82801602 C32.8896318,7.82801602 32.5059101,7.3334414 32.5059101,6.52051989 C32.5059101,5.7218103 32.8526809,5.24428998 33.4353693,5.24428998 C33.8446725,5.24428998 34.1516498,5.46315346 34.2539756,5.82413609 L35.2829182,5.82413609 C35.1805924,4.9572093 34.4358881,4.37452081 33.4353693,4.37452081 C32.2046176,4.37452081 31.4428589,5.19881185 31.4428589,6.53188943 C31.4428589,7.8820213 32.2017752,8.69778519 33.4637932,8.69778519 Z" id="path-4"></path>
        <path d="M7.14351837,8.58693226 C8.37711254,8.58693226 9.06212682,7.84222794 9.06212682,6.49493845 C9.06212682,5.21302376 8.36574301,4.48537374 7.14351837,4.48537374 L5.42103434,4.48537374 L5.42103434,8.58693226 L7.14351837,8.58693226 Z M6.9559211,7.7484293 L6.46418886,7.7484293 L6.46418886,5.3238767 L6.9559211,5.3238767 C7.61251154,5.3238767 7.99907562,5.75023413 7.99907562,6.51483513 C7.99907562,7.32775663 7.63240823,7.7484293 6.9559211,7.7484293 Z M11.6657495,8.69778519 C12.8993437,8.69778519 13.6866838,7.87065177 13.6866838,6.53473181 C13.6866838,5.20165423 12.8965013,4.37452081 11.6657495,4.37452081 C10.4321554,4.37452081 9.64197293,5.20165423 9.64197293,6.53473181 C9.64197293,7.87065177 10.4264706,8.69778519 11.6657495,8.69778519 Z M11.6657495,7.83370079 C11.0830611,7.83370079 10.7050241,7.32775663 10.7050241,6.53473181 C10.7050241,5.74454936 11.0887458,5.23860521 11.6657495,5.23860521 C12.2399109,5.23860521 12.6236326,5.74454936 12.6236326,6.53473181 C12.6236326,7.32775663 12.2399109,7.83370079 11.6657495,7.83370079 Z M15.4489612,8.58693226 L15.4489612,6.25617829 L15.5029664,6.25617829 L17.2169233,8.58693226 L18.0440568,8.58693226 L18.0440568,4.48537374 L17.0549075,4.48537374 L17.0549075,6.79338865 L17.0009022,6.79338865 L15.2926301,4.48537374 L14.4598119,4.48537374 L14.4598119,8.58693226 L15.4489612,8.58693226 Z M21.8215836,8.58693226 L21.8215836,7.7484293 L20.0536215,7.7484293 L20.0536215,6.90992635 L21.7164154,6.90992635 L21.7164154,6.14248297 L20.0536215,6.14248297 L20.0536215,5.3238767 L21.8215836,5.3238767 L21.8215836,4.48537374 L19.0104669,4.48537374 L19.0104669,8.58693226 L21.8215836,8.58693226 Z" id="path-5"></path>
        <rect id="path-6" x="203.212818" y="61.4968022" width="429" height="114.483603" rx="7.76160021"></rect>
        <filter x="-2.6%" y="-9.6%" width="106.1%" height="122.7%" filterUnits="objectBoundingBox" id="filter-7">
            <feOffset dx="2" dy="2" in="SourceAlpha" result="shadowOffsetOuter1"></feOffset>
            <feGaussianBlur stdDeviation="4" in="shadowOffsetOuter1" result="shadowBlurOuter1"></feGaussianBlur>
            <feColorMatrix values="0 0 0 0 0.97254902   0 0 0 0 0.88627451   0 0 0 0 0.882352941  0 0 0 1 0" type="matrix" in="shadowBlurOuter1"></feColorMatrix>
        </filter>
        <path d="M166.900357,105.717603 C168.657713,105.717603 169.876931,104.607694 169.876931,102.917606 C169.876931,101.227517 168.657713,100.1092 166.900357,100.1092 L164.688948,100.1092 L164.688948,105.717603 L166.900357,105.717603 Z M166.900357,104.666553 L165.882941,104.666553 L165.882941,101.16025 L166.900357,101.16025 C168.052308,101.16025 168.657713,101.925415 168.657713,102.917606 C168.657713,103.867755 168.010266,104.666553 166.900357,104.666553 Z M171.852905,105.818504 C172.382634,105.818504 172.861913,105.625111 173.13939,105.297183 L173.13939,105.717603 L174.207257,105.717603 L174.207257,103.094182 C174.207257,101.925415 173.358009,101.555445 172.433085,101.555445 C171.794046,101.555445 171.155008,101.757247 170.658912,102.194484 L171.062515,102.909198 C171.40726,102.589678 171.810863,102.429919 172.2481,102.429919 C172.786237,102.429919 173.13939,102.698988 173.13939,103.110999 L173.13939,103.674362 C172.870321,103.346434 172.391043,103.178266 171.852905,103.178266 C171.205458,103.178266 170.440294,103.523011 170.440294,104.47316 C170.440294,105.381267 171.205458,105.818504 171.852905,105.818504 Z M172.281733,105.095382 C171.861313,105.095382 171.516569,104.876763 171.516569,104.498385 C171.516569,104.10319 171.861313,103.884572 172.281733,103.884572 C172.626478,103.884572 172.962814,104.00229 173.13939,104.237725 L173.13939,104.742229 C172.962814,104.977664 172.626478,105.095382 172.281733,105.095382 Z M175.653502,107.36565 C176.351399,107.348833 176.889537,107.147031 177.192239,106.381867 L179.100946,101.656346 L177.948995,101.656346 L176.889537,104.481568 L175.830078,101.656346 L174.686536,101.656346 L176.334582,105.776462 L176.183231,106.121206 C176.08233,106.339825 175.897346,106.4155 175.619868,106.4155 C175.518968,106.4155 175.376025,106.390275 175.283532,106.348233 L175.123773,107.306791 C175.258307,107.340424 175.527376,107.36565 175.653502,107.36565 Z M182.262505,101.059349 C182.615657,101.059349 182.901543,100.773464 182.901543,100.420311 C182.901543,100.067158 182.615657,99.7812727 182.262505,99.7812727 C181.91776,99.7812727 181.623466,100.067158 181.623466,100.420311 C181.623466,100.773464 181.91776,101.059349 182.262505,101.059349 Z M182.800642,105.717603 L182.800642,101.656346 L181.732775,101.656346 L181.732775,105.717603 L182.800642,105.717603 Z M184.927967,105.717603 L184.927967,102.984873 C185.104544,102.74103 185.432471,102.505594 185.852891,102.505594 C186.306945,102.505594 186.601239,102.698988 186.601239,103.26235 L186.601239,105.717603 L187.669106,105.717603 L187.669106,102.850339 C187.669106,102.059949 187.240277,101.555445 186.348987,101.555445 C185.684723,101.555445 185.188628,101.874964 184.927967,102.186075 L184.927967,101.656346 L183.860101,101.656346 L183.860101,105.717603 L184.927967,105.717603 Z M191.948982,105.717603 L191.948982,102.984873 C192.125558,102.74103 192.453486,102.505594 192.873906,102.505594 C193.327959,102.505594 193.622253,102.698988 193.622253,103.26235 L193.622253,105.717603 L194.69012,105.717603 L194.69012,102.850339 C194.69012,102.059949 194.261292,101.555445 193.370001,101.555445 C192.705738,101.555445 192.209642,101.874964 191.948982,102.186075 L191.948982,101.656346 L190.881115,101.656346 L190.881115,105.717603 L191.948982,105.717603 Z M197.658285,105.818504 C198.288915,105.818504 198.927954,105.625111 199.331557,105.255141 L198.860687,104.565652 C198.600026,104.817904 198.154381,104.969256 197.776003,104.969256 C197.086514,104.969256 196.674503,104.540427 196.607235,104.027515 L199.625851,104.027515 L199.625851,103.79208 C199.625851,102.463552 198.801828,101.555445 197.591018,101.555445 C196.354983,101.555445 195.488918,102.505594 195.488918,103.68277 C195.488918,104.986072 196.422251,105.818504 197.658285,105.818504 Z M198.591618,103.304392 L196.590419,103.304392 C196.640869,102.900789 196.926755,102.404694 197.591018,102.404694 C198.297324,102.404694 198.566393,102.917606 198.591618,103.304392 Z M202.249272,105.717603 L203.106929,102.95124 L203.964586,105.717603 L205.09972,105.717603 L206.335754,101.656346 L205.225846,101.656346 L204.46909,104.389076 L203.577799,101.656346 L202.62765,101.656346 L201.736359,104.389076 L200.979603,101.656346 L199.869695,101.656346 L201.105729,105.717603 L202.249272,105.717603 Z M209.547763,101.059349 C209.900916,101.059349 210.186802,100.773464 210.186802,100.420311 C210.186802,100.067158 209.900916,99.7812727 209.547763,99.7812727 C209.203019,99.7812727 208.908725,100.067158 208.908725,100.420311 C208.908725,100.773464 209.203019,101.059349 209.547763,101.059349 Z M208.639656,107.36565 C209.61503,107.36565 210.085901,106.751836 210.085901,105.826912 L210.085901,101.656346 L209.018034,101.656346 L209.018034,105.826912 C209.018034,106.280966 208.791007,106.474359 208.479896,106.474359 C208.412629,106.474359 208.311728,106.465951 208.244461,106.449134 L208.177194,107.323608 C208.30332,107.348833 208.446263,107.36565 208.639656,107.36565 Z M213.028841,105.818504 C214.374185,105.818504 215.181391,104.84313 215.181391,103.68277 C215.181391,102.53082 214.374185,101.555445 213.028841,101.555445 C211.691905,101.555445 210.884699,102.53082 210.884699,103.68277 C210.884699,104.84313 211.691905,105.818504 213.028841,105.818504 Z M213.028841,104.868355 C212.364577,104.868355 211.994608,104.321809 211.994608,103.68277 C211.994608,103.05214 212.364577,102.505594 213.028841,102.505594 C213.693105,102.505594 214.071483,103.05214 214.071483,103.68277 C214.071483,104.321809 213.693105,104.868355 213.028841,104.868355 Z M218.292499,105.818504 C219.318324,105.818504 220.091897,105.044931 220.091897,103.691179 C220.091897,102.362652 219.326733,101.555445 218.292499,101.555445 C217.813221,101.555445 217.359167,101.765655 217.039648,102.177667 L217.039648,100.1092 L215.971781,100.1092 L215.971781,105.717603 L217.039648,105.717603 L217.039648,105.196282 C217.359167,105.599886 217.804812,105.818504 218.292499,105.818504 Z M217.956163,104.868355 C217.611419,104.868355 217.216224,104.674962 217.039648,104.414301 L217.039648,102.976465 C217.216224,102.707396 217.611419,102.505594 217.956163,102.505594 C218.578385,102.505594 218.990397,102.984873 218.990397,103.691179 C218.990397,104.397484 218.578385,104.868355 217.956163,104.868355 Z" id="path-8"></path>
        <path d="M334.623363,105.818504 C335.775314,105.818504 336.599338,105.204691 336.599338,103.876164 L336.599338,100.1092 L335.405345,100.1092 L335.405345,103.859347 C335.405345,104.405893 335.0606,104.759046 334.530871,104.759046 C334.144085,104.759046 333.858199,104.565652 333.639581,104.355442 L333.11826,105.271958 C333.521863,105.667153 334.060001,105.818504 334.623363,105.818504 Z M339.567503,105.818504 C340.912847,105.818504 341.720053,104.84313 341.720053,103.68277 C341.720053,102.53082 340.912847,101.555445 339.567503,101.555445 C338.230567,101.555445 337.423361,102.53082 337.423361,103.68277 C337.423361,104.84313 338.230567,105.818504 339.567503,105.818504 Z M339.567503,104.868355 C338.903239,104.868355 338.53327,104.321809 338.53327,103.68277 C338.53327,103.05214 338.903239,102.505594 339.567503,102.505594 C340.231766,102.505594 340.610144,103.05214 340.610144,103.68277 C340.610144,104.321809 340.231766,104.868355 339.567503,104.868355 Z M343.822153,105.818504 C344.486417,105.818504 344.974104,105.515802 345.251581,105.204691 L345.251581,105.717603 L346.319448,105.717603 L346.319448,101.656346 L345.251581,101.656346 L345.251581,104.405893 C345.066597,104.641328 344.738669,104.868355 344.326657,104.868355 C343.872604,104.868355 343.57831,104.68337 343.57831,104.120007 L343.57831,101.656346 L342.510443,101.656346 L342.510443,104.540427 C342.510443,105.330817 342.930863,105.818504 343.822153,105.818504 Z M348.446773,105.717603 L348.446773,103.035324 C348.62335,102.774663 349.09422,102.572862 349.447373,102.572862 C349.565091,102.572862 349.665991,102.589678 349.741667,102.606495 L349.741667,101.563854 C349.237163,101.563854 348.732659,101.849739 348.446773,102.2113 L348.446773,101.656346 L347.378907,101.656346 L347.378907,105.717603 L348.446773,105.717603 Z M351.473798,105.717603 L351.473798,102.984873 C351.650374,102.74103 351.978302,102.505594 352.398722,102.505594 C352.852775,102.505594 353.147069,102.698988 353.147069,103.26235 L353.147069,105.717603 L354.214936,105.717603 L354.214936,102.850339 C354.214936,102.059949 353.786108,101.555445 352.894817,101.555445 C352.230554,101.555445 351.734458,101.874964 351.473798,102.186075 L351.473798,101.656346 L350.405931,101.656346 L350.405931,105.717603 L351.473798,105.717603 Z M357.183101,105.818504 C357.813731,105.818504 358.45277,105.625111 358.856373,105.255141 L358.385503,104.565652 C358.124842,104.817904 357.679197,104.969256 357.300819,104.969256 C356.61133,104.969256 356.199318,104.540427 356.132051,104.027515 L359.150667,104.027515 L359.150667,103.79208 C359.150667,102.463552 358.326644,101.555445 357.115834,101.555445 C355.879799,101.555445 355.013734,102.505594 355.013734,103.68277 C355.013734,104.986072 355.947066,105.818504 357.183101,105.818504 Z M358.116434,103.304392 L356.115234,103.304392 C356.165685,102.900789 356.45157,102.404694 357.115834,102.404694 C357.82214,102.404694 358.091209,102.917606 358.116434,103.304392 Z M360.311026,107.36565 C361.008923,107.348833 361.547061,107.147031 361.849763,106.381867 L363.75847,101.656346 L362.606519,101.656346 L361.547061,104.481568 L360.487603,101.656346 L359.34406,101.656346 L360.992107,105.776462 L360.840755,106.121206 C360.739855,106.339825 360.55487,106.4155 360.277393,106.4155 C360.176492,106.4155 360.033549,106.390275 359.941057,106.348233 L359.781297,107.306791 C359.915831,107.340424 360.1849,107.36565 360.311026,107.36565 Z M365.700811,105.818504 C366.827536,105.818504 367.458166,105.255141 367.458166,104.515202 C367.458166,103.506194 366.524834,103.321209 365.826937,103.186675 C365.372883,103.094182 365.053364,103.00169 365.053364,102.749438 C365.053364,102.514003 365.305616,102.37106 365.692402,102.37106 C366.188498,102.37106 366.65096,102.58127 366.894804,102.84193 L367.323632,102.1104 C366.920029,101.79088 366.373483,101.555445 365.683994,101.555445 C364.616127,101.555445 364.019131,102.152442 364.019131,102.833522 C364.019131,103.800488 364.91883,103.968656 365.616727,104.10319 C366.079189,104.195683 366.432342,104.296584 366.432342,104.582469 C366.432342,104.834721 366.213723,104.994481 365.751261,104.994481 C365.246757,104.994481 364.641352,104.717004 364.347058,104.439526 L363.884596,105.187874 C364.313425,105.583069 364.994505,105.818504 365.700811,105.818504 Z" id="path-9"></path>
        <path d="M336.380719,131.052113 C337.297235,131.052113 338.062399,130.665327 338.58372,130.085147 L338.58372,128.058723 L335.960299,128.058723 L335.960299,128.680944 L337.885823,128.680944 L337.885823,129.824487 C337.608346,130.101964 337.053391,130.429891 336.380719,130.429891 C335.153093,130.429891 334.21976,129.471334 334.21976,128.142807 C334.21976,126.805871 335.153093,125.86413 336.380719,125.86413 C337.053391,125.86413 337.650388,126.183649 338.00354,126.637703 L338.558495,126.292959 C338.062399,125.679145 337.37291,125.241909 336.380719,125.241909 C334.783123,125.241909 333.496638,126.402268 333.496638,128.142807 C333.496638,129.883345 334.783123,131.052113 336.380719,131.052113 Z M341.52666,131.043705 C342.190924,131.043705 342.73747,130.825086 343.141073,130.421483 L342.838371,130.009471 C342.518851,130.337399 342.047981,130.522384 341.585519,130.522384 C340.711045,130.522384 340.172908,129.883345 340.122457,129.118181 L343.410142,129.118181 L343.410142,128.958421 C343.410142,127.739203 342.687019,126.780646 341.459393,126.780646 C340.299034,126.780646 339.458194,127.730795 339.458194,128.907971 C339.458194,130.177639 340.324259,131.043705 341.52666,131.043705 Z M342.78792,128.655719 L340.122457,128.655719 C340.156091,128.033497 340.584919,127.301967 341.450984,127.301967 C342.375908,127.301967 342.779512,128.050314 342.78792,128.655719 Z M345.058188,130.942804 L345.058188,127.974639 C345.293623,127.646711 345.764494,127.344009 346.260589,127.344009 C346.807135,127.344009 347.168697,127.571035 347.168697,128.285749 L347.168697,130.942804 L347.799327,130.942804 L347.799327,128.092356 C347.799327,127.209474 347.353681,126.780646 346.504433,126.780646 C345.899028,126.780646 345.344074,127.133799 345.058188,127.470135 L345.058188,126.881547 L344.427558,126.881547 L344.427558,130.942804 L345.058188,130.942804 Z M350.893618,131.043705 C351.557882,131.043705 352.104428,130.825086 352.508031,130.421483 L352.205328,130.009471 C351.885809,130.337399 351.414939,130.522384 350.952477,130.522384 C350.078003,130.522384 349.539865,129.883345 349.489415,129.118181 L352.7771,129.118181 L352.7771,128.958421 C352.7771,127.739203 352.053977,126.780646 350.826351,126.780646 C349.665991,126.780646 348.825151,127.730795 348.825151,128.907971 C348.825151,130.177639 349.691217,131.043705 350.893618,131.043705 Z M352.154878,128.655719 L349.489415,128.655719 C349.523049,128.033497 349.951877,127.301967 350.817942,127.301967 C351.742866,127.301967 352.14647,128.050314 352.154878,128.655719 Z M354.425146,130.942804 L354.425146,128.067131 C354.610131,127.739203 355.13986,127.419684 355.526646,127.419684 C355.627547,127.419684 355.703223,127.428093 355.778898,127.444909 L355.778898,126.797463 C355.223944,126.797463 354.753074,127.108573 354.425146,127.537402 L354.425146,126.881547 L353.794516,126.881547 L353.794516,130.942804 L354.425146,130.942804 Z M357.763281,131.043705 C358.309827,131.043705 358.772289,130.850312 359.108625,130.480342 L359.108625,130.942804 L359.739255,130.942804 L359.739255,128.151215 C359.739255,127.167432 359.024541,126.780646 358.166884,126.780646 C357.502621,126.780646 356.9813,126.999264 356.544063,127.453318 L356.838357,127.890555 C357.199918,127.503768 357.595113,127.327192 358.0828,127.327192 C358.671388,127.327192 359.108625,127.638303 359.108625,128.184849 L359.108625,128.916379 C358.780697,128.538001 358.318235,128.361425 357.763281,128.361425 C357.073792,128.361425 356.342261,128.790253 356.342261,129.698361 C356.342261,130.581243 357.073792,131.043705 357.763281,131.043705 Z M357.990308,130.589651 C357.40172,130.589651 356.989708,130.219681 356.989708,129.706769 C356.989708,129.185448 357.40172,128.815479 357.990308,128.815479 C358.435953,128.815479 358.864781,128.983647 359.108625,129.319983 L359.108625,130.085147 C358.864781,130.421483 358.435953,130.589651 357.990308,130.589651 Z M361.631145,130.942804 L361.631145,125.334401 L361.000515,125.334401 L361.000515,130.942804 L361.631145,130.942804 Z M363.052165,132.010671 C363.438951,131.733194 363.741653,131.253915 363.741653,130.741002 C363.741653,130.337399 363.489401,130.101964 363.211924,130.101964 C362.959672,130.101964 362.766279,130.312174 362.766279,130.556017 C362.766279,130.80827 362.934447,130.984846 363.169882,130.984846 C363.211924,130.984846 363.270783,130.976438 363.2876,130.968029 C363.253966,131.245506 363.010123,131.573434 362.741054,131.75001 L363.052165,132.010671 Z M370.6954,130.942804 L370.6954,130.320582 L367.718827,130.320582 L367.718827,128.38665 L370.636542,128.38665 L370.636542,127.764429 L367.718827,127.764429 L367.718827,125.956623 L370.6954,125.956623 L370.6954,125.334401 L367.02093,125.334401 L367.02093,130.942804 L370.6954,130.942804 Z M372.410714,130.942804 L372.410714,127.974639 C372.646149,127.646711 373.11702,127.344009 373.613115,127.344009 C374.159661,127.344009 374.521223,127.571035 374.521223,128.285749 L374.521223,130.942804 L375.151853,130.942804 L375.151853,128.092356 C375.151853,127.209474 374.706207,126.780646 373.856959,126.780646 C373.251554,126.780646 372.6966,127.133799 372.410714,127.470135 L372.410714,126.881547 L371.780084,126.881547 L371.780084,130.942804 L372.410714,130.942804 Z M378.044342,132.59085 C379.036533,132.59085 379.978274,132.17043 379.978274,130.825086 L379.978274,126.881547 L379.347644,126.881547 L379.347644,127.49536 C379.019717,127.049715 378.532029,126.780646 377.985483,126.780646 C376.917617,126.780646 376.177677,127.587852 376.177677,128.891154 C376.177677,130.202865 376.926025,130.993254 377.985483,130.993254 C378.557255,130.993254 379.05335,130.682144 379.347644,130.270132 L379.347644,130.850312 C379.347644,131.741602 378.717014,132.06953 378.044342,132.06953 C377.464163,132.06953 377.060559,131.918178 376.724223,131.514575 L376.404704,131.985446 C376.883983,132.456316 377.354853,132.59085 378.044342,132.59085 Z M378.136835,130.4383 C377.32122,130.4383 376.833533,129.782445 376.833533,128.891154 C376.833533,127.991455 377.32122,127.344009 378.136835,127.344009 C378.641339,127.344009 379.129026,127.646711 379.347644,127.999864 L379.347644,129.774036 C379.129026,130.127189 378.641339,130.4383 378.136835,130.4383 Z M381.550645,126.200466 C381.78608,126.200466 381.979474,126.007073 381.979474,125.771638 C381.979474,125.536203 381.78608,125.351218 381.550645,125.351218 C381.323618,125.351218 381.130225,125.536203 381.130225,125.771638 C381.130225,126.007073 381.323618,126.200466 381.550645,126.200466 Z M381.870164,130.942804 L381.870164,126.881547 L381.239534,126.881547 L381.239534,130.942804 L381.870164,130.942804 Z M383.762054,130.942804 L383.762054,127.974639 C383.99749,127.646711 384.46836,127.344009 384.964456,127.344009 C385.511002,127.344009 385.872563,127.571035 385.872563,128.285749 L385.872563,130.942804 L386.503193,130.942804 L386.503193,128.092356 C386.503193,127.209474 386.057548,126.780646 385.208299,126.780646 C384.602894,126.780646 384.04794,127.133799 383.762054,127.470135 L383.762054,126.881547 L383.131424,126.881547 L383.131424,130.942804 L383.762054,130.942804 Z M389.597484,131.043705 C390.261748,131.043705 390.808294,130.825086 391.211897,130.421483 L390.909195,130.009471 C390.589675,130.337399 390.118805,130.522384 389.656343,130.522384 C388.781869,130.522384 388.243732,129.883345 388.193281,129.118181 L391.480966,129.118181 L391.480966,128.958421 C391.480966,127.739203 390.757843,126.780646 389.530217,126.780646 C388.369858,126.780646 387.529018,127.730795 387.529018,128.907971 C387.529018,130.177639 388.395083,131.043705 389.597484,131.043705 Z M390.858744,128.655719 L388.193281,128.655719 C388.226915,128.033497 388.655743,127.301967 389.521809,127.301967 C390.446733,127.301967 390.850336,128.050314 390.858744,128.655719 Z M394.331414,131.043705 C394.995677,131.043705 395.542223,130.825086 395.945826,130.421483 L395.643124,130.009471 C395.323605,130.337399 394.852734,130.522384 394.390272,130.522384 C393.515799,130.522384 392.977661,129.883345 392.927211,129.118181 L396.214895,129.118181 L396.214895,128.958421 C396.214895,127.739203 395.491773,126.780646 394.264146,126.780646 C393.103787,126.780646 392.262947,127.730795 392.262947,128.907971 C392.262947,130.177639 393.129012,131.043705 394.331414,131.043705 Z M395.592674,128.655719 L392.927211,128.655719 C392.960844,128.033497 393.389673,127.301967 394.255738,127.301967 C395.180662,127.301967 395.584265,128.050314 395.592674,128.655719 Z M397.862942,130.942804 L397.862942,128.067131 C398.047926,127.739203 398.577656,127.419684 398.964442,127.419684 C399.065343,127.419684 399.141018,127.428093 399.216694,127.444909 L399.216694,126.797463 C398.66174,126.797463 398.190869,127.108573 397.862942,127.537402 L397.862942,126.881547 L397.232312,126.881547 L397.232312,130.942804 L397.862942,130.942804 Z M400.318194,126.200466 C400.55363,126.200466 400.747023,126.007073 400.747023,125.771638 C400.747023,125.536203 400.55363,125.351218 400.318194,125.351218 C400.091168,125.351218 399.897774,125.536203 399.897774,125.771638 C399.897774,126.007073 400.091168,126.200466 400.318194,126.200466 Z M400.637714,130.942804 L400.637714,126.881547 L400.007084,126.881547 L400.007084,130.942804 L400.637714,130.942804 Z M402.529604,130.942804 L402.529604,127.974639 C402.765039,127.646711 403.235909,127.344009 403.732005,127.344009 C404.278551,127.344009 404.640112,127.571035 404.640112,128.285749 L404.640112,130.942804 L405.270742,130.942804 L405.270742,128.092356 C405.270742,127.209474 404.825097,126.780646 403.975849,126.780646 C403.370444,126.780646 402.815489,127.133799 402.529604,127.470135 L402.529604,126.881547 L401.898974,126.881547 L401.898974,130.942804 L402.529604,130.942804 Z M408.163232,132.59085 C409.155423,132.59085 410.097164,132.17043 410.097164,130.825086 L410.097164,126.881547 L409.466534,126.881547 L409.466534,127.49536 C409.138606,127.049715 408.650919,126.780646 408.104373,126.780646 C407.036506,126.780646 406.296567,127.587852 406.296567,128.891154 C406.296567,130.202865 407.044915,130.993254 408.104373,130.993254 C408.676144,130.993254 409.17224,130.682144 409.466534,130.270132 L409.466534,130.850312 C409.466534,131.741602 408.835904,132.06953 408.163232,132.06953 C407.583052,132.06953 407.179449,131.918178 406.843113,131.514575 L406.523594,131.985446 C407.002873,132.456316 407.473743,132.59085 408.163232,132.59085 Z M408.255724,130.4383 C407.440109,130.4383 406.952422,129.782445 406.952422,128.891154 C406.952422,127.991455 407.440109,127.344009 408.255724,127.344009 C408.760228,127.344009 409.247916,127.646711 409.466534,127.999864 L409.466534,129.774036 C409.247916,130.127189 408.760228,130.4383 408.255724,130.4383 Z" id="path-10"></path>
        <path d="M337.028166,157.461605 L337.028166,156.839383 L334.421562,156.839383 L334.421562,151.853202 L333.723665,151.853202 L333.723665,157.461605 L337.028166,157.461605 Z M339.58432,157.562505 C340.820354,157.562505 341.593927,156.603948 341.593927,155.426772 C341.593927,154.249596 340.820354,153.299447 339.58432,153.299447 C338.348285,153.299447 337.574712,154.249596 337.574712,155.426772 C337.574712,156.603948 338.348285,157.562505 339.58432,157.562505 Z M339.58432,156.999143 C338.718254,156.999143 338.230567,156.259203 338.230567,155.426772 C338.230567,154.602749 338.718254,153.862809 339.58432,153.862809 C340.450385,153.862809 340.929664,154.602749 340.929664,155.426772 C340.929664,156.259203 340.450385,156.999143 339.58432,156.999143 Z M343.250382,157.461605 L343.250382,154.493439 C343.485817,154.165512 343.956688,153.862809 344.452783,153.862809 C344.999329,153.862809 345.360891,154.089836 345.360891,154.80455 L345.360891,157.461605 L345.991521,157.461605 L345.991521,154.611157 C345.991521,153.728275 345.545875,153.299447 344.696627,153.299447 C344.091222,153.299447 343.536268,153.652599 343.250382,153.988935 L343.250382,153.400347 L342.619752,153.400347 L342.619752,157.461605 L343.250382,157.461605 Z M348.825151,157.562505 C349.396923,157.562505 349.893018,157.268211 350.195721,156.8562 L350.195721,157.461605 L350.826351,157.461605 L350.826351,151.853202 L350.195721,151.853202 L350.195721,154.014161 C349.867793,153.568515 349.371697,153.299447 348.825151,153.299447 C347.757285,153.299447 347.017345,154.140287 347.017345,155.43518 C347.017345,156.755299 347.765693,157.562505 348.825151,157.562505 Z M348.976503,156.999143 C348.160888,156.999143 347.673201,156.334879 347.673201,155.43518 C347.673201,154.535481 348.160888,153.862809 348.976503,153.862809 C349.481007,153.862809 349.968694,154.165512 350.195721,154.518665 L350.195721,156.360104 C349.968694,156.713257 349.481007,156.999143 348.976503,156.999143 Z M353.861783,157.562505 C355.097818,157.562505 355.871391,156.603948 355.871391,155.426772 C355.871391,154.249596 355.097818,153.299447 353.861783,153.299447 C352.625748,153.299447 351.852176,154.249596 351.852176,155.426772 C351.852176,156.603948 352.625748,157.562505 353.861783,157.562505 Z M353.861783,156.999143 C352.995718,156.999143 352.508031,156.259203 352.508031,155.426772 C352.508031,154.602749 352.995718,153.862809 353.861783,153.862809 C354.727848,153.862809 355.207127,154.602749 355.207127,155.426772 C355.207127,156.259203 354.727848,156.999143 353.861783,156.999143 Z M357.527846,157.461605 L357.527846,154.493439 C357.763281,154.165512 358.234151,153.862809 358.730247,153.862809 C359.276793,153.862809 359.638354,154.089836 359.638354,154.80455 L359.638354,157.461605 L360.268984,157.461605 L360.268984,154.611157 C360.268984,153.728275 359.823339,153.299447 358.974091,153.299447 C358.368686,153.299447 357.813731,153.652599 357.527846,153.988935 L357.527846,153.400347 L356.897216,153.400347 L356.897216,157.461605 L357.527846,157.461605 Z M365.473784,157.562505 C366.709819,157.562505 367.483392,156.603948 367.483392,155.426772 C367.483392,154.249596 366.709819,153.299447 365.473784,153.299447 C364.237749,153.299447 363.464176,154.249596 363.464176,155.426772 C363.464176,156.603948 364.237749,157.562505 365.473784,157.562505 Z M365.473784,156.999143 C364.607719,156.999143 364.120031,156.259203 364.120031,155.426772 C364.120031,154.602749 364.607719,153.862809 365.473784,153.862809 C366.339849,153.862809 366.819128,154.602749 366.819128,155.426772 C366.819128,156.259203 366.339849,156.999143 365.473784,156.999143 Z M369.316423,157.461605 L369.316423,153.955302 L370.140446,153.955302 L370.140446,153.400347 L369.316423,153.400347 L369.316423,153.089237 C369.316423,152.576324 369.54345,152.290438 369.955461,152.290438 C370.098404,152.290438 370.216122,152.324072 370.317022,152.382931 L370.476782,151.91206 C370.317022,151.81116 370.098404,151.769118 369.862969,151.769118 C369.156663,151.769118 368.685793,152.248396 368.685793,153.089237 L368.685793,153.400347 L368.013121,153.400347 L368.013121,153.955302 L368.685793,153.955302 L368.685793,157.461605 L369.316423,157.461605 Z M371.696,157.461605 L371.696,153.955302 L372.520023,153.955302 L372.520023,153.400347 L371.696,153.400347 L371.696,153.089237 C371.696,152.576324 371.923027,152.290438 372.335039,152.290438 C372.494798,152.290438 372.604107,152.33248 372.6966,152.391339 L372.856359,151.91206 C372.6966,151.81116 372.477981,151.769118 372.242546,151.769118 C371.53624,151.769118 371.06537,152.248396 371.06537,153.089237 L371.06537,153.400347 L370.392698,153.400347 L370.392698,153.955302 L371.06537,153.955302 L371.06537,157.461605 L371.696,157.461605 Z M373.579482,152.719267 C373.814917,152.719267 374.00831,152.525874 374.00831,152.290438 C374.00831,152.055003 373.814917,151.870018 373.579482,151.870018 C373.352455,151.870018 373.159062,152.055003 373.159062,152.290438 C373.159062,152.525874 373.352455,152.719267 373.579482,152.719267 Z M373.899001,157.461605 L373.899001,153.400347 L373.268371,153.400347 L373.268371,157.461605 L373.899001,157.461605 Z M376.959659,157.562505 C377.699598,157.562505 378.136835,157.259803 378.447945,156.8562 L378.027525,156.469413 C377.758457,156.830975 377.413712,156.999143 376.993292,156.999143 C376.127227,156.999143 375.589089,156.326471 375.589089,155.426772 C375.589089,154.527073 376.127227,153.862809 376.993292,153.862809 C377.413712,153.862809 377.758457,154.022569 378.027525,154.392539 L378.447945,154.005752 C378.136835,153.602149 377.699598,153.299447 376.959659,153.299447 C375.748849,153.299447 374.933234,154.224371 374.933234,155.426772 C374.933234,156.637581 375.748849,157.562505 376.959659,157.562505 Z M381.163859,157.562505 C381.828122,157.562505 382.374668,157.343887 382.778272,156.940284 L382.475569,156.528272 C382.15605,156.8562 381.68518,157.041185 381.222718,157.041185 C380.348244,157.041185 379.810106,156.402146 379.759656,155.636982 L383.04734,155.636982 L383.04734,155.477222 C383.04734,154.258004 382.324218,153.299447 381.096592,153.299447 C379.936232,153.299447 379.095392,154.249596 379.095392,155.426772 C379.095392,156.69644 379.961458,157.562505 381.163859,157.562505 Z M382.425119,155.17452 L379.759656,155.17452 C379.79329,154.552298 380.222118,153.820767 381.088183,153.820767 C382.013107,153.820767 382.41671,154.569115 382.425119,155.17452 Z" id="path-11"></path>
        <path d="M503.631561,105.717603 L503.631561,103.707996 L505.060989,103.707996 C506.271799,103.707996 506.944471,102.892381 506.944471,101.917006 C506.944471,100.933223 506.280207,100.1092 505.060989,100.1092 L502.437568,100.1092 L502.437568,105.717603 L503.631561,105.717603 Z M504.90123,102.682171 L503.631561,102.682171 L503.631561,101.135025 L504.90123,101.135025 C505.3721,101.135025 505.725253,101.446136 505.725253,101.908598 C505.725253,102.379468 505.3721,102.682171 504.90123,102.682171 Z M508.727052,105.717603 L508.727052,103.035324 C508.903628,102.774663 509.374499,102.572862 509.727651,102.572862 C509.845369,102.572862 509.94627,102.589678 510.021945,102.606495 L510.021945,101.563854 C509.517441,101.563854 509.012937,101.849739 508.727052,102.2113 L508.727052,101.656346 L507.659185,101.656346 L507.659185,105.717603 L508.727052,105.717603 Z M512.569691,105.818504 C513.915035,105.818504 514.722241,104.84313 514.722241,103.68277 C514.722241,102.53082 513.915035,101.555445 512.569691,101.555445 C511.232755,101.555445 510.425549,102.53082 510.425549,103.68277 C510.425549,104.84313 511.232755,105.818504 512.569691,105.818504 Z M512.569691,104.868355 C511.905427,104.868355 511.535458,104.321809 511.535458,103.68277 C511.535458,103.05214 511.905427,102.505594 512.569691,102.505594 C513.233954,102.505594 513.612332,103.05214 513.612332,103.68277 C513.612332,104.321809 513.233954,104.868355 512.569691,104.868355 Z M517.177494,107.36565 C518.178094,107.36565 519.372087,106.987272 519.372087,105.440126 L519.372087,101.656346 L518.295811,101.656346 L518.295811,102.177667 C517.967884,101.765655 517.530647,101.555445 517.04296,101.555445 C516.017135,101.555445 515.25197,102.295384 515.25197,103.623912 C515.25197,104.977664 516.025543,105.692378 517.04296,105.692378 C517.539055,105.692378 517.976292,105.456943 518.295811,105.05334 L518.295811,105.465351 C518.295811,106.264149 517.690406,106.491176 517.177494,106.491176 C516.664582,106.491176 516.235753,106.348233 515.907826,105.986672 L515.428547,106.760245 C515.941459,107.20589 516.479597,107.36565 517.177494,107.36565 Z M517.379296,104.742229 C516.773891,104.742229 516.353471,104.321809 516.353471,103.623912 C516.353471,102.926014 516.773891,102.505594 517.379296,102.505594 C517.732448,102.505594 518.119235,102.698988 518.295811,102.968056 L518.295811,104.279767 C518.119235,104.540427 517.732448,104.742229 517.379296,104.742229 Z M521.499412,105.717603 L521.499412,103.035324 C521.675988,102.774663 522.146859,102.572862 522.500011,102.572862 C522.617729,102.572862 522.71863,102.589678 522.794305,102.606495 L522.794305,101.563854 C522.289801,101.563854 521.785297,101.849739 521.499412,102.2113 L521.499412,101.656346 L520.431545,101.656346 L520.431545,105.717603 L521.499412,105.717603 Z M525.367276,105.818504 C525.997906,105.818504 526.636944,105.625111 527.040548,105.255141 L526.569677,104.565652 C526.309017,104.817904 525.863372,104.969256 525.484994,104.969256 C524.795505,104.969256 524.383493,104.540427 524.316226,104.027515 L527.334842,104.027515 L527.334842,103.79208 C527.334842,102.463552 526.510818,101.555445 525.300009,101.555445 C524.063974,101.555445 523.197909,102.505594 523.197909,103.68277 C523.197909,104.986072 524.131241,105.818504 525.367276,105.818504 Z M526.300608,103.304392 L524.299409,103.304392 C524.349859,102.900789 524.635745,102.404694 525.300009,102.404694 C526.006314,102.404694 526.275383,102.917606 526.300608,103.304392 Z M529.571476,105.818504 C530.698202,105.818504 531.328832,105.255141 531.328832,104.515202 C531.328832,103.506194 530.395499,103.321209 529.697602,103.186675 C529.243548,103.094182 528.924029,103.00169 528.924029,102.749438 C528.924029,102.514003 529.176281,102.37106 529.563068,102.37106 C530.059163,102.37106 530.521625,102.58127 530.765469,102.84193 L531.194297,102.1104 C530.790694,101.79088 530.244148,101.555445 529.554659,101.555445 C528.486792,101.555445 527.889796,102.152442 527.889796,102.833522 C527.889796,103.800488 528.789495,103.968656 529.487392,104.10319 C529.949854,104.195683 530.303007,104.296584 530.303007,104.582469 C530.303007,104.834721 530.084388,104.994481 529.621926,104.994481 C529.117422,104.994481 528.512018,104.717004 528.217724,104.439526 L527.755262,105.187874 C528.18409,105.583069 528.86517,105.818504 529.571476,105.818504 Z M533.582283,105.818504 C534.709009,105.818504 535.339639,105.255141 535.339639,104.515202 C535.339639,103.506194 534.406306,103.321209 533.708409,103.186675 C533.254355,103.094182 532.934836,103.00169 532.934836,102.749438 C532.934836,102.514003 533.187088,102.37106 533.573875,102.37106 C534.06997,102.37106 534.532432,102.58127 534.776276,102.84193 L535.205104,102.1104 C534.801501,101.79088 534.254955,101.555445 533.565466,101.555445 C532.497599,101.555445 531.900603,102.152442 531.900603,102.833522 C531.900603,103.800488 532.800302,103.968656 533.498199,104.10319 C533.960661,104.195683 534.313814,104.296584 534.313814,104.582469 C534.313814,104.834721 534.095195,104.994481 533.632733,104.994481 C533.128229,104.994481 532.522824,104.717004 532.22853,104.439526 L531.766068,105.187874 C532.194897,105.583069 532.875977,105.818504 533.582283,105.818504 Z" id="path-12"></path>
        <rect id="path-13" x="203.212818" y="188.916406" width="429" height="142.942804" rx="7.76160021"></rect>
        <filter x="-2.6%" y="-7.7%" width="106.1%" height="118.2%" filterUnits="objectBoundingBox" id="filter-14">
            <feOffset dx="2" dy="2" in="SourceAlpha" result="shadowOffsetOuter1"></feOffset>
            <feGaussianBlur stdDeviation="4" in="shadowOffsetOuter1" result="shadowBlurOuter1"></feGaussianBlur>
            <feColorMatrix values="0 0 0 0 0.97254902   0 0 0 0 0.88627451   0 0 0 0 0.882352941  0 0 0 1 0" type="matrix" in="shadowBlurOuter1"></feColorMatrix>
        </filter>
        <path d="M164.959957,235.724407 C166.717313,235.724407 167.936531,234.614498 167.936531,232.924409 C167.936531,231.234321 166.717313,230.116004 164.959957,230.116004 L162.748548,230.116004 L162.748548,235.724407 L164.959957,235.724407 Z M164.959957,234.673357 L163.942541,234.673357 L163.942541,231.167054 L164.959957,231.167054 C166.111908,231.167054 166.717313,231.932218 166.717313,232.924409 C166.717313,233.874559 166.069866,234.673357 164.959957,234.673357 Z M169.912505,235.825308 C170.442234,235.825308 170.921513,235.631914 171.19899,235.303987 L171.19899,235.724407 L172.266857,235.724407 L172.266857,233.100986 C172.266857,231.932218 171.417609,231.562249 170.492685,231.562249 C169.853646,231.562249 169.214608,231.76405 168.718512,232.201287 L169.122115,232.916001 C169.46686,232.596482 169.870463,232.436722 170.3077,232.436722 C170.845837,232.436722 171.19899,232.705791 171.19899,233.117803 L171.19899,233.681166 C170.929921,233.353238 170.450643,233.18507 169.912505,233.18507 C169.265058,233.18507 168.499894,233.529814 168.499894,234.479964 C168.499894,235.388071 169.265058,235.825308 169.912505,235.825308 Z M170.341333,235.102185 C169.920913,235.102185 169.576169,234.883567 169.576169,234.505189 C169.576169,234.109994 169.920913,233.891376 170.341333,233.891376 C170.686078,233.891376 171.022414,234.009093 171.19899,234.244528 L171.19899,234.749032 C171.022414,234.984468 170.686078,235.102185 170.341333,235.102185 Z M173.713102,237.372453 C174.410999,237.355636 174.949137,237.153835 175.251839,236.38867 L177.160546,231.663149 L176.008595,231.663149 L174.949137,234.488372 L173.889678,231.663149 L172.746136,231.663149 L174.394182,235.783266 L174.242831,236.12801 C174.14193,236.346628 173.956945,236.422304 173.679468,236.422304 C173.578567,236.422304 173.435625,236.397079 173.343132,236.355037 L173.183373,237.313594 C173.317907,237.347228 173.586976,237.372453 173.713102,237.372453 Z M180.322104,231.066153 C180.675257,231.066153 180.961143,230.780267 180.961143,230.427115 C180.961143,230.073962 180.675257,229.788076 180.322104,229.788076 C179.97736,229.788076 179.683066,230.073962 179.683066,230.427115 C179.683066,230.780267 179.97736,231.066153 180.322104,231.066153 Z M180.860242,235.724407 L180.860242,231.663149 L179.792375,231.663149 L179.792375,235.724407 L180.860242,235.724407 Z M182.987567,235.724407 L182.987567,232.991677 C183.164144,232.747833 183.492071,232.512398 183.912491,232.512398 C184.366545,232.512398 184.660839,232.705791 184.660839,233.269154 L184.660839,235.724407 L185.728706,235.724407 L185.728706,232.857142 C185.728706,232.066753 185.299877,231.562249 184.408587,231.562249 C183.744323,231.562249 183.248228,231.881768 182.987567,232.192879 L182.987567,231.663149 L181.919701,231.663149 L181.919701,235.724407 L182.987567,235.724407 Z M190.008582,235.724407 L190.008582,232.991677 C190.185158,232.747833 190.513086,232.512398 190.933506,232.512398 C191.387559,232.512398 191.681853,232.705791 191.681853,233.269154 L191.681853,235.724407 L192.74972,235.724407 L192.74972,232.857142 C192.74972,232.066753 192.320892,231.562249 191.429601,231.562249 C190.765338,231.562249 190.269242,231.881768 190.008582,232.192879 L190.008582,231.663149 L188.940715,231.663149 L188.940715,235.724407 L190.008582,235.724407 Z M195.717885,235.825308 C196.348515,235.825308 196.987554,235.631914 197.391157,235.261945 L196.920287,234.572456 C196.659626,234.824708 196.213981,234.976059 195.835603,234.976059 C195.146114,234.976059 194.734102,234.547231 194.666835,234.034318 L197.685451,234.034318 L197.685451,233.798883 C197.685451,232.470356 196.861428,231.562249 195.650618,231.562249 C194.414583,231.562249 193.548518,232.512398 193.548518,233.689574 C193.548518,234.992876 194.48185,235.825308 195.717885,235.825308 Z M196.651218,233.311196 L194.650018,233.311196 C194.700469,232.907593 194.986354,232.411497 195.650618,232.411497 C196.356924,232.411497 196.625993,232.924409 196.651218,233.311196 Z M200.308872,235.724407 L201.166529,232.958043 L202.024185,235.724407 L203.159319,235.724407 L204.395354,231.663149 L203.285445,231.663149 L202.528689,234.39588 L201.637399,231.663149 L200.68725,231.663149 L199.795959,234.39588 L199.039203,231.663149 L197.929295,231.663149 L199.165329,235.724407 L200.308872,235.724407 Z M207.607363,231.066153 C207.960516,231.066153 208.246402,230.780267 208.246402,230.427115 C208.246402,230.073962 207.960516,229.788076 207.607363,229.788076 C207.262619,229.788076 206.968325,230.073962 206.968325,230.427115 C206.968325,230.780267 207.262619,231.066153 207.607363,231.066153 Z M206.699256,237.372453 C207.67463,237.372453 208.145501,236.75864 208.145501,235.833716 L208.145501,231.663149 L207.077634,231.663149 L207.077634,235.833716 C207.077634,236.28777 206.850607,236.481163 206.539496,236.481163 C206.472229,236.481163 206.371328,236.472754 206.304061,236.455938 L206.236794,237.330411 C206.36292,237.355636 206.505863,237.372453 206.699256,237.372453 Z M211.088441,235.825308 C212.433785,235.825308 213.240991,234.849933 213.240991,233.689574 C213.240991,232.537623 212.433785,231.562249 211.088441,231.562249 C209.751505,231.562249 208.944299,232.537623 208.944299,233.689574 C208.944299,234.849933 209.751505,235.825308 211.088441,235.825308 Z M211.088441,234.875158 C210.424177,234.875158 210.054208,234.328612 210.054208,233.689574 C210.054208,233.058944 210.424177,232.512398 211.088441,232.512398 C211.752705,232.512398 212.131083,233.058944 212.131083,233.689574 C212.131083,234.328612 211.752705,234.875158 211.088441,234.875158 Z M216.352099,235.825308 C217.377924,235.825308 218.151497,235.051735 218.151497,233.697982 C218.151497,232.369455 217.386333,231.562249 216.352099,231.562249 C215.872821,231.562249 215.418767,231.772459 215.099248,232.18447 L215.099248,230.116004 L214.031381,230.116004 L214.031381,235.724407 L215.099248,235.724407 L215.099248,235.203086 C215.418767,235.606689 215.864412,235.825308 216.352099,235.825308 Z M216.015763,234.875158 C215.671019,234.875158 215.275824,234.681765 215.099248,234.421105 L215.099248,232.983268 C215.275824,232.714199 215.671019,232.512398 216.015763,232.512398 C216.637985,232.512398 217.049997,232.991677 217.049997,233.697982 C217.049997,234.404288 216.637985,234.875158 216.015763,234.875158 Z" id="path-15"></path>
        <path d="M332.682963,235.825308 C333.834914,235.825308 334.658937,235.211494 334.658937,233.882967 L334.658937,230.116004 L333.464945,230.116004 L333.464945,233.86615 C333.464945,234.412696 333.1202,234.765849 332.590471,234.765849 C332.203685,234.765849 331.917799,234.572456 331.699181,234.362246 L331.17786,235.278762 C331.581463,235.673956 332.119601,235.825308 332.682963,235.825308 Z M337.627103,235.825308 C338.972447,235.825308 339.779653,234.849933 339.779653,233.689574 C339.779653,232.537623 338.972447,231.562249 337.627103,231.562249 C336.290167,231.562249 335.482961,232.537623 335.482961,233.689574 C335.482961,234.849933 336.290167,235.825308 337.627103,235.825308 Z M337.627103,234.875158 C336.962839,234.875158 336.59287,234.328612 336.59287,233.689574 C336.59287,233.058944 336.962839,232.512398 337.627103,232.512398 C338.291366,232.512398 338.669744,233.058944 338.669744,233.689574 C338.669744,234.328612 338.291366,234.875158 337.627103,234.875158 Z M341.881753,235.825308 C342.546017,235.825308 343.033704,235.522605 343.311181,235.211494 L343.311181,235.724407 L344.379048,235.724407 L344.379048,231.663149 L343.311181,231.663149 L343.311181,234.412696 C343.126197,234.648132 342.798269,234.875158 342.386257,234.875158 C341.932204,234.875158 341.63791,234.690174 341.63791,234.126811 L341.63791,231.663149 L340.570043,231.663149 L340.570043,234.547231 C340.570043,235.33762 340.990463,235.825308 341.881753,235.825308 Z M346.506373,235.724407 L346.506373,233.042127 C346.68295,232.781467 347.15382,232.579665 347.506973,232.579665 C347.624691,232.579665 347.725591,232.596482 347.801267,232.613299 L347.801267,231.570657 C347.296763,231.570657 346.792259,231.856543 346.506373,232.218104 L346.506373,231.663149 L345.438507,231.663149 L345.438507,235.724407 L346.506373,235.724407 Z M349.533397,235.724407 L349.533397,232.991677 C349.709974,232.747833 350.037902,232.512398 350.458322,232.512398 C350.912375,232.512398 351.206669,232.705791 351.206669,233.269154 L351.206669,235.724407 L352.274536,235.724407 L352.274536,232.857142 C352.274536,232.066753 351.845708,231.562249 350.954417,231.562249 C350.290154,231.562249 349.794058,231.881768 349.533397,232.192879 L349.533397,231.663149 L348.465531,231.663149 L348.465531,235.724407 L349.533397,235.724407 Z M355.242701,235.825308 C355.873331,235.825308 356.51237,235.631914 356.915973,235.261945 L356.445102,234.572456 C356.184442,234.824708 355.738797,234.976059 355.360419,234.976059 C354.67093,234.976059 354.258918,234.547231 354.191651,234.034318 L357.210267,234.034318 L357.210267,233.798883 C357.210267,232.470356 356.386244,231.562249 355.175434,231.562249 C353.939399,231.562249 353.073334,232.512398 353.073334,233.689574 C353.073334,234.992876 354.006666,235.825308 355.242701,235.825308 Z M356.176034,233.311196 L354.174834,233.311196 C354.225285,232.907593 354.51117,232.411497 355.175434,232.411497 C355.88174,232.411497 356.150808,232.924409 356.176034,233.311196 Z M358.370626,237.372453 C359.068523,237.355636 359.606661,237.153835 359.909363,236.38867 L361.81807,231.663149 L360.666119,231.663149 L359.606661,234.488372 L358.547203,231.663149 L357.40366,231.663149 L359.051707,235.783266 L358.900355,236.12801 C358.799455,236.346628 358.61447,236.422304 358.336993,236.422304 C358.236092,236.422304 358.093149,236.397079 358.000657,236.355037 L357.840897,237.313594 C357.975431,237.347228 358.2445,237.372453 358.370626,237.372453 Z M363.760411,235.825308 C364.887136,235.825308 365.517766,235.261945 365.517766,234.522006 C365.517766,233.512998 364.584434,233.328013 363.886537,233.193478 C363.432483,233.100986 363.112964,233.008494 363.112964,232.756241 C363.112964,232.520806 363.365216,232.377863 363.752002,232.377863 C364.248098,232.377863 364.71056,232.588073 364.954404,232.848734 L365.383232,232.117203 C364.979629,231.797684 364.433083,231.562249 363.743594,231.562249 C362.675727,231.562249 362.078731,232.159245 362.078731,232.840325 C362.078731,233.807292 362.978429,233.97546 363.676327,234.109994 C364.138789,234.202486 364.491941,234.303387 364.491941,234.589273 C364.491941,234.841525 364.273323,235.001284 363.810861,235.001284 C363.306357,235.001284 362.700952,234.723807 362.406658,234.44633 L361.944196,235.194678 C362.373025,235.589872 363.054105,235.825308 363.760411,235.825308 Z" id="path-16"></path>
        <path d="M334.440319,261.058917 C335.356835,261.058917 336.121999,260.67213 336.64332,260.091951 L336.64332,258.065526 L334.019899,258.065526 L334.019899,258.687748 L335.945423,258.687748 L335.945423,259.83129 C335.667946,260.108767 335.112991,260.436695 334.440319,260.436695 C333.212693,260.436695 332.27936,259.478137 332.27936,258.14961 C332.27936,256.812675 333.212693,255.870934 334.440319,255.870934 C335.112991,255.870934 335.709988,256.190453 336.06314,256.644507 L336.618095,256.299762 C336.121999,255.685949 335.43251,255.248712 334.440319,255.248712 C332.842723,255.248712 331.556238,256.409071 331.556238,258.14961 C331.556238,259.890149 332.842723,261.058917 334.440319,261.058917 Z M339.58626,261.050508 C340.250524,261.050508 340.79707,260.83189 341.200673,260.428287 L340.89797,260.016275 C340.578451,260.344203 340.107581,260.529187 339.645119,260.529187 C338.770645,260.529187 338.232508,259.890149 338.182057,259.124985 L341.469742,259.124985 L341.469742,258.965225 C341.469742,257.746007 340.746619,256.787449 339.518993,256.787449 C338.358634,256.787449 337.517794,257.737599 337.517794,258.914775 C337.517794,260.184443 338.383859,261.050508 339.58626,261.050508 Z M340.84752,258.662523 L338.182057,258.662523 C338.215691,258.040301 338.644519,257.30877 339.510584,257.30877 C340.435508,257.30877 340.839112,258.057118 340.84752,258.662523 Z M343.117788,260.949607 L343.117788,257.981442 C343.353223,257.653515 343.824094,257.350812 344.320189,257.350812 C344.866735,257.350812 345.228297,257.577839 345.228297,258.292553 L345.228297,260.949607 L345.858927,260.949607 L345.858927,258.09916 C345.858927,257.216278 345.413281,256.787449 344.564033,256.787449 C343.958628,256.787449 343.403674,257.140602 343.117788,257.476938 L343.117788,256.88835 L342.487158,256.88835 L342.487158,260.949607 L343.117788,260.949607 Z M348.953218,261.050508 C349.617481,261.050508 350.164028,260.83189 350.567631,260.428287 L350.264928,260.016275 C349.945409,260.344203 349.474539,260.529187 349.012077,260.529187 C348.137603,260.529187 347.599465,259.890149 347.549015,259.124985 L350.8367,259.124985 L350.8367,258.965225 C350.8367,257.746007 350.113577,256.787449 348.885951,256.787449 C347.725591,256.787449 346.884751,257.737599 346.884751,258.914775 C346.884751,260.184443 347.750817,261.050508 348.953218,261.050508 Z M350.214478,258.662523 L347.549015,258.662523 C347.582649,258.040301 348.011477,257.30877 348.877542,257.30877 C349.802466,257.30877 350.20607,258.057118 350.214478,258.662523 Z M352.484746,260.949607 L352.484746,258.073935 C352.669731,257.746007 353.19946,257.426488 353.586246,257.426488 C353.687147,257.426488 353.762823,257.434896 353.838498,257.451713 L353.838498,256.804266 C353.283544,256.804266 352.812674,257.115377 352.484746,257.544205 L352.484746,256.88835 L351.854116,256.88835 L351.854116,260.949607 L352.484746,260.949607 Z M355.822881,261.050508 C356.369427,261.050508 356.831889,260.857115 357.168225,260.487145 L357.168225,260.949607 L357.798855,260.949607 L357.798855,258.158019 C357.798855,257.174236 357.084141,256.787449 356.226484,256.787449 C355.56222,256.787449 355.0409,257.006068 354.603663,257.460121 L354.897957,257.897358 C355.259518,257.510572 355.654713,257.333995 356.1424,257.333995 C356.730988,257.333995 357.168225,257.645106 357.168225,258.191652 L357.168225,258.923183 C356.840297,258.544805 356.377835,258.368229 355.822881,258.368229 C355.133392,258.368229 354.401861,258.797057 354.401861,259.705164 C354.401861,260.588046 355.133392,261.050508 355.822881,261.050508 Z M356.049908,260.596455 C355.46132,260.596455 355.049308,260.226485 355.049308,259.713573 C355.049308,259.192252 355.46132,258.822282 356.049908,258.822282 C356.495553,258.822282 356.924381,258.99045 357.168225,259.326786 L357.168225,260.091951 C356.924381,260.428287 356.495553,260.596455 356.049908,260.596455 Z M359.690745,260.949607 L359.690745,255.341205 L359.060115,255.341205 L359.060115,260.949607 L359.690745,260.949607 Z M361.111765,262.017474 C361.498551,261.739997 361.801253,261.260718 361.801253,260.747806 C361.801253,260.344203 361.549001,260.108767 361.271524,260.108767 C361.019272,260.108767 360.825879,260.318977 360.825879,260.562821 C360.825879,260.815073 360.994047,260.991649 361.229482,260.991649 C361.271524,260.991649 361.330383,260.983241 361.3472,260.974833 C361.313566,261.25231 361.069723,261.580237 360.800654,261.756814 L361.111765,262.017474 Z M368.755,260.949607 L368.755,260.327386 L365.778427,260.327386 L365.778427,258.393454 L368.696142,258.393454 L368.696142,257.771232 L365.778427,257.771232 L365.778427,255.963426 L368.755,255.963426 L368.755,255.341205 L365.08053,255.341205 L365.08053,260.949607 L368.755,260.949607 Z M370.470314,260.949607 L370.470314,257.981442 C370.705749,257.653515 371.17662,257.350812 371.672715,257.350812 C372.219261,257.350812 372.580823,257.577839 372.580823,258.292553 L372.580823,260.949607 L373.211453,260.949607 L373.211453,258.09916 C373.211453,257.216278 372.765807,256.787449 371.916559,256.787449 C371.311154,256.787449 370.7562,257.140602 370.470314,257.476938 L370.470314,256.88835 L369.839684,256.88835 L369.839684,260.949607 L370.470314,260.949607 Z M376.103942,262.597654 C377.096133,262.597654 378.037874,262.177234 378.037874,260.83189 L378.037874,256.88835 L377.407244,256.88835 L377.407244,257.502163 C377.079317,257.056518 376.591629,256.787449 376.045083,256.787449 C374.977217,256.787449 374.237277,257.594656 374.237277,258.897958 C374.237277,260.209668 374.985625,261.000058 376.045083,261.000058 C376.616855,261.000058 377.11295,260.688947 377.407244,260.276935 L377.407244,260.857115 C377.407244,261.748405 376.776614,262.076333 376.103942,262.076333 C375.523763,262.076333 375.120159,261.924982 374.783823,261.521379 L374.464304,261.992249 C374.943583,262.46312 375.414453,262.597654 376.103942,262.597654 Z M376.196435,260.445103 C375.38082,260.445103 374.893133,259.789248 374.893133,258.897958 C374.893133,257.998259 375.38082,257.350812 376.196435,257.350812 C376.700939,257.350812 377.188626,257.653515 377.407244,258.006667 L377.407244,259.78084 C377.188626,260.133993 376.700939,260.445103 376.196435,260.445103 Z M379.610245,256.20727 C379.84568,256.20727 380.039074,256.013877 380.039074,255.778441 C380.039074,255.543006 379.84568,255.358021 379.610245,255.358021 C379.383218,255.358021 379.189825,255.543006 379.189825,255.778441 C379.189825,256.013877 379.383218,256.20727 379.610245,256.20727 Z M379.929764,260.949607 L379.929764,256.88835 L379.299134,256.88835 L379.299134,260.949607 L379.929764,260.949607 Z M381.821654,260.949607 L381.821654,257.981442 C382.05709,257.653515 382.52796,257.350812 383.024056,257.350812 C383.570602,257.350812 383.932163,257.577839 383.932163,258.292553 L383.932163,260.949607 L384.562793,260.949607 L384.562793,258.09916 C384.562793,257.216278 384.117148,256.787449 383.267899,256.787449 C382.662494,256.787449 382.10754,257.140602 381.821654,257.476938 L381.821654,256.88835 L381.191024,256.88835 L381.191024,260.949607 L381.821654,260.949607 Z M387.657084,261.050508 C388.321348,261.050508 388.867894,260.83189 389.271497,260.428287 L388.968795,260.016275 C388.649275,260.344203 388.178405,260.529187 387.715943,260.529187 C386.841469,260.529187 386.303332,259.890149 386.252881,259.124985 L389.540566,259.124985 L389.540566,258.965225 C389.540566,257.746007 388.817443,256.787449 387.589817,256.787449 C386.429458,256.787449 385.588618,257.737599 385.588618,258.914775 C385.588618,260.184443 386.454683,261.050508 387.657084,261.050508 Z M388.918344,258.662523 L386.252881,258.662523 C386.286515,258.040301 386.715343,257.30877 387.581409,257.30877 C388.506333,257.30877 388.909936,258.057118 388.918344,258.662523 Z M392.391013,261.050508 C393.055277,261.050508 393.601823,260.83189 394.005426,260.428287 L393.702724,260.016275 C393.383205,260.344203 392.912334,260.529187 392.449872,260.529187 C391.575399,260.529187 391.037261,259.890149 390.986811,259.124985 L394.274495,259.124985 L394.274495,258.965225 C394.274495,257.746007 393.551373,256.787449 392.323746,256.787449 C391.163387,256.787449 390.322547,257.737599 390.322547,258.914775 C390.322547,260.184443 391.188612,261.050508 392.391013,261.050508 Z M393.652273,258.662523 L390.986811,258.662523 C391.020444,258.040301 391.449273,257.30877 392.315338,257.30877 C393.240262,257.30877 393.643865,258.057118 393.652273,258.662523 Z M395.922542,260.949607 L395.922542,258.073935 C396.107526,257.746007 396.637256,257.426488 397.024042,257.426488 C397.124943,257.426488 397.200618,257.434896 397.276294,257.451713 L397.276294,256.804266 C396.72134,256.804266 396.250469,257.115377 395.922542,257.544205 L395.922542,256.88835 L395.291912,256.88835 L395.291912,260.949607 L395.922542,260.949607 Z M398.377794,256.20727 C398.61323,256.20727 398.806623,256.013877 398.806623,255.778441 C398.806623,255.543006 398.61323,255.358021 398.377794,255.358021 C398.150768,255.358021 397.957374,255.543006 397.957374,255.778441 C397.957374,256.013877 398.150768,256.20727 398.377794,256.20727 Z M398.697314,260.949607 L398.697314,256.88835 L398.066684,256.88835 L398.066684,260.949607 L398.697314,260.949607 Z M400.589204,260.949607 L400.589204,257.981442 C400.824639,257.653515 401.295509,257.350812 401.791605,257.350812 C402.338151,257.350812 402.699712,257.577839 402.699712,258.292553 L402.699712,260.949607 L403.330342,260.949607 L403.330342,258.09916 C403.330342,257.216278 402.884697,256.787449 402.035449,256.787449 C401.430044,256.787449 400.875089,257.140602 400.589204,257.476938 L400.589204,256.88835 L399.958574,256.88835 L399.958574,260.949607 L400.589204,260.949607 Z M406.222832,262.597654 C407.215023,262.597654 408.156764,262.177234 408.156764,260.83189 L408.156764,256.88835 L407.526134,256.88835 L407.526134,257.502163 C407.198206,257.056518 406.710519,256.787449 406.163973,256.787449 C405.096106,256.787449 404.356167,257.594656 404.356167,258.897958 C404.356167,260.209668 405.104515,261.000058 406.163973,261.000058 C406.735744,261.000058 407.23184,260.688947 407.526134,260.276935 L407.526134,260.857115 C407.526134,261.748405 406.895504,262.076333 406.222832,262.076333 C405.642652,262.076333 405.239049,261.924982 404.902713,261.521379 L404.583194,261.992249 C405.062473,262.46312 405.533343,262.597654 406.222832,262.597654 Z M406.315324,260.445103 C405.499709,260.445103 405.012022,259.789248 405.012022,258.897958 C405.012022,257.998259 405.499709,257.350812 406.315324,257.350812 C406.819828,257.350812 407.307515,257.653515 407.526134,258.006667 L407.526134,259.78084 C407.307515,260.133993 406.819828,260.445103 406.315324,260.445103 Z" id="path-17"></path>
        <path d="M335.087766,287.468408 L335.087766,286.846187 L332.481162,286.846187 L332.481162,281.860005 L331.783265,281.860005 L331.783265,287.468408 L335.087766,287.468408 Z M337.64392,287.569309 C338.879954,287.569309 339.653527,286.610751 339.653527,285.433575 C339.653527,284.256399 338.879954,283.30625 337.64392,283.30625 C336.407885,283.30625 335.634312,284.256399 335.634312,285.433575 C335.634312,286.610751 336.407885,287.569309 337.64392,287.569309 Z M337.64392,287.005946 C336.777854,287.005946 336.290167,286.266007 336.290167,285.433575 C336.290167,284.609552 336.777854,283.869613 337.64392,283.869613 C338.509985,283.869613 338.989264,284.609552 338.989264,285.433575 C338.989264,286.266007 338.509985,287.005946 337.64392,287.005946 Z M341.309982,287.468408 L341.309982,284.500243 C341.545417,284.172315 342.016288,283.869613 342.512383,283.869613 C343.058929,283.869613 343.420491,284.09664 343.420491,284.811354 L343.420491,287.468408 L344.051121,287.468408 L344.051121,284.617961 C344.051121,283.735078 343.605475,283.30625 342.756227,283.30625 C342.150822,283.30625 341.595868,283.659403 341.309982,283.995739 L341.309982,283.407151 L340.679352,283.407151 L340.679352,287.468408 L341.309982,287.468408 Z M346.884751,287.569309 C347.456523,287.569309 347.952618,287.275015 348.255321,286.863003 L348.255321,287.468408 L348.885951,287.468408 L348.885951,281.860005 L348.255321,281.860005 L348.255321,284.020964 C347.927393,283.575319 347.431297,283.30625 346.884751,283.30625 C345.816885,283.30625 345.076945,284.14709 345.076945,285.441984 C345.076945,286.762103 345.825293,287.569309 346.884751,287.569309 Z M347.036103,287.005946 C346.220488,287.005946 345.732801,286.341683 345.732801,285.441984 C345.732801,284.542285 346.220488,283.869613 347.036103,283.869613 C347.540607,283.869613 348.028294,284.172315 348.255321,284.525468 L348.255321,286.366908 C348.028294,286.720061 347.540607,287.005946 347.036103,287.005946 Z M351.921383,287.569309 C353.157418,287.569309 353.930991,286.610751 353.930991,285.433575 C353.930991,284.256399 353.157418,283.30625 351.921383,283.30625 C350.685348,283.30625 349.911775,284.256399 349.911775,285.433575 C349.911775,286.610751 350.685348,287.569309 351.921383,287.569309 Z M351.921383,287.005946 C351.055318,287.005946 350.567631,286.266007 350.567631,285.433575 C350.567631,284.609552 351.055318,283.869613 351.921383,283.869613 C352.787448,283.869613 353.266727,284.609552 353.266727,285.433575 C353.266727,286.266007 352.787448,287.005946 351.921383,287.005946 Z M355.587446,287.468408 L355.587446,284.500243 C355.822881,284.172315 356.293751,283.869613 356.789847,283.869613 C357.336393,283.869613 357.697954,284.09664 357.697954,284.811354 L357.697954,287.468408 L358.328584,287.468408 L358.328584,284.617961 C358.328584,283.735078 357.882939,283.30625 357.03369,283.30625 C356.428286,283.30625 355.873331,283.659403 355.587446,283.995739 L355.587446,283.407151 L354.956816,283.407151 L354.956816,287.468408 L355.587446,287.468408 Z M363.533384,287.569309 C364.769419,287.569309 365.542992,286.610751 365.542992,285.433575 C365.542992,284.256399 364.769419,283.30625 363.533384,283.30625 C362.297349,283.30625 361.523776,284.256399 361.523776,285.433575 C361.523776,286.610751 362.297349,287.569309 363.533384,287.569309 Z M363.533384,287.005946 C362.667319,287.005946 362.179631,286.266007 362.179631,285.433575 C362.179631,284.609552 362.667319,283.869613 363.533384,283.869613 C364.399449,283.869613 364.878728,284.609552 364.878728,285.433575 C364.878728,286.266007 364.399449,287.005946 363.533384,287.005946 Z M367.376023,287.468408 L367.376023,283.962105 L368.200046,283.962105 L368.200046,283.407151 L367.376023,283.407151 L367.376023,283.09604 C367.376023,282.583128 367.60305,282.297242 368.015061,282.297242 C368.158004,282.297242 368.275722,282.330876 368.376622,282.389734 L368.536382,281.918864 C368.376622,281.817963 368.158004,281.775921 367.922569,281.775921 C367.216263,281.775921 366.745393,282.2552 366.745393,283.09604 L366.745393,283.407151 L366.072721,283.407151 L366.072721,283.962105 L366.745393,283.962105 L366.745393,287.468408 L367.376023,287.468408 Z M369.7556,287.468408 L369.7556,283.962105 L370.579623,283.962105 L370.579623,283.407151 L369.7556,283.407151 L369.7556,283.09604 C369.7556,282.583128 369.982627,282.297242 370.394638,282.297242 C370.554398,282.297242 370.663707,282.339284 370.7562,282.398143 L370.915959,281.918864 C370.7562,281.817963 370.537581,281.775921 370.302146,281.775921 C369.59584,281.775921 369.12497,282.2552 369.12497,283.09604 L369.12497,283.407151 L368.452298,283.407151 L368.452298,283.962105 L369.12497,283.962105 L369.12497,287.468408 L369.7556,287.468408 Z M371.639082,282.72607 C371.874517,282.72607 372.06791,282.532677 372.06791,282.297242 C372.06791,282.061807 371.874517,281.876822 371.639082,281.876822 C371.412055,281.876822 371.218662,282.061807 371.218662,282.297242 C371.218662,282.532677 371.412055,282.72607 371.639082,282.72607 Z M371.958601,287.468408 L371.958601,283.407151 L371.327971,283.407151 L371.327971,287.468408 L371.958601,287.468408 Z M375.019259,287.569309 C375.759198,287.569309 376.196435,287.266607 376.507545,286.863003 L376.087125,286.476217 C375.818057,286.837778 375.473312,287.005946 375.052892,287.005946 C374.186827,287.005946 373.648689,286.333274 373.648689,285.433575 C373.648689,284.533877 374.186827,283.869613 375.052892,283.869613 C375.473312,283.869613 375.818057,284.029372 376.087125,284.399342 L376.507545,284.012556 C376.196435,283.608952 375.759198,283.30625 375.019259,283.30625 C373.808449,283.30625 372.992834,284.231174 372.992834,285.433575 C372.992834,286.644385 373.808449,287.569309 375.019259,287.569309 Z M379.223459,287.569309 C379.887722,287.569309 380.434268,287.350691 380.837872,286.947087 L380.535169,286.535076 C380.21565,286.863003 379.74478,287.047988 379.282318,287.047988 C378.407844,287.047988 377.869706,286.40895 377.819256,285.643785 L381.10694,285.643785 L381.10694,285.484026 C381.10694,284.264808 380.383818,283.30625 379.156191,283.30625 C377.995832,283.30625 377.154992,284.256399 377.154992,285.433575 C377.154992,286.703244 378.021057,287.569309 379.223459,287.569309 Z M380.484719,285.181323 L377.819256,285.181323 C377.852889,284.559102 378.281718,283.827571 379.147783,283.827571 C380.072707,283.827571 380.47631,284.575919 380.484719,285.181323 Z" id="path-18"></path>
        <path d="M501.691161,235.724407 L501.691161,233.714799 L503.120589,233.714799 C504.331399,233.714799 505.004071,232.899184 505.004071,231.92381 C505.004071,230.940027 504.339807,230.116004 503.120589,230.116004 L500.497168,230.116004 L500.497168,235.724407 L501.691161,235.724407 Z M502.96083,232.688974 L501.691161,232.688974 L501.691161,231.141829 L502.96083,231.141829 C503.4317,231.141829 503.784853,231.452939 503.784853,231.915401 C503.784853,232.386272 503.4317,232.688974 502.96083,232.688974 Z M506.786652,235.724407 L506.786652,233.042127 C506.963228,232.781467 507.434099,232.579665 507.787251,232.579665 C507.904969,232.579665 508.00587,232.596482 508.081545,232.613299 L508.081545,231.570657 C507.577041,231.570657 507.072537,231.856543 506.786652,232.218104 L506.786652,231.663149 L505.718785,231.663149 L505.718785,235.724407 L506.786652,235.724407 Z M510.629291,235.825308 C511.974635,235.825308 512.781841,234.849933 512.781841,233.689574 C512.781841,232.537623 511.974635,231.562249 510.629291,231.562249 C509.292355,231.562249 508.485149,232.537623 508.485149,233.689574 C508.485149,234.849933 509.292355,235.825308 510.629291,235.825308 Z M510.629291,234.875158 C509.965027,234.875158 509.595057,234.328612 509.595057,233.689574 C509.595057,233.058944 509.965027,232.512398 510.629291,232.512398 C511.293554,232.512398 511.671932,233.058944 511.671932,233.689574 C511.671932,234.328612 511.293554,234.875158 510.629291,234.875158 Z M515.237094,237.372453 C516.237694,237.372453 517.431686,236.994075 517.431686,235.44693 L517.431686,231.663149 L516.355411,231.663149 L516.355411,232.18447 C516.027484,231.772459 515.590247,231.562249 515.10256,231.562249 C514.076735,231.562249 513.31157,232.302188 513.31157,233.630715 C513.31157,234.984468 514.085143,235.699182 515.10256,235.699182 C515.598655,235.699182 516.035892,235.463746 516.355411,235.060143 L516.355411,235.472155 C516.355411,236.270953 515.750006,236.49798 515.237094,236.49798 C514.724182,236.49798 514.295353,236.355037 513.967426,235.993476 L513.488147,236.767048 C514.001059,237.212694 514.539197,237.372453 515.237094,237.372453 Z M515.438896,234.749032 C514.833491,234.749032 514.413071,234.328612 514.413071,233.630715 C514.413071,232.932818 514.833491,232.512398 515.438896,232.512398 C515.792048,232.512398 516.178835,232.705791 516.355411,232.97486 L516.355411,234.28657 C516.178835,234.547231 515.792048,234.749032 515.438896,234.749032 Z M519.559012,235.724407 L519.559012,233.042127 C519.735588,232.781467 520.206459,232.579665 520.559611,232.579665 C520.677329,232.579665 520.77823,232.596482 520.853905,232.613299 L520.853905,231.570657 C520.349401,231.570657 519.844897,231.856543 519.559012,232.218104 L519.559012,231.663149 L518.491145,231.663149 L518.491145,235.724407 L519.559012,235.724407 Z M523.426876,235.825308 C524.057506,235.825308 524.696544,235.631914 525.100147,235.261945 L524.629277,234.572456 C524.368617,234.824708 523.922971,234.976059 523.544593,234.976059 C522.855105,234.976059 522.443093,234.547231 522.375826,234.034318 L525.394441,234.034318 L525.394441,233.798883 C525.394441,232.470356 524.570418,231.562249 523.359609,231.562249 C522.123574,231.562249 521.257509,232.512398 521.257509,233.689574 C521.257509,234.992876 522.190841,235.825308 523.426876,235.825308 Z M524.360208,233.311196 L522.359009,233.311196 C522.409459,232.907593 522.695345,232.411497 523.359609,232.411497 C524.065914,232.411497 524.334983,232.924409 524.360208,233.311196 Z M527.631076,235.825308 C528.757802,235.825308 529.388432,235.261945 529.388432,234.522006 C529.388432,233.512998 528.455099,233.328013 527.757202,233.193478 C527.303148,233.100986 526.983629,233.008494 526.983629,232.756241 C526.983629,232.520806 527.235881,232.377863 527.622668,232.377863 C528.118763,232.377863 528.581225,232.588073 528.825069,232.848734 L529.253897,232.117203 C528.850294,231.797684 528.303748,231.562249 527.614259,231.562249 C526.546392,231.562249 525.949396,232.159245 525.949396,232.840325 C525.949396,233.807292 526.849095,233.97546 527.546992,234.109994 C528.009454,234.202486 528.362607,234.303387 528.362607,234.589273 C528.362607,234.841525 528.143988,235.001284 527.681526,235.001284 C527.177022,235.001284 526.571618,234.723807 526.277324,234.44633 L525.814862,235.194678 C526.24369,235.589872 526.92477,235.825308 527.631076,235.825308 Z M531.641883,235.825308 C532.768608,235.825308 533.399239,235.261945 533.399239,234.522006 C533.399239,233.512998 532.465906,233.328013 531.768009,233.193478 C531.313955,233.100986 530.994436,233.008494 530.994436,232.756241 C530.994436,232.520806 531.246688,232.377863 531.633474,232.377863 C532.12957,232.377863 532.592032,232.588073 532.835876,232.848734 L533.264704,232.117203 C532.861101,231.797684 532.314555,231.562249 531.625066,231.562249 C530.557199,231.562249 529.960203,232.159245 529.960203,232.840325 C529.960203,233.807292 530.859902,233.97546 531.557799,234.109994 C532.020261,234.202486 532.373414,234.303387 532.373414,234.589273 C532.373414,234.841525 532.154795,235.001284 531.692333,235.001284 C531.187829,235.001284 530.582424,234.723807 530.28813,234.44633 L529.825668,235.194678 C530.254497,235.589872 530.935577,235.825308 531.641883,235.825308 Z" id="path-19"></path>
        <rect id="path-20" x="-3.55271368e-14" y="-1.77635684e-14" width="119.011203" height="25.8720007" rx="10.3488003"></rect>
        <filter x="-9.2%" y="-42.5%" width="121.8%" height="200.5%" filterUnits="objectBoundingBox" id="filter-21">
            <feOffset dx="2" dy="2" in="SourceAlpha" result="shadowOffsetOuter1"></feOffset>
            <feGaussianBlur stdDeviation="4" in="shadowOffsetOuter1" result="shadowBlurOuter1"></feGaussianBlur>
            <feColorMatrix values="0 0 0 0 0.97254902   0 0 0 0 0.88627451   0 0 0 0 0.882352941  0 0 0 1 0" type="matrix" in="shadowBlurOuter1"></feColorMatrix>
        </filter>
        <linearGradient x1="47.3457545%" y1="40.5482042%" x2="66.5039062%" y2="69.5947081%" id="linearGradient-22">
            <stop stop-color="#FF695A" offset="0%"></stop>
            <stop stop-color="#FF5A80" offset="100%"></stop>
        </linearGradient>
        <path d="M13.480606,15.1148002 L13.480606,12.9506073 L15.01999,12.9506073 C16.3239388,12.9506073 17.0483549,12.0722529 17.0483549,11.0218497 C17.0483549,9.96239125 16.332994,9.07498163 15.01999,9.07498163 L12.1947675,9.07498163 L12.1947675,15.1148002 L13.480606,15.1148002 Z M14.8479412,11.8458729 L13.480606,11.8458729 L13.480606,10.1797161 L14.8479412,10.1797161 C15.3550324,10.1797161 15.7353508,10.5147585 15.7353508,11.0127945 C15.7353508,11.5198857 15.3550324,11.8458729 14.8479412,11.8458729 Z M18.9680573,15.1148002 L18.9680573,12.2261913 C19.1582165,11.9454801 19.6653077,11.7281553 20.0456261,11.7281553 C20.172399,11.7281553 20.2810614,11.7462657 20.3625582,11.7643761 L20.3625582,10.6415313 C19.8192461,10.6415313 19.2759341,10.9494081 18.9680573,11.3387817 L18.9680573,10.7411385 L17.8180469,10.7411385 L17.8180469,15.1148002 L18.9680573,15.1148002 Z M23.1062838,15.2234626 C24.5551159,15.2234626 25.4244151,14.1730594 25.4244151,12.9234417 C25.4244151,11.6828793 24.5551159,10.6324761 23.1062838,10.6324761 C21.666507,10.6324761 20.7972078,11.6828793 20.7972078,12.9234417 C20.7972078,14.1730594 21.666507,15.2234626 23.1062838,15.2234626 Z M23.1062838,14.200225 C22.390923,14.200225 21.9924942,13.611637 21.9924942,12.9234417 C21.9924942,12.2443017 22.390923,11.6557137 23.1062838,11.6557137 C23.8216447,11.6557137 24.2291287,12.2443017 24.2291287,12.9234417 C24.2291287,13.611637 23.8216447,14.200225 23.1062838,14.200225 Z M28.0685336,16.8896194 C29.1461024,16.8896194 30.4319408,16.4821354 30.4319408,14.8159786 L30.4319408,10.7411385 L29.2728752,10.7411385 L29.2728752,11.3025609 C28.9197224,10.8588561 28.448852,10.6324761 27.9236504,10.6324761 C26.8189159,10.6324761 25.9948927,11.4293337 25.9948927,12.8600553 C25.9948927,14.3179426 26.8279711,15.0876346 27.9236504,15.0876346 C28.4579072,15.0876346 28.9287776,14.834089 29.2728752,14.3994394 L29.2728752,14.8431442 C29.2728752,15.7033882 28.6209008,15.9478786 28.0685336,15.9478786 C27.5161664,15.9478786 27.0543511,15.7939402 26.7011983,15.4045666 L26.1850519,16.237645 C26.7374191,16.7175706 27.3169519,16.8896194 28.0685336,16.8896194 Z M28.2858584,14.064397 C27.633884,14.064397 27.1811239,13.611637 27.1811239,12.8600553 C27.1811239,12.1084737 27.633884,11.6557137 28.2858584,11.6557137 C28.6661768,11.6557137 29.082716,11.8639833 29.2728752,12.1537497 L29.2728752,13.566361 C29.082716,13.8470722 28.6661768,14.064397 28.2858584,14.064397 Z M32.7229065,15.1148002 L32.7229065,12.2261913 C32.9130657,11.9454801 33.4201569,11.7281553 33.8004753,11.7281553 C33.9272481,11.7281553 34.0359105,11.7462657 34.1174073,11.7643761 L34.1174073,10.6415313 C33.5740953,10.6415313 33.0307833,10.9494081 32.7229065,11.3387817 L32.7229065,10.7411385 L31.5728961,10.7411385 L31.5728961,15.1148002 L32.7229065,15.1148002 Z M36.8882986,15.2234626 C37.5674386,15.2234626 38.2556338,15.015193 38.6902835,14.6167642 L38.1831922,13.8742378 C37.902481,14.1458938 37.4225554,14.3088874 37.0150714,14.3088874 C36.272545,14.3088874 35.8288402,13.8470722 35.7563986,13.2947049 L39.0072155,13.2947049 L39.0072155,13.0411593 C39.0072155,11.6104377 38.1198058,10.6324761 36.815857,10.6324761 C35.4847426,10.6324761 34.5520569,11.6557137 34.5520569,12.9234417 C34.5520569,14.3269978 35.5571842,15.2234626 36.8882986,15.2234626 Z M37.8934258,12.5159577 L35.7382882,12.5159577 C35.7926194,12.0813081 36.1004962,11.5470513 36.815857,11.5470513 C37.5764938,11.5470513 37.8662602,12.0994185 37.8934258,12.5159577 Z M41.4158987,15.2234626 C42.6292956,15.2234626 43.3084356,14.6167642 43.3084356,13.8199066 C43.3084356,12.7332825 42.3033084,12.5340681 41.5517267,12.3891849 C41.0627459,12.2895777 40.7186483,12.1899705 40.7186483,11.9183145 C40.7186483,11.6647689 40.9903043,11.5108305 41.4068435,11.5108305 C41.9411003,11.5108305 42.4391364,11.7372105 42.7017372,12.0179217 L43.1635524,11.2301193 C42.7289028,10.8860217 42.1403148,10.6324761 41.3977883,10.6324761 C40.2477779,10.6324761 39.6048587,11.2753953 39.6048587,12.0088665 C39.6048587,13.0502145 40.5737651,13.2313185 41.3253467,13.3762017 C41.8233827,13.4758089 42.2037012,13.5844714 42.2037012,13.8923482 C42.2037012,14.1640042 41.9682659,14.336053 41.4702299,14.336053 C40.9269179,14.336053 40.2749435,14.0372314 39.9580115,13.7384098 L39.4599755,14.5443226 C39.9217907,14.969917 40.6552619,15.2234626 41.4158987,15.2234626 Z M45.7352293,15.2234626 C46.9486261,15.2234626 47.6277661,14.6167642 47.6277661,13.8199066 C47.6277661,12.7332825 46.6226389,12.5340681 45.8710573,12.3891849 C45.3820764,12.2895777 45.0379788,12.1899705 45.0379788,11.9183145 C45.0379788,11.6647689 45.3096348,11.5108305 45.7261741,11.5108305 C46.2604309,11.5108305 46.7584669,11.7372105 47.0210677,12.0179217 L47.4828829,11.2301193 C47.0482333,10.8860217 46.4596453,10.6324761 45.7171189,10.6324761 C44.5671084,10.6324761 43.9241892,11.2753953 43.9241892,12.0088665 C43.9241892,13.0502145 44.8930956,13.2313185 45.6446772,13.3762017 C46.1427133,13.4758089 46.5230317,13.5844714 46.5230317,13.8923482 C46.5230317,14.1640042 46.2875965,14.336053 45.7895605,14.336053 C45.2462484,14.336053 44.594274,14.0372314 44.277342,13.7384098 L43.779306,14.5443226 C44.2411212,14.969917 44.9745924,15.2234626 45.7352293,15.2234626 Z" id="path-23"></path>
        <path d="M78.9400018,15.1148002 L78.9400018,9.87183925 L80.805373,9.87183925 L80.805373,9.07498163 L76.1600553,9.07498163 L76.1600553,9.87183925 L78.0344817,9.87183925 L78.0344817,15.1148002 L78.9400018,15.1148002 Z M82.6707443,15.2234626 C84.0380795,15.2234626 84.8802131,14.1911698 84.8802131,12.9234417 C84.8802131,11.6647689 84.0380795,10.6324761 82.6707443,10.6324761 C81.3124642,10.6324761 80.4612754,11.6647689 80.4612754,12.9234417 C80.4612754,14.1911698 81.3124642,15.2234626 82.6707443,15.2234626 Z M82.6707443,14.4990466 C81.801445,14.4990466 81.3124642,13.7565202 81.3124642,12.9234417 C81.3124642,12.0994185 81.801445,11.3568921 82.6707443,11.3568921 C83.5490987,11.3568921 84.0290243,12.0994185 84.0290243,12.9234417 C84.0290243,13.7565202 83.5490987,14.4990466 82.6707443,14.4990466 Z M87.7054356,13.2765945 L87.7054356,12.5702889 L85.5321875,12.5702889 L85.5321875,13.2765945 L87.7054356,13.2765945 Z M90.3133333,15.2234626 C90.8928661,15.2234626 91.4180677,14.924641 91.7440549,14.4899914 L91.7440549,15.1148002 L92.5590229,15.1148002 L92.5590229,9.07498163 L91.7440549,9.07498163 L91.7440549,11.3750025 C91.3909021,10.9041321 90.8747557,10.6324761 90.3133333,10.6324761 C89.172378,10.6324761 88.35741,11.5289409 88.35741,12.9324969 C88.35741,14.3632186 89.172378,15.2234626 90.3133333,15.2234626 Z M90.5306581,14.4990466 C89.7156901,14.4990466 89.2085988,13.838017 89.2085988,12.9324969 C89.2085988,12.0179217 89.7156901,11.3568921 90.5306581,11.3568921 C91.0286941,11.3568921 91.5176749,11.6466585 91.7440549,11.9998113 L91.7440549,13.8651826 C91.5176749,14.2183354 91.0286941,14.4990466 90.5306581,14.4990466 Z M95.8007846,15.2234626 C97.1681199,15.2234626 98.0102535,14.1911698 98.0102535,12.9234417 C98.0102535,11.6647689 97.1681199,10.6324761 95.8007846,10.6324761 C94.4425046,10.6324761 93.5913158,11.6647689 93.5913158,12.9234417 C93.5913158,14.1911698 94.4425046,15.2234626 95.8007846,15.2234626 Z M95.8007846,14.4990466 C94.9314854,14.4990466 94.4425046,13.7565202 94.4425046,12.9234417 C94.4425046,12.0994185 94.9314854,11.3568921 95.8007846,11.3568921 C96.679139,11.3568921 97.1590647,12.0994185 97.1590647,12.9234417 C97.1590647,13.7565202 96.679139,14.4990466 95.8007846,14.4990466 Z M100.482323,15.2234626 C101.632334,15.2234626 102.248087,14.6348746 102.248087,13.883293 C102.248087,12.8781657 101.342567,12.6698961 100.58193,12.4978473 C100.038618,12.3710745 99.5677479,12.2443017 99.5677479,11.8639833 C99.5677479,11.5108305 99.9118455,11.2935057 100.464213,11.2935057 C101.01658,11.2935057 101.505561,11.5198857 101.759106,11.8277625 L102.121314,11.2572849 C101.750051,10.9041321 101.206739,10.6324761 100.455158,10.6324761 C99.3866439,10.6324761 98.7890007,11.2301193 98.7890007,11.9273697 C98.7890007,12.8691105 99.6582999,13.0683249 100.400826,13.2403737 C100.962249,13.3671465 101.460285,13.5120298 101.460285,13.9466794 C101.460285,14.3179426 101.134298,14.5714882 100.518544,14.5714882 C99.9299559,14.5714882 99.3504231,14.2726666 99.0516015,13.9466794 L98.6622279,14.5443226 C99.1059327,14.9970826 99.7488519,15.2234626 100.482323,15.2234626 Z" id="path-24"></path>
        <filter x="-38.7%" y="-253.0%" width="176.9%" height="606.1%" filterUnits="objectBoundingBox" id="filter-25">
            <feOffset dx="12" dy="-7" in="SourceAlpha" result="shadowOffsetOuter1"></feOffset>
            <feGaussianBlur stdDeviation="15.5" in="shadowOffsetOuter1" result="shadowBlurOuter1"></feGaussianBlur>
            <feColorMatrix values="0 0 0 0 0.17821558   0 0 0 0 0.0678619539   0 0 0 0 0.0568265913  0 0 0 0.2 0" type="matrix" in="shadowBlurOuter1" result="shadowMatrixOuter1"></feColorMatrix>
            <feMerge>
                <feMergeNode in="shadowMatrixOuter1"></feMergeNode>
                <feMergeNode in="SourceGraphic"></feMergeNode>
            </feMerge>
        </filter>
    </defs>
    <g id="automate-your-processes" stroke="none" stroke-width="1" fill="none" fill-rule="evenodd">
        <g id="image-copy" transform="translate(62.000000, 0.000000)">
            <g id="Group-9" transform="translate(9.000000, 0.000000)">
                <mask id="mask-2" fill="white">
                    <use xlink:href="#path-1"></use>
                </mask>
                <use id="Base" fill="#FFF7F7" xlink:href="#path-1"></use>
                <g id="Group-6" mask="url(#mask-2)">
                    <g transform="translate(-204.000000, 18.000000)">
                        <g id="Group-12" stroke-width="1" fill="none" fill-rule="evenodd" transform="translate(594.698417, 41.803601)">
                            <rect id="Rectangle-366" fill="#FF695A" fill-rule="nonzero" x="-4.97379915e-14" y="2.64677169e-13" width="37.514401" height="12.2892003" rx="2.58720007"></rect>
                            <g id="FLAGGED" fill-rule="nonzero" fill="#FFFFFF">
                                <use xlink:href="#path-3"></use>
                                <use xlink:href="#path-3"></use>
                            </g>
                        </g>
                        <g id="Group-11" stroke-width="1" fill="none" fill-rule="evenodd" transform="translate(549.422415, 41.803601)">
                            <rect id="Rectangle-366" fill="#FFB100" fill-rule="nonzero" x="-3.55271368e-15" y="2.64677169e-13" width="40.1016011" height="12.2892003" rx="2.58720007"></rect>
                            <g id="AWAITING" fill-rule="nonzero" fill="#FFFFFF">
                                <use xlink:href="#path-4"></use>
                                <use xlink:href="#path-4"></use>
                            </g>
                        </g>
                        <g id="Group-10" stroke-width="1" fill="none" fill-rule="evenodd" transform="translate(517.729214, 41.803601)">
                            <rect id="Rectangle-366" fill="#5AA0FF" fill-rule="nonzero" x="4.97379915e-14" y="2.64677169e-13" width="26.5188007" height="12.2892003" rx="2.58720007"></rect>
                            <g id="DONE" fill-rule="nonzero" fill="#FFFFFF">
                                <use xlink:href="#path-5"></use>
                                <use xlink:href="#path-5"></use>
                            </g>
                        </g>
                        <g id="Rectangle-33" fill="none" fill-rule="nonzero">
                            <use fill="black" fill-opacity="1" filter="url(#filter-7)" xlink:href="#path-6"></use>
                            <use fill="#FFFFFF" xlink:href="#path-6"></use>
                        </g>
                        <rect id="Rectangle-445" fill="#FFFFFF" fill-rule="nonzero" x="220.864017" y="115.181204" width="401" height="26.5188007"></rect>
                        <rect id="Rectangle-445" fill="#FFFFFF" fill-rule="nonzero" x="220.864017" y="141.700004" width="401" height="26.5188007"></rect>
                        <g id="Dayinnewjob" fill="none" fill-rule="nonzero">
                            <use fill="#555555" xlink:href="#path-8"></use>
                            <use fill="#555555" xlink:href="#path-8"></use>
                        </g>
                        <g id="Journeys" fill="none" fill-rule="nonzero">
                            <use fill="#555555" xlink:href="#path-9"></use>
                            <use fill="#555555" xlink:href="#path-9"></use>
                        </g>
                        <g id="General,Engineering" fill="none" fill-rule="nonzero">
                            <use fill="#777777" xlink:href="#path-10"></use>
                            <use fill="#777777" xlink:href="#path-10"></use>
                        </g>
                        <g id="Londonofce" fill="none" fill-rule="nonzero">
                            <use fill="#777777" xlink:href="#path-11"></use>
                            <use fill="#777777" xlink:href="#path-11"></use>
                        </g>
                        <g id="Progress" fill="none" fill-rule="nonzero">
                            <use fill="#555555" xlink:href="#path-12"></use>
                            <use fill="#555555" xlink:href="#path-12"></use>
                        </g>
                        <g id="Group-14" stroke-width="1" fill="none" fill-rule="evenodd" transform="translate(502.206014, 119.062004)">
                            <rect id="Rectangle-397" fill="#F2F2F2" fill-rule="nonzero" x="3.55271368e-14" y="-3.74811293e-13" width="119.658003" height="18.1104005" rx="2.58720007"></rect>
                            <path d="M2.58720007,-3.74811293e-13 L51.0972014,-3.74811293e-13 L51.0972014,-3.74811293e-13 L51.0972014,18.1104005 L2.58720007,18.1104005 C1.15832893,18.1104005 9.50085965e-15,16.9520716 7.10542736e-15,15.5232004 L7.10542736e-15,2.58720007 C6.93044111e-15,1.15832893 1.15832893,-3.74104725e-13 2.58720007,-3.74811293e-13 Z" id="Rectangle-449" fill="#FF695A" fill-rule="nonzero"></path>
                            <path d="M2.58720007,-3.74811293e-13 L38.8080011,-3.74811293e-13 L38.8080011,-3.74811293e-13 L38.8080011,18.1104005 L2.58720007,18.1104005 C1.15832893,18.1104005 -2.24735635e-14,16.9520716 -2.48689958e-14,15.5232004 L-2.48689958e-14,2.58720007 C-2.5043982e-14,1.15832893 1.15832893,-3.74104725e-13 2.58720007,-3.74811293e-13 Z" id="Rectangle-448" fill="#FFB100" fill-rule="nonzero"></path>
                            <path d="M2.58720007,-3.74811293e-13 L31.6932009,-3.74811293e-13 L31.6932009,-3.74811293e-13 L31.6932009,18.1104005 L2.58720007,18.1104005 C1.15832893,18.1104005 2.41558036e-14,16.9520716 2.48689958e-14,15.5232004 L2.48689958e-14,2.58720007 C2.42499203e-14,1.15832893 1.15832893,-3.74548814e-13 2.58720007,-3.74811293e-13 Z" id="Rectangle-398" fill="#5AA0FF" fill-rule="nonzero"></path>
                        </g>
                        <rect id="Rectangle-397" fill="#F2F2F2" fill-rule="nonzero" x="502.206014" y="145.580805" width="119.658003" height="18.1104005" rx="2.58720007"></rect>
                        <path d="M504.793214,145.580805 L586.290016,145.580805 L586.290016,145.580805 L586.290016,163.691205 L504.793214,163.691205 C503.364343,163.691205 502.206014,162.532876 502.206014,161.104005 L502.206014,148.168005 C502.206014,146.739133 503.364343,145.580805 504.793214,145.580805 Z" id="Rectangle-451" fill="#FF695A" fill-rule="nonzero"></path>
                        <path d="M504.793214,145.580805 L583.702816,145.580805 L583.702816,145.580805 L583.702816,163.691205 L504.793214,163.691205 C503.364343,163.691205 502.206014,162.532876 502.206014,161.104005 L502.206014,148.168005 C502.206014,146.739133 503.364343,145.580805 504.793214,145.580805 Z" id="Rectangle-450" fill="#FFB100" fill-rule="nonzero"></path>
                        <path d="M504.793214,145.580805 L569.473216,145.580805 L569.473216,145.580805 L569.473216,163.691205 L504.793214,163.691205 C503.364343,163.691205 502.206014,162.532876 502.206014,161.104005 L502.206014,148.168005 C502.206014,146.739133 503.364343,145.580805 504.793214,145.580805 Z" id="Rectangle-398" fill="#5AA0FF" fill-rule="nonzero"></path>
                        <rect id="Rectangle-445" fill="#FFFFFF" fill-rule="nonzero" x="0.936000354" y="245.188007" width="618.987617" height="26.5188007"></rect>
                        <rect id="Rectangle-445" fill="#FFFFFF" fill-rule="nonzero" x="0.936000354" y="298.225609" width="618.987617" height="26.5188007"></rect>
                        <g id="Rectangle-33" fill="none" fill-rule="nonzero">
                            <use fill="black" fill-opacity="1" filter="url(#filter-14)" xlink:href="#path-13"></use>
                            <use fill="#FFFFFF" xlink:href="#path-13"></use>
                        </g>
                        <g id="Dayinnewjob" fill="none" fill-rule="nonzero">
                            <use fill="#555555" xlink:href="#path-15"></use>
                            <use fill="#555555" xlink:href="#path-15"></use>
                        </g>
                        <g id="Journeys" fill="none" fill-rule="nonzero">
                            <use fill="#555555" xlink:href="#path-16"></use>
                            <use fill="#555555" xlink:href="#path-16"></use>
                        </g>
                        <g id="General,Engineering" fill="none" fill-rule="nonzero">
                            <use fill="#777777" xlink:href="#path-17"></use>
                            <use fill="#777777" xlink:href="#path-17"></use>
                        </g>
                        <g id="Londonofce" fill="none" fill-rule="nonzero">
                            <use fill="#777777" xlink:href="#path-18"></use>
                            <use fill="#777777" xlink:href="#path-18"></use>
                        </g>
                        <g id="Progress" fill="none" fill-rule="nonzero">
                            <use fill="#555555" xlink:href="#path-19"></use>
                            <use fill="#555555" xlink:href="#path-19"></use>
                        </g>
                        <rect id="Rectangle-397" fill="#F2F2F2" fill-rule="nonzero" x="500.265614" y="249.068807" width="119.658003" height="18.1104005" rx="2.58720007"></rect>
                        <path d="M502.852814,249.068807 L524.844015,249.068807 L524.844015,249.068807 L524.844015,267.179208 L502.852814,267.179208 C501.423943,267.179208 500.265614,266.020879 500.265614,264.592008 L500.265614,251.656007 C500.265614,250.227136 501.423943,249.068807 502.852814,249.068807 Z" id="Rectangle-454" fill="#FFB100" fill-rule="nonzero"></path>
                        <path d="M502.852814,249.068807 L515.788814,249.068807 L515.788814,249.068807 L515.788814,267.179208 L502.852814,267.179208 C501.423943,267.179208 500.265614,266.020879 500.265614,264.592008 L500.265614,251.656007 C500.265614,250.227136 501.423943,249.068807 502.852814,249.068807 Z" id="Rectangle-398" fill="#5AA0FF" fill-rule="nonzero"></path>
                        <rect id="Rectangle-397" fill="#F2F2F2" fill-rule="nonzero" x="500.265614" y="302.106409" width="119.658003" height="18.1104005" rx="2.58720007"></rect>
                        <path d="M502.852814,302.106409 L608.281217,302.106409 L608.281217,302.106409 L608.281217,320.216809 L502.852814,320.216809 C501.423943,320.216809 500.265614,319.05848 500.265614,317.629609 L500.265614,304.693609 C500.265614,303.264738 501.423943,302.106409 502.852814,302.106409 Z" id="Rectangle-452" fill="#FFB100" fill-rule="nonzero"></path>
                        <path d="M502.852814,302.106409 L594.051617,302.106409 L594.051617,302.106409 L594.051617,320.216809 L502.852814,320.216809 C501.423943,320.216809 500.265614,319.05848 500.265614,317.629609 L500.265614,304.693609 C500.265614,303.264738 501.423943,302.106409 502.852814,302.106409 Z" id="Rectangle-398" fill="#5AA0FF" fill-rule="nonzero"></path>
                        <rect id="Rectangle-397" fill="#F2F2F2" fill-rule="nonzero" x="500.265614" y="275.587608" width="119.658003" height="18.1104005" rx="2.58720007"></rect>
                        <path d="M502.852814,275.587608 L577.234816,275.587608 L577.234816,275.587608 L577.234816,293.698009 L502.852814,293.698009 C501.423943,293.698009 500.265614,292.53968 500.265614,291.110809 L500.265614,278.174808 C500.265614,276.745937 501.423943,275.587608 502.852814,275.587608 Z" id="Rectangle-453" fill="#FFB100" fill-rule="nonzero"></path>
                        <path d="M502.852814,275.587608 L573.354016,275.587608 L573.354016,275.587608 L573.354016,293.698009 L502.852814,293.698009 C501.423943,293.698009 500.265614,292.53968 500.265614,291.110809 L500.265614,278.174808 C500.265614,276.745937 501.423943,275.587608 502.852814,275.587608 Z" id="Rectangle-398" fill="#5AA0FF" fill-rule="nonzero"></path>
                        <g id="Group-13" stroke-width="1" fill="none" fill-rule="evenodd" transform="translate(250.600807, 0.000000)">
                            <g id="Rectangle-259" fill-rule="nonzero">
                                <use fill="black" fill-opacity="1" filter="url(#filter-21)" xlink:href="#path-20"></use>
                                <use fill="#FFFFFF" xlink:href="#path-20"></use>
                            </g>
                            <path d="M10.3488003,-1.77635684e-14 L59.5056016,-1.77635684e-14 L59.5056016,-1.77635684e-14 L59.5056016,25.8720007 L10.3488003,25.8720007 C4.63331571,25.8720007 -1.52872666e-14,21.238685 -1.77635684e-14,15.5232004 L-1.77635684e-14,10.3488003 C-1.66871565e-14,4.63331571 4.63331571,-1.67136509e-14 10.3488003,-1.77635684e-14 Z" id="Rectangle-331" fill="url(#linearGradient-22)" fill-rule="nonzero"></path>
                            <g id="Progress" fill-rule="nonzero" fill="#FFFFFF">
                                <use xlink:href="#path-23"></use>
                                <use xlink:href="#path-23"></use>
                            </g>
                            <g id="To-dos" fill-rule="nonzero" fill="#555555">
                                <use xlink:href="#path-24"></use>
                                <use xlink:href="#path-24"></use>
                            </g>
                        </g>
                    </g>
                </g>
            </g>
            <g id="progress" filter="url(#filter-25)" transform="translate(0.000000, 307.000000)" fill-rule="nonzero">
                <rect id="Rectangle-397" stroke="#D2DAE3" stroke-width="0.600000024" fill="#F2F2F2" x="-0.300000012" y="-0.300000012" width="215.984414" height="33.1987222" rx="4.65696031"></rect>
                <path d="M4.65696031,-6.74660354e-13 L91.9749662,-6.74660354e-13 L91.9749662,-6.74660354e-13 L91.9749662,32.5987222 L4.65696031,32.5987222 C2.08499215,32.5987222 1.45009332e-14,30.51373 1.27897698e-14,27.9417619 L1.27897698e-14,4.65696031 C1.15866161e-14,2.08499215 2.08499215,-6.74187892e-13 4.65696031,-6.74660354e-13 Z" id="Rectangle-449" fill="#FF695A"></path>
                <path d="M4.65696031,-6.74660354e-13 L69.8544047,-6.74660354e-13 L69.8544047,-6.74660354e-13 L69.8544047,32.5987222 L4.65696031,32.5987222 C2.08499215,32.5987222 -4.35610405e-14,30.51373 -4.47641941e-14,27.9417619 L-4.47641941e-14,4.65696031 C-4.4190991e-14,2.08499215 2.08499215,-6.73299713e-13 4.65696031,-6.74660354e-13 Z" id="Rectangle-448" fill="#FFB100"></path>
                <path d="M4.65696031,-6.74660354e-13 L57.0477638,-6.74660354e-13 L57.0477638,-6.74660354e-13 L57.0477638,32.5987222 L4.65696031,32.5987222 C2.08499215,32.5987222 4.50791694e-14,30.51373 4.47641941e-14,27.9417619 L4.47641941e-14,4.65696031 C4.44492189e-14,2.08499215 2.08499215,-6.74187892e-13 4.65696031,-6.74660354e-13 Z" id="Rectangle-398" fill="#5AA0FF"></path>
            </g>
        </g>
    </g>
</svg>