<?xml version="1.0" encoding="UTF-8"?>
<svg width="291px" height="795px" viewBox="0 0 291 795" version="1.1" xmlns="http://www.w3.org/2000/svg" xmlns:xlink="http://www.w3.org/1999/xlink">
    <title>Group</title>
    <g id="⚙️-Symbols" stroke="none" stroke-width="1" fill="none" fill-rule="evenodd" opacity="0.1">
        <g id="Section/Become-part-of-us-Mobile" transform="translate(-186.000000, 67.000000)" fill="#FFFFFF">
            <g id="Section/Become-part-of-us-Copy" transform="translate(0.000000, -67.000000)">
                <g id="Group" transform="translate(186.000000, 0.000000)">
                    <path d="M0,708.575788 C0,656.088304 60.3734809,673.599555 101.867733,611.631262 C143.361984,549.662968 141.60062,495.696726 198.233875,521.68343 C235.989378,539.007899 266.91142,591.825407 291,680.135953 C209.640691,779.164714 143.296727,814.161066 91.9681083,785.125009 C14.97518,741.570924 0,761.063273 0,708.575788 Z" id="Path"></path>
                    <path d="M11.2598423,44.0625638 C-2.81778351,73.7043 -14.0811159,115.466351 60.7484362,122.595298 C135.577988,129.724245 219.682084,78.4521748 231.673641,53.2028494 C243.665197,27.953524 157.197443,0 118.972108,0 C80.7467731,0 25.337468,14.4208276 11.2598423,44.0625638 Z" id="Path-2"></path>
                </g>
            </g>
        </g>
    </g>
</svg>