<?xml version="1.0" encoding="UTF-8"?>
<svg width="1599px" height="618px" viewBox="0 0 1599 618" version="1.1" xmlns="http://www.w3.org/2000/svg" xmlns:xlink="http://www.w3.org/1999/xlink">
    <title>Group</title>
    <g id="⚙️-Symbols" stroke="none" stroke-width="1" fill="none" fill-rule="evenodd" fill-opacity="0.1">
        <g id="Section/Become-part-of-us-Desktop" transform="translate(38.000000, 54.000000)" fill="#FFFFFF">
            <g id="Section/Become-part-of-us">
                <g id="Group" transform="translate(-38.000000, -53.202849)">
                    <path d="M1072.5862,44.0625638 C1058.50858,73.7043 1047.24524,115.466351 1122.0748,122.595298 C1196.90435,129.724245 1281.00844,78.4521748 1293,53.2028494 C1304.99156,27.953524 1218.5238,0 1180.29847,0 C1142.07313,0 1086.66383,14.4208276 1072.5862,44.0625638 Z" id="Path-2"></path>
                    <path d="M1198,497.369558 C1198,425.199268 1281.19507,449.277238 1338.37444,364.070834 C1395.5538,278.864431 1393.12663,204.660848 1471.16764,240.392566 C1523.19499,264.213711 1565.80577,336.837784 1599,458.264785 C1486.88631,594.429331 1395.46387,642.549315 1324.73269,602.624737 C1218.6359,542.737869 1198,569.539849 1198,497.369558 Z" id="Path"></path>
                    <path d="M10.8388713,50.9407507 C21.4392187,11.5718438 88.2503695,11.2438469 88.2503695,58.7144678 C88.2503695,106.185089 139,142.234319 139,210.347595 C139,278.460871 65.8033371,332.654945 26.5681176,287.797792 C-12.6671019,242.94064 0.238523841,90.3096576 10.8388713,50.9407507 Z" id="Path-3"></path>
                </g>
            </g>
        </g>
    </g>
</svg>