<?xml version="1.0" encoding="UTF-8"?>
<svg width="1432px" height="678px" viewBox="0 0 1432 678" version="1.1" xmlns="http://www.w3.org/2000/svg" xmlns:xlink="http://www.w3.org/1999/xlink" preserveAspectRatio="none">
    <title>Group 15</title>
    <g id="🎨-Design" stroke="none" stroke-width="1" fill="none" fill-rule="evenodd" fill-opacity="0.1">
        <g id="How-it-works" transform="translate(44.000000, -2711.000000)" fill="#FFFFFF">
            <g id="Section/Testimonial" transform="translate(0.000000, 2791.000000)">
                <g id="Group-15" transform="translate(-43.967158, -80.000000)">
                    <path d="M1342.03776,482.227857 C1295.03958,455.614087 1181.28997,465.004259 1091.67174,498.179725 C1002.05351,531.355191 986.206582,410.639154 897.931673,445.379899 C809.656765,480.120643 750.107743,563.175432 803.255976,625.262423 C856.404209,687.349415 1228.74127,688.382925 1349.30451,656.376068 C1469.86776,624.369212 1389.03593,508.841628 1342.03776,482.227857 Z" id="Path-12"></path>
                    <path d="M1217.80603,-8.26209869 C1228.40638,-47.6310056 1295.21753,-47.9590024 1295.21753,-0.488381614 C1295.21753,46.9822392 1345.96716,83.0314692 1345.96716,151.144746 C1345.96716,219.258022 1272.77049,273.452095 1233.53528,228.594943 C1194.30006,183.737791 1207.20568,31.1068082 1217.80603,-8.26209869 Z" id="Path-3" transform="translate(1276.467158, 104.000000) rotate(-255.000000) translate(-1276.467158, -104.000000) "></path>
                    <path d="M5.40015617,293 C29.7288884,378.37467 114.024787,326 103.613769,259 C93.20275,192 108.711421,174.644114 143.861382,145.746851 C179.011342,116.849588 143.861382,29.1710108 93.9142698,25.3325672 C43.9671578,21.4941236 -18.9285761,207.62533 5.40015617,293 Z" id="Path-4"></path>
                    <path d="M104.859519,640.242661 C51.1199681,630.471718 141.467158,466.5 256.569205,501.380103 C371.671252,536.260206 431.717469,510.159368 472.802041,493.308342 C513.886613,476.457315 623.73057,490.427929 589.428732,571.275276 C555.126893,652.122624 158.59907,650.013604 104.859519,640.242661 Z" id="Path-2"></path>
                </g>
            </g>
        </g>
    </g>
</svg>