<?xml version="1.0" encoding="UTF-8"?>
<svg width="1110px" height="164px" viewBox="0 0 1110 164" version="1.1" xmlns="http://www.w3.org/2000/svg" xmlns:xlink="http://www.w3.org/1999/xlink" preserveAspectRatio="none">
    <g stroke="none" stroke-width="1" fill="none" fill-rule="evenodd" fill-opacity="0.1">
        <g id="CTA-Section-Desktop" fill="#FFFFFF">
            <g id="Path-3">
                <g transform="translate(-5.000000, -19.000000)">
                    <path d="M5.45842438,23.3689507 C10.7967288,3.68449722 44.4426321,3.52049878 44.4426321,27.2558092 C44.4426321,50.9911196 70,69.0157346 70,103.072373 C70,137.129011 33.1383712,164.226048 13.3796276,141.797472 C-6.37911607,119.368895 0.12011992,43.0534041 5.45842438,23.3689507 Z"></path>
                    <path d="M1022,171.728093 C1022,149.025476 1048.19674,156.599686 1066.20157,129.796298 C1084.2064,102.992909 1083.44213,79.6506796 1108.01594,90.8908102 C1132.58976,102.130941 1159.36852,140.641015 1146.78883,171.728093 C1134.20914,202.815171 1095.31412,223.676846 1061.90601,204.838227 C1028.4979,185.999608 1022,194.43071 1022,171.728093 Z" id="Path"></path>
                    <path d="M597.134245,22.16201 C590.089499,37.0708214 584.453086,58.0757498 621.899399,61.6613739 C659.345713,65.246998 701.433207,39.4588452 707.434039,26.7592709 C713.434871,14.0596966 670.164552,0 651.035774,0 C631.906996,0 604.178991,7.25319859 597.134245,22.16201 Z" id="Path-2"></path>
                    <path d="M414.68448,183 C434.820629,170.099185 444.555872,146.275323 481.839777,158.516882 C519.123683,170.758441 607.333566,158.711951 610.862748,187.711951 C614.39193,216.711951 394.54833,195.900815 414.68448,183 Z" id="Path-4"></path>
                </g>
            </g>
        </g>
    </g>
</svg>