<?xml version="1.0" encoding="UTF-8"?>
<svg width="401px" height="210px" viewBox="0 0 401 210" version="1.1" xmlns="http://www.w3.org/2000/svg" xmlns:xlink="http://www.w3.org/1999/xlink" preserveAspectRatio="none">
    <g id="⚙️-Symbols" stroke="none" stroke-width="1" fill="none" fill-rule="evenodd" fill-opacity="0.1">
        <g id="CTA-Section-Mobile" transform="translate(15.000000, 0.000000)" fill="#FFFFFF">
            <g transform="translate(-15.000000, 0.000000)" id="CTA-Section-Desktop">
                <g>
                    <g id="Group">
                        <path d="M4.67864947,12.3308016 C9.25433901,-4.56153075 38.0936847,-4.70226701 38.0936847,15.6663327 C38.0936847,36.0349324 60,51.5028644 60,80.7287738 C60,109.954683 28.4043182,133.208169 11.4682522,113.960951 C-5.46781378,94.7137329 0.102959931,29.223134 4.67864947,12.3308016 Z" id="Path-3"></path>
                        <path d="M283,172.975827 C283,152.104067 307.150122,159.067453 323.748325,134.425629 C340.346527,109.783804 339.64196,88.3240119 362.295947,98.6576804 C384.949934,108.991349 409.636601,144.395772 398.039701,172.975827 C386.442801,201.555883 350.586458,220.735165 319.788356,203.415789 C288.990253,186.096414 283,193.847588 283,172.975827 Z" id="Path"></path>
                    </g>
                </g>
            </g>
        </g>
    </g>
</svg>