<?xml version="1.0" encoding="UTF-8"?>
<svg width="57px" height="64px" viewBox="0 0 57 64" version="1.1" xmlns="http://www.w3.org/2000/svg" xmlns:xlink="http://www.w3.org/1999/xlink" preserveAspectRatio="xMinYMid meet">
    <title>logo-EU</title>
    <g id="🎨-Design" stroke="none" stroke-width="1" fill="none" fill-rule="evenodd">
        <g id="Home" transform="translate(-145.000000, -3914.000000)">
            <g id="Section/Logo-Banner" transform="translate(145.000000, 3914.000000)">
                <g id="logo-EU">
                    <path d="M1.12342857,56.0297143 L1.12342857,60.9017143 C1.12342857,61.2605714 1.14628571,61.5634286 1.19314286,61.8102857 C1.23771429,62.0582857 1.328,62.2777143 1.46171429,62.4731429 C1.60457143,62.6834286 1.79542857,62.8422857 2.03771429,62.9508571 C2.28,63.0594286 2.576,63.1154286 2.92571429,63.1154286 C3.25371429,63.1154286 3.54514286,63.0594286 3.8,62.9508571 C4.05485714,62.8422857 4.25257143,62.6834286 4.39314286,62.4731429 C4.52342857,62.2754286 4.61257143,62.0548571 4.66171429,61.8137143 C4.70857143,61.5725714 4.73371429,61.2777143 4.73371429,60.9268571 L4.73371429,56.0297143 L5.78285714,56.0297143 L5.78285714,60.9017143 C5.78285714,61.4422857 5.72685714,61.9085714 5.61485714,62.296 C5.50285714,62.6834286 5.30971429,63.0125714 5.02857143,63.2811429 C4.77828571,63.5211429 4.48571429,63.7028571 4.152,63.8217143 C3.81828571,63.9394286 3.408,64 2.92571429,64 C2.46171429,64 2.05828571,63.9382857 1.71085714,63.8182857 C1.36457143,63.6982857 1.07085714,63.5188571 0.826285714,63.2811429 C0.550857143,63.0091429 0.356571429,62.6834286 0.243428571,62.3028571 C0.131428571,61.9245714 0.0742857143,61.456 0.0742857143,60.9017143 L0.0742857143,56.0297143 L1.12342857,56.0297143 Z M17.9702857,57.8182857 C18.768,57.8182857 19.4068571,58.088 19.8891429,58.6274286 C20.3691429,59.1691429 20.6102857,59.9291429 20.6102857,60.912 C20.6102857,61.8971429 20.3691429,62.6582857 19.8891429,63.1942857 C19.4068571,63.7325714 18.768,64 17.9702857,64 C17.1474286,64 16.4982857,63.7234286 16.0274286,63.168 C15.5554286,62.616 15.32,61.8617143 15.32,60.912 C15.32,59.9325714 15.5634286,59.1737143 16.0491429,58.6308571 C16.5348571,58.0902857 17.1748571,57.8182857 17.9702857,57.8182857 Z M9.99885714,57.8182857 C10.5828571,57.8182857 11.0377143,58.008 11.3668571,58.3885714 C11.696,58.7668571 11.8594286,59.3154286 11.8594286,60.0365714 L11.8594286,63.8365714 L10.8628571,63.8365714 L10.8628571,60.5017143 C10.8628571,60.2331429 10.8502857,59.984 10.824,59.7497143 C10.7977143,59.5165714 10.7462857,59.3314286 10.6731429,59.192 C10.592,59.0457143 10.4788571,58.936 10.3337143,58.864 C10.1885714,58.7931429 9.98971429,58.7565714 9.73942857,58.7565714 C9.49371429,58.7565714 9.23885714,58.8228571 8.97485714,58.9531429 C8.71085714,59.0845714 8.45371429,59.2571429 8.20457143,59.4651429 L8.20457143,63.8365714 L7.20685714,63.8365714 L7.20685714,57.9805714 L8.20457143,57.9805714 L8.20457143,58.6308571 C8.49942857,58.368 8.79314286,58.168 9.08228571,58.0274286 C9.37257143,57.8891429 9.67885714,57.8182857 9.99885714,57.8182857 Z M24.424,57.8182857 C25.0068571,57.8182857 25.4628571,58.008 25.792,58.3885714 C26.12,58.7668571 26.2845714,59.3154286 26.2845714,60.0365714 L26.2845714,63.8365714 L25.288,63.8365714 L25.288,60.5017143 C25.288,60.2331429 25.2742857,59.984 25.2491429,59.7497143 C25.2228571,59.5165714 25.1714286,59.3314286 25.0982857,59.192 C25.016,59.0457143 24.904,58.936 24.7588571,58.864 C24.6125714,58.7931429 24.416,58.7565714 24.1668571,58.7565714 C23.9177143,58.7565714 23.6628571,58.8228571 23.4,58.9531429 C23.136,59.0845714 22.8788571,59.2571429 22.6285714,59.4651429 L22.6285714,63.8365714 L21.632,63.8365714 L21.632,57.9805714 L22.6285714,57.9805714 L22.6285714,58.6308571 C22.9245714,58.368 23.2171429,58.168 23.5074286,58.0274286 C23.7977143,57.8891429 24.104,57.8182857 24.424,57.8182857 Z M14.2754286,57.9805714 L14.2754286,63.8365714 L13.28,63.8365714 L13.28,57.9805714 L14.2754286,57.9805714 Z M17.9702857,58.6685714 C17.4502857,58.6685714 17.0502857,58.8514286 16.7702857,59.2205714 C16.4902857,59.5908571 16.3485714,60.1531429 16.3485714,60.912 C16.3485714,61.6457143 16.4902857,62.2022857 16.7702857,62.5828571 C17.0502857,62.9611429 17.4502857,63.1497143 17.9702857,63.1497143 C18.4822857,63.1497143 18.88,62.9634286 19.16,62.592 C19.4411429,62.2182857 19.5817143,61.6594286 19.5817143,60.912 C19.5817143,60.1531429 19.4422857,59.5908571 19.1622857,59.2205714 C18.8834286,58.8514286 18.4857143,58.6685714 17.9702857,58.6685714 Z M14.3451429,55.9782857 L14.3451429,57 L13.2114286,57 L13.2114286,55.9782857 L14.3451429,55.9782857 Z M24.7908571,45.9714286 C25.4697143,45.9714286 25.9965714,46.2365714 26.3771429,46.768 C26.7577143,47.2994286 26.9474286,48.0125714 26.9474286,48.9051429 C26.9474286,49.8822857 26.7108571,50.6582857 26.24,51.2377143 C25.768,51.816 25.1714286,52.1051429 24.4514286,52.1051429 C24.1588571,52.1051429 23.8982857,52.0708571 23.672,52.0045714 C23.448,51.9382857 23.2148571,51.8342857 22.9771429,51.6948571 L22.9771429,54.1485714 L21.9817143,54.1485714 L21.9817143,46.1325714 L22.9771429,46.1325714 L22.9771429,46.7474286 C23.224,46.5268571 23.5005714,46.3428571 23.8022857,46.1931429 C24.1051429,46.0457143 24.4331429,45.9714286 24.7908571,45.9714286 Z M7.13371429,46.1325714 L7.13371429,49.4674286 C7.13371429,49.7782857 7.14514286,50.0354286 7.16685714,50.2411429 C7.192,50.4457143 7.24228571,50.624 7.32457143,50.7782857 C7.40457143,50.9291429 7.51657143,51.0377143 7.65485714,51.1085714 C7.79428571,51.1782857 7.99428571,51.2125714 8.25714286,51.2125714 C8.50057143,51.2125714 8.76,51.1451429 9.03542857,51.0091429 C9.31085714,50.8731429 9.56342857,50.7051429 9.79428571,50.5051429 L9.79428571,46.1325714 L10.7897143,46.1325714 L10.7897143,51.9897143 L9.79428571,51.9897143 L9.79428571,51.3382857 C9.48685714,51.6045714 9.19542857,51.8057143 8.92114286,51.9451429 C8.64228571,52.0822857 8.336,52.152 7.99657143,52.152 C7.73828571,52.152 7.49714286,52.1097143 7.26857143,52.024 C7.04,51.9428571 6.84228571,51.8091429 6.672,51.6285714 C6.50171429,51.4468571 6.37142857,51.2171429 6.27657143,50.9417143 C6.18285714,50.6651429 6.13714286,50.3291429 6.13714286,49.9337143 L6.13714286,46.1325714 L7.13371429,46.1325714 Z M18.32,45.9714286 C19.1188571,45.9714286 19.7577143,46.24 20.2388571,46.7817143 C20.72,47.3211429 20.96,48.0822857 20.96,49.064 C20.96,50.0502857 20.72,50.8102857 20.2388571,51.3474286 C19.7577143,51.8845714 19.1188571,52.152 18.32,52.152 C17.4971429,52.152 16.8502857,51.8765714 16.3782857,51.3211429 C15.9062857,50.768 15.6708571,50.0137143 15.6708571,49.064 C15.6708571,48.0845714 15.9131429,47.3257143 16.3988571,46.7828571 C16.8845714,46.2422857 17.5257143,45.9714286 18.32,45.9714286 Z M29.8571429,45.992 C30.2628571,45.992 30.6057143,46.024 30.8845714,46.0868571 C31.1645714,46.1497143 31.4148571,46.2617143 31.6377143,46.4274286 C31.8537143,46.5874286 32.0137143,46.7954286 32.12,47.0502857 C32.2251429,47.3062857 32.2777143,47.6171429 32.2777143,47.9828571 L32.2777143,51.9897143 L31.288,51.9897143 L31.288,51.3634286 C31.2057143,51.424 31.0982857,51.5085714 30.9611429,51.616 C30.8262857,51.72 30.6937143,51.8057143 30.5668571,51.8685714 C30.3908571,51.96 30.2194286,52.0285714 30.056,52.0777143 C29.8902857,52.1268571 29.6617143,52.152 29.3634286,52.152 C29.1188571,52.152 28.888,52.1074286 28.6697143,52.016 C28.4514286,51.9245714 28.2582857,51.7977143 28.0925714,51.6331429 C27.9325714,51.472 27.8057143,51.2731429 27.7097143,51.0377143 C27.6148571,50.8022857 27.568,50.5542857 27.568,50.2891429 C27.568,49.8845714 27.6548571,49.5405714 27.8274286,49.2548571 C28,48.9702857 28.2731429,48.744 28.6491429,48.576 C28.9805714,48.4262857 29.3725714,48.3222857 29.8251429,48.264 C30.2765714,48.2068571 30.7657143,48.1645714 31.288,48.136 L31.288,47.9462857 C31.288,47.7154286 31.2525714,47.5302857 31.1805714,47.3897143 C31.1108571,47.248 31.0125714,47.136 30.8845714,47.0617143 C30.7588571,46.9805714 30.6022857,46.9268571 30.4182857,46.9017143 C30.2354286,46.8765714 30.0457143,46.8628571 29.8514286,46.8628571 C29.6217143,46.8628571 29.352,46.896 29.0411429,46.9634286 C28.7302857,47.032 28.4171429,47.1314286 28.1085714,47.2594286 L28.0491429,47.2594286 L28.0491429,46.2594286 C28.2331429,46.2068571 28.4971429,46.1497143 28.8388571,46.0868571 C29.1817143,46.024 29.5211429,45.992 29.8571429,45.992 Z M38.0285714,45.992 C38.3577143,45.992 38.6891429,46.0331429 39.0205714,46.112 C39.352,46.1931429 39.6308571,46.2948571 39.8571429,46.416 L39.8571429,47.4708571 L39.8045714,47.4708571 C39.5485714,47.2697143 39.2662857,47.1154286 38.9531429,46.9988571 C38.6411429,46.8822857 38.3257143,46.8251429 38.008,46.8251429 C37.6788571,46.8251429 37.4022857,46.8925714 37.1748571,47.0297143 C36.9485714,47.1645714 36.8365714,47.3725714 36.8365714,47.648 C36.8365714,47.8925714 36.9028571,48.0754286 37.0377143,48.1954286 C37.1714286,48.3154286 37.3874286,48.416 37.6845714,48.4937143 C37.8331429,48.5291429 37.9977143,48.5668571 38.1794286,48.6045714 C38.3611429,48.64 38.552,48.6857143 38.7554286,48.7348571 C39.192,48.8434286 39.5222857,49.0205714 39.7428571,49.2731429 C39.9634286,49.5257143 40.0742857,49.8685714 40.0742857,50.3017143 C40.0742857,50.5542857 40.024,50.7897143 39.9234286,51.0171429 C39.8228571,51.2422857 39.6742857,51.4354286 39.4811429,51.5954286 C39.2685714,51.7714286 39.0297143,51.9051429 38.7634286,51.9942857 C38.496,52.0845714 38.1611429,52.1314286 37.7588571,52.1314286 C37.3622857,52.1314286 36.9931429,52.0777143 36.648,51.9737143 C36.304,51.8685714 36.0194286,51.7565714 35.7908571,51.6388571 L35.7908571,50.5325714 L35.8445714,50.5325714 C35.9302857,50.5988571 36.0297143,50.672 36.1451429,50.752 C36.2594286,50.832 36.4114286,50.9177143 36.6034286,51.0034286 C36.7725714,51.0788571 36.9588571,51.1497143 37.1622857,51.2091429 C37.3645714,51.2685714 37.576,51.2982857 37.7942857,51.2982857 C37.9542857,51.2982857 38.1234286,51.28 38.3051429,51.2422857 C38.4834286,51.2068571 38.6194286,51.16 38.7074286,51.104 C38.8308571,51.024 38.92,50.9371429 38.976,50.8468571 C39.0297143,50.7565714 39.0571429,50.6182857 39.0571429,50.4388571 C39.0571429,50.2034286 38.992,50.0262857 38.864,49.9097143 C38.736,49.7885714 38.5051429,49.6891429 38.176,49.608 C38.0502857,49.5771429 37.8822857,49.5428571 37.6788571,49.4994286 C37.4731429,49.4571429 37.2845714,49.4102857 37.112,49.3634286 C36.6594286,49.232 36.3314286,49.0331429 36.1257143,48.7634286 C35.9211429,48.4925714 35.8194286,48.1645714 35.8194286,47.7805714 C35.8194286,47.2525714 36.0217143,46.8228571 36.4228571,46.4891429 C36.8262857,46.1577143 37.36,45.992 38.0285714,45.992 Z M54.3931429,45.9714286 C54.76,45.9714286 55.0845714,46.024 55.368,46.128 C55.6502857,46.2331429 55.8982857,46.3977143 56.1108571,46.6205714 C56.3211429,46.8434286 56.4845714,47.1188571 56.5965714,47.4422857 C56.7108571,47.7657143 56.7668571,48.1611429 56.7668571,48.6285714 L56.7668571,49.1634286 L52.6651429,49.1634286 C52.6651429,49.8445714 52.8365714,50.3645714 53.184,50.7257143 C53.5302857,51.0857143 54.0102857,51.2662857 54.6205714,51.2662857 C54.8388571,51.2662857 55.0548571,51.2422857 55.264,51.1931429 C55.4742857,51.144 55.6651429,51.0788571 55.8342857,51.0034286 C56.0148571,50.9245714 56.1668571,50.8457143 56.2902857,50.7702857 C56.4137143,50.6937143 56.5154286,50.624 56.5965714,50.5577143 L56.6548571,50.5577143 L56.6548571,51.6331429 C56.5394286,51.6777143 56.3942857,51.7348571 56.2205714,51.8022857 C56.048,51.872 55.8914286,51.9245714 55.7542857,51.9645714 C55.56,52.016 55.3851429,52.056 55.2262857,52.0822857 C55.0708571,52.112 54.8708571,52.1245714 54.6308571,52.1245714 C53.6891429,52.1245714 52.9554286,51.8628571 52.4342857,51.3348571 C51.9142857,50.8102857 51.6525714,50.0628571 51.6525714,49.096 C51.6525714,48.1417143 51.9051429,47.3817143 52.4091429,46.8182857 C52.9154286,46.2525714 53.5771429,45.9714286 54.3931429,45.9714286 Z M43.3542857,45.9965714 C43.68,45.9965714 43.9931429,46.0422857 44.296,46.1325714 C44.5965714,46.2228571 44.8674286,46.3291429 45.1028571,46.4468571 L45.1028571,47.5531429 L45.0457143,47.5531429 C44.9748571,47.4948571 44.8822857,47.4262857 44.7714286,47.3508571 C44.6605714,47.272 44.5257143,47.1942857 44.3668571,47.1154286 C44.2285714,47.0434286 44.0662857,46.9828571 43.88,46.9302857 C43.6914286,46.8765714 43.512,46.8514286 43.3382857,46.8514286 C42.8228571,46.8514286 42.408,47.0457143 42.096,47.4308571 C41.784,47.8182857 41.6262857,48.3622857 41.6262857,49.0697143 C41.6262857,49.7611429 41.7782857,50.3005714 42.0788571,50.6868571 C42.3817143,51.0731429 42.8011429,51.2662857 43.3382857,51.2662857 C43.664,51.2662857 43.9737143,51.2 44.2662857,51.0674286 C44.56,50.9337143 44.8182857,50.7634286 45.0457143,50.5542857 L45.1028571,50.5542857 L45.1028571,51.6571429 C45.0045714,51.704 44.8811429,51.76 44.7314286,51.8251429 C44.5851429,51.888 44.4491429,51.9382857 44.3291429,51.968 C44.16,52.0171429 44.0091429,52.0537143 43.8742857,52.08 C43.7382857,52.1074286 43.5668571,52.12 43.3542857,52.12 C42.9485714,52.12 42.576,52.0582857 42.2365714,51.9348571 C41.8971429,51.8102857 41.6045714,51.6228571 41.3611429,51.3702857 C41.1188571,51.12 40.928,50.8022857 40.7954286,50.4182857 C40.6594286,50.0354286 40.5931429,49.5862857 40.5931429,49.0697143 C40.5931429,48.5531429 40.6628571,48.112 40.8022857,47.7371429 C40.9417143,47.3634286 41.1291429,47.0502857 41.3611429,46.7931429 C41.5954286,46.5382857 41.8857143,46.3428571 42.2342857,46.2045714 C42.5828571,46.0674286 42.9554286,45.9965714 43.3542857,45.9965714 Z M5.10514286,44.1828571 L5.10514286,45.1051429 L1.21942857,45.1051429 L1.21942857,47.2445714 L4.83771429,47.2445714 L4.83771429,48.1668571 L1.21942857,48.1668571 L1.21942857,51.0674286 L5.10514286,51.0674286 L5.10514286,51.9897143 L0.169142857,51.9897143 L0.169142857,44.1828571 L5.10514286,44.1828571 Z M47.0057143,43.8308571 L47.0057143,46.7828571 C47.3028571,46.5211429 47.5954286,46.32 47.8834286,46.1794286 C48.176,46.0422857 48.4811429,45.9714286 48.8022857,45.9714286 C49.3851429,45.9714286 49.84,46.16 50.1691429,46.5405714 C50.4982857,46.9188571 50.6605714,47.4685714 50.6605714,48.1885714 L50.6605714,51.9897143 L49.6651429,51.9897143 L49.6651429,48.6537143 C49.6651429,48.3851429 49.6525714,48.136 49.6251429,47.9017143 C49.5988571,47.6697143 49.5485714,47.4834286 49.4754286,47.344 C49.3931429,47.1988571 49.28,47.088 49.136,47.0171429 C48.9897143,46.9451429 48.7931429,46.9097143 48.544,46.9097143 C48.2948571,46.9097143 48.04,46.9737143 47.7771429,47.1062857 C47.512,47.2365714 47.256,47.408 47.0057143,47.6171429 L47.0057143,51.9897143 L46.0091429,51.9897143 L46.0091429,43.8308571 L47.0057143,43.8308571 Z M34.6937143,46.1325714 L34.6937143,51.9897143 L33.6982857,51.9897143 L33.6982857,46.1325714 L34.6937143,46.1325714 Z M13.2274286,46.1325714 L13.2274286,47.0034286 C13.592,46.6857143 13.9085714,46.4594286 14.1782857,46.3314286 C14.4502857,46.1988571 14.712,46.1325714 14.9657143,46.1325714 C15.0685714,46.1325714 15.1462857,46.1348571 15.1965714,46.1405714 C15.248,46.1462857 15.3051429,46.1531429 15.368,46.1634286 L15.368,47.192 L15.3142857,47.192 C15.2411429,47.1691429 15.1645714,47.1577143 15.08,47.1531429 C14.9965714,47.1474286 14.896,47.144 14.7817143,47.144 C14.5108571,47.144 14.2445714,47.2022857 13.9794286,47.3177143 C13.7154286,47.4342857 13.4628571,47.6034286 13.2274286,47.8297143 L13.2274286,51.9897143 L12.2308571,51.9897143 L12.2308571,46.1325714 L13.2274286,46.1325714 Z M18.32,46.8205714 C17.8,46.8205714 17.4022857,47.0045714 17.1188571,47.3725714 C16.8388571,47.7417143 16.6982857,48.3062857 16.6982857,49.064 C16.6982857,49.7977143 16.8388571,50.3531429 17.1188571,50.7348571 C17.4022857,51.1131429 17.8,51.3017143 18.32,51.3017143 C18.8331429,51.3017143 19.2285714,51.1154286 19.5085714,50.744 C19.7908571,50.3714286 19.9314286,49.8114286 19.9314286,49.064 C19.9314286,48.3062857 19.7908571,47.7417143 19.5131429,47.3725714 C19.2331429,47.0045714 18.8354286,46.8205714 18.32,46.8205714 Z M31.288,48.9222857 C31.0502857,48.9428571 30.752,48.9725714 30.3897143,49.0091429 C30.0274286,49.0457143 29.736,49.0971429 29.512,49.1634286 C29.248,49.2434286 29.0274286,49.368 28.856,49.5337143 C28.6834286,49.6982857 28.5954286,49.9291429 28.5954286,50.2285714 C28.5954286,50.5634286 28.6914286,50.8171429 28.8822857,50.9874286 C29.072,51.16 29.352,51.2445714 29.72,51.2445714 C30.0331429,51.2445714 30.3177143,51.1771429 30.5714286,51.0411429 C30.8274286,50.9085714 31.0662857,50.7428571 31.288,50.5474286 L31.288,48.9222857 Z M24.5474286,46.9097143 C24.2628571,46.9097143 23.9897143,46.9714286 23.728,47.096 C23.4651429,47.2194286 23.2148571,47.3794286 22.9771429,47.5748571 L22.9771429,50.8937143 C23.24,51.0194286 23.4628571,51.104 23.6491429,51.1508571 C23.8342857,51.1954286 24.0468571,51.2194286 24.2868571,51.2194286 C24.8022857,51.2194286 25.2045714,51.032 25.4902857,50.6571429 C25.7771429,50.2822857 25.92,49.736 25.92,49.0171429 C25.92,48.3497143 25.8125714,47.8297143 25.5965714,47.4628571 C25.3805714,47.0948571 25.0308571,46.9097143 24.5474286,46.9097143 Z M54.3348571,46.7828571 C54.0708571,46.7828571 53.8445714,46.8228571 53.6582857,46.9017143 C53.4731429,46.9794286 53.3051429,47.0948571 53.1531429,47.2445714 C53.0045714,47.3977143 52.8902857,47.568 52.8125714,47.7565714 C52.736,47.9428571 52.6868571,48.1611429 52.6651429,48.4091429 L55.7965714,48.4091429 C55.7897143,48.1428571 55.7588571,47.9142857 55.7005714,47.7222857 C55.6445714,47.5291429 55.5634286,47.368 55.4582857,47.2342857 C55.3417143,47.0868571 55.192,46.9748571 55.0102857,46.8982857 C54.8285714,46.8228571 54.6022857,46.7828571 54.3348571,46.7828571 Z M31.6845714,44.1302857 L31.6845714,45.1531429 L30.6205714,45.1531429 L30.6205714,44.1302857 L31.6845714,44.1302857 Z M29.4971429,44.1302857 L29.4971429,45.1531429 L28.4308571,45.1531429 L28.4308571,44.1302857 L29.4971429,44.1302857 Z M34.7634286,44.1302857 L34.7634286,45.1531429 L33.6297143,45.1531429 L33.6297143,44.1302857 L34.7634286,44.1302857 Z" id="text" fill="#1A1919"></path>
                    <polygon id="flag" fill="#174489" points="0 38.456 56.6925714 38.456 56.6925714 0.660571429 0 0.660571429"></polygon>
                    <path d="M28.376,30.0411429 L28.8434286,31.3794286 L30.2697143,31.408 L29.1325714,32.2651429 L29.5474286,33.6228571 L28.376,32.8137143 L27.2057143,33.6228571 L27.6182857,32.2651429 L26.4822857,31.408 L27.9074286,31.3794286 L28.376,30.0411429 Z M34.704,28.328 L35.1725714,29.6674286 L36.5988571,29.696 L35.4628571,30.5542857 L35.8777143,31.9108571 L34.704,31.1017143 L33.536,31.9108571 L33.9474286,30.5542857 L32.8114286,29.696 L34.2365714,29.6674286 L34.704,28.328 Z M21.9851429,28.328 L22.4525714,29.6674286 L23.8811429,29.696 L22.744,30.5542857 L23.1577143,31.9108571 L21.9851429,31.1017143 L20.816,31.9108571 L21.2297143,30.5542857 L20.0914286,29.696 L21.5188571,29.6674286 L21.9851429,28.328 Z M39.3428571,23.5428571 L39.8125714,24.8811429 L41.2365714,24.9097143 L40.1005714,25.7668571 L40.5142857,27.1245714 L39.3428571,26.3142857 L38.1725714,27.1245714 L38.5851429,25.7668571 L37.4502857,24.9097143 L38.8742857,24.8811429 L39.3428571,23.5428571 Z M17.3485714,23.5428571 L17.8171429,24.8811429 L19.2434286,24.9097143 L18.1085714,25.7668571 L18.52,27.1245714 L17.3485714,26.3142857 L16.1782857,27.1245714 L16.592,25.7668571 L15.4548571,24.9097143 L16.88,24.8811429 L17.3485714,23.5428571 Z M41.0297143,17.2868571 L41.4971429,18.6274286 L42.9245714,18.6571429 L41.7851429,19.5131429 L42.2,20.8708571 L41.0297143,20.0617143 L39.8582857,20.872 L40.2708571,19.5142857 L39.1337143,18.6571429 L40.5588571,18.6274286 L41.0297143,17.2868571 Z M15.6628571,17.2868571 L16.1314286,18.6274286 L17.5565714,18.6571429 L16.4205714,19.5131429 L16.832,20.8708571 L15.6628571,20.0617143 L14.4914286,20.872 L14.904,19.5142857 L13.768,18.6571429 L15.1931429,18.6274286 L15.6628571,17.2868571 Z M17.3485714,10.7554286 L17.8171429,12.0948571 L19.2434286,12.1234286 L18.1085714,12.9805714 L18.52,14.3382857 L17.3485714,13.528 L16.1782857,14.3382857 L16.592,12.9805714 L15.4548571,12.1234286 L16.88,12.0948571 L17.3485714,10.7554286 Z M39.3428571,10.7554286 L39.8125714,12.0948571 L41.2365714,12.1234286 L40.1005714,12.9805714 L40.5142857,14.3382857 L39.3428571,13.528 L38.1725714,14.3382857 L38.5851429,12.9805714 L37.4502857,12.1234286 L38.8742857,12.0948571 L39.3428571,10.7554286 Z M21.9851429,6.14285714 L22.4525714,7.48228571 L23.8811429,7.512 L22.744,8.36914286 L23.1577143,9.72685714 L21.9851429,8.91657143 L20.816,9.72685714 L21.2297143,8.36914286 L20.0914286,7.512 L21.5188571,7.48228571 L21.9851429,6.14285714 Z M34.704,6.14285714 L35.1725714,7.48228571 L36.5988571,7.512 L35.4628571,8.36914286 L35.8777143,9.72685714 L34.704,8.91657143 L33.536,9.72685714 L33.9474286,8.36914286 L32.8114286,7.512 L34.2365714,7.48228571 L34.704,6.14285714 Z M28.376,4.46628571 L28.8434286,5.80685714 L30.2697143,5.83428571 L29.1325714,6.69142857 L29.5474286,8.04914286 L28.376,7.23885714 L27.2057143,8.04914286 L27.6182857,6.69142857 L26.4822857,5.83428571 L27.9074286,5.80685714 L28.376,4.46628571 Z" id="stars" fill="#FFF101"></path>
                </g>
            </g>
        </g>
    </g>
</svg>