<?xml version="1.0" encoding="UTF-8"?>
<svg width="213px" height="26px" viewBox="0 0 213 26" version="1.1" xmlns="http://www.w3.org/2000/svg" xmlns:xlink="http://www.w3.org/1999/xlink">
    <title>Eurowings Digital</title>
    <g id="🎨-Design" stroke="none" stroke-width="1" fill="none" fill-rule="evenodd">
        <g id="Home" transform="translate(-371.000000, -479.000000)" fill="#7A8598">
            <g id="Section/Hero" transform="translate(145.000000, 34.000000)">
                <g id="Logos" transform="translate(0.000000, 444.000000)">
                    <path d="M437.613269,21.5113916 L439,21.5113916 L439,4.39145475 L437.613269,4.39145475 L437.613269,21.5099521 L437.613269,21.5113916 Z M426.150002,18.0321276 C426.150002,18.9246157 426.381597,19.5680708 426.846209,19.9682509 C427.306559,20.3669916 428.090857,20.5670816 429.199106,20.5670816 C429.851267,20.5670816 430.403971,20.4979858 430.858637,20.3597941 C431.313303,20.2216024 431.679877,20.0330283 431.962623,19.7955113 C432.242526,19.5565548 432.445705,19.2729739 432.576422,18.9418896 C432.704297,18.6122448 432.769655,18.2552496 432.769655,17.8709039 L432.769655,17.6866483 C432.769655,17.2260093 432.684405,16.8416636 432.519589,16.5350508 C432.358419,16.2337925 432.123585,15.9795168 431.83759,15.7965888 C431.523484,15.6029778 431.176592,15.4702082 430.814591,15.4050457 C430.3943,15.326007 429.967569,15.2874485 429.540105,15.2898859 L429.176373,15.2898859 C428.585307,15.2898859 428.096541,15.3474658 427.708654,15.4626256 C427.322188,15.5777853 427.011026,15.747646 426.776588,15.9693285 C426.54073,16.1924505 426.377335,16.4616364 426.287823,16.7754468 C426.19071,17.1321035 426.144302,17.5009701 426.150002,17.8709039 L426.150002,18.0321276 Z M424.786004,17.8939359 C424.786004,16.6185416 425.161103,15.6857476 425.911302,15.0941143 C426.661501,14.5039206 427.80385,14.2073842 429.335506,14.2073842 C430.124067,14.2073842 430.81317,14.299512 431.404236,14.4837677 C431.995302,14.6680233 432.451389,14.9444067 432.768234,15.3129179 L432.768234,14.1613203 C432.768234,12.9017605 432.469859,12.002075 431.870269,11.4651426 C431.272099,10.9282103 430.349979,10.6590243 429.106752,10.6590243 C428.551691,10.6607982 427.997337,10.6992665 427.447221,10.7741841 C426.870363,10.8504774 426.338972,10.9426052 425.85589,11.0505675 L426.081802,9.92056242 C426.491001,9.79820518 426.981188,9.69024291 427.549521,9.59811511 C428.110038,9.50667956 428.676836,9.4604705 429.244572,9.4599234 C429.970617,9.4599234 430.631304,9.54053523 431.22237,9.70175889 C431.814856,9.86298254 432.326355,10.1206525 432.756867,10.4747687 C433.190221,10.8274455 433.524116,11.2880845 433.758553,11.8566858 C433.992991,12.4252871 434.11234,13.1090481 434.11234,13.9079689 L434.11234,21.5113916 L432.904634,21.5113916 L432.792388,20.1294746 C432.397397,20.6980759 431.897264,21.1083325 431.290569,21.3616839 C430.683875,21.6150354 429.954988,21.7417111 429.106752,21.7417111 C427.681658,21.7417111 426.606089,21.4581302 425.877202,20.889529 C425.149737,20.3209277 424.786004,19.4154841 424.786004,18.1703193 L424.786004,17.8939359 Z M418.942125,10.9584397 L418.942125,17.7787761 C418.942125,18.3315429 418.990433,18.7893029 419.089891,19.1506167 C419.186508,19.5104909 419.338537,19.7955113 419.544557,20.0027988 C419.749157,20.2100864 420.006327,20.3525966 420.317489,20.4288899 C420.628652,20.5051833 420.988122,20.5440497 421.397321,20.5440497 C421.654492,20.5440497 421.908821,20.5253362 422.158887,20.4864698 C422.408953,20.4476034 422.647653,20.405858 422.874986,20.3597941 L422.670386,21.4883597 C422.200091,21.6582203 421.647388,21.7417111 421.010855,21.7417111 C420.449627,21.7417111 419.953757,21.6769338 419.520403,21.5459395 C419.109312,21.4281668 418.736596,21.2015991 418.440571,20.889529 C418.152143,20.5829161 417.936176,20.1755385 417.792672,19.6688356 C417.647748,19.1606932 417.576706,18.5244355 417.576706,17.7543047 L417.576706,10.9584397 L415.232334,10.9584397 L415.438355,9.73630681 L417.576706,9.73630681 L417.576706,6.67161787 L418.940704,6.41826641 L418.940704,9.73630681 L422.83094,9.73630681 L422.603607,10.9584397 L418.942125,10.9584397 Z M411.526806,21.5113916 L412.936271,21.5113916 L412.936271,9.73630681 L411.526806,9.73630681 L411.526806,21.5113916 Z M412.208805,5.17310157 C412.890804,5.17310157 413.231804,5.52002033 413.231804,6.21097885 C413.231804,6.88754241 412.890804,7.22582418 412.208805,7.22582418 C411.542435,7.22582418 411.20854,6.88754241 411.20854,6.21097885 C411.20854,5.52002033 411.542435,5.17454107 412.210226,5.17454107 L412.208805,5.17310157 Z M399.495207,15.6583971 C399.495207,16.3968591 399.549199,17.0532697 399.65434,17.6290684 C399.760903,18.2048672 399.945611,18.6885382 400.211306,19.0800813 C400.477001,19.473064 400.825105,19.7681609 401.258459,19.9682509 C401.690391,20.168341 402.231728,20.2676663 402.88389,20.2676663 C404.112909,20.2676663 405.025082,19.9409005 405.626094,19.2888084 C406.222843,18.6352768 406.522639,17.587323 406.522639,16.1420681 L406.522639,11.3269509 C406.10667,11.1154648 405.668064,10.9531738 405.215474,10.8432799 C404.665858,10.7255594 404.104822,10.6714715 403.543155,10.6820563 C402.164949,10.6820563 401.143371,11.046249 400.484106,11.7760739 C399.82484,12.5058989 399.495207,13.7078788 399.495207,15.3820137 L399.495207,15.6583971 Z M407.910791,21.2810721 C407.910791,22.1562862 407.811333,22.9480095 407.615258,23.6548025 C407.416341,24.360156 407.1066,24.9647447 406.683193,25.4642502 C406.256943,25.9623161 405.712765,26.3423433 405.044974,26.6043317 C404.377183,26.8648807 403.581518,26.9958818 402.656557,26.9958818 C401.269059,26.9972719 399.889213,26.7876488 398.563142,26.3740122 L398.858675,25.1979432 C399.510836,25.3821988 400.134581,25.52183 400.734172,25.6139578 C401.333763,25.7060856 401.997291,25.7521496 402.724757,25.7521496 C403.453643,25.7521496 404.060338,25.6441873 404.543421,25.4297022 C405.029345,25.2137777 405.420074,24.8985279 405.715606,24.4839528 C406.011139,24.0693777 406.220002,23.5655537 406.340772,22.97536 C406.461543,22.3837268 406.522639,21.7114817 406.522639,20.9586248 L406.522639,19.5997397 C406.37203,19.8444542 406.185902,20.0790922 405.965673,20.3022142 C405.728957,20.5380199 405.4612,20.7395378 405.170007,20.9010449 C404.823574,21.0911171 404.45239,21.2306861 404.067442,21.31562 C403.641193,21.4163848 403.142481,21.4653277 402.565623,21.4653277 C401.897833,21.4653277 401.291138,21.3703209 400.746959,21.1774283 C400.204946,20.9887228 399.719028,20.6638235 399.334653,20.2331184 C398.941083,19.7955113 398.634183,19.22691 398.415375,18.5273145 C398.193726,17.8291585 398.084322,16.9640208 398.084322,15.93622 L398.084322,15.1516942 C398.084322,14.1843523 398.213617,13.3465651 398.472209,12.6397721 C398.727958,11.9344186 399.097374,11.3427854 399.574774,10.8663119 C400.052173,10.3912779 400.620505,10.0357222 401.279771,9.80540266 C401.940458,9.57508316 402.672186,9.4599234 403.476376,9.4599234 C404.288328,9.45367459 405.097861,9.55039249 405.886106,9.74782279 C406.629201,9.94071537 407.304096,10.2055828 407.910791,10.5438646 L407.910791,21.2825116 L407.910791,21.2810721 Z M393.446728,21.5113916 L394.854772,21.5113916 L394.854772,9.73630681 L393.445307,9.73630681 L393.445307,21.5113916 L393.446728,21.5113916 Z M394.346115,5.18605705 C394.767206,5.22632188 395.100616,5.56411284 395.140359,5.99073582 C395.224188,6.87026844 394.832039,7.28052506 393.966753,7.2186267 C393.526351,7.17421014 393.177986,6.82126887 393.134145,6.3750815 C393.07305,5.49698838 393.475145,5.10112673 394.346115,5.18605705 L394.346115,5.18605705 Z M379.822377,20.2216024 L383.27926,20.2216024 C384.127496,20.2216024 384.877695,20.1251561 385.529856,19.933703 C386.183439,19.7408104 386.73188,19.4154841 387.179442,18.9548451 C387.627003,18.4942061 387.965161,17.8781014 388.191073,17.1108495 C388.418406,16.3421582 388.532073,15.3834532 388.532073,14.2304162 L388.532073,12.3878601 C388.532073,11.2650525 388.425511,10.3250611 388.213807,9.56356718 C388.000682,8.80351281 387.679574,8.18884762 387.247641,7.72101112 C386.803309,7.24384511 386.242657,6.89379942 385.62221,6.70616579 C384.968628,6.49887824 384.2028,6.39523446 383.324726,6.39523446 L379.822377,6.39523446 L379.822377,20.2216024 Z M378.366025,5.10544522 L383.392926,5.10544522 C384.697249,5.10544522 385.772819,5.28538233 386.622476,5.64669606 C387.470712,6.00657029 388.145607,6.50751522 388.64716,7.14377286 C389.147293,7.78146999 389.495397,8.53864537 389.691471,9.4138595 C389.890388,10.2905131 389.987004,11.2420206 389.987004,12.2712609 L389.987004,14.3441365 C389.987004,15.4050457 389.8776,16.3738271 389.658792,17.2490412 C389.462379,18.0774214 389.089453,18.8522332 388.566173,19.5191279 C388.058936,20.156825 387.379779,20.6476935 386.531542,20.9931727 C385.681885,21.338652 384.620524,21.5113916 383.34746,21.5113916 L378.366025,21.5113916 L378.366025,5.10544522 Z M323.399743,10.0573146 L320.259706,10.0573146 L318.324534,16.9755368 L316.569807,9.55061171 L313.230854,9.55061171 L316.790036,21.5128311 L319.773782,21.5128311 L321.805571,14.2793591 L323.865776,21.5128311 L326.742959,21.5128311 L330.223996,9.55061171 L327.069751,9.55061171 L325.332074,16.8992435 L323.399743,10.0573146 Z M312.612792,15.0480504 L312.612792,16.0153924 C312.612792,16.8157527 312.473551,17.5599726 312.305893,18.2581286 C312.139655,18.9577241 311.851227,19.5680708 311.442027,20.0906082 C311.032828,20.6131455 310.475862,21.0291602 309.769709,21.335773 C309.064977,21.6438253 307.904157,21.8064885 306.842796,21.8064885 C305.780015,21.8064885 304.590779,21.6265514 303.893151,21.3343335 C303.196943,21.0435551 302.638557,20.6390565 302.222253,20.1251561 C301.794408,19.5894924 301.490916,18.9632208 301.334234,18.2926765 C301.138531,17.5456125 301.035437,16.7767605 301.027334,16.0038764 L301.027334,15.035095 C301.027334,14.2059447 301.17368,13.4890753 301.355546,12.7822823 C301.538833,12.0754893 301.838629,11.4680216 302.254932,10.9613187 C302.671236,10.4531763 303.229622,10.0544356 303.927251,9.76221776 C304.623458,9.46999988 305.795644,9.29006277 306.841376,9.29006277 C307.888528,9.29006277 309.01951,9.43113346 309.717138,9.72191184 C310.414766,10.0155692 310.973153,10.4143099 311.389456,10.9210128 C311.807181,11.4291552 312.102714,12.0366229 312.277476,12.7419764 C312.450817,13.4502089 312.612792,14.2174607 312.612792,15.0480504 L312.612792,15.0480504 Z M309.458547,14.8522789 C309.458547,13.6229485 309.268155,12.7506134 308.890214,12.2352735 C308.510852,11.7213731 307.834537,11.4637031 306.864109,11.4637031 C305.893681,11.4637031 305.20742,11.7213731 304.805324,12.2352735 C304.403229,12.7506134 304.202892,13.6229485 304.202892,14.8522789 L304.202892,16.188132 C304.202892,16.8503006 304.252621,17.3987489 304.350658,17.836356 C304.450117,18.2754025 304.60925,18.6237608 304.828058,18.8857492 C305.048286,19.1477377 305.325349,19.3319933 305.659244,19.4385161 C305.993139,19.5464783 306.393814,19.5997397 306.864109,19.5997397 C307.820328,19.5997397 308.490961,19.3435093 308.877427,18.8281694 C309.265314,18.3128295 309.458547,17.4332968 309.458547,16.188132 L309.458547,14.8522789 Z M332.019927,5.13279566 C331.73576,5.40198158 331.593677,5.8165567 331.593677,6.30886464 C331.593677,6.79973309 331.73576,7.2157477 332.019927,7.48349413 C332.304093,7.75268005 332.807067,7.87935578 333.440758,7.87935578 C334.074449,7.87935578 334.560373,7.75268005 334.844539,7.48349413 C335.128706,7.2157477 335.270789,6.79973309 335.270789,6.30886464 C335.270789,5.8165567 335.128706,5.40198158 334.844539,5.13279566 C334.560373,4.86360973 334.074449,4.72109954 333.440758,4.72109954 C332.807067,4.72109954 332.304093,4.86504923 332.019927,5.13279566 Z M331.865056,21.5142706 L335.069031,21.5142706 L335.069031,9.54917221 L331.865056,9.54917221 L331.865056,21.5113916 L331.865056,21.5142706 Z M286.864488,9.54917221 L286.864488,15.724614 C286.864488,16.7682493 286.804813,17.9270443 286.387088,18.5057221 C285.989256,19.0541704 285.325727,19.5277649 284.430604,19.5277649 C283.612205,19.5277649 283.09076,19.3262353 282.741235,18.9188577 C282.393132,18.51148 282.218369,17.82484 282.218369,16.8560586 L282.218369,9.55061171 L279.078332,9.55061171 L279.078332,17.6175525 C279.078332,18.3243454 279.184895,18.9390106 279.396599,19.461548 C279.609723,19.9840854 279.905256,20.4188135 280.284618,20.7642927 C280.66398,21.109772 281.114384,21.3674419 281.63867,21.5358631 C282.161536,21.7057237 282.883318,21.7892145 283.519851,21.7892145 C284.294204,21.7892145 284.980465,21.6553413 285.580056,21.3861554 C286.159981,21.1329484 286.665541,20.7323103 287.047775,20.2230419 L287.229641,21.5128311 L290.109666,21.5128311 L290.109666,9.55061171 L286.864488,9.55061171 L286.864488,9.54917221 Z M266.496871,5.10112673 L266.496871,21.5113916 L276.644448,21.5113916 L277.202835,18.7792265 L269.734946,18.7792265 L269.734946,14.6147619 L275.915562,14.6147619 L276.475369,11.6594747 L269.734946,11.6594747 L269.734946,7.82897339 L276.600403,7.82897339 L277.202835,5.10112673 L266.496871,5.10112673 Z M300.410693,9.64130001 C300.170633,9.55397568 299.923381,9.48846028 299.671861,9.44552843 C299.403845,9.40453449 299.133027,9.38528006 298.861987,9.38794856 C298.074847,9.38794856 297.398531,9.52182177 296.838723,9.79100769 C296.277193,10.060135 295.79188,10.4686378 295.427838,10.9785927 L295.245971,9.54917221 L292.206813,9.54917221 L292.206813,21.5113916 L295.609704,21.5113916 L295.609704,15.0135025 C295.609704,13.9223639 295.723371,13.3480046 296.172353,12.8182697 C296.619915,12.2870954 297.343118,12.0222279 298.344804,12.0222279 C298.617604,12.0222279 298.8833,12.0452599 299.14047,12.0913238 C299.399061,12.1373877 299.61929,12.1834516 299.801157,12.2295155 L300.410693,9.64273951 L300.410693,9.64130001 Z M340.466769,21.5113916 L340.466769,15.3359498 C340.466769,14.2923146 340.526444,13.1335195 340.945589,12.5548418 C341.343422,12.0063935 342.00695,11.532799 342.902073,11.532799 C343.720472,11.532799 344.241917,11.7343285 344.591442,12.1417062 C344.939546,12.5490838 345.114308,13.2357238 345.114308,14.2045053 L345.114308,21.5113916 L348.254345,21.5113916 L348.254345,13.4458904 C348.254345,12.7390974 348.146362,12.1244322 347.934658,11.6018948 C347.7399,11.1054511 347.4368,10.6600846 347.048059,10.2991501 C346.65643,9.94672131 346.194671,9.68360032 345.694007,9.52757976 C345.16972,9.35771912 344.447938,9.2742283 343.811405,9.2742283 C343.038473,9.2742283 342.352212,9.40810151 341.7512,9.67728744 C341.17163,9.93110913 340.666563,10.3322396 340.284902,10.8418404 L340.103036,9.55061171 L337.22159,9.55061171 L337.22159,21.5128311 L340.466769,21.5128311 L340.466769,21.5113916 Z M361.632892,10.5165141 L361.632892,20.8204331 C361.632892,22.7867859 361.173964,24.3083341 360.14244,25.3836383 C359.110917,26.460382 357.620465,27.0448178 355.668243,26.9973144 C354.72339,26.9757219 353.860945,26.9397345 353.08233,26.8245748 C352.306241,26.7101808 351.542655,26.5212352 350.801895,26.260292 L351.330445,23.8189052 C352.558801,24.1883218 353.82912,24.3954041 355.109856,24.4350099 C356.321825,24.4882713 357.260994,24.2075694 357.788123,23.5612352 C358.316672,22.9163406 358.529797,22.1548467 358.529797,20.8794525 L358.529797,20.3554756 C357.708556,21.1558359 356.704029,21.6020799 355.097068,21.6020799 C353.554046,21.6020799 352.107639,21.0147652 351.329024,20.1006846 C350.548987,19.1866041 350.15968,17.7543047 350.15968,15.8009073 L350.15968,14.9947891 C350.15968,13.9957782 350.2975,13.134959 350.571721,12.4123316 C350.847362,11.6911436 351.242353,11.0995104 351.753852,10.6374319 C352.265352,10.1767929 352.887676,9.8356321 353.619404,9.61251008 C354.352553,9.38938805 355.470747,9.2727888 356.401391,9.2727888 C357.377503,9.2727888 358.224318,9.33036868 359.091025,9.55205121 C359.957732,9.77517323 360.923897,10.133608 361.632892,10.5165141 L361.632892,10.5165141 Z M358.529797,11.9488136 C358.220212,11.7665523 357.880994,11.641757 357.528111,11.5803024 C357.138544,11.5041531 356.74273,11.465594 356.345979,11.4651426 C355.344293,11.4651426 354.612565,11.7256916 354.149374,12.2482289 C353.687604,12.7707663 353.456008,13.6459804 353.456008,14.8753108 L353.456008,15.7059005 C353.456008,16.2745018 353.490108,16.7740073 353.558308,17.2029773 C353.626508,17.6348264 353.751541,17.9990191 353.934828,18.2984345 C354.116695,18.5978499 354.369603,18.8252904 354.696394,18.9793165 C355.023185,19.1319032 355.44233,19.209636 355.958092,19.209636 C356.853216,19.209636 357.506798,18.9562846 357.915998,18.4481422 C358.325197,17.9414393 358.529797,17.149716 358.529797,16.0744118 L358.529797,11.9516926 L358.529797,11.9488136 Z M369.882242,14.3542129 C370.488936,14.4319458 371.310177,14.551424 371.720797,14.7587116 C372.129997,14.9659991 372.473838,15.2711725 372.715379,15.5705878 C372.958341,15.8700032 373.133103,16.208285 373.239666,16.5854332 C373.344807,16.9625814 373.398799,17.3426085 373.398799,17.7255147 L373.398799,17.9558342 C373.398799,18.6323978 373.276607,19.212515 373.035066,19.6976255 C372.797424,20.1748492 372.439632,20.5800471 371.997859,20.872255 C371.551718,21.1716703 370.699219,21.4135058 370.071212,21.5516975 C369.386599,21.6954372 368.688826,21.7649246 367.989691,21.7589851 C367.351738,21.7589851 366.668318,21.7086027 365.940853,21.6092774 C365.200466,21.5067161 364.469937,21.3410666 363.757035,21.1140905 L364.262851,18.8641568 C365.455584,19.2054967 366.687829,19.3846049 367.927175,19.3967706 C368.468514,19.4068471 368.816618,19.4025286 369.176088,19.3622227 C369.507142,19.3247958 369.752946,19.22691 369.936233,19.1045528 C370.118099,18.9821955 370.287178,18.7907424 370.34117,18.6007288 C370.388137,18.4441319 370.40832,18.2805495 370.400845,18.1170579 C370.408499,17.8135558 370.312656,17.5166573 370.129466,17.2763917 C369.954704,17.0374352 369.593813,16.9078805 369.032584,16.8301476 L367.341792,16.5955096 C366.159661,16.442923 364.940587,16.1161572 364.38078,15.5475559 C363.819552,14.9789546 363.538227,14.2260977 363.538227,13.2875457 L363.538227,13.0572262 C363.538227,11.8437303 363.982947,10.9339682 364.869546,10.3265005 C365.757565,9.71903285 367.382996,9.33468717 369.035426,9.33468717 C369.855246,9.33468717 370.594078,9.39658554 371.253344,9.51894278 C371.91403,9.64273951 372.441159,9.78093122 372.834729,9.93495739 L372.294813,12.1186742 C371.247993,11.8455345 370.171806,11.7048319 369.090838,11.6997806 C368.045104,11.6997806 367.370209,11.7602395 366.999372,11.981922 C366.625693,12.205044 366.465139,12.4166501 366.465139,12.9075185 C366.465139,13.3220936 366.600118,13.5524131 366.827451,13.7280318 C367.054784,13.9050899 367.418517,14.0476001 367.993954,14.1238934 L369.883662,14.3542129 L369.882242,14.3542129 Z M246.245763,17.4102649 L246.251446,19.458669 C246.251446,20.7974011 245.548135,21.5099521 244.226762,21.5099521 L232.078654,21.5099521 C230.757281,21.5099521 230.052549,20.7974011 230.052549,19.458669 L230.052549,11.2535366 C230.052549,9.94935236 230.720339,9.24111987 231.974933,9.20513245 L234.10618,9.20513245 C236.342585,9.20513245 238.155549,7.36835098 238.155549,5.10256622 L232.068708,5.10256622 C228.843421,5.10256622 226.851416,6.5161522 226.217725,9.20513245 C226.067327,9.87663315 225.994377,10.563552 226.000338,11.2520971 L226.000338,19.464427 C226.000338,23.4849419 228.113114,25.6110789 232.081496,25.6110789 L244.231024,25.6197158 C247.459153,25.6197158 249.451158,24.2018114 250.082008,21.5099521 C250.232746,20.8370465 250.305699,20.1486576 250.299395,19.458669 L250.299395,13.3076987 C247.652386,13.3076987 246.242921,14.7284821 246.242921,17.4102649 L246.245763,17.4102649 Z M254.131377,5.10256622 C253.497686,2.41070698 251.498576,1 248.270448,1 L242.203498,1 C241.129539,1 240.099566,1.43223325 239.340161,2.20161367 C238.580757,2.9709941 238.154129,4.01449794 238.154129,5.10256622 L248.277552,5.10256622 C249.598925,5.10256622 250.300816,5.82231468 250.300816,7.16104682 L250.300816,13.3076987 C252.53722,13.3076987 254.350185,11.4709172 254.350185,9.20513245 L254.350185,7.15384934 C254.350185,6.40387144 254.277722,5.71867091 254.132798,5.10256622 L254.131377,5.10256622 Z" id="Eurowings-Digital"></path>
                </g>
            </g>
        </g>
    </g>
</svg>