<?xml version="1.0" encoding="UTF-8"?>
<svg width="240px" height="240px" viewBox="0 0 240 240" version="1.1" xmlns="http://www.w3.org/2000/svg" xmlns:xlink="http://www.w3.org/1999/xlink">
    <title>Illustration</title>
    <g id="🎨-Design" stroke="none" stroke-width="1" fill="none" fill-rule="evenodd">
        <g id="Security" transform="translate(-865.000000, -1500.000000)">
            <g id="Section/Privacy" transform="translate(145.000000, 1478.000000)">
                <g id="Illustration" transform="translate(720.000000, 22.000000)">
                    <path d="M224.214794,0 C232.887943,0 239.918919,7.00771696 239.918919,15.6521739 L239.918919,15.6521739 L239.918919,224.347826 C239.918919,232.992283 232.887943,240 224.214794,240 L224.214794,240 L56.7041252,240 C48.0309763,240 41,232.992283 41,224.347826 L41,224.347826 L41,15.6521739 C41,7.00771696 48.0309763,0 56.7041252,0 L56.7041252,0 Z M135.224751,198.26087 L77.6429587,198.26087 C74.7519091,198.26087 72.4082504,200.596775 72.4082504,203.478261 C72.4082504,206.359747 74.7519091,208.695652 77.6429587,208.695652 L77.6429587,208.695652 L135.224751,208.695652 C138.115801,208.695652 140.459459,206.359747 140.459459,203.478261 C140.459459,200.596775 138.115801,198.26087 135.224751,198.26087 L135.224751,198.26087 Z M203.27596,166.956522 L77.6429587,166.956522 C74.7519091,166.956522 72.4082504,169.292427 72.4082504,172.173913 C72.4082504,175.055399 74.7519091,177.391304 77.6429587,177.391304 L77.6429587,177.391304 L203.27596,177.391304 C206.16701,177.391304 208.510669,175.055399 208.510669,172.173913 C208.510669,169.292427 206.16701,166.956522 203.27596,166.956522 L203.27596,166.956522 Z M203.27596,135.652174 L77.6429587,135.652174 C74.7519091,135.652174 72.4082504,137.98808 72.4082504,140.869565 C72.4082504,143.751051 74.7519091,146.086957 77.6429587,146.086957 L77.6429587,146.086957 L203.27596,146.086957 C206.16701,146.086957 208.510669,143.751051 208.510669,140.869565 C208.510669,137.98808 206.16701,135.652174 203.27596,135.652174 L203.27596,135.652174 Z M164.015647,26.0869565 C154.449218,26.0869565 144.80863,32.2570888 144.80863,46.0491493 C144.80863,56.4803025 147.311475,64.5595463 152.409862,69.9529679 C153.562149,71.6647045 153.777209,73.8227861 152.98459,75.7202268 C152.294917,77.6692628 150.759839,78.0322117 148.305197,78.9069187 C135.442428,83.5381474 126.146676,86.8917958 123.425064,92.2162571 C121.022848,97.0682311 119.692448,102.361366 119.520626,107.750473 C119.520626,108.752728 120.350672,109.565217 121.374585,109.565217 L206.656709,109.565217 C207.680623,109.565217 208.510669,108.752728 208.510669,107.750473 C208.338846,102.361366 207.008447,97.0682311 204.60623,92.2162571 C201.884618,86.8809074 192.588867,83.5381474 179.726098,78.9069187 C177.278872,78.0322117 175.736377,77.6692628 175.046705,75.7202268 C174.254085,73.8227861 174.469146,71.6647045 175.621432,69.9529679 C180.71982,64.5595463 183.222665,56.4803025 183.222665,46.0491493 C183.222665,32.2570888 173.582077,26.0869565 164.015647,26.0869565 Z" id="Combined-Shape" fill="#EEF1F5"></path>
                    <rect id="Rectangle" x="41" y="0" width="199" height="240"></rect>
                </g>
            </g>
        </g>
    </g>
</svg>