<?xml version="1.0" encoding="UTF-8" standalone="no"?>
<!DOCTYPE svg PUBLIC "-//W3C//DTD SVG 1.1//EN" "http://www.w3.org/Graphics/SVG/1.1/DTD/svg11.dtd">
<svg width="100%" height="100%" viewBox="0 0 310 310" version="1.1" xmlns="http://www.w3.org/2000/svg" xmlns:xlink="http://www.w3.org/1999/xlink" xml:space="preserve" xmlns:serif="http://www.serif.com/" style="fill-rule:evenodd;clip-rule:evenodd;stroke-linecap:round;stroke-linejoin:round;">
    <g id="fingerprint">
        <path d="M31.232,72.085C9.089,105.027 1.069,145.469 8.964,184.369" style="fill:none;stroke:rgb(238,241,245);stroke-width:11.42px;"/>
        <path d="M222.582,22.413C166.554,-6.203 98.586,3.482 52.782,46.609" style="fill:none;stroke:rgb(238,241,245);stroke-width:11.42px;"/>
        <path d="M300.755,125.533C294.06,92.05 276.01,61.904 249.655,40.193" style="fill:none;stroke:rgb(238,241,245);stroke-width:11.42px;"/>
        <path d="M303.8,157.946C304.005,147.062 303.02,136.189 300.863,125.519" style="fill:none;stroke:rgb(238,241,245);stroke-width:11.42px;"/>
        <path d="M116.437,298.758C151.056,259.479 165.29,206.258 154.9,154.941" style="fill:none;stroke:rgb(238,241,245);stroke-width:11.42px;"/>
        <path d="M159.638,303.712C189.763,259.719 203.428,196.633 191.401,147.591C189.736,137.749 184.08,129.032 175.771,123.503C167.462,117.973 157.237,116.121 147.516,118.386C137.771,120.229 129.185,125.934 123.71,134.204C118.235,142.474 116.337,152.607 118.447,162.298C127.357,206.646 112.674,252.447 79.638,283.347" style="fill:none;stroke:rgb(238,241,245);stroke-width:11.42px;"/>
        <path d="M83.597,181.973C85.55,211.999 72.889,241.12 49.601,260.173" style="fill:none;stroke:rgb(238,241,245);stroke-width:11.42px;"/>
        <path d="M231.854,168.437C231.071,158.966 229.735,149.549 227.854,140.234C220.554,104.042 187.843,78.66 150.972,80.578C114.101,82.496 84.2,111.134 80.694,147.888" style="fill:none;stroke:rgb(238,241,245);stroke-width:11.42px;"/>
        <path d="M208.261,293.885C222.238,265.236 230.398,234.1 232.267,202.277" style="fill:none;stroke:rgb(238,241,245);stroke-width:11.42px;"/>
        <path d="M120.788,48.64C66.644,66.003 34.19,121.276 45.411,177.019L45.472,177.019C49.5,197.008 42.329,217.606 26.758,230.772" style="fill:none;stroke:rgb(238,241,245);stroke-width:11.42px;"/>
        <path d="M260.484,259.807C271.529,218.364 272.835,174.928 264.301,132.897C253.807,80.795 208.048,43.308 154.9,43.272" style="fill:none;stroke:rgb(238,241,245);stroke-width:11.42px;"/>
    </g>
</svg>
