<?xml version="1.0" encoding="UTF-8"?>
<svg width="27px" height="56px" viewBox="0 0 27 56" version="1.1" xmlns="http://www.w3.org/2000/svg" xmlns:xlink="http://www.w3.org/1999/xlink">
    <title>logomark</title>
    <g id="🎨-Design" stroke="none" stroke-width="1" fill="none" fill-rule="evenodd">
        <g id="Integrations" transform="translate(-160.000000, -1244.000000)" fill="#008561" fill-rule="nonzero">
            <g id="Section/Integrations" transform="translate(130.000000, 681.000000)">
                <g id="Integrations" transform="translate(16.000000, 234.000000)">
                    <g id="Greenhouse" transform="translate(0.000000, 285.000000)">
                        <g id="Price" transform="translate(14.000000, 33.000000)">
                            <g id="logomark" transform="translate(0.000000, 11.000000)">
                                <path d="M23.173516,16.5114155 C23.173516,19.196347 22.0410959,21.5707763 20.1826484,23.4292237 C18.1164384,25.4931507 15.1232877,26.0091324 15.1232877,27.7648402 C15.1232877,30.1392694 18.9429224,29.4155251 22.6073059,33.0799087 C25.0342466,35.5068493 26.5296804,38.7077626 26.5296804,42.4223744 C26.5296804,49.7511416 20.6461187,55.5844749 13.2648402,55.5844749 C5.88356164,55.5844749 0,49.7579909 0,42.4292237 C0,38.7123288 1.49771689,35.5114155 3.92237443,33.086758 C7.58675799,29.4200913 11.4063927,30.1438356 11.4063927,27.7694064 C11.4063927,26.0136986 8.41552511,25.4977169 6.34931507,23.43379 C4.49086758,21.5753425 3.35616438,19.2009132 3.35616438,16.413242 C3.35616438,11.0479452 7.74200913,6.71004566 13.109589,6.71004566 C14.1438356,6.71004566 15.0730594,6.8652968 15.847032,6.8652968 C17.239726,6.8652968 17.9634703,6.24657534 17.9634703,5.26484018 C17.9634703,4.69634703 17.7031963,3.97488584 17.7031963,3.20091324 C17.7031963,1.44520548 19.2009132,0 21.0068493,0 C22.8150685,0 24.260274,1.49771689 24.260274,3.30365297 C24.260274,5.21232877 22.7625571,6.0890411 21.6278539,6.50456621 C20.6986301,6.81278539 19.9748858,7.2260274 19.9748858,8.15525114 C19.9748858,9.90410959 23.1757991,11.609589 23.1757991,16.5114155 L23.173516,16.5114155 Z M22.1461187,42.4292237 C22.1461187,37.3196347 18.3789954,33.1894977 13.2671233,33.1894977 C8.15753425,33.1894977 4.39041096,37.3196347 4.39041096,42.4292237 C4.39041096,47.4863014 8.15753425,51.6689498 13.2671233,51.6689498 C18.3767123,51.6689498 22.1461187,47.4817352 22.1461187,42.4292237 Z M19.0981735,16.4086758 C19.0981735,13.1575342 16.4657534,10.4726027 13.2648402,10.4726027 C10.06621,10.4726027 7.43378995,13.1575342 7.43378995,16.4086758 C7.43378995,19.6598174 10.06621,22.3447489 13.2648402,22.3447489 C16.4657534,22.3447489 19.0981735,19.6598174 19.0981735,16.4086758 L19.0981735,16.4086758 Z" id="Shape"></path>
                            </g>
                        </g>
                    </g>
                </g>
            </g>
        </g>
    </g>
</svg>