<?xml version="1.0" encoding="UTF-8"?>
<svg width="112px" height="56px" viewBox="0 0 112 56" version="1.1" xmlns="http://www.w3.org/2000/svg" xmlns:xlink="http://www.w3.org/1999/xlink">
    <title>logo-ESF</title>
    <defs>
        <linearGradient x1="17.0962369%" y1="46.2161774%" x2="13.3401551%" y2="51.6134917%" id="linearGradient-1">
            <stop stop-color="#002460" offset="0%"></stop>
            <stop stop-color="#0B3C92" offset="100%"></stop>
        </linearGradient>
        <linearGradient x1="25.8931223%" y1="19.2148007%" x2="15.1381937%" y2="33.0692167%" id="linearGradient-2">
            <stop stop-color="#B80807" offset="0%"></stop>
            <stop stop-color="#E10007" offset="100%"></stop>
        </linearGradient>
        <linearGradient x1="30.3172897%" y1="36.6589015%" x2="15.1381937%" y2="43.6056307%" id="linearGradient-3">
            <stop stop-color="#DCB500" offset="0%"></stop>
            <stop stop-color="#F6CD00" offset="100%"></stop>
        </linearGradient>
    </defs>
    <g id="🎨-Design" stroke="none" stroke-width="1" fill="none" fill-rule="evenodd">
        <g id="Home" transform="translate(-347.000000, -3918.000000)">
            <g id="Section/Logo-Banner" transform="translate(145.000000, 3914.000000)">
                <g id="logo-ESF" transform="translate(202.000000, 4.000000)">
                    <path d="M80.656169,5.67729577 C83.1205634,5.67729577 85.7572958,6.15250704 87.5291831,7.23307042 C87.9610141,7.49295775 88.0485634,7.79543662 88.0485634,8.31402817 L88.0485634,11.8152113 C88.0485634,12.1610704 87.9610141,12.5069296 87.4428169,12.5069296 C87.0109859,12.5069296 86.7944789,12.2908169 86.4490141,12.1180845 C84.4168451,11.0375211 83.1205634,10.5185352 80.5698028,10.5185352 C78.6677746,10.5185352 76.6797746,10.9941408 76.6797746,13.1118873 C76.6797746,14.7114366 77.760338,15.4465352 79.0566197,16.1382535 L82.9040563,18.256 C86.2762817,20.1150423 88.4366197,21.8873239 88.4366197,26.6425915 C88.4366197,32.8672676 83.8118873,35.2011268 78.0628169,35.2011268 C73.2645634,35.2011268 70.844338,34.0338028 70.1948169,33.6019718 C69.7629859,33.3420845 69.6770141,33.04 69.6770141,32.5210141 L69.6770141,29.1058028 C69.6770141,28.760338 69.7629859,28.4144789 70.2823662,28.4144789 C70.6704225,28.4144789 70.8869296,28.588 71.1898028,28.760338 C71.924507,29.1929577 73.9121127,30.316507 77.3281127,30.316507 C79.6623662,30.316507 81.8664789,29.927662 81.8664789,27.463662 C81.8664789,25.7781408 80.8289014,25.0864225 79.5322254,24.308338 L74.6476056,21.2819718 C73.0046761,20.2447887 70.1948169,18.4291268 70.1948169,13.5441127 C70.1948169,7.14709859 75.7715493,5.67729577 80.656169,5.67729577 Z M110.887493,6.02276056 C111.233746,6.02276056 111.665577,6.10952113 111.665577,6.80123944 L111.665577,10.3020282 C111.665577,10.9941408 111.233746,11.080507 110.887493,11.080507 L101.723211,11.080507 C101.550873,11.080507 101.291775,11.1668732 101.291775,11.599493 L101.291775,17.7374085 C101.291775,18.1266479 101.550873,18.256 101.723211,18.256 L109.201972,18.256 C109.548225,18.256 109.980056,18.3427606 109.980056,19.0340845 L109.980056,22.5360563 C109.980056,23.2273803 109.548225,23.3141408 109.201972,23.3141408 L101.723211,23.3141408 C101.550873,23.3141408 101.291775,23.4001127 101.291775,23.8327324 L101.291775,34.0771831 C101.291775,34.7692958 100.859155,34.8552676 100.51369,34.8552676 L95.1530704,34.8552676 C94.8072113,34.8552676 94.3749859,34.7692958 94.3749859,34.0771831 L94.3749859,6.80123944 C94.3749859,6.10952113 94.8072113,6.02276056 95.1530704,6.02276056 L110.887493,6.02276056 Z M64.3550423,5.93915493 C64.700507,5.93915493 65.1327324,6.02552113 65.1327324,6.71723944 L65.1327324,10.2192113 C65.1327324,10.9105352 64.700507,10.996507 64.3550423,10.996507 L54.3255211,10.996507 C54.1523944,10.996507 53.8936901,11.0832676 53.8936901,11.515493 L53.8936901,16.7889577 C53.8936901,17.1785915 54.1523944,17.3079437 54.3255211,17.3079437 L62.1505352,17.3079437 C62.496,17.3079437 62.927831,17.3943099 62.927831,18.0860282 L62.927831,21.588 C62.927831,22.2793239 62.496,22.3652958 62.1505352,22.3652958 L54.3255211,22.3652958 C54.1523944,22.3652958 53.8936901,22.4520563 53.8936901,22.8842817 L53.8936901,29.196507 C53.8936901,29.5837746 54.1523944,29.7139155 54.3255211,29.7139155 L65.2190986,29.7139155 C65.5653521,29.7139155 65.9975775,29.8014648 65.9975775,30.4927887 L65.9975775,33.9935775 C65.9975775,34.6852958 65.5653521,34.7720563 65.2190986,34.7720563 L47.7553803,34.7720563 C47.4091268,34.7720563 46.9772958,34.6852958 46.9772958,33.9935775 L46.9772958,6.71723944 C46.9772958,6.02552113 47.4091268,5.93915493 47.7553803,5.93915493 L64.3550423,5.93915493 Z" id="ESF" fill="#174489"></path>
                    <path d="M45.6920563,51.7092958 C47.4347606,51.7092958 47.6788732,52.8983099 47.6788732,53.752507 L47.6788732,53.9481127 C47.6788732,54.0786479 47.5976338,54.0952113 47.5325634,54.0952113 L45.0409577,54.0952113 C44.968,54.0952113 44.9187042,54.1271549 44.9187042,54.2083944 C44.9187042,54.9009014 45.3911549,55.1864225 46.1077183,55.1864225 C46.6452394,55.1864225 47.0360563,55.0144789 47.1906479,54.9340282 C47.2391549,54.9095775 47.2561127,54.8926197 47.3129014,54.8926197 C47.4020282,54.8926197 47.4264789,54.9576901 47.4264789,55.0223662 L47.4264789,55.5366197 C47.4264789,55.6419155 47.4185915,55.6912113 47.3369577,55.748 C47.1334648,55.9029859 46.5557183,56 45.9531268,56 C44.764507,56 43.6409577,55.5441127 43.6409577,53.8992113 C43.6409577,52.343831 44.5282817,51.7092958 45.6920563,51.7092958 Z M90.3244507,50.1219718 C90.3899155,50.1219718 90.4711549,50.1385352 90.4711549,50.2678873 L90.4711549,55.7795493 C90.4711549,55.9104789 90.3899155,55.9266479 90.3244507,55.9266479 L89.4213521,55.9266479 C89.3231549,55.9266479 89.3073803,55.8781408 89.3073803,55.8205634 C89.3073803,55.7874366 89.3073803,55.764169 89.2257465,55.764169 C89.0470986,55.764169 88.7943099,55.9921127 88.1755493,55.9921127 C86.9790423,55.9921127 86.2940282,55.1943099 86.2940282,53.907493 C86.2940282,52.4830423 87.0760563,51.7179718 88.2489014,51.7179718 C88.8266479,51.7179718 89.0952113,51.9368451 89.1776338,51.9368451 C89.2257465,51.9368451 89.2501972,51.8970141 89.2501972,51.8307606 L89.2501972,50.2678873 C89.2501972,50.1385352 89.331831,50.1219718 89.3969014,50.1219718 L90.3244507,50.1219718 Z M26.5187606,51.7909296 C26.5842254,51.7909296 26.6654648,51.8063099 26.6654648,51.9368451 L26.6654648,54.2083944 C26.6654648,54.5345352 26.6907042,54.7459155 26.796,54.8847324 C26.9178592,55.0389296 27.1134648,55.104 27.3741408,55.104 C27.5129577,55.104 27.6833239,55.0799437 27.8055775,55.0223662 C27.9680563,54.9490141 28.0496901,54.8350423 28.0496901,54.6319437 L28.0496901,51.9368451 C28.0496901,51.8063099 28.1309296,51.7909296 28.1963944,51.7909296 L29.124338,51.7909296 C29.1898028,51.7909296 29.2710423,51.8063099 29.2710423,51.9368451 L29.2710423,55.7795493 C29.2710423,55.9104789 29.1898028,55.9266479 29.124338,55.9266479 L28.2046761,55.9266479 C28.1068732,55.9266479 28.0903099,55.8781408 28.0903099,55.8205634 C28.0903099,55.7874366 28.0903099,55.764169 28.0090704,55.764169 C27.9112676,55.764169 27.7807324,55.8036056 27.708169,55.8371268 C27.4719437,55.9345352 27.1375211,55.9921127 26.8855211,55.9921127 C26.4209577,55.9921127 26.0060845,55.8781408 25.7454085,55.5926197 C25.4776338,55.3 25.4449014,54.9419155 25.4449014,54.2738592 L25.4449014,51.9368451 C25.4449014,51.8063099 25.5257465,51.7909296 25.5912113,51.7909296 L26.5187606,51.7909296 Z M55.771662,50.7647887 C55.8367324,50.7647887 55.9183662,50.7809577 55.9183662,50.911493 L55.9183662,51.6935211 C55.9183662,51.7664789 55.9589859,51.7909296 55.9917183,51.7909296 L57.0012958,51.7909296 C57.0663662,51.7909296 57.1472113,51.8063099 57.1472113,51.9368451 L57.1472113,52.4578028 C57.1472113,52.588338 57.0663662,52.604507 57.0012958,52.604507 L55.9917183,52.604507 C55.9589859,52.604507 55.9183662,52.6293521 55.9183662,52.7023099 L55.9183662,54.3464225 C55.9183662,54.5988169 55.9262535,54.6974085 55.9589859,54.8113803 C56.0003944,54.9490141 56.1222535,55.104 56.4393239,55.104 C56.8384225,55.104 56.928338,54.9490141 57.0340282,54.9490141 C57.0987042,54.9490141 57.1472113,54.9817465 57.1472113,55.0799437 L57.1472113,55.6990986 C57.1472113,55.9179718 56.5532958,55.9921127 56.1707606,55.9921127 C55.9589859,55.9921127 55.3978028,55.9755493 55.071662,55.7148732 C54.835831,55.5275493 54.6974085,55.2258592 54.6974085,54.6240563 L54.6974085,52.7023099 C54.6974085,52.6293521 54.6563944,52.604507 54.623662,52.604507 L54.2738592,52.604507 C54.2083944,52.604507 54.1271549,52.588338 54.1271549,52.4578028 L54.1271549,51.9368451 C54.1271549,51.8063099 54.2083944,51.7909296 54.2738592,51.7909296 L54.623662,51.7909296 C54.6563944,51.7909296 54.6974085,51.7664789 54.6974085,51.6935211 L54.6974085,50.911493 C54.6974085,50.7809577 54.7786479,50.7647887 54.8433239,50.7647887 L55.771662,50.7647887 Z M77.6889577,51.7179718 C78.7068169,51.7179718 79.0242817,52.0354366 79.1216901,52.1328451 C79.3417465,52.3521127 79.4399437,52.6293521 79.4399437,53.1905352 L79.4399437,55.7795493 C79.4399437,55.9104789 79.3579155,55.9266479 79.2924507,55.9266479 L78.4212958,55.9266479 C78.3238873,55.9266479 78.3077183,55.8781408 78.3077183,55.8205634 C78.3077183,55.7874366 78.3077183,55.764169 78.2256901,55.764169 C78.0474366,55.764169 77.7536338,55.9921127 77.135662,55.9921127 C76.0282817,55.9921127 75.775493,55.3406197 75.775493,54.7790423 C75.775493,54.004507 76.1824789,53.671662 77.0619155,53.4023099 L77.9819718,53.1258592 C78.1207887,53.0856338 78.2509296,53.0603944 78.2509296,52.8983099 L78.2509296,52.8655775 C78.2509296,52.6376338 78.0718873,52.532338 77.4933521,52.532338 C76.8016338,52.532338 76.3855775,52.7835493 76.2968451,52.8324507 C76.2475493,52.8572958 76.2238873,52.8734648 76.1663099,52.8734648 C76.0933521,52.8734648 76.0602254,52.8158873 76.0602254,52.7433239 L76.0602254,52.2132958 C76.0602254,52.1162817 76.068507,52.0508169 76.1501408,52.0023099 C76.4672113,51.7988169 77.2007324,51.7179718 77.6889577,51.7179718 Z M50.1377465,51.7909296 C50.2032113,51.7909296 50.2844507,51.8063099 50.2844507,51.9368451 L50.2844507,54.2083944 C50.2844507,54.5345352 50.3092958,54.7459155 50.4149859,54.8847324 C50.5364507,55.0389296 50.7328451,55.104 50.9931268,55.104 C51.1315493,55.104 51.3023099,55.0799437 51.4245634,55.0223662 C51.5874366,54.9490141 51.6686761,54.8350423 51.6686761,54.6319437 L51.6686761,51.9368451 C51.6686761,51.8063099 51.7499155,51.7909296 51.8149859,51.7909296 L52.7433239,51.7909296 C52.8087887,51.7909296 52.8896338,51.8063099 52.8896338,51.9368451 L52.8896338,55.7795493 C52.8896338,55.9104789 52.8087887,55.9266479 52.7433239,55.9266479 L51.8232676,55.9266479 C51.7254648,55.9266479 51.7096901,55.8781408 51.7096901,55.8205634 C51.7096901,55.7874366 51.7096901,55.764169 51.6280563,55.764169 C51.5302535,55.764169 51.4001127,55.8036056 51.3267606,55.8371268 C51.0905352,55.9345352 50.756507,55.9921127 50.504507,55.9921127 C50.040338,55.9921127 49.6254648,55.8781408 49.3643944,55.5926197 C49.0962254,55.3 49.0630986,54.9419155 49.0630986,54.2738592 L49.0630986,51.9368451 C49.0630986,51.8063099 49.1447324,51.7909296 49.2098028,51.7909296 L50.1377465,51.7909296 Z M60.151493,51.7179718 C60.640507,51.7179718 61.1125634,51.8307606 61.2762254,51.9534085 C61.3566761,52.0105915 61.3566761,52.059493 61.3566761,52.1572958 L61.3566761,52.6695775 C61.3566761,52.7354366 61.3409014,52.7993239 61.2430986,52.7993239 C61.1855211,52.7993239 61.1610704,52.7835493 61.1125634,52.7598873 C60.8767324,52.6293521 60.640507,52.5240563 60.2658592,52.5240563 C60.0051831,52.5240563 59.7291268,52.5638873 59.7291268,52.8324507 C59.7291268,53.0371268 59.9326197,53.1258592 60.0789296,53.2070986 L60.5908169,53.5009014 C61.0553803,53.7603944 61.4387042,54.0545915 61.4387042,54.6895211 C61.4387042,55.4297465 60.9011831,55.9921127 59.8423099,55.9921127 C59.0535775,55.9921127 58.6773521,55.8118873 58.5972958,55.748 C58.5152676,55.6912113 58.5069859,55.6419155 58.5069859,55.5366197 L58.5069859,55.0389296 C58.5069859,54.9734648 58.5235493,54.9095775 58.6209577,54.9095775 C58.6773521,54.9095775 58.6943099,54.9261408 58.7436056,54.9490141 C59.028338,55.104 59.3939155,55.1864225 59.7938028,55.1864225 C60.0465915,55.1864225 60.2985915,55.1371268 60.2985915,54.8764507 C60.2985915,54.648507 60.0789296,54.5593803 59.9326197,54.4769577 L59.4029859,54.168169 C58.9147606,53.8830423 58.5886197,53.6385352 58.5886197,53.0193803 C58.5886197,52.091831 59.2969014,51.7179718 60.151493,51.7179718 Z M64.8740282,51.7179718 C65.3137465,51.7179718 65.9167324,51.8307606 66.0792113,51.9534085 C66.1608451,52.0105915 66.1608451,52.059493 66.1608451,52.1572958 L66.1608451,52.7354366 C66.1608451,52.7993239 66.1442817,52.8655775 66.0472676,52.8655775 C65.9900845,52.8655775 65.9652394,52.8490141 65.9167324,52.8245634 C65.6146479,52.6624789 65.4202254,52.588338 65.0290141,52.588338 C64.1168451,52.588338 63.8975775,53.2394366 63.8975775,53.8992113 C63.8975775,54.5593803 64.1748169,55.1209577 64.9801127,55.1209577 C65.3713239,55.1209577 65.6390986,55.0389296 65.9246197,54.8847324 C65.9731268,54.8598873 65.9900845,54.8433239 66.0472676,54.8433239 C66.1356056,54.8433239 66.1608451,54.9095775 66.1608451,54.9734648 L66.1608451,55.5366197 C66.1608451,55.6419155 66.152169,55.6912113 66.0709296,55.748 C65.8674366,55.9029859 65.2329014,55.9921127 64.768338,55.9921127 C62.8635493,55.9921127 62.6186479,54.6319437 62.6186479,53.8992113 C62.6186479,53.1258592 62.895493,51.7179718 64.8740282,51.7179718 Z M33.2356056,51.7258592 C33.5940845,51.7258592 33.6429859,51.856 33.6429859,51.9940282 L33.6429859,52.6695775 C33.6429859,52.7433239 33.6106479,52.791831 33.5290141,52.791831 C33.4067606,52.791831 33.3416901,52.7275493 32.9098592,52.7275493 C32.2591549,52.7275493 32.1779155,53.0690704 32.1779155,53.3703662 L32.1779155,55.7795493 C32.1779155,55.9104789 32.0958873,55.9266479 32.0308169,55.9266479 L31.1024789,55.9266479 C31.0374085,55.9266479 30.9565634,55.9104789 30.9565634,55.7795493 L30.9565634,51.9368451 C30.9565634,51.8063099 31.0374085,51.7909296 31.1024789,51.7909296 L32.0063662,51.7909296 C32.1037746,51.7909296 32.120338,51.8394366 32.120338,51.8970141 L32.120338,51.9612958 C32.120338,52.0023099 32.1613521,52.0354366 32.2098592,52.0354366 C32.4460845,52.0354366 32.6251268,51.7258592 33.2356056,51.7258592 Z M74.188169,50.1547042 C74.2532394,50.1547042 74.3344789,50.1783662 74.3344789,50.3089014 L74.3344789,55.7795493 C74.3344789,55.9104789 74.2532394,55.9266479 74.188169,55.9266479 L73.2594366,55.9266479 C73.1951549,55.9266479 73.1135211,55.9104789 73.1135211,55.7795493 L73.1135211,50.3002254 C73.1135211,50.1704789 73.1951549,50.1547042 73.2594366,50.1547042 L74.188169,50.1547042 Z M23.4659718,50.1136901 C23.8978028,50.1136901 24.2886197,50.211493 24.2886197,50.4063099 L24.2886197,50.9032113 C24.2886197,51.0002254 24.2393239,51.0333521 24.1825352,51.0333521 C24.0847324,51.0333521 24.019662,50.952507 23.8406197,50.952507 C23.6532958,50.952507 23.5472113,51.008507 23.4990986,51.1879437 C23.4821408,51.2447324 23.4742535,51.4730704 23.4742535,51.5862535 L23.4742535,51.6935211 C23.4742535,51.7664789 23.5148732,51.7909296 23.5472113,51.7909296 L24.1415211,51.7909296 C24.2069859,51.7909296 24.2886197,51.8063099 24.2886197,51.9368451 L24.2886197,52.4578028 C24.2886197,52.588338 24.2069859,52.604507 24.1415211,52.604507 L23.5472113,52.604507 C23.5148732,52.604507 23.4742535,52.6293521 23.4742535,52.7023099 L23.4742535,55.7795493 C23.4742535,55.9104789 23.3926197,55.9266479 23.3271549,55.9266479 L22.3996056,55.9266479 C22.3341408,55.9266479 22.2529014,55.9104789 22.2529014,55.7795493 L22.2529014,52.7023099 C22.2529014,52.6293521 22.2122817,52.604507 22.1795493,52.604507 L21.8297465,52.604507 C21.7642817,52.604507 21.6830423,52.588338 21.6830423,52.4578028 L21.6830423,51.9368451 C21.6830423,51.8063099 21.7642817,51.7909296 21.8297465,51.7909296 L22.1795493,51.7909296 C22.2122817,51.7909296 22.2529014,51.7664789 22.2529014,51.6935211 L22.2529014,51.4892394 C22.2529014,51.1063099 22.2769577,50.943831 22.3341408,50.7975211 C22.5620845,50.1949296 23.1240563,50.1136901 23.4659718,50.1136901 Z M39.6105352,50.4954366 C40.2537465,50.4954366 40.7991549,50.5849577 41.1824789,50.7726761 C42.011831,51.1717746 42.5012394,52.0835493 42.5012394,53.1830423 C42.5012394,54.2655775 42.0532394,55.1292394 41.2802817,55.5516056 C40.8480563,55.7874366 40.2947606,55.9266479 39.5048451,55.9266479 L37.6323944,55.9266479 C37.5673239,55.9266479 37.4856901,55.9104789 37.4856901,55.7795493 L37.4856901,50.6429296 C37.4856901,50.5127887 37.5673239,50.4954366 37.6323944,50.4954366 L39.6105352,50.4954366 Z M83.4612958,51.7179718 C83.9258592,51.7179718 84.3407324,51.8394366 84.6010141,52.1245634 C84.8699718,52.4179718 84.9113803,52.7764507 84.9113803,53.4433239 L84.9113803,55.7795493 C84.9113803,55.9104789 84.8293521,55.9266479 84.7642817,55.9266479 L83.8355493,55.9266479 C83.7704789,55.9266479 83.6900282,55.9104789 83.6900282,55.7795493 L83.6900282,53.5087887 C83.6900282,53.1830423 83.656507,52.9795493 83.5512113,52.8407324 C83.4293521,52.6861408 83.2416338,52.6135775 82.9813521,52.6135775 C82.8425352,52.6135775 82.6717746,52.6376338 82.5495211,52.6944225 C82.3870423,52.7677746 82.3054085,52.8821408 82.3054085,53.0856338 L82.3054085,55.7795493 C82.3054085,55.9104789 82.2237746,55.9266479 82.1590986,55.9266479 L81.2307606,55.9266479 C81.1656901,55.9266479 81.0844507,55.9104789 81.0844507,55.7795493 L81.0844507,51.9368451 C81.0844507,51.8063099 81.1656901,51.7909296 81.2307606,51.7909296 L82.1508169,51.7909296 C82.2482254,51.7909296 82.2643944,51.8394366 82.2643944,51.8970141 C82.2643944,51.9293521 82.2730704,51.9534085 82.3543099,51.9534085 C82.4513239,51.9534085 82.5743662,51.9127887 82.6469296,51.8800563 C82.8835493,51.7830423 83.2096901,51.7179718 83.4612958,51.7179718 Z M68.863831,50.3002254 L68.863831,51.8887324 C68.863831,51.9534085 68.8878873,51.9940282 68.9363944,51.9940282 C69.0263099,51.9940282 69.3922817,51.7179718 70.0193239,51.7179718 C70.483493,51.7179718 70.8983662,51.8394366 71.1590423,52.1245634 C71.428,52.4179718 71.4694085,52.7764507 71.4694085,53.4433239 L71.4694085,55.7795493 C71.4694085,55.9104789 71.3873803,55.9266479 71.3223099,55.9266479 L70.3939718,55.9266479 C70.328507,55.9266479 70.2480563,55.9104789 70.2480563,55.7795493 L70.2480563,53.5087887 C70.2480563,53.1830423 70.2149296,52.9795493 70.1088451,52.8407324 C69.9869859,52.6861408 69.7992676,52.6135775 69.5393803,52.6135775 C69.4009577,52.6135775 69.2298028,52.6376338 69.1075493,52.6944225 C68.9450704,52.7677746 68.863831,52.8821408 68.863831,53.0856338 L68.863831,55.7795493 C68.863831,55.9021315 68.7901612,55.9225618 68.7418696,55.9259669 L67.7887887,55.9266479 C67.748169,55.9266479 67.6424789,55.9266479 67.6424789,55.7795493 L67.6424789,50.3002254 C67.6424789,50.1789577 67.7158748,50.1587465 67.7638469,50.1553779 L68.7167324,50.1547042 C68.7577465,50.1547042 68.863831,50.1547042 68.863831,50.3002254 Z M78.1858592,53.8345352 C78.1282817,53.8345352 78.1282817,53.8424225 78.0553239,53.867662 L77.5907606,54.0376338 C77.3312676,54.1354366 77.0212958,54.2490141 77.0212958,54.6563944 C77.0212958,55.0223662 77.207831,55.1781408 77.6325634,55.1781408 C77.7863662,55.1781408 78.0068169,55.1209577 78.0880563,55.0558873 C78.1689014,54.9904225 78.2509296,54.9170704 78.2509296,54.7049014 L78.2509296,53.9153803 C78.2509296,53.8593803 78.2343662,53.8345352 78.1858592,53.8345352 Z M88.5908169,52.5804507 C88.2240563,52.5804507 87.5729577,52.7109859 87.5729577,53.8909296 C87.5729577,54.648507 87.8501972,55.1292394 88.5908169,55.1292394 C88.7213521,55.1292394 88.8518873,55.1126761 88.9650704,55.064169 C89.1441127,54.9817465 89.2501972,54.9095775 89.2501972,54.6070986 L89.2501972,53.0193803 C89.2501972,52.7993239 89.1441127,52.7188732 88.9650704,52.6459155 C88.8518873,52.5970141 88.7213521,52.5804507 88.5908169,52.5804507 Z M39.2035493,51.4482254 L38.8699155,51.4482254 C38.8371831,51.4482254 38.7886761,51.4655775 38.7886761,51.5468169 L38.7886761,54.8764507 C38.7886761,54.9490141 38.8371831,54.9734648 38.8699155,54.9734648 L39.3829859,54.9734648 C40.1070423,54.9734648 41.1497465,54.7703662 41.1497465,53.1905352 C41.1497465,52.4014085 40.8807887,51.8469296 40.3353803,51.611493 C40.0092394,51.4730704 39.724507,51.4482254 39.2035493,51.4482254 Z M45.6597183,52.4664789 C45.1793803,52.4664789 44.8946479,52.7835493 44.8946479,53.2638873 C44.8946479,53.3135775 44.9108169,53.3459155 44.9924507,53.3459155 L46.360507,53.3459155 C46.4417465,53.3459155 46.4583099,53.3293521 46.4583099,53.2394366 C46.4583099,52.6135775 46.0099155,52.4664789 45.6597183,52.4664789 Z M26.6003944,50.3333521 C26.9178592,50.3333521 27.1051831,50.472169 27.1051831,50.8132958 C27.1051831,51.1473239 26.9099718,51.2857465 26.5842254,51.2857465 C26.2667606,51.2857465 26.079831,51.1473239 26.079831,50.8058028 C26.079831,50.472169 26.2750423,50.3333521 26.6003944,50.3333521 Z M28.0496901,50.3333521 C28.3671549,50.3333521 28.5544789,50.472169 28.5544789,50.8132958 C28.5544789,51.1473239 28.3588732,51.2857465 28.0331268,51.2857465 C27.7160563,51.2857465 27.5287324,51.1473239 27.5287324,50.8058028 C27.5287324,50.472169 27.7239437,50.3333521 28.0496901,50.3333521 Z M24.6676056,41.4289577 C25.8641127,41.4289577 26.5479437,42.2354366 26.5479437,43.5214648 C26.5479437,44.9463099 25.7667042,45.712169 24.5938592,45.712169 C24.0153239,45.712169 23.7475493,45.4913239 23.6659155,45.4913239 C23.6170141,45.4913239 23.5925634,45.5319437 23.5925634,45.5970141 L23.5925634,47.1516056 C23.5925634,47.2821408 23.5105352,47.2987042 23.4458592,47.2987042 L22.5179155,47.2987042 C22.4532394,47.2987042 22.3712113,47.2821408 22.3712113,47.1516056 L22.3712113,41.6486197 C22.3712113,41.5180845 22.4532394,41.5015211 22.5179155,41.5015211 L23.4218028,41.5015211 C23.5192113,41.5015211 23.5357746,41.5508169 23.5357746,41.6083944 C23.5357746,41.640338 23.5432676,41.6647887 23.6249014,41.6647887 C23.8039437,41.6647887 24.0480563,41.4289577 24.6676056,41.4289577 Z M92.8937465,41.4289577 C94.3024225,41.4289577 95.0430423,42.2669859 95.0430423,43.5530141 C95.0430423,44.7992113 94.3422535,45.712169 92.8854648,45.712169 C91.4767887,45.712169 90.7357746,44.8725634 90.7357746,43.5861408 C90.7357746,42.340338 91.4357746,41.4289577 92.8937465,41.4289577 Z M68.6232676,41.4289577 C70.032338,41.4289577 70.7725634,42.2669859 70.7725634,43.5530141 C70.7725634,44.7992113 70.0725634,45.712169 68.6149859,45.712169 C67.2063099,45.712169 66.4652958,44.8725634 66.4652958,43.5861408 C66.4652958,42.340338 67.1656901,41.4289577 68.6232676,41.4289577 Z M18.7966761,41.4289577 C20.2053521,41.4289577 20.9459718,42.2669859 20.9459718,43.5530141 C20.9459718,44.7992113 20.2459718,45.712169 18.7887887,45.712169 C17.3801127,45.712169 16.6390986,44.8725634 16.6390986,43.5861408 C16.6390986,42.340338 17.339493,41.4289577 18.7966761,41.4289577 Z M52.0472676,41.4202817 C53.7895775,41.4202817 54.0340845,42.6089014 54.0340845,43.463493 L54.0340845,43.6598873 C54.0340845,43.7896338 53.9524507,43.8061972 53.8873803,43.8061972 L51.3957746,43.8061972 C51.3232113,43.8061972 51.2739155,43.8389296 51.2739155,43.9193803 C51.2739155,44.6126761 51.7459718,44.8966197 52.4621408,44.8966197 C53.0000563,44.8966197 53.3908732,44.7254648 53.5450704,44.6446197 C53.5943662,44.6205634 53.6101408,44.604 53.6673239,44.604 C53.7572394,44.604 53.7812958,44.6690704 53.7812958,44.7337465 L53.7812958,45.2472113 C53.7812958,45.352507 53.7730141,45.4018028 53.692169,45.460169 C53.4882817,45.6135775 52.9105352,45.712169 52.3079437,45.712169 C51.1189296,45.712169 49.9957746,45.2550986 49.9957746,43.6105915 C49.9957746,42.0556056 50.8830986,41.4202817 52.0472676,41.4202817 Z M81.2997746,41.4289577 C82.3176338,41.4289577 82.635493,41.7460282 82.7332958,41.8446197 C82.9529577,42.0642817 83.0515493,42.340338 83.0515493,42.9023099 L83.0515493,45.4913239 C83.0515493,45.6214648 82.9691268,45.6380282 82.9040563,45.6380282 L82.0332958,45.6380282 C81.935493,45.6380282 81.9193239,45.5895211 81.9193239,45.5319437 C81.9193239,45.4996056 81.9193239,45.4747606 81.8380845,45.4747606 C81.6590423,45.4747606 81.3648451,45.703493 80.7464789,45.703493 C79.6387042,45.703493 79.3867042,45.052 79.3867042,44.4896338 C79.3867042,43.7166761 79.7936901,43.3826479 80.6731268,43.1140845 L81.5935775,42.8376338 C81.7316056,42.795831 81.8621408,42.7725634 81.8621408,42.6089014 L81.8621408,42.576169 C81.8621408,42.347831 81.6823099,42.2429296 81.1049577,42.2429296 C80.4128451,42.2429296 79.9979718,42.4949296 79.9084507,42.5442254 C79.8587606,42.5690704 79.8347042,42.5856338 79.7779155,42.5856338 C79.7037746,42.5856338 79.671831,42.527662 79.671831,42.4543099 L79.671831,41.9254648 C79.671831,41.8284507 79.6797183,41.7625915 79.7613521,41.7129014 C80.0788169,41.5094085 80.8115493,41.4289577 81.2997746,41.4289577 Z M8.62005634,41.5015211 C8.68512676,41.5015211 8.76676056,41.5180845 8.76676056,41.6486197 L8.76676056,43.9193803 C8.76676056,44.2467042 8.79121127,44.4576901 8.89769014,44.5961127 C9.01915493,44.7499155 9.21476056,44.816169 9.47504225,44.816169 C9.61385915,44.816169 9.78461972,44.7909296 9.90726761,44.7337465 C10.0697465,44.6611831 10.1505915,44.5472113 10.1505915,44.3429296 L10.1505915,41.6486197 C10.1505915,41.5180845 10.2322254,41.5015211 10.2972958,41.5015211 L11.2260282,41.5015211 C11.2907042,41.5015211 11.372338,41.5180845 11.372338,41.6486197 L11.372338,45.4913239 C11.372338,45.6214648 11.2907042,45.6380282 11.2260282,45.6380282 L10.3055775,45.6380282 C10.208169,45.6380282 10.192,45.5895211 10.192,45.5319437 C10.192,45.4996056 10.192,45.4747606 10.1103662,45.4747606 C10.0125634,45.4747606 9.88242254,45.516169 9.80946479,45.548507 C9.5724507,45.6467042 9.23921127,45.703493 8.9868169,45.703493 C8.52225352,45.703493 8.10777465,45.5895211 7.84630986,45.3047887 C7.57853521,45.0109859 7.54580282,44.6536901 7.54580282,43.9856338 L7.54580282,41.6486197 C7.54580282,41.5180845 7.62664789,41.5015211 7.69211268,41.5015211 L8.62005634,41.5015211 Z M63.7962254,40.1429296 C64.2596056,40.1429296 64.7569014,40.2324507 65.0905352,40.4355493 C65.1717746,40.4848451 65.1887324,40.5408451 65.1887324,40.6386479 L65.1887324,41.2984225 C65.1887324,41.3638873 65.1717746,41.4289577 65.0743662,41.4289577 C64.9931268,41.4289577 64.9517183,41.3879437 64.8870423,41.356 C64.5037183,41.1513239 64.2596056,41.0539155 63.7800563,41.0539155 C63.4211831,41.0539155 63.0465352,41.1434366 63.0465352,41.5425352 C63.0465352,41.8446197 63.2504225,41.9830423 63.4945352,42.1123944 L64.2189859,42.5110986 C64.8543099,42.8616901 65.2612958,43.1953239 65.2612958,44.0909296 C65.2612958,45.2637746 64.3901408,45.703493 63.3072113,45.703493 C62.4037183,45.703493 61.9474366,45.4830423 61.8251831,45.4018028 C61.7439437,45.352507 61.728169,45.2961127 61.728169,45.1990986 L61.728169,44.5550986 C61.728169,44.4896338 61.7439437,44.4245634 61.8417465,44.4245634 C61.9150986,44.4245634 61.9561127,44.4576901 62.012507,44.4896338 C62.1517183,44.571662 62.5255775,44.7830423 63.1691831,44.7830423 C63.608507,44.7830423 64.024169,44.7089014 64.024169,44.2467042 C64.024169,43.927662 63.8285634,43.7975211 63.5840563,43.652 L62.664,43.0813521 C62.3552113,42.8865352 61.8251831,42.5442254 61.8251831,41.6249577 C61.8251831,40.4193803 62.876169,40.1429296 63.7962254,40.1429296 Z M42.0662535,41.4289577 C42.5051831,41.4289577 43.108169,41.5425352 43.2714366,41.6647887 C43.3361127,41.7099042 43.3490479,41.7502242 43.3516349,41.8148246 L43.3522817,42.4472113 C43.3522817,42.5110986 43.3361127,42.576169 43.2387042,42.576169 C43.1815211,42.576169 43.1570704,42.5603944 43.108169,42.5359437 C42.8064789,42.3730704 42.611662,42.3001127 42.2208451,42.3001127 C41.3082817,42.3001127 41.0886197,42.9516056 41.0886197,43.6105915 C41.0886197,44.2695775 41.3662535,44.8319437 42.1719437,44.8319437 C42.5627606,44.8319437 42.8309296,44.7499155 43.1160563,44.5961127 C43.1649577,44.571662 43.1815211,44.5550986 43.2387042,44.5550986 C43.327831,44.5550986 43.3522817,44.6205634 43.3522817,44.6856338 L43.3522817,45.2472113 C43.3522817,45.352507 43.344,45.4018028 43.2627606,45.460169 C43.0592676,45.6135775 42.4239437,45.703493 41.9597746,45.703493 C40.0549859,45.703493 39.8100845,44.3429296 39.8100845,43.6105915 C39.8100845,42.8376338 40.0873239,41.4289577 42.0662535,41.4289577 Z M29.6417465,41.4289577 C30.6596056,41.4289577 30.9774648,41.7460282 31.0752676,41.8446197 C31.2949296,42.0642817 31.392338,42.340338 31.392338,42.9023099 L31.392338,45.4913239 C31.392338,45.6214648 31.3107042,45.6380282 31.2452394,45.6380282 L30.3744789,45.6380282 C30.2766761,45.6380282 30.260507,45.5895211 30.260507,45.5319437 C30.260507,45.4996056 30.260507,45.4747606 30.1788732,45.4747606 C30.0006197,45.4747606 29.7068169,45.703493 29.0884507,45.703493 C27.9810704,45.703493 27.7286761,45.052 27.7286761,44.4896338 C27.7286761,43.7166761 28.135662,43.3826479 29.0147042,43.1140845 L29.9351549,42.8376338 C30.0735775,42.795831 30.2041127,42.7725634 30.2041127,42.6089014 L30.2041127,42.576169 C30.2041127,42.347831 30.0242817,42.2429296 29.4465352,42.2429296 C28.7544225,42.2429296 28.3387606,42.4949296 28.2496338,42.5442254 C28.2007324,42.5690704 28.1762817,42.5856338 28.119493,42.5856338 C28.0457465,42.5856338 28.0134085,42.527662 28.0134085,42.4543099 L28.0134085,41.9254648 C28.0134085,41.8284507 28.0216901,41.7625915 28.1029296,41.7129014 C28.4203944,41.5094085 29.1535211,41.4289577 29.6417465,41.4289577 Z M37.3437183,41.4289577 C37.832338,41.4289577 38.3043944,41.5425352 38.467662,41.6647887 C38.532338,41.7099042 38.5452732,41.7502242 38.5478603,41.8148246 L38.548507,42.3809577 C38.548507,42.4472113 38.5327324,42.5110986 38.4349296,42.5110986 C38.3773521,42.5110986 38.3532958,42.4949296 38.3043944,42.4704789 C38.068169,42.340338 37.832338,42.2354366 37.4576901,42.2354366 C37.1966197,42.2354366 36.920169,42.2752676 36.920169,42.5442254 C36.920169,42.7473239 37.1240563,42.8376338 37.2707606,42.9180845 L37.7834366,43.2118873 C38.2472113,43.4725634 38.6297465,43.7655775 38.6297465,44.4001127 C38.6297465,45.1411268 38.0926197,45.703493 37.0341408,45.703493 C36.2442254,45.703493 35.8695775,45.5240563 35.7887324,45.460169 C35.7070986,45.4018028 35.6988169,45.352507 35.6988169,45.2472113 L35.6988169,44.7499155 C35.6988169,44.6856338 35.7153803,44.6205634 35.8135775,44.6205634 C35.8695775,44.6205634 35.8861408,44.6371268 35.9350423,44.6611831 C36.220169,44.816169 36.5861408,44.8966197 36.9852394,44.8966197 C37.2380282,44.8966197 37.4896338,44.848507 37.4896338,44.5882254 C37.4896338,44.3590986 37.2707606,44.2695775 37.1240563,44.1887324 L36.5944225,43.8795493 C36.1061972,43.5940282 35.7808451,43.3499155 35.7808451,42.7311549 C35.7808451,41.8036056 36.488338,41.4289577 37.3437183,41.4289577 Z M105.707887,39.8329577 C105.773352,39.8329577 105.85538,39.8487324 105.85538,39.9792676 L105.85538,45.4913239 C105.85538,45.6214648 105.773352,45.6380282 105.707887,45.6380282 L104.804789,45.6380282 C104.706986,45.6380282 104.690817,45.5895211 104.690817,45.5319437 C104.690817,45.4996056 104.690817,45.4747606 104.609577,45.4747606 C104.430535,45.4747606 104.177352,45.703493 103.55938,45.703493 C102.362085,45.703493 101.677859,44.9049014 101.677859,43.6188732 C101.677859,42.1948169 102.460282,41.4289577 103.631944,41.4289577 C104.210479,41.4289577 104.479042,41.6486197 104.56107,41.6486197 C104.609577,41.6486197 104.633634,41.6083944 104.633634,41.5425352 L104.633634,39.9792676 C104.633634,39.8487324 104.715268,39.8329577 104.779944,39.8329577 L105.707887,39.8329577 Z M108.940507,41.4289577 C109.429127,41.4289577 109.901577,41.5425352 110.063662,41.6647887 C110.14569,41.7211831 110.14569,41.7700845 110.14569,41.8682817 L110.14569,42.3809577 C110.14569,42.4472113 110.129127,42.5110986 110.031718,42.5110986 C109.974141,42.5110986 109.950085,42.4949296 109.901577,42.4704789 C109.665746,42.340338 109.429127,42.2354366 109.054085,42.2354366 C108.793803,42.2354366 108.516958,42.2752676 108.516958,42.5442254 C108.516958,42.7473239 108.721239,42.8376338 108.867155,42.9180845 L109.379831,43.2118873 C109.844,43.4725634 110.227324,43.7655775 110.227324,44.4001127 C110.227324,45.1411268 109.689014,45.703493 108.631718,45.703493 C107.841014,45.703493 107.466366,45.5240563 107.385521,45.460169 C107.304676,45.4018028 107.295606,45.352507 107.295606,45.2472113 L107.295606,44.7499155 C107.295606,44.6856338 107.312563,44.6205634 107.409183,44.6205634 C107.466366,44.6205634 107.48293,44.6371268 107.532225,44.6611831 C107.817352,44.816169 108.18293,44.8966197 108.582028,44.8966197 C108.835211,44.8966197 109.086817,44.848507 109.086817,44.5882254 C109.086817,44.3590986 108.867155,44.2695775 108.721239,44.1887324 L108.191606,43.8795493 C107.702986,43.5940282 107.377239,43.3499155 107.377239,42.7311549 C107.377239,41.8036056 108.085915,41.4289577 108.940507,41.4289577 Z M45.9085634,39.8652958 C45.9499718,39.8652958 46.0552676,39.8652958 46.0552676,40.0123944 L46.0552676,41.600507 C46.0552676,41.6647887 46.0797183,41.7046197 46.1282254,41.7046197 C46.2177465,41.7046197 46.584507,41.4289577 47.2115493,41.4289577 C47.6753239,41.4289577 48.0901972,41.5508169 48.3508732,41.8355493 C48.619831,42.1289577 48.6608451,42.4870423 48.6608451,43.1550986 L48.6608451,45.4913239 C48.6608451,45.6214648 48.5788169,45.6380282 48.5141408,45.6380282 L47.5854085,45.6380282 C47.520338,45.6380282 47.439493,45.6214648 47.439493,45.4913239 L47.439493,43.220169 C47.439493,42.8944225 47.4067606,42.6909296 47.3006761,42.552507 C47.1788169,42.3975211 46.9910986,42.3237746 46.7308169,42.3237746 C46.5927887,42.3237746 46.4216338,42.347831 46.2993803,42.4058028 C46.136507,42.4783662 46.0552676,42.5927324 46.0552676,42.795831 L46.0552676,45.4913239 C46.0552676,45.6380282 45.9499718,45.6380282 45.9085634,45.6380282 L44.9806197,45.6380282 C44.94,45.6380282 44.8343099,45.6380282 44.8343099,45.4913239 L44.8343099,40.0123944 C44.8343099,39.8652958 44.94,39.8652958 44.9806197,39.8652958 L45.9085634,39.8652958 Z M77.7993803,41.5015211 C77.8644507,41.5015211 77.9456901,41.5259718 77.9456901,41.656507 L77.9456901,45.4913239 C77.9456901,45.6214648 77.8644507,45.6380282 77.7993803,45.6380282 L76.8710423,45.6380282 C76.8063662,45.6380282 76.7247324,45.6214648 76.7247324,45.4913239 L76.7247324,41.6486197 C76.7247324,41.5180845 76.8063662,41.5015211 76.8710423,41.5015211 L77.7993803,41.5015211 Z M85.7695211,39.8652958 C85.8345915,39.8652958 85.9166197,39.8897465 85.9166197,40.0210704 L85.9166197,45.4913239 C85.9166197,45.6214648 85.8345915,45.6380282 85.7695211,45.6380282 L84.8415775,45.6380282 C84.776507,45.6380282 84.695662,45.6214648 84.695662,45.4913239 L84.695662,40.0123944 C84.695662,39.8818592 84.776507,39.8652958 84.8415775,39.8652958 L85.7695211,39.8652958 Z M88.9776901,39.8246761 C89.4091268,39.8246761 89.800338,39.9216901 89.800338,40.1172958 L89.800338,40.6149859 C89.800338,40.7123944 89.7514366,40.7447324 89.6938592,40.7447324 C89.595662,40.7447324 89.5309859,40.663493 89.3519437,40.663493 C89.1654085,40.663493 89.0589296,40.7202817 89.0104225,40.8989296 C88.9938592,40.956507 88.9863662,41.1844507 88.9863662,41.2984225 L88.9863662,41.404507 C88.9863662,41.4778592 89.0261972,41.5015211 89.0589296,41.5015211 L89.6532394,41.5015211 C89.7187042,41.5015211 89.800338,41.5180845 89.800338,41.6486197 L89.800338,42.1699718 C89.800338,42.3001127 89.7187042,42.315493 89.6532394,42.315493 L89.0589296,42.315493 C89.0261972,42.315493 88.9863662,42.340338 88.9863662,42.4140845 L88.9863662,45.4913239 C88.9863662,45.6214648 88.9047324,45.6380282 88.8392676,45.6380282 L87.9113239,45.6380282 C87.8458592,45.6380282 87.7642254,45.6214648 87.7642254,45.4913239 L87.7642254,42.4140845 C87.7642254,42.340338 87.7236056,42.315493 87.6912676,42.315493 L87.3410704,42.315493 C87.276,42.315493 87.1947606,42.3001127 87.1947606,42.1699718 L87.1947606,41.6486197 C87.1947606,41.5180845 87.276,41.5015211 87.3410704,41.5015211 L87.6912676,41.5015211 C87.7236056,41.5015211 87.7642254,41.4778592 87.7642254,41.404507 L87.7642254,41.2006197 C87.7642254,40.8180845 87.7886761,40.6548169 87.8458592,40.5073239 C88.0738028,39.9063099 88.6353803,39.8246761 88.9776901,39.8246761 Z M75.1042817,41.5015211 C75.1693521,41.5015211 75.2501972,41.5180845 75.2501972,41.6486197 L75.2501972,42.0808451 C75.2501972,42.2023099 75.2340282,42.2669859 75.1614648,42.3651831 L73.4349296,44.6690704 C73.4104789,44.7021972 73.3947042,44.7179718 73.3947042,44.7593803 C73.3947042,44.8078873 73.4266479,44.816169 73.5003944,44.816169 L75.1772394,44.816169 C75.2423099,44.816169 75.324338,44.8319437 75.324338,44.9620845 L75.324338,45.4913239 C75.324338,45.6214648 75.2423099,45.6380282 75.1772394,45.6380282 L72.0589859,45.6380282 C71.9943099,45.6380282 71.9130704,45.6214648 71.9130704,45.4913239 L71.9130704,44.9865352 C71.9130704,44.8804507 71.9288451,44.7992113 72.0025915,44.7021972 L73.6794366,42.4629859 C73.7038873,42.4306479 73.7200563,42.4140845 73.7200563,42.3730704 C73.7200563,42.3237746 73.6881127,42.315493 73.6147606,42.315493 L72.1406197,42.315493 C72.0755493,42.315493 71.9943099,42.3001127 71.9943099,42.1699718 L71.9943099,41.6486197 C71.9943099,41.5180845 72.0755493,41.5015211 72.1406197,41.5015211 L75.1042817,41.5015211 Z M5.8764507,40.208 C5.94152113,40.208 6.02315493,40.2237746 6.02315493,40.3543099 L6.02315493,41.0132958 C6.02315493,41.1434366 5.94152113,41.16 5.8764507,41.16 L3.98743662,41.16 C3.95470423,41.16 3.90619718,41.1765634 3.90619718,41.2574085 L3.90619718,42.2504225 C3.90619718,42.3237746 3.95470423,42.347831 3.98743662,42.347831 L5.4611831,42.347831 C5.52625352,42.347831 5.60828169,42.3651831 5.60828169,42.4949296 L5.60828169,43.1550986 C5.60828169,43.2852394 5.52625352,43.3014085 5.4611831,43.3014085 L3.98743662,43.3014085 C3.95470423,43.3014085 3.90619718,43.3171831 3.90619718,43.3992113 L3.90619718,44.5882254 C3.90619718,44.6611831 3.95470423,44.6856338 3.98743662,44.6856338 L6.03932394,44.6856338 C6.10439437,44.6856338 6.18602817,44.7021972 6.18602817,44.8319437 L6.18602817,45.4913239 C6.18602817,45.6214648 6.10439437,45.6380282 6.03932394,45.6380282 L2.74991549,45.6380282 C2.68484507,45.6380282 2.60360563,45.6214648 2.60360563,45.4913239 L2.60360563,40.3543099 C2.60360563,40.2237746 2.68484507,40.208 2.74991549,40.208 L5.8764507,40.208 Z M98.8455211,41.4289577 C99.3081127,41.4289577 99.7245634,41.5508169 99.9848451,41.8355493 C100.254197,42.1289577 100.294817,42.4870423 100.294817,43.1550986 L100.294817,45.4913239 C100.294817,45.6214648 100.212394,45.6380282 100.147324,45.6380282 L99.2197746,45.6380282 C99.1547042,45.6380282 99.0730704,45.6214648 99.0730704,45.4913239 L99.0730704,43.220169 C99.0730704,42.8944225 99.0407324,42.6909296 98.9342535,42.552507 C98.8127887,42.3975211 98.6250704,42.3237746 98.3647887,42.3237746 C98.2259718,42.3237746 98.0556056,42.347831 97.9325634,42.4058028 C97.7712676,42.4783662 97.6892394,42.5927324 97.6892394,42.795831 L97.6892394,45.4913239 C97.6892394,45.6214648 97.6072113,45.6380282 97.5421408,45.6380282 L96.6141972,45.6380282 C96.5491268,45.6380282 96.467493,45.6214648 96.467493,45.4913239 L96.467493,41.6486197 C96.467493,41.5180845 96.5491268,41.5015211 96.6141972,41.5015211 L97.5342535,41.5015211 C97.631662,41.5015211 97.647831,41.5508169 97.647831,41.6083944 C97.647831,41.640338 97.656507,41.6647887 97.7377465,41.6647887 C97.8359437,41.6647887 97.9581972,41.6249577 98.0311549,41.5914366 C98.2677746,41.4944225 98.5935211,41.4289577 98.8455211,41.4289577 Z M57.7383662,41.4368451 C58.0964507,41.4368451 58.1453521,41.5673803 58.1453521,41.7046197 L58.1453521,42.3809577 C58.1453521,42.4543099 58.1126197,42.5036056 58.0313803,42.5036056 C57.9103099,42.5036056 57.8452394,42.4389296 57.4134085,42.4389296 C56.7619155,42.4389296 56.6802817,42.7804507 56.6802817,43.0813521 L56.6802817,45.4913239 C56.6802817,45.6214648 56.5986479,45.6380282 56.5339718,45.6380282 L55.6048451,45.6380282 C55.5397746,45.6380282 55.4593239,45.6214648 55.4593239,45.4913239 L55.4593239,41.6486197 C55.4593239,41.5180845 55.5397746,41.5015211 55.6048451,41.5015211 L56.5087324,41.5015211 C56.6065352,41.5015211 56.6227042,41.5508169 56.6227042,41.6083944 L56.6227042,41.6730704 C56.6227042,41.7129014 56.6641127,41.7460282 56.7126197,41.7460282 C56.9488451,41.7460282 57.1278873,41.4368451 57.7383662,41.4368451 Z M34.111493,41.5015211 C34.1765634,41.5015211 34.2581972,41.5259718 34.2581972,41.656507 L34.2581972,45.4913239 C34.2581972,45.6214648 34.1765634,45.6380282 34.111493,45.6380282 L33.1831549,45.6380282 C33.1184789,45.6380282 33.0364507,45.6214648 33.0364507,45.4913239 L33.0364507,41.6486197 C33.0364507,41.5180845 33.1184789,41.5015211 33.1831549,41.5015211 L34.111493,41.5015211 Z M15.3369014,41.4368451 C15.6949859,41.4368451 15.7438873,41.5673803 15.7438873,41.7046197 L15.7438873,42.3809577 C15.7438873,42.4543099 15.7111549,42.5036056 15.6299155,42.5036056 C15.507662,42.5036056 15.4429859,42.4389296 15.0107606,42.4389296 C14.3604507,42.4389296 14.2784225,42.7804507 14.2784225,43.0813521 L14.2784225,45.4913239 C14.2784225,45.6214648 14.1971831,45.6380282 14.1321127,45.6380282 L13.2033803,45.6380282 C13.1383099,45.6380282 13.0570704,45.6214648 13.0570704,45.4913239 L13.0570704,41.6486197 C13.0570704,41.5180845 13.1383099,41.5015211 13.2033803,41.5015211 L14.1072676,41.5015211 C14.2054648,41.5015211 14.2212394,41.5508169 14.2212394,41.6083944 L14.2212394,41.6730704 C14.2212394,41.7129014 14.2626479,41.7460282 14.3107606,41.7460282 C14.5473803,41.7460282 14.7264225,41.4368451 15.3369014,41.4368451 Z M18.7887887,42.2504225 C18.0560563,42.2504225 17.9176338,42.8865352 17.9176338,43.6027042 C17.9176338,44.3027042 18.064338,44.8891268 18.7966761,44.8891268 C19.5294085,44.8891268 19.667831,44.2541972 19.667831,43.5368451 C19.667831,42.8376338 19.5219155,42.2504225 18.7887887,42.2504225 Z M68.6149859,42.2504225 C67.8826479,42.2504225 67.7442254,42.8865352 67.7442254,43.6027042 C67.7442254,44.3027042 67.8909296,44.8891268 68.6232676,44.8891268 C69.3567887,44.8891268 69.4948169,44.2541972 69.4948169,43.5368451 C69.4948169,42.8376338 69.3489014,42.2504225 68.6149859,42.2504225 Z M81.7962817,43.5451268 C81.7398873,43.5451268 81.7398873,43.5530141 81.6657465,43.5774648 L81.2023662,43.7490141 C80.9420845,43.8472113 80.6329014,43.9603944 80.6329014,44.368169 C80.6329014,44.7337465 80.819831,44.8891268 81.2433803,44.8891268 C81.3979718,44.8891268 81.6172394,44.8319437 81.6988732,44.7664789 C81.7809014,44.7021972 81.8621408,44.6292394 81.8621408,44.4166761 L81.8621408,43.6275493 C81.8621408,43.5695775 81.8463662,43.5451268 81.7962817,43.5451268 Z M92.8854648,42.2504225 C92.1527324,42.2504225 92.0147042,42.8865352 92.0147042,43.6027042 C92.0147042,44.3027042 92.1610141,44.8891268 92.8937465,44.8891268 C93.6268732,44.8891268 93.764507,44.2541972 93.764507,43.5368451 C93.764507,42.8376338 93.6189859,42.2504225 92.8854648,42.2504225 Z M30.1382535,43.5451268 C30.0810704,43.5451268 30.0810704,43.5530141 30.0081127,43.5774648 L29.5439437,43.7490141 C29.283662,43.8472113 28.9744789,43.9603944 28.9744789,44.368169 C28.9744789,44.7337465 29.1614085,44.8891268 29.5853521,44.8891268 C29.7395493,44.8891268 29.9596056,44.8319437 30.0408451,44.7664789 C30.1220845,44.7021972 30.2041127,44.6292394 30.2041127,44.4166761 L30.2041127,43.6275493 C30.2041127,43.5695775 30.1875493,43.5451268 30.1382535,43.5451268 Z M24.2519437,42.3001127 C24.1218028,42.3001127 23.991662,42.315493 23.8780845,42.3651831 C23.6982535,42.4472113 23.5925634,42.520169 23.5925634,42.8218592 L23.5925634,44.408 C23.5925634,44.6292394 23.6982535,44.7089014 23.8780845,44.7830423 C23.991662,44.8319437 24.1218028,44.848507 24.2519437,44.848507 C24.6183099,44.848507 25.2698028,44.7179718 25.2698028,43.5368451 C25.2698028,42.7804507 24.9933521,42.3001127 24.2519437,42.3001127 Z M103.973859,42.291831 C103.607887,42.291831 102.956394,42.4223662 102.956394,43.6027042 C102.956394,44.3590986 103.233634,44.8406197 103.973859,44.8406197 C104.104394,44.8406197 104.235324,44.8244507 104.348901,44.7743662 C104.527944,44.6939155 104.633634,44.6205634 104.633634,44.3184789 L104.633634,42.7311549 C104.633634,42.5110986 104.527944,42.4306479 104.348901,42.356507 C104.235324,42.308 104.104394,42.291831 103.973859,42.291831 Z M52.0149296,42.1782535 C51.5341972,42.1782535 51.2490704,42.4949296 51.2490704,42.975662 C51.2490704,43.0249577 51.2656338,43.056507 51.3464789,43.056507 L52.7153239,43.056507 C52.796169,43.056507 52.8127324,43.0411268 52.8127324,42.9516056 C52.8127324,42.3237746 52.3647324,42.1782535 52.0149296,42.1782535 Z M30.447831,40.0451268 C30.7656901,40.0451268 30.9526197,40.1823662 30.9526197,40.5242817 C30.9526197,40.859493 30.7574085,40.9979155 30.431662,40.9979155 C30.1134085,40.9979155 29.9268732,40.859493 29.9268732,40.5163944 C29.9268732,40.1823662 30.1220845,40.0451268 30.447831,40.0451268 Z M28.9985352,40.0451268 C29.316,40.0451268 29.5033239,40.1823662 29.5033239,40.5242817 C29.5033239,40.859493 29.3073239,40.9979155 28.9823662,40.9979155 C28.664507,40.9979155 28.4775775,40.859493 28.4775775,40.5163944 C28.4775775,40.1823662 28.6731831,40.0451268 28.9985352,40.0451268 Z M33.6473239,39.8731831 C34.0866479,39.8731831 34.3315493,40.0683944 34.3315493,40.4193803 C34.3315493,40.760507 34.0787606,40.956507 33.6473239,40.956507 C33.208,40.956507 32.9630986,40.760507 32.9630986,40.411493 C32.9630986,40.0683944 33.2158873,39.8731831 33.6473239,39.8731831 Z M77.3352113,39.8731831 C77.7749296,39.8731831 78.0194366,40.0683944 78.0194366,40.4193803 C78.0194366,40.760507 77.7662535,40.956507 77.3352113,40.956507 C76.8947042,40.956507 76.6505915,40.760507 76.6505915,40.411493 C76.6505915,40.0683944 76.9037746,39.8731831 77.3352113,39.8731831 Z" id="text" fill="#1A1919"></path>
                    <g id="Group-43" transform="translate(0.000000, 24.056338)"></g>
                    <g id="Group-46" transform="translate(8.676056, 5.521127)"></g>
                    <g id="Group-50" transform="translate(2.366197, 13.802817)">
                        <polyline id="Fill-48" points="39.244169 20.4829859 10.6683944 0.319042254 0.208225352 7.5576338 39.244169 20.4829859"></polyline>
                    </g>
                    <polygon id="Clip-42" fill="url(#linearGradient-1)" points="7.74140845 24.3233239 41.1252958 34.776 0.0236619718 34.5090141 0.0236619718 34.4778592"></polygon>
                    <polyline id="Clip-45" fill="url(#linearGradient-2)" points="42.1510423 33.8228169 21.0978028 5.89774648 8.92766197 9.59532394 42.1510423 33.8228169"></polyline>
                    <polyline id="Fill-47" fill="#1B1918" points="42.6428169 33.4576338 31.1718873 0.421577465 18.4543662 0.205464789 42.6428169 33.4576338"></polyline>
                    <polyline id="Clip-49" fill="url(#linearGradient-3)" points="41.6103662 34.2858028 13.0345915 14.1218592 2.57442254 21.3604507 41.6103662 34.2858028"></polyline>
                </g>
            </g>
        </g>
    </g>
</svg>