<?xml version="1.0" encoding="UTF-8"?>
<svg width="126px" height="64px" viewBox="0 0 126 64" version="1.1" xmlns="http://www.w3.org/2000/svg" xmlns:xlink="http://www.w3.org/1999/xlink">
    <title>logo-BMWi</title>
    <g id="🎨-Design" stroke="none" stroke-width="1" fill="none" fill-rule="evenodd">
        <g id="Home" transform="translate(-604.000000, -3914.000000)" fill-rule="nonzero">
            <g id="Section/Logo-Banner" transform="translate(145.000000, 3914.000000)">
                <g id="logo-BMWi" transform="translate(459.000000, 0.000000)">
                    <path d="M46.1419355,3.50967742 C46.1419355,3.81935484 46.1419355,4.02580645 46.0387097,4.23225806 C45.9354839,4.43870968 45.8322581,4.64516129 45.7290323,4.8516129 C45.6258065,5.05806452 45.4193548,5.16129032 45.316129,5.26451613 C45.1096774,5.36774194 45.0064516,5.47096774 44.8,5.47096774 L44.8,5.47096774 C45.0064516,5.47096774 45.2129032,5.57419355 45.4193548,5.67741935 C45.6258065,5.78064516 45.7290323,5.88387097 45.9354839,6.09032258 C46.0387097,6.29677419 46.1419355,6.50322581 46.2451613,6.70967742 C46.3483871,7.01935484 46.4516129,7.22580645 46.4516129,7.53548387 C46.4516129,7.84516129 46.3483871,8.15483871 46.2451613,8.46451613 C46.1419355,8.77419355 45.9354839,8.98064516 45.7290323,9.18709677 C45.5225806,9.39354839 45.2129032,9.6 44.8,9.70322581 C44.3870968,9.80645161 43.9741935,9.90967742 43.4580645,9.90967742 L41.7032258,9.90967742 L41.7032258,1.34193548 L43.3548387,1.34193548 C43.8709677,1.34193548 44.283871,1.34193548 44.5935484,1.44516129 C44.9032258,1.5483871 45.2129032,1.6516129 45.5225806,1.85806452 C45.8322581,2.06451613 45.9354839,2.27096774 46.0387097,2.58064516 C46.1419355,2.89032258 46.1419355,3.2 46.1419355,3.50967742 Z M45.1096774,3.50967742 C45.1096774,3.09677419 45.0064516,2.78709677 44.6967742,2.58064516 C44.3870968,2.27096774 43.9741935,2.16774194 43.3548387,2.16774194 L42.8387097,2.16774194 L42.8387097,5.05806452 L43.3548387,5.05806452 C43.9741935,5.05806452 44.3870968,4.95483871 44.6967742,4.64516129 C45.0064516,4.43870968 45.1096774,4.02580645 45.1096774,3.50967742 Z M45.316129,7.43225806 C45.316129,7.01935484 45.2129032,6.60645161 44.9032258,6.29677419 C44.5935484,5.98709677 44.1806452,5.88387097 43.6645161,5.88387097 L42.9419355,5.88387097 L42.9419355,8.87741935 L43.5612903,8.87741935 C44.1806452,8.87741935 44.6967742,8.77419355 44.9032258,8.46451613 C45.1096774,8.25806452 45.316129,7.9483871 45.316129,7.43225806 Z M51.8193548,9.80645161 L50.8903226,9.80645161 L50.8903226,9.18709677 L50.8903226,9.18709677 C50.8903226,9.18709677 50.7870968,9.29032258 50.683871,9.39354839 C50.5806452,9.49677419 50.4774194,9.6 50.3741935,9.70322581 C50.2709677,9.80645161 50.0645161,9.90967742 49.9612903,9.90967742 C49.8580645,9.90967742 49.5483871,10.0129032 49.3419355,10.0129032 C49.0322581,10.0129032 48.8258065,10.0129032 48.6193548,9.90967742 C48.4129032,9.80645161 48.2064516,9.70322581 48.1032258,9.49677419 C48,9.29032258 47.7935484,9.08387097 47.7935484,8.87741935 C47.6903226,8.56774194 47.6903226,8.25806452 47.6903226,7.84516129 L47.6903226,3.92258065 L48.7225806,3.92258065 L48.7225806,7.74193548 C48.7225806,8.25806452 48.8258065,8.56774194 48.9290323,8.77419355 C49.1354839,8.98064516 49.3419355,9.08387097 49.6516129,9.08387097 C49.9612903,9.08387097 50.1677419,8.98064516 50.3741935,8.87741935 C50.5806452,8.77419355 50.683871,8.56774194 50.8903226,8.46451613 L50.8903226,3.92258065 L51.9225806,3.92258065 L51.9225806,9.80645161 L51.8193548,9.80645161 Z M56.5677419,9.80645161 L56.5677419,5.98709677 C56.5677419,5.47096774 56.4645161,5.16129032 56.3612903,4.95483871 C56.1548387,4.7483871 55.9483871,4.64516129 55.6387097,4.64516129 C55.3290323,4.64516129 55.1225806,4.7483871 54.916129,4.8516129 C54.7096774,4.95483871 54.6064516,5.16129032 54.4,5.26451613 L54.4,9.80645161 L53.3677419,9.80645161 L53.3677419,3.92258065 L54.2967742,3.92258065 L54.2967742,4.54193548 L54.2967742,4.54193548 C54.2967742,4.54193548 54.4,4.43870968 54.5032258,4.33548387 C54.5032258,4.23225806 54.7096774,4.12903226 54.8129032,4.12903226 C54.916129,4.02580645 55.1225806,3.92258065 55.3290323,3.92258065 C55.5354839,3.92258065 55.7419355,3.81935484 55.9483871,3.81935484 C56.2580645,3.81935484 56.4645161,3.81935484 56.6709677,3.92258065 C56.7741935,3.92258065 56.9806452,4.12903226 57.083871,4.23225806 C57.1870968,4.33548387 57.3935484,4.64516129 57.3935484,4.8516129 C57.4967742,5.16129032 57.4967742,5.47096774 57.4967742,5.88387097 L57.4967742,9.70322581 L56.5677419,9.70322581 L56.5677419,9.80645161 Z M58.8387097,6.91612903 C58.8387097,6.29677419 58.9419355,5.78064516 59.0451613,5.36774194 C59.2516129,4.95483871 59.3548387,4.64516129 59.6645161,4.43870968 C59.8709677,4.23225806 60.1806452,4.02580645 60.4903226,3.92258065 C60.8,3.81935484 61.1096774,3.81935484 61.4193548,3.81935484 C61.6258065,3.81935484 61.7290323,3.81935484 61.9354839,3.81935484 C62.0387097,3.81935484 62.1419355,3.92258065 62.2451613,3.92258065 L62.2451613,1.13548387 L63.2774194,1.03225806 L63.2774194,9.80645161 L62.3483871,9.80645161 L62.3483871,9.18709677 L62.3483871,9.18709677 C62.3483871,9.18709677 62.2451613,9.29032258 62.2451613,9.39354839 C62.2451613,9.49677419 62.0387097,9.6 61.9354839,9.6 C61.8322581,9.70322581 61.7290323,9.80645161 61.5225806,9.80645161 C61.316129,9.90967742 61.1096774,9.90967742 60.9032258,9.90967742 C60.5935484,9.90967742 60.3870968,9.80645161 60.0774194,9.70322581 C59.8709677,9.70322581 59.5612903,9.49677419 59.4580645,9.29032258 C59.2516129,9.08387097 59.1483871,8.77419355 59.0451613,8.36129032 C58.8387097,7.9483871 58.8387097,7.53548387 58.8387097,6.91612903 Z M61.1096774,9.08387097 C61.316129,9.08387097 61.4193548,9.08387097 61.5225806,8.98064516 C61.6258065,8.98064516 61.7290323,8.87741935 61.8322581,8.87741935 C61.9354839,8.77419355 62.0387097,8.77419355 62.0387097,8.67096774 C62.0387097,8.56774194 62.1419355,8.56774194 62.1419355,8.46451613 L62.1419355,4.8516129 C62.0387097,4.7483871 61.9354839,4.7483871 61.8322581,4.7483871 C61.7290323,4.7483871 61.5225806,4.64516129 61.4193548,4.64516129 C61.2129032,4.64516129 61.0064516,4.64516129 60.8,4.7483871 C60.5935484,4.8516129 60.3870968,4.95483871 60.283871,5.16129032 C60.1806452,5.36774194 59.9741935,5.57419355 59.9741935,5.88387097 C59.8709677,6.09032258 59.8709677,6.50322581 59.8709677,6.91612903 C59.8709677,7.32903226 59.8709677,7.63870968 59.9741935,7.9483871 C60.0774194,8.25806452 60.1806452,8.46451613 60.283871,8.56774194 C60.3870968,8.77419355 60.5935484,8.87741935 60.6967742,8.98064516 C60.8,9.08387097 61.0064516,9.08387097 61.1096774,9.08387097 Z M68.5419355,5.88387097 C68.5419355,6.09032258 68.5419355,6.4 68.5419355,6.50322581 C68.5419355,6.70967742 68.5419355,6.81290323 68.5419355,7.01935484 L65.5483871,7.01935484 C65.5483871,7.74193548 65.7548387,8.25806452 65.9612903,8.56774194 C66.2709677,8.87741935 66.5806452,9.08387097 67.0967742,9.08387097 C67.3032258,9.08387097 67.4064516,9.08387097 67.6129032,8.98064516 C67.716129,8.98064516 67.9225806,8.87741935 68.0258065,8.87741935 C68.0258065,8.77419355 68.1290323,8.77419355 68.1290323,8.67096774 C68.2322581,8.56774194 68.2322581,8.56774194 68.2322581,8.56774194 L68.6451613,9.29032258 C68.6451613,9.29032258 68.5419355,9.39354839 68.4387097,9.49677419 C68.3354839,9.6 68.2322581,9.70322581 68.1290323,9.70322581 C68.0258065,9.80645161 67.8193548,9.80645161 67.6129032,9.90967742 C67.4064516,10.0129032 67.2,10.0129032 66.8903226,10.0129032 C66.4774194,10.0129032 66.1677419,9.90967742 65.8580645,9.80645161 C65.5483871,9.70322581 65.3419355,9.49677419 65.1354839,9.18709677 C64.9290323,8.98064516 64.7225806,8.56774194 64.6193548,8.15483871 C64.516129,7.74193548 64.4129032,7.32903226 64.4129032,6.70967742 C64.4129032,6.19354839 64.516129,5.78064516 64.6193548,5.36774194 C64.7225806,4.95483871 64.9290323,4.64516129 65.1354839,4.43870968 C65.3419355,4.23225806 65.5483871,4.02580645 65.8580645,3.92258065 C66.1677419,3.81935484 66.3741935,3.71612903 66.683871,3.71612903 C67.2,3.71612903 67.716129,3.92258065 68.0258065,4.23225806 C68.4387097,4.64516129 68.5419355,5.16129032 68.5419355,5.88387097 Z M66.683871,4.54193548 C66.3741935,4.54193548 66.0645161,4.64516129 65.8580645,4.95483871 C65.6516129,5.26451613 65.5483871,5.67741935 65.4451613,6.19354839 L67.6129032,6.19354839 C67.6129032,6.19354839 67.6129032,6.09032258 67.6129032,5.98709677 C67.6129032,5.88387097 67.6129032,5.78064516 67.6129032,5.78064516 C67.6129032,5.36774194 67.5096774,5.05806452 67.4064516,4.8516129 C67.2,4.64516129 66.9935484,4.54193548 66.683871,4.54193548 Z M72.4645161,5.05806452 C72.3612903,4.95483871 72.2580645,4.8516129 72.1548387,4.7483871 C71.9483871,4.64516129 71.7419355,4.54193548 71.4322581,4.54193548 C71.1225806,4.54193548 71.0193548,4.64516129 70.8129032,4.7483871 C70.7096774,4.8516129 70.6064516,5.05806452 70.6064516,5.16129032 C70.6064516,5.36774194 70.7096774,5.57419355 70.8129032,5.67741935 C70.916129,5.78064516 71.1225806,5.98709677 71.4322581,6.09032258 L71.8451613,6.29677419 C72.2580645,6.50322581 72.5677419,6.81290323 72.7741935,7.01935484 C72.9806452,7.32903226 73.083871,7.63870968 73.083871,8.0516129 C73.083871,8.56774194 72.8774194,8.87741935 72.5677419,9.18709677 C72.2580645,9.49677419 71.7419355,9.70322581 71.1225806,9.70322581 C70.916129,9.70322581 70.7096774,9.70322581 70.5032258,9.6 C70.2967742,9.6 70.1935484,9.49677419 69.9870968,9.39354839 C69.883871,9.29032258 69.7806452,9.29032258 69.6774194,9.18709677 C69.5741935,9.08387097 69.4709677,9.08387097 69.4709677,8.98064516 L69.9870968,8.15483871 C69.9870968,8.15483871 70.0903226,8.25806452 70.1935484,8.36129032 C70.2967742,8.46451613 70.2967742,8.46451613 70.4,8.56774194 C70.5032258,8.67096774 70.6064516,8.67096774 70.7096774,8.67096774 C70.8129032,8.67096774 71.0193548,8.77419355 71.1225806,8.77419355 C71.4322581,8.77419355 71.6387097,8.67096774 71.8451613,8.56774194 C72.0516129,8.46451613 72.0516129,8.25806452 72.0516129,8.0516129 C72.0516129,7.9483871 72.0516129,7.74193548 71.9483871,7.63870968 C71.9483871,7.53548387 71.8451613,7.43225806 71.7419355,7.32903226 C71.6387097,7.22580645 71.5354839,7.12258065 71.4322581,7.12258065 C71.4322581,7.43225806 71.3290323,7.32903226 71.2258065,7.22580645 L70.8129032,7.01935484 C70.4,6.81290323 70.1935484,6.50322581 69.9870968,6.29677419 C69.7806452,5.98709677 69.6774194,5.67741935 69.6774194,5.26451613 C69.6774194,5.05806452 69.6774194,4.8516129 69.7806452,4.64516129 C69.883871,4.43870968 69.9870968,4.33548387 70.1935484,4.12903226 C70.4,4.02580645 70.5032258,3.92258065 70.7096774,3.81935484 C70.916129,3.71612903 71.1225806,3.71612903 71.3290323,3.71612903 C71.5354839,3.71612903 71.7419355,3.71612903 71.9483871,3.81935484 C72.1548387,3.81935484 72.2580645,3.92258065 72.3612903,4.02580645 C72.4645161,4.12903226 72.5677419,4.12903226 72.6709677,4.23225806 C72.7741935,4.33548387 72.7741935,4.33548387 72.8774194,4.43870968 L72.4645161,5.05806452 Z M77.316129,9.80645161 L77.316129,5.98709677 C77.316129,5.47096774 77.2129032,5.16129032 77.1096774,4.95483871 C77.0064516,4.7483871 76.6967742,4.64516129 76.3870968,4.64516129 C76.1806452,4.64516129 76.0774194,4.64516129 75.9741935,4.7483871 C75.8709677,4.7483871 75.7677419,4.8516129 75.6645161,4.8516129 C75.5612903,4.95483871 75.4580645,4.95483871 75.4580645,5.05806452 C75.2516129,5.16129032 75.2516129,5.16129032 75.1483871,5.26451613 L75.1483871,9.80645161 L74.116129,9.80645161 L74.116129,3.92258065 L75.0451613,3.92258065 L75.0451613,4.54193548 L75.0451613,4.54193548 C75.0451613,4.43870968 75.1483871,4.43870968 75.2516129,4.33548387 C75.3548387,4.23225806 75.4580645,4.12903226 75.5612903,4.02580645 C75.6645161,3.92258065 75.8709677,3.81935484 75.9741935,3.81935484 C76.1806452,3.71612903 76.283871,3.71612903 76.4903226,3.71612903 C77.2129032,3.71612903 77.6258065,4.02580645 77.9354839,4.54193548 C78.0387097,4.43870968 78.0387097,4.33548387 78.1419355,4.23225806 C78.3483871,4.23225806 78.4516129,4.12903226 78.5548387,4.02580645 C78.6580645,3.92258065 78.8645161,3.92258065 78.9677419,3.81935484 C79.0709677,3.71612903 79.2774194,3.71612903 79.483871,3.71612903 C80.7225806,3.71612903 81.2387097,4.43870968 81.2387097,5.78064516 L81.2387097,9.70322581 L80.2064516,9.70322581 L80.2064516,5.98709677 C80.2064516,5.47096774 80.1032258,5.16129032 80,4.95483871 C79.7935484,4.7483871 79.5870968,4.64516129 79.2774194,4.64516129 C78.9677419,4.64516129 78.7612903,4.7483871 78.5548387,4.8516129 C78.4516129,4.95483871 78.3483871,5.16129032 78.2451613,5.26451613 C78.2451613,5.36774194 78.2451613,5.47096774 78.2451613,5.57419355 C78.2451613,5.67741935 78.2451613,5.78064516 78.2451613,5.88387097 L78.2451613,9.80645161 L77.316129,9.80645161 Z M83.8193548,9.80645161 L82.7870968,9.80645161 L82.7870968,3.92258065 L83.8193548,3.92258065 L83.8193548,9.80645161 Z M83.3032258,2.47741935 C83.0967742,2.47741935 82.8903226,2.37419355 82.7870968,2.27096774 C82.683871,2.16774194 82.5806452,1.96129032 82.5806452,1.75483871 C82.5806452,1.5483871 82.683871,1.34193548 82.7870968,1.23870968 C82.9935484,1.13548387 83.0967742,1.03225806 83.3032258,1.03225806 C83.5096774,1.03225806 83.6129032,1.13548387 83.8193548,1.23870968 C83.9225806,1.34193548 84.0258065,1.5483871 84.0258065,1.75483871 C84.0258065,1.96129032 83.9225806,2.16774194 83.8193548,2.27096774 C83.716129,2.37419355 83.5096774,2.47741935 83.3032258,2.47741935 Z M88.5677419,9.80645161 L88.5677419,5.98709677 C88.5677419,5.47096774 88.4645161,5.16129032 88.3612903,4.95483871 C88.1548387,4.7483871 87.9483871,4.64516129 87.6387097,4.64516129 C87.3290323,4.64516129 87.1225806,4.7483871 86.916129,4.8516129 C86.7096774,4.95483871 86.6064516,5.16129032 86.4,5.26451613 L86.4,9.80645161 L85.3677419,9.80645161 L85.3677419,3.92258065 L86.2967742,3.92258065 L86.2967742,4.54193548 L86.2967742,4.54193548 C86.2967742,4.54193548 86.4,4.43870968 86.5032258,4.33548387 C86.5032258,4.23225806 86.6064516,4.12903226 86.8129032,4.12903226 C86.916129,4.02580645 87.1225806,3.92258065 87.3290323,3.92258065 C87.5354839,3.92258065 87.7419355,3.81935484 87.9483871,3.81935484 C88.2580645,3.81935484 88.4645161,3.81935484 88.6709677,3.92258065 C88.7741935,3.92258065 88.9806452,4.12903226 89.083871,4.23225806 C89.1870968,4.33548387 89.3935484,4.64516129 89.3935484,4.8516129 C89.4967742,5.16129032 89.4967742,5.47096774 89.4967742,5.88387097 L89.4967742,9.70322581 L88.5677419,9.70322581 L88.5677419,9.80645161 Z M92.0774194,9.80645161 L91.0451613,9.80645161 L91.0451613,3.92258065 L92.0774194,3.92258065 L92.0774194,9.80645161 Z M91.5612903,2.47741935 C91.3548387,2.47741935 91.1483871,2.37419355 91.0451613,2.27096774 C90.9419355,2.16774194 90.8387097,1.96129032 90.8387097,1.75483871 C90.8387097,1.5483871 90.9419355,1.34193548 91.0451613,1.23870968 C91.1483871,1.13548387 91.3548387,1.03225806 91.5612903,1.03225806 C91.7677419,1.03225806 91.8709677,1.13548387 92.0774194,1.23870968 C92.1806452,1.34193548 92.283871,1.5483871 92.283871,1.75483871 C92.283871,1.96129032 92.1806452,2.16774194 92.0774194,2.27096774 C91.9741935,2.37419355 91.7677419,2.47741935 91.5612903,2.47741935 Z M96.1032258,5.05806452 C96,4.95483871 95.8967742,4.8516129 95.7935484,4.7483871 C95.5870968,4.64516129 95.3806452,4.54193548 95.0709677,4.54193548 C94.7612903,4.54193548 94.6580645,4.64516129 94.4516129,4.7483871 C94.3483871,4.8516129 94.2451613,5.05806452 94.2451613,5.16129032 C94.2451613,5.36774194 94.3483871,5.57419355 94.4516129,5.67741935 C94.5548387,5.78064516 94.7612903,5.98709677 95.0709677,6.09032258 L95.483871,6.29677419 C95.8967742,6.50322581 96.2064516,6.81290323 96.4129032,7.01935484 C96.6193548,7.32903226 96.7225806,7.63870968 96.7225806,8.0516129 C96.7225806,8.56774194 96.516129,8.87741935 96.2064516,9.18709677 C95.8967742,9.49677419 95.3806452,9.70322581 94.7612903,9.70322581 C94.5548387,9.70322581 94.3483871,9.70322581 94.1419355,9.6 C93.9354839,9.49677419 93.8322581,9.49677419 93.6258065,9.39354839 C93.5225806,9.29032258 93.4193548,9.29032258 93.316129,9.18709677 C93.2129032,9.08387097 93.1096774,9.08387097 93.1096774,8.98064516 L93.6258065,8.15483871 C93.6258065,8.15483871 93.7290323,8.25806452 93.8322581,8.36129032 C93.9354839,8.46451613 93.9354839,8.46451613 94.0387097,8.56774194 C94.1419355,8.67096774 94.2451613,8.67096774 94.3483871,8.67096774 C94.4516129,8.67096774 94.6580645,8.77419355 94.7612903,8.77419355 C95.0709677,8.77419355 95.2774194,8.67096774 95.483871,8.56774194 C95.6903226,8.46451613 95.6903226,8.25806452 95.6903226,8.0516129 C95.6903226,7.9483871 95.6903226,7.74193548 95.5870968,7.63870968 C95.5870968,7.53548387 95.483871,7.43225806 95.3806452,7.32903226 C95.2774194,7.22580645 95.1741935,7.12258065 95.0709677,7.12258065 C94.9677419,7.01935484 94.8645161,6.91612903 94.6580645,6.91612903 L94.2451613,6.70967742 C93.8322581,6.50322581 93.6258065,6.19354839 93.4193548,5.98709677 C93.2129032,5.67741935 93.1096774,5.36774194 93.1096774,4.95483871 C93.1096774,4.7483871 93.1096774,4.54193548 93.2129032,4.33548387 C93.316129,4.12903226 93.4193548,4.02580645 93.6258065,3.81935484 C93.8322581,3.71612903 93.9354839,3.61290323 94.1419355,3.50967742 C94.3483871,3.40645161 94.5548387,3.40645161 94.7612903,3.40645161 C94.9677419,3.40645161 95.1741935,3.40645161 95.3806452,3.50967742 C95.5870968,3.50967742 95.6903226,3.61290323 95.7935484,3.71612903 C95.8967742,3.81935484 96,3.81935484 96.1032258,3.92258065 C96.2064516,4.02580645 96.2064516,4.02580645 96.3096774,4.12903226 L96.1032258,5.05806452 Z M100.43871,4.7483871 L99.0967742,4.7483871 L99.0967742,8.0516129 C99.0967742,8.46451613 99.2,8.77419355 99.3032258,8.87741935 C99.4064516,8.98064516 99.6129032,9.08387097 99.8193548,9.08387097 C99.9225806,9.08387097 100.129032,9.08387097 100.232258,8.98064516 C100.335484,8.98064516 100.43871,8.87741935 100.43871,8.87741935 L100.541935,9.70322581 C100.541935,9.70322581 100.43871,9.80645161 100.232258,9.80645161 C100.025806,9.90967742 99.8193548,9.90967742 99.6129032,9.90967742 C99.0967742,9.90967742 98.683871,9.80645161 98.4774194,9.49677419 C98.2709677,9.29032258 98.0645161,8.77419355 98.0645161,8.15483871 L98.0645161,4.7483871 L97.3419355,4.7483871 L97.3419355,4.02580645 L98.0645161,3.92258065 L98.1677419,2.27096774 L99.0967742,2.27096774 L99.0967742,3.92258065 L100.541935,3.92258065 L100.43871,4.7483871 Z M105.187097,5.88387097 C105.187097,6.09032258 105.187097,6.4 105.187097,6.50322581 C105.187097,6.70967742 105.187097,6.81290323 105.187097,7.01935484 L102.193548,7.01935484 C102.193548,7.74193548 102.4,8.25806452 102.606452,8.56774194 C102.916129,8.87741935 103.225806,9.08387097 103.741935,9.08387097 C103.948387,9.08387097 104.051613,9.08387097 104.258065,8.98064516 C104.36129,8.98064516 104.567742,8.87741935 104.670968,8.87741935 C104.774194,8.77419355 104.877419,8.77419355 104.877419,8.67096774 C104.980645,8.56774194 104.980645,8.56774194 104.980645,8.56774194 L105.393548,9.29032258 C105.393548,9.29032258 105.290323,9.39354839 105.187097,9.49677419 C105.083871,9.6 104.980645,9.70322581 104.877419,9.70322581 C104.774194,9.80645161 104.567742,9.80645161 104.36129,9.90967742 C104.154839,10.0129032 103.948387,10.0129032 103.63871,10.0129032 C103.225806,10.0129032 102.916129,9.90967742 102.606452,9.80645161 C102.296774,9.70322581 102.090323,9.49677419 101.883871,9.18709677 C101.677419,8.98064516 101.470968,8.56774194 101.367742,8.15483871 C101.264516,7.84516129 101.16129,7.32903226 101.16129,6.81290323 C101.16129,6.29677419 101.264516,5.88387097 101.367742,5.47096774 C101.470968,5.05806452 101.677419,4.7483871 101.883871,4.54193548 C102.090323,4.33548387 102.296774,4.12903226 102.606452,4.02580645 C102.916129,3.92258065 103.122581,3.81935484 103.432258,3.81935484 C103.948387,3.81935484 104.464516,4.02580645 104.774194,4.33548387 C105.083871,4.64516129 105.187097,5.16129032 105.187097,5.88387097 Z M103.329032,4.54193548 C103.019355,4.54193548 102.709677,4.64516129 102.503226,4.95483871 C102.296774,5.26451613 102.193548,5.78064516 102.193548,6.29677419 L104.36129,6.29677419 C104.36129,6.29677419 104.36129,6.19354839 104.36129,6.09032258 C104.36129,5.98709677 104.36129,5.88387097 104.36129,5.88387097 C104.36129,5.47096774 104.258065,5.16129032 104.154839,4.95483871 C103.948387,4.64516129 103.63871,4.54193548 103.329032,4.54193548 Z M109.109677,4.7483871 C109.109677,4.7483871 109.006452,4.7483871 108.903226,4.64516129 C108.8,4.64516129 108.696774,4.64516129 108.593548,4.64516129 C108.283871,4.64516129 108.077419,4.7483871 107.870968,4.8516129 C107.664516,5.05806452 107.56129,5.16129032 107.458065,5.36774194 L107.458065,9.70322581 L106.425806,9.70322581 L106.425806,3.92258065 L107.354839,3.92258065 L107.354839,4.7483871 L107.354839,4.7483871 C107.354839,4.64516129 107.458065,4.54193548 107.56129,4.43870968 C107.664516,4.33548387 107.664516,4.23225806 107.767742,4.12903226 C107.870968,4.02580645 107.974194,4.02580645 108.077419,3.92258065 C108.180645,3.92258065 108.387097,3.81935484 108.593548,3.81935484 C108.696774,3.81935484 108.8,3.81935484 108.903226,3.81935484 C109.006452,3.81935484 109.006452,3.81935484 109.109677,3.92258065 L109.109677,4.7483871 Z M111.174194,9.80645161 L110.141935,9.80645161 L110.141935,3.92258065 L111.174194,3.92258065 L111.174194,9.80645161 Z M110.658065,2.47741935 C110.451613,2.47741935 110.245161,2.37419355 110.141935,2.27096774 C110.03871,2.16774194 109.935484,1.96129032 109.935484,1.75483871 C109.935484,1.5483871 110.03871,1.34193548 110.141935,1.23870968 C110.245161,1.13548387 110.451613,1.03225806 110.658065,1.03225806 C110.864516,1.03225806 110.967742,1.13548387 111.174194,1.23870968 C111.380645,1.34193548 111.380645,1.5483871 111.380645,1.75483871 C111.380645,1.96129032 111.277419,2.16774194 111.174194,2.27096774 C111.070968,2.37419355 110.864516,2.47741935 110.658065,2.47741935 Z M116.748387,9.80645161 L115.819355,9.80645161 L115.819355,9.18709677 L115.819355,9.18709677 C115.819355,9.18709677 115.716129,9.29032258 115.612903,9.39354839 C115.509677,9.49677419 115.406452,9.6 115.303226,9.70322581 C115.2,9.80645161 114.993548,9.90967742 114.890323,9.90967742 C114.787097,9.90967742 114.477419,10.0129032 114.270968,10.0129032 C113.96129,10.0129032 113.754839,10.0129032 113.548387,9.90967742 C113.341935,9.80645161 113.135484,9.70322581 113.032258,9.49677419 C112.929032,9.29032258 112.722581,9.08387097 112.722581,8.87741935 C112.619355,8.56774194 112.619355,8.25806452 112.619355,7.84516129 L112.619355,3.92258065 L113.651613,3.92258065 L113.651613,7.74193548 C113.651613,8.25806452 113.754839,8.56774194 113.858065,8.77419355 C114.064516,8.98064516 114.270968,9.08387097 114.580645,9.08387097 C114.890323,9.08387097 115.096774,8.98064516 115.303226,8.87741935 C115.509677,8.77419355 115.612903,8.56774194 115.819355,8.46451613 L115.819355,3.92258065 L116.851613,3.92258065 L116.851613,9.80645161 L116.748387,9.80645161 Z M121.393548,9.80645161 L121.393548,5.98709677 C121.393548,5.47096774 121.290323,5.16129032 121.187097,4.95483871 C121.083871,4.7483871 120.774194,4.64516129 120.464516,4.64516129 C120.258065,4.64516129 120.154839,4.64516129 120.051613,4.7483871 C119.948387,4.7483871 119.845161,4.8516129 119.741935,4.8516129 C119.63871,4.95483871 119.535484,4.95483871 119.535484,5.05806452 C119.432258,5.16129032 119.432258,5.16129032 119.329032,5.26451613 L119.329032,9.80645161 L118.296774,9.80645161 L118.296774,3.92258065 L119.225806,3.92258065 L119.225806,4.54193548 L119.225806,4.54193548 C119.225806,4.43870968 119.329032,4.43870968 119.432258,4.33548387 C119.535484,4.23225806 119.63871,4.12903226 119.741935,4.02580645 C119.845161,3.92258065 120.051613,3.81935484 120.154839,3.81935484 C120.36129,3.71612903 120.464516,3.71612903 120.670968,3.71612903 C121.393548,3.71612903 121.806452,4.02580645 122.116129,4.54193548 C122.219355,4.43870968 122.219355,4.33548387 122.322581,4.23225806 C122.425806,4.12903226 122.529032,4.02580645 122.632258,4.02580645 C122.735484,3.92258065 122.941935,3.92258065 123.045161,3.81935484 C123.251613,3.81935484 123.354839,3.71612903 123.56129,3.71612903 C124.8,3.71612903 125.316129,4.43870968 125.316129,5.78064516 L125.316129,9.70322581 L124.283871,9.70322581 L124.283871,5.98709677 C124.283871,5.47096774 124.180645,5.16129032 124.077419,4.95483871 C123.974194,4.7483871 123.664516,4.64516129 123.354839,4.64516129 C123.045161,4.64516129 122.83871,4.7483871 122.632258,4.8516129 C122.425806,4.95483871 122.322581,5.16129032 122.219355,5.26451613 C122.219355,5.36774194 122.219355,5.47096774 122.219355,5.57419355 C122.219355,5.67741935 122.219355,5.78064516 122.219355,5.88387097 L122.219355,9.80645161 L121.393548,9.80645161 Z M43.9741935,17.1354839 L42.7354839,17.1354839 L42.7354839,22.1935484 L41.7032258,22.1935484 L41.7032258,17.1354839 L40.9806452,17.1354839 L40.9806452,16.516129 L41.7032258,16.4129032 L41.7032258,15.2774194 C41.7032258,14.9677419 41.7032258,14.6580645 41.8064516,14.4516129 C41.9096774,14.2451613 42.0129032,14.0387097 42.116129,13.9354839 C42.2193548,13.8322581 42.4258065,13.7290323 42.6322581,13.6258065 C42.8387097,13.5225806 43.0451613,13.5225806 43.2516129,13.5225806 C43.4580645,13.5225806 43.6645161,13.5225806 43.7677419,13.6258065 C43.8709677,13.7290323 43.9741935,13.7290323 44.0774194,13.7290323 L43.8709677,14.5548387 C43.8709677,14.5548387 43.7677419,14.4516129 43.6645161,14.4516129 C43.5612903,14.4516129 43.4580645,14.3483871 43.3548387,14.3483871 C43.1483871,14.3483871 42.9419355,14.4516129 42.8387097,14.5548387 C42.7354839,14.6580645 42.6322581,14.9677419 42.6322581,15.3806452 L42.6322581,16.4129032 L43.9741935,16.4129032 L43.9741935,17.1354839 Z M49.1354839,22.1935484 L48.2064516,22.1935484 L48.2064516,21.5741935 L48.2064516,21.5741935 C48.2064516,21.5741935 48.1032258,21.6774194 48,21.7806452 C47.8967742,21.883871 47.7935484,21.9870968 47.6903226,22.0903226 C47.5870968,22.1935484 47.3806452,22.2967742 47.2774194,22.2967742 C47.1741935,22.2967742 46.8645161,22.4 46.6580645,22.4 C46.3483871,22.4 46.1419355,22.4 45.9354839,22.2967742 C45.7290323,22.1935484 45.5225806,22.0903226 45.4193548,21.883871 C45.316129,21.6774194 45.1096774,21.4709677 45.1096774,21.2645161 C45.0064516,20.9548387 45.0064516,20.6451613 45.0064516,20.2322581 L45.0064516,16.4129032 L46.0387097,16.4129032 L46.0387097,20.2322581 C46.0387097,20.7483871 46.1419355,21.0580645 46.2451613,21.2645161 C46.4516129,21.4709677 46.6580645,21.5741935 46.9677419,21.5741935 C47.2774194,21.5741935 47.483871,21.4709677 47.6903226,21.3677419 C47.8967742,21.2645161 48,21.0580645 48.2064516,20.9548387 L48.2064516,16.4129032 L49.2387097,16.4129032 L49.2387097,22.1935484 L49.1354839,22.1935484 Z M46.6580645,14.5548387 C46.6580645,14.7612903 46.5548387,14.8645161 46.4516129,14.9677419 C46.3483871,15.0709677 46.2451613,15.1741935 46.0387097,15.1741935 C45.8322581,15.1741935 45.7290323,15.0709677 45.6258065,14.9677419 C45.5225806,14.8645161 45.4193548,14.6580645 45.4193548,14.5548387 C45.4193548,14.3483871 45.5225806,14.2451613 45.6258065,14.1419355 C45.7290323,14.0387097 45.8322581,13.9354839 46.0387097,13.9354839 C46.2451613,13.9354839 46.3483871,14.0387097 46.4516129,14.1419355 C46.6580645,14.2451613 46.6580645,14.4516129 46.6580645,14.5548387 Z M48.6193548,14.5548387 C48.6193548,14.7612903 48.516129,14.8645161 48.4129032,14.9677419 C48.3096774,15.0709677 48.2064516,15.1741935 48,15.1741935 C47.7935484,15.1741935 47.6903226,15.0709677 47.5870968,14.9677419 C47.483871,14.8645161 47.3806452,14.6580645 47.3806452,14.5548387 C47.3806452,14.3483871 47.483871,14.2451613 47.5870968,14.1419355 C47.6903226,14.0387097 47.7935484,13.9354839 48,13.9354839 C48.2064516,13.9354839 48.3096774,14.0387097 48.4129032,14.1419355 C48.516129,14.2451613 48.6193548,14.4516129 48.6193548,14.5548387 Z M53.2645161,17.1354839 C53.2645161,17.1354839 53.1612903,17.1354839 53.0580645,17.0322581 C52.9548387,17.0322581 52.8516129,17.0322581 52.7483871,17.0322581 C52.4387097,17.0322581 52.2322581,17.1354839 52.0258065,17.2387097 C51.8193548,17.4451613 51.716129,17.5483871 51.6129032,17.7548387 L51.6129032,22.0903226 L50.5806452,22.0903226 L50.5806452,16.2064516 L51.5096774,16.2064516 L51.5096774,17.0322581 L51.5096774,17.0322581 C51.5096774,16.9290323 51.6129032,16.8258065 51.716129,16.7225806 C51.8193548,16.6193548 51.8193548,16.516129 51.9225806,16.4129032 C52.0258065,16.3096774 52.1290323,16.3096774 52.2322581,16.2064516 C52.3354839,16.2064516 52.5419355,16.1032258 52.7483871,16.1032258 C52.8516129,16.1032258 52.9548387,16.1032258 53.0580645,16.1032258 C53.1612903,16.1032258 53.1612903,16.1032258 53.2645161,16.2064516 L53.2645161,17.1354839 Z M65.0322581,13.7290323 L62.9677419,22.1935484 L62.0387097,22.1935484 L60.8,16.8258065 C60.6967742,16.4129032 60.5935484,16.1032258 60.5935484,15.7935484 C60.5935484,15.483871 60.4903226,15.1741935 60.4903226,15.0709677 L60.4903226,15.0709677 C60.4903226,15.2774194 60.4903226,15.483871 60.3870968,15.7935484 C60.283871,16.1032258 60.283871,16.4129032 60.1806452,16.8258065 L58.8387097,22.1935484 L57.9096774,22.1935484 L55.8451613,13.7290323 L56.9806452,13.7290323 L58.0129032,18.8903226 C58.116129,19.3032258 58.116129,19.6129032 58.2193548,20.0258065 C58.3225806,20.3354839 58.3225806,20.6451613 58.3225806,20.8516129 L58.3225806,20.8516129 C58.3225806,20.6451613 58.3225806,20.4387097 58.4258065,20.0258065 C58.5290323,19.716129 58.6322581,19.3032258 58.6322581,18.8903226 L59.8709677,13.7290323 L60.9032258,13.7290323 L62.1419355,18.8903226 C62.2451613,19.3032258 62.3483871,19.6129032 62.3483871,20.0258065 C62.4516129,20.3354839 62.4516129,20.6451613 62.4516129,20.8516129 L62.4516129,20.8516129 C62.4516129,20.6451613 62.4516129,20.3354839 62.5548387,20.0258065 C62.6580645,19.6129032 62.6580645,19.3032258 62.7612903,18.8903226 L63.7935484,13.7290323 L65.0322581,13.7290323 Z M66.9935484,22.1935484 L65.9612903,22.1935484 L65.9612903,16.3096774 L66.9935484,16.3096774 L66.9935484,22.1935484 Z M66.4774194,14.8645161 C66.2709677,14.8645161 66.0645161,14.7612903 65.9612903,14.6580645 C65.8580645,14.5548387 65.7548387,14.3483871 65.7548387,14.1419355 C65.7548387,13.9354839 65.8580645,13.7290323 65.9612903,13.6258065 C66.0645161,13.5225806 66.2709677,13.4193548 66.4774194,13.4193548 C66.683871,13.4193548 66.7870968,13.5225806 66.9935484,13.6258065 C67.2,13.7290323 67.2,13.9354839 67.2,14.1419355 C67.2,14.3483871 67.0967742,14.5548387 66.9935484,14.6580645 C66.8903226,14.7612903 66.683871,14.8645161 66.4774194,14.8645161 Z M71.0193548,17.1354839 C71.0193548,17.1354839 70.916129,17.1354839 70.8129032,17.0322581 C70.7096774,17.0322581 70.6064516,17.0322581 70.5032258,17.0322581 C70.1935484,17.0322581 69.9870968,17.1354839 69.7806452,17.2387097 C69.5741935,17.4451613 69.4709677,17.5483871 69.3677419,17.7548387 L69.3677419,22.0903226 L68.3354839,22.0903226 L68.3354839,16.2064516 L69.2645161,16.2064516 L69.2645161,17.0322581 L69.2645161,17.0322581 C69.2645161,16.9290323 69.3677419,16.8258065 69.4709677,16.7225806 C69.5741935,16.6193548 69.5741935,16.516129 69.6774194,16.4129032 C69.7806452,16.3096774 69.883871,16.3096774 69.9870968,16.2064516 C70.0903226,16.2064516 70.2967742,16.1032258 70.5032258,16.1032258 C70.6064516,16.1032258 70.7096774,16.1032258 70.8129032,16.1032258 C70.916129,16.1032258 70.916129,16.1032258 71.0193548,16.2064516 L71.0193548,17.1354839 Z M74.5290323,17.1354839 L73.2903226,17.1354839 L73.2903226,20.4387097 C73.2903226,20.8516129 73.3935484,21.1612903 73.4967742,21.2645161 C73.6,21.3677419 73.8064516,21.4709677 74.0129032,21.4709677 C74.116129,21.4709677 74.3225806,21.4709677 74.4258065,21.3677419 C74.5290323,21.3677419 74.6322581,21.2645161 74.6322581,21.2645161 L74.7354839,22.0903226 C74.7354839,22.0903226 74.6322581,22.1935484 74.4258065,22.1935484 C74.2193548,22.2967742 74.0129032,22.2967742 73.8064516,22.2967742 C73.2903226,22.2967742 72.8774194,22.1935484 72.6709677,21.883871 C72.3612903,21.6774194 72.2580645,21.1612903 72.2580645,20.5419355 L72.2580645,17.1354839 L71.5354839,17.1354839 L71.5354839,16.516129 L72.2580645,16.4129032 L72.3612903,14.7612903 L73.2903226,14.7612903 L73.2903226,16.4129032 L74.7354839,16.4129032 L74.5290323,17.1354839 Z M78.2451613,17.4451613 C78.1419355,17.3419355 78.0387097,17.2387097 77.9354839,17.1354839 C77.7290323,17.0322581 77.5225806,16.9290323 77.2129032,16.9290323 C76.9032258,16.9290323 76.8,17.0322581 76.5935484,17.1354839 C76.4903226,17.2387097 76.3870968,17.4451613 76.3870968,17.5483871 C76.3870968,17.7548387 76.4903226,17.9612903 76.5935484,18.0645161 C76.6967742,18.1677419 76.9032258,18.3741935 77.2129032,18.4774194 L77.6258065,18.683871 C78.0387097,18.8903226 78.3483871,19.2 78.5548387,19.4064516 C78.7612903,19.716129 78.8645161,20.0258065 78.8645161,20.4387097 C78.8645161,20.9548387 78.6580645,21.2645161 78.3483871,21.5741935 C78.0387097,21.883871 77.5225806,22.0903226 76.9032258,22.0903226 C76.6967742,22.0903226 76.4903226,22.0903226 76.283871,21.9870968 C76.0774194,21.883871 75.9741935,21.883871 75.7677419,21.7806452 C75.6645161,21.6774194 75.5612903,21.6774194 75.4580645,21.5741935 C75.3548387,21.4709677 75.2516129,21.4709677 75.2516129,21.3677419 L75.7677419,20.5419355 C75.7677419,20.5419355 75.8709677,20.6451613 75.9741935,20.7483871 C76.0774194,20.8516129 76.0774194,20.8516129 76.1806452,20.9548387 C76.283871,21.0580645 76.3870968,21.0580645 76.4903226,21.0580645 C76.5935484,21.0580645 76.8,21.1612903 76.9032258,21.1612903 C77.2129032,21.1612903 77.4193548,21.0580645 77.6258065,20.9548387 C77.8322581,20.8516129 77.8322581,20.6451613 77.8322581,20.4387097 C77.8322581,20.3354839 77.8322581,20.1290323 77.7290323,20.0258065 C77.7290323,19.9225806 77.6258065,19.8193548 77.5225806,19.716129 C77.4193548,19.6129032 77.316129,19.5096774 77.2129032,19.5096774 C77.1096774,19.4064516 77.0064516,19.3032258 76.8,19.3032258 L76.3870968,19.0967742 C75.9741935,18.8903226 75.7677419,18.5806452 75.5612903,18.3741935 C75.3548387,18.0645161 75.2516129,17.7548387 75.2516129,17.3419355 C75.2516129,17.1354839 75.2516129,16.9290323 75.3548387,16.7225806 C75.4580645,16.516129 75.5612903,16.4129032 75.7677419,16.2064516 C75.9741935,16.1032258 76.0774194,16 76.283871,15.8967742 C76.4903226,15.7935484 76.6967742,15.7935484 76.9032258,15.7935484 C77.1096774,15.7935484 77.316129,15.7935484 77.5225806,15.8967742 C77.7290323,15.8967742 77.8322581,16 77.9354839,16.1032258 C78.0387097,16.2064516 78.1419355,16.2064516 78.2451613,16.3096774 C78.3483871,16.4129032 78.3483871,16.4129032 78.4516129,16.516129 L78.2451613,17.4451613 Z M83.3032258,17.4451613 C83.3032258,17.4451613 83.2,17.3419355 83.2,17.3419355 C83.0967742,17.3419355 83.0967742,17.2387097 82.9935484,17.2387097 C82.8903226,17.2387097 82.7870968,17.1354839 82.683871,17.1354839 C82.5806452,17.1354839 82.4774194,17.0322581 82.2709677,17.0322581 C82.0645161,17.0322581 81.8580645,17.0322581 81.6516129,17.1354839 C81.4451613,17.2387097 81.3419355,17.3419355 81.1354839,17.5483871 C81.0322581,17.7548387 80.9290323,17.9612903 80.8258065,18.1677419 C80.7225806,18.4774194 80.7225806,18.7870968 80.7225806,19.2 C80.7225806,19.6129032 80.7225806,20.0258065 80.8258065,20.3354839 C80.9290323,20.6451613 81.0322581,20.8516129 81.1354839,21.0580645 C81.2387097,21.2645161 81.4451613,21.3677419 81.5483871,21.4709677 C81.7548387,21.5741935 81.9612903,21.5741935 82.1677419,21.5741935 C82.4774194,21.5741935 82.683871,21.4709677 82.8903226,21.3677419 C83.0967742,21.2645161 83.2,21.1612903 83.2,21.1612903 L83.6129032,21.6774194 C83.6129032,21.6774194 83.5096774,21.7806452 83.4064516,21.883871 C83.3032258,21.9870968 83.2,21.9870968 83.0967742,22.0903226 C82.9935484,22.1935484 82.7870968,22.1935484 82.683871,22.2967742 C82.4774194,22.2967742 82.2709677,22.4 82.0645161,22.4 C81.7548387,22.4 81.4451613,22.2967742 81.1354839,22.1935484 C80.8258065,22.0903226 80.6193548,21.883871 80.4129032,21.6774194 C80.2064516,21.4709677 80,21.1612903 79.8967742,20.7483871 C79.7935484,20.3354839 79.6903226,19.8193548 79.6903226,19.3032258 C79.6903226,18.7870968 79.7935484,18.2709677 79.8967742,17.8580645 C80,17.4451613 80.2064516,17.1354839 80.516129,16.9290323 C80.7225806,16.7225806 81.0322581,16.516129 81.3419355,16.4129032 C81.6516129,16.3096774 81.9612903,16.2064516 82.2709677,16.2064516 C82.4774194,16.2064516 82.683871,16.2064516 82.8903226,16.3096774 C83.0967742,16.3096774 83.2,16.4129032 83.3032258,16.4129032 C83.4064516,16.516129 83.5096774,16.516129 83.6129032,16.6193548 C83.716129,16.7225806 83.716129,16.7225806 83.8193548,16.8258065 L83.3032258,17.4451613 Z M87.9483871,22.1935484 L87.9483871,18.3741935 C87.9483871,17.8580645 87.8451613,17.5483871 87.7419355,17.3419355 C87.5354839,17.1354839 87.3290323,17.0322581 87.0193548,17.0322581 C86.7096774,17.0322581 86.5032258,17.1354839 86.2967742,17.2387097 C86.0903226,17.3419355 85.9870968,17.5483871 85.7806452,17.6516129 L85.7806452,22.1935484 L84.7483871,22.1935484 L84.7483871,13.5225806 L85.7806452,13.4193548 L85.7806452,16.9290323 L85.7806452,16.9290323 C85.7806452,16.9290323 85.883871,16.8258065 85.883871,16.7225806 C85.9870968,16.6193548 86.0903226,16.516129 86.1935484,16.516129 C86.2967742,16.4129032 86.5032258,16.4129032 86.6064516,16.3096774 C86.8129032,16.2064516 87.0193548,16.2064516 87.2258065,16.2064516 C87.7419355,16.2064516 88.1548387,16.4129032 88.4645161,16.7225806 C88.7741935,17.0322581 88.8774194,17.6516129 88.8774194,18.3741935 L88.8774194,22.1935484 L87.9483871,22.1935484 L87.9483871,22.1935484 Z M90.116129,20.6451613 C90.116129,20.3354839 90.2193548,20.0258065 90.3225806,19.8193548 C90.4258065,19.6129032 90.6322581,19.4064516 90.8387097,19.3032258 C91.0451613,19.2 91.3548387,19.0967742 91.6645161,18.9935484 C91.9741935,18.8903226 92.283871,18.8903226 92.5935484,18.8903226 L92.9032258,18.8903226 L92.9032258,18.3741935 C92.9032258,17.8580645 92.8,17.5483871 92.5935484,17.3419355 C92.3870968,17.1354839 92.1806452,17.0322581 91.8709677,17.0322581 C91.5612903,17.0322581 91.3548387,17.1354839 91.1483871,17.2387097 C90.9419355,17.3419355 90.8387097,17.4451613 90.6322581,17.5483871 L90.2193548,16.9290323 C90.3225806,16.8258065 90.3225806,16.8258065 90.4258065,16.7225806 C90.5290323,16.6193548 90.6322581,16.516129 90.8387097,16.516129 C90.9419355,16.4129032 91.1483871,16.4129032 91.3548387,16.3096774 C91.5612903,16.3096774 91.7677419,16.2064516 91.9741935,16.2064516 C92.5935484,16.2064516 93.0064516,16.4129032 93.316129,16.7225806 C93.6258065,17.0322581 93.8322581,17.5483871 93.8322581,18.3741935 L93.8322581,21.0580645 C93.8322581,21.2645161 93.8322581,21.5741935 93.8322581,21.7806452 C93.8322581,21.9870968 93.8322581,22.1935484 93.8322581,22.2967742 L92.9032258,22.2967742 L92.9032258,21.6774194 L92.9032258,21.6774194 C92.9032258,21.7806452 92.8,21.883871 92.8,21.883871 C92.6967742,21.9870968 92.6967742,22.0903226 92.5935484,22.0903226 C92.4903226,22.1935484 92.3870968,22.1935484 92.283871,22.2967742 C92.1806452,22.4 91.9741935,22.4 91.7677419,22.4 C91.5612903,22.4 91.3548387,22.4 91.1483871,22.2967742 C90.9419355,22.1935484 90.8387097,22.0903226 90.6322581,21.9870968 C90.5290323,21.883871 90.4258065,21.6774194 90.3225806,21.4709677 C90.116129,21.1612903 90.116129,20.9548387 90.116129,20.6451613 Z M91.8709677,21.4709677 C91.9741935,21.4709677 92.1806452,21.4709677 92.283871,21.3677419 C92.3870968,21.2645161 92.4903226,21.2645161 92.5935484,21.2645161 C92.6967742,21.1612903 92.6967742,21.1612903 92.8,21.0580645 C92.9032258,20.9548387 92.9032258,20.9548387 92.9032258,20.8516129 L92.9032258,19.6129032 L92.5935484,19.6129032 C92.0774194,19.6129032 91.7677419,19.716129 91.5612903,19.8193548 C91.3548387,19.9225806 91.1483871,20.2322581 91.1483871,20.5419355 C91.1483871,20.8516129 91.2516129,21.0580645 91.3548387,21.2645161 C91.4580645,21.3677419 91.6645161,21.4709677 91.8709677,21.4709677 Z M97.8580645,17.1354839 L96.6193548,17.1354839 L96.6193548,22.1935484 L95.5870968,22.1935484 L95.5870968,17.1354839 L94.8645161,17.1354839 L94.8645161,16.516129 L95.5870968,16.4129032 L95.5870968,15.2774194 C95.5870968,14.9677419 95.5870968,14.6580645 95.6903226,14.4516129 C95.7935484,14.2451613 95.8967742,14.0387097 96,13.9354839 C96.1032258,13.8322581 96.3096774,13.7290323 96.516129,13.6258065 C96.7225806,13.5225806 96.9290323,13.5225806 97.1354839,13.5225806 C97.3419355,13.5225806 97.5483871,13.5225806 97.6516129,13.6258065 C97.7548387,13.7290323 97.8580645,13.7290323 97.9612903,13.7290323 L97.7548387,14.5548387 C97.7548387,14.5548387 97.6516129,14.4516129 97.5483871,14.4516129 C97.4451613,14.4516129 97.3419355,14.3483871 97.2387097,14.3483871 C97.0322581,14.3483871 96.8258065,14.4516129 96.7225806,14.5548387 C96.6193548,14.6580645 96.516129,14.9677419 96.516129,15.3806452 L96.516129,16.4129032 L97.8580645,16.4129032 L97.8580645,17.1354839 Z M101.367742,17.1354839 L100.129032,17.1354839 L100.129032,20.4387097 C100.129032,20.8516129 100.232258,21.1612903 100.335484,21.2645161 C100.43871,21.3677419 100.645161,21.4709677 100.851613,21.4709677 C100.954839,21.4709677 101.16129,21.4709677 101.264516,21.3677419 C101.367742,21.3677419 101.470968,21.2645161 101.470968,21.2645161 L101.574194,22.0903226 C101.574194,22.0903226 101.470968,22.1935484 101.264516,22.1935484 C101.058065,22.2967742 100.851613,22.2967742 100.645161,22.2967742 C100.129032,22.2967742 99.716129,22.1935484 99.5096774,21.883871 C99.3032258,21.5741935 99.0967742,21.1612903 99.0967742,20.4387097 L99.0967742,17.0322581 L98.3741935,17.0322581 L98.3741935,16.4129032 L99.0967742,16.3096774 L99.2,14.6580645 L100.129032,14.6580645 L100.129032,16.3096774 L101.574194,16.3096774 L101.367742,17.1354839 Z M45.6258065,34.5806452 L44.6967742,34.5806452 L44.6967742,33.9612903 L44.6967742,33.9612903 C44.6967742,33.9612903 44.5935484,34.0645161 44.4903226,34.1677419 C44.3870968,34.2709677 44.283871,34.3741935 44.1806452,34.4774194 C44.0774194,34.5806452 43.8709677,34.683871 43.7677419,34.683871 C43.6645161,34.683871 43.3548387,34.7870968 43.1483871,34.7870968 C42.8387097,34.7870968 42.6322581,34.7870968 42.4258065,34.683871 C42.2193548,34.5806452 42.0129032,34.4774194 41.9096774,34.2709677 C41.8064516,34.0645161 41.6,33.8580645 41.6,33.6516129 C41.4967742,33.3419355 41.4967742,33.0322581 41.4967742,32.6193548 L41.4967742,28.8 L42.5290323,28.8 L42.5290323,32.6193548 C42.5290323,33.1354839 42.6322581,33.4451613 42.7354839,33.6516129 C42.9419355,33.8580645 43.1483871,33.9612903 43.4580645,33.9612903 C43.7677419,33.9612903 43.9741935,33.8580645 44.1806452,33.7548387 C44.3870968,33.6516129 44.4903226,33.4451613 44.6967742,33.3419355 L44.6967742,28.8 L45.7290323,28.8 L45.7290323,34.5806452 L45.6258065,34.5806452 Z M50.3741935,34.5806452 L50.3741935,30.7612903 C50.3741935,30.2451613 50.2709677,29.9354839 50.1677419,29.7290323 C49.9612903,29.5225806 49.7548387,29.4193548 49.4451613,29.4193548 C49.1354839,29.4193548 48.9290323,29.5225806 48.7225806,29.6258065 C48.516129,29.7290323 48.4129032,29.9354839 48.2064516,30.0387097 L48.2064516,34.5806452 L47.1741935,34.5806452 L47.1741935,28.6967742 L48.1032258,28.6967742 L48.1032258,29.316129 L48.1032258,29.316129 C48.1032258,29.316129 48.2064516,29.2129032 48.3096774,29.1096774 C48.4129032,29.0064516 48.516129,28.9032258 48.6193548,28.8 C48.7225806,28.6967742 48.9290323,28.5935484 49.1354839,28.5935484 C49.3419355,28.4903226 49.5483871,28.4903226 49.7548387,28.4903226 C50.0645161,28.4903226 50.2709677,28.4903226 50.4774194,28.5935484 C50.683871,28.6967742 50.8903226,28.8 50.9935484,29.0064516 C51.0967742,29.2129032 51.3032258,29.4193548 51.3032258,29.6258065 C51.4064516,29.9354839 51.4064516,30.2451613 51.4064516,30.6580645 L51.4064516,34.4774194 L50.3741935,34.4774194 L50.3741935,34.5806452 Z M52.6451613,31.6903226 C52.6451613,31.0709677 52.7483871,30.5548387 52.8516129,30.1419355 C53.0580645,29.7290323 53.1612903,29.4193548 53.4709677,29.2129032 C53.7806452,29.0064516 53.9870968,28.8 54.2967742,28.6967742 C54.6064516,28.5935484 54.916129,28.5935484 55.2258065,28.5935484 C55.4322581,28.5935484 55.5354839,28.5935484 55.7419355,28.5935484 C55.8451613,28.5935484 55.9483871,28.6967742 56.0516129,28.6967742 L56.0516129,25.9096774 L57.083871,25.8064516 L57.083871,34.5806452 L56.1548387,34.5806452 L56.1548387,33.9612903 L56.1548387,33.9612903 C56.1548387,33.9612903 56.0516129,34.0645161 56.0516129,34.1677419 C55.9483871,34.2709677 55.8451613,34.3741935 55.7419355,34.3741935 C55.6387097,34.4774194 55.5354839,34.5806452 55.3290323,34.5806452 C55.1225806,34.683871 54.916129,34.683871 54.7096774,34.683871 C54.4,34.683871 54.1935484,34.5806452 53.883871,34.4774194 C53.6774194,34.3741935 53.3677419,34.1677419 53.2645161,33.9612903 C53.0580645,33.7548387 52.9548387,33.4451613 52.8516129,33.0322581 C52.6451613,32.7225806 52.6451613,32.3096774 52.6451613,31.6903226 Z M54.916129,33.8580645 C55.1225806,33.8580645 55.2258065,33.8580645 55.3290323,33.7548387 C55.4322581,33.7548387 55.5354839,33.6516129 55.6387097,33.6516129 C55.7419355,33.5483871 55.8451613,33.5483871 55.8451613,33.4451613 C55.8451613,33.3419355 55.9483871,33.3419355 55.9483871,33.2387097 L55.9483871,29.6258065 C55.8451613,29.5225806 55.7419355,29.5225806 55.6387097,29.5225806 C55.5354839,29.5225806 55.3290323,29.4193548 55.2258065,29.4193548 C55.0193548,29.4193548 54.8129032,29.4193548 54.6064516,29.5225806 C54.4,29.6258065 54.1935484,29.7290323 54.0903226,29.9354839 C53.9870968,30.1419355 53.7806452,30.3483871 53.7806452,30.6580645 C53.6774194,30.9677419 53.6774194,31.2774194 53.6774194,31.6903226 C53.6774194,32.1032258 53.6774194,32.4129032 53.7806452,32.7225806 C53.883871,33.0322581 53.9870968,33.2387097 54.0903226,33.3419355 C54.1935484,33.5483871 54.4,33.6516129 54.5032258,33.7548387 C54.6064516,33.8580645 54.8129032,33.8580645 54.916129,33.8580645 Z M65.4451613,26.9419355 L62.4516129,26.9419355 L62.4516129,29.8322581 L65.2387097,29.8322581 L65.2387097,30.6580645 L62.4516129,30.6580645 L62.4516129,33.6516129 L65.7548387,33.6516129 L65.6516129,34.5806452 L61.316129,34.5806452 L61.316129,26.116129 L65.4451613,26.116129 L65.4451613,26.9419355 Z M70.1935484,34.5806452 L70.1935484,30.7612903 C70.1935484,30.2451613 70.0903226,29.9354839 69.9870968,29.7290323 C69.7806452,29.5225806 69.5741935,29.4193548 69.2645161,29.4193548 C68.9548387,29.4193548 68.7483871,29.5225806 68.5419355,29.6258065 C68.3354839,29.7290323 68.1290323,29.9354839 68.0258065,30.0387097 L68.0258065,34.5806452 L66.9935484,34.5806452 L66.9935484,28.6967742 L67.9225806,28.6967742 L67.9225806,29.316129 L67.9225806,29.316129 C67.9225806,29.316129 68.0258065,29.2129032 68.1290323,29.1096774 C68.2322581,29.0064516 68.3354839,28.9032258 68.4387097,28.8 C68.5419355,28.6967742 68.7483871,28.5935484 68.9548387,28.5935484 C69.1612903,28.4903226 69.3677419,28.4903226 69.5741935,28.4903226 C69.883871,28.4903226 70.0903226,28.4903226 70.2967742,28.5935484 C70.5032258,28.6967742 70.7096774,28.8 70.8129032,29.0064516 C70.916129,29.2129032 71.1225806,29.4193548 71.1225806,29.6258065 C71.2258065,29.9354839 71.2258065,30.2451613 71.2258065,30.6580645 L71.2258065,34.4774194 L70.1935484,34.4774194 L70.1935484,34.5806452 Z M76.4903226,30.6580645 C76.4903226,30.8645161 76.4903226,31.1741935 76.4903226,31.2774194 C76.4903226,31.483871 76.4903226,31.5870968 76.4903226,31.7935484 L73.4967742,31.7935484 C73.4967742,32.516129 73.7032258,33.0322581 73.9096774,33.3419355 C74.2193548,33.6516129 74.5290323,33.8580645 75.0451613,33.8580645 C75.2516129,33.8580645 75.3548387,33.8580645 75.5612903,33.7548387 C75.6645161,33.7548387 75.8709677,33.6516129 75.9741935,33.6516129 C76.0774194,33.5483871 76.1806452,33.5483871 76.1806452,33.4451613 C76.283871,33.3419355 76.283871,33.3419355 76.283871,33.3419355 L76.6967742,34.0645161 C76.6967742,34.0645161 76.5935484,34.1677419 76.4903226,34.2709677 C76.3870968,34.3741935 76.283871,34.4774194 76.1806452,34.4774194 C76.0774194,34.5806452 75.8709677,34.5806452 75.6645161,34.683871 C75.4580645,34.7870968 75.2516129,34.7870968 74.9419355,34.7870968 C74.5290323,34.7870968 74.2193548,34.683871 73.9096774,34.5806452 C73.6,34.4774194 73.3935484,34.2709677 73.1870968,33.9612903 C72.9806452,33.6516129 72.7741935,33.3419355 72.6709677,32.9290323 C72.5677419,32.516129 72.4645161,32.1032258 72.4645161,31.483871 C72.4645161,30.9677419 72.5677419,30.5548387 72.6709677,30.1419355 C72.7741935,29.7290323 72.9806452,29.4193548 73.1870968,29.2129032 C73.3935484,29.0064516 73.6,28.8 73.9096774,28.6967742 C74.2193548,28.5935484 74.4258065,28.4903226 74.7354839,28.4903226 C75.2516129,28.4903226 75.7677419,28.6967742 76.0774194,29.0064516 C76.283871,29.4193548 76.4903226,29.9354839 76.4903226,30.6580645 Z M74.6322581,29.316129 C74.3225806,29.316129 74.0129032,29.4193548 73.8064516,29.7290323 C73.6,30.0387097 73.4967742,30.4516129 73.3935484,30.9677419 L75.5612903,30.9677419 C75.5612903,30.9677419 75.5612903,30.8645161 75.5612903,30.7612903 C75.5612903,30.6580645 75.5612903,30.5548387 75.5612903,30.5548387 C75.5612903,30.1419355 75.4580645,29.8322581 75.3548387,29.6258065 C75.1483871,29.4193548 74.9419355,29.316129 74.6322581,29.316129 Z M80.4129032,29.5225806 C80.4129032,29.5225806 80.3096774,29.5225806 80.2064516,29.4193548 C80.1032258,29.316129 80,29.4193548 79.8967742,29.4193548 C79.5870968,29.4193548 79.3806452,29.5225806 79.1741935,29.6258065 C78.9677419,29.8322581 78.8645161,29.9354839 78.7612903,30.1419355 L78.7612903,34.4774194 L77.7290323,34.4774194 L77.7290323,28.5935484 L78.6580645,28.5935484 L78.6580645,29.4193548 L78.6580645,29.4193548 C78.6580645,29.316129 78.7612903,29.2129032 78.8645161,29.1096774 C78.9677419,29.0064516 78.9677419,28.9032258 79.0709677,28.8 C79.1741935,28.6967742 79.2774194,28.6967742 79.3806452,28.5935484 C79.483871,28.5935484 79.6903226,28.4903226 79.8967742,28.4903226 C80,28.4903226 80.1032258,28.4903226 80.2064516,28.4903226 C80.3096774,28.4903226 80.3096774,28.4903226 80.4129032,28.5935484 L80.4129032,29.5225806 Z M85.4709677,29.4193548 L84.7483871,29.4193548 C84.9548387,29.7290323 85.0580645,30.0387097 85.0580645,30.4516129 C85.0580645,30.7612903 85.0580645,31.0709677 84.9548387,31.2774194 C84.8516129,31.483871 84.7483871,31.6903226 84.5419355,31.8967742 C84.3354839,32.1032258 84.1290323,32.2064516 83.9225806,32.3096774 C83.716129,32.4129032 83.4064516,32.4129032 83.0967742,32.4129032 C82.9935484,32.4129032 82.9935484,32.4129032 82.8903226,32.4129032 C82.7870968,32.4129032 82.7870968,32.4129032 82.683871,32.4129032 C82.5806452,32.4129032 82.4774194,32.516129 82.3741935,32.6193548 C82.2709677,32.7225806 82.1677419,32.8258065 82.1677419,32.9290323 C82.1677419,33.0322581 82.1677419,33.1354839 82.2709677,33.2387097 C82.3741935,33.3419355 82.4774194,33.3419355 82.683871,33.3419355 L83.6129032,33.3419355 C83.9225806,33.3419355 84.1290323,33.3419355 84.3354839,33.4451613 C84.5419355,33.5483871 84.7483871,33.5483871 84.9548387,33.7548387 C85.1612903,33.8580645 85.2645161,34.0645161 85.3677419,34.2709677 C85.4709677,34.4774194 85.4709677,34.683871 85.4709677,34.9935484 C85.4709677,35.3032258 85.3677419,35.6129032 85.2645161,35.8193548 C85.1612903,36.1290323 84.9548387,36.3354839 84.6451613,36.5419355 C84.4387097,36.7483871 84.1290323,36.8516129 83.716129,36.9548387 C83.3032258,37.0580645 83.0967742,37.1612903 82.683871,37.1612903 C82.0645161,37.1612903 81.5483871,37.0580645 81.2387097,36.7483871 C80.9290323,36.4387097 80.7225806,36.1290323 80.7225806,35.6129032 C80.7225806,35.4064516 80.7225806,35.2 80.8258065,34.9935484 C80.9290323,34.7870968 81.0322581,34.683871 81.1354839,34.5806452 C81.2387097,34.4774194 81.3419355,34.3741935 81.4451613,34.2709677 C81.5483871,34.1677419 81.6516129,34.1677419 81.7548387,34.0645161 L81.7548387,34.0645161 C81.5483871,33.8580645 81.3419355,33.6516129 81.3419355,33.2387097 C81.3419355,33.0322581 81.3419355,32.9290323 81.4451613,32.8258065 C81.5483871,32.7225806 81.5483871,32.6193548 81.6516129,32.516129 C81.7548387,32.4129032 81.8580645,32.4129032 81.8580645,32.3096774 C81.9612903,32.3096774 81.9612903,32.2064516 82.0645161,32.2064516 L82.0645161,32.2064516 C81.7548387,32.1032258 81.5483871,31.8967742 81.3419355,31.5870968 C81.1354839,31.2774194 81.0322581,30.8645161 81.0322581,30.4516129 C81.0322581,30.1419355 81.1354839,29.8322581 81.2387097,29.6258065 C81.3419355,29.4193548 81.4451613,29.2129032 81.6516129,29.0064516 C81.8580645,28.8 82.0645161,28.6967742 82.2709677,28.5935484 C82.4774194,28.4903226 82.7870968,28.4903226 83.0967742,28.4903226 C83.4064516,28.4903226 83.6129032,28.4903226 83.9225806,28.5935484 L85.6774194,28.5935484 L85.4709677,29.4193548 Z M82.7870968,34.3741935 C82.5806452,34.3741935 82.4774194,34.3741935 82.3741935,34.3741935 C82.2709677,34.3741935 82.2709677,34.4774194 82.1677419,34.4774194 C82.0645161,34.5806452 82.0645161,34.5806452 81.9612903,34.683871 C81.8580645,34.7870968 81.8580645,34.8903226 81.8580645,34.9935484 C81.8580645,35.0967742 81.7548387,35.2 81.7548387,35.4064516 C81.7548387,36.0258065 82.0645161,36.3354839 82.7870968,36.3354839 C83.4064516,36.3354839 83.8193548,36.2322581 84.1290323,36.0258065 C84.4387097,35.8193548 84.5419355,35.5096774 84.5419355,35.2 C84.5419355,34.8903226 84.4387097,34.683871 84.2322581,34.5806452 C84.0258065,34.4774194 83.8193548,34.3741935 83.5096774,34.3741935 L82.7870968,34.3741935 Z M84.1290323,30.5548387 C84.1290323,30.1419355 84.0258065,29.8322581 83.8193548,29.6258065 C83.6129032,29.4193548 83.4064516,29.316129 83.0967742,29.316129 C82.7870968,29.316129 82.5806452,29.4193548 82.3741935,29.6258065 C82.1677419,29.8322581 82.0645161,30.1419355 82.0645161,30.5548387 C82.0645161,30.9677419 82.1677419,31.2774194 82.3741935,31.483871 C82.5806452,31.6903226 82.7870968,31.7935484 83.0967742,31.7935484 C83.4064516,31.7935484 83.6129032,31.6903226 83.8193548,31.483871 C84.0258065,31.2774194 84.1290323,30.9677419 84.1290323,30.5548387 Z M87.6387097,34.5806452 L86.6064516,34.5806452 L86.6064516,28.6967742 L87.6387097,28.6967742 L87.6387097,34.5806452 Z M87.1225806,27.2516129 C86.916129,27.2516129 86.7096774,27.1483871 86.6064516,27.0451613 C86.5032258,26.9419355 86.4,26.7354839 86.4,26.5290323 C86.4,26.3225806 86.5032258,26.116129 86.6064516,26.0129032 C86.7096774,25.9096774 86.916129,25.8064516 87.1225806,25.8064516 C87.3290323,25.8064516 87.4322581,25.9096774 87.6387097,26.0129032 C87.7419355,26.116129 87.8451613,26.3225806 87.8451613,26.5290323 C87.8451613,26.7354839 87.7419355,26.9419355 87.6387097,27.0451613 C87.5354839,27.1483871 87.3290323,27.2516129 87.1225806,27.2516129 Z M92.9032258,30.6580645 C92.9032258,30.8645161 92.9032258,31.1741935 92.9032258,31.2774194 C92.9032258,31.483871 92.9032258,31.5870968 92.9032258,31.7935484 L89.9096774,31.7935484 C89.9096774,32.516129 90.116129,33.0322581 90.3225806,33.3419355 C90.6322581,33.6516129 90.9419355,33.8580645 91.4580645,33.8580645 C91.6645161,33.8580645 91.7677419,33.8580645 91.9741935,33.7548387 C92.0774194,33.7548387 92.283871,33.6516129 92.3870968,33.6516129 C92.4903226,33.5483871 92.5935484,33.5483871 92.5935484,33.4451613 C92.6967742,33.3419355 92.6967742,33.3419355 92.6967742,33.3419355 L93.1096774,34.0645161 C93.1096774,34.0645161 93.0064516,34.1677419 92.9032258,34.2709677 C92.8,34.3741935 92.6967742,34.4774194 92.5935484,34.4774194 C92.4903226,34.5806452 92.283871,34.5806452 92.0774194,34.683871 C91.8709677,34.7870968 91.6645161,34.7870968 91.3548387,34.7870968 C90.9419355,34.7870968 90.6322581,34.683871 90.3225806,34.5806452 C90.0129032,34.4774194 89.8064516,34.2709677 89.6,33.9612903 C89.3935484,33.6516129 89.1870968,33.3419355 89.083871,32.9290323 C88.9806452,32.516129 88.8774194,32.1032258 88.8774194,31.483871 C88.8774194,30.9677419 88.9806452,30.5548387 89.083871,30.1419355 C89.1870968,29.7290323 89.3935484,29.4193548 89.6,29.2129032 C89.8064516,29.0064516 90.0129032,28.8 90.3225806,28.6967742 C90.6322581,28.5935484 90.8387097,28.4903226 91.1483871,28.4903226 C91.6645161,28.4903226 92.1806452,28.6967742 92.4903226,29.0064516 C92.8,29.4193548 92.9032258,29.9354839 92.9032258,30.6580645 Z M91.0451613,29.316129 C90.7354839,29.316129 90.4258065,29.4193548 90.2193548,29.7290323 C90.0129032,30.0387097 89.9096774,30.4516129 89.8064516,30.9677419 L91.9741935,30.9677419 C91.9741935,30.9677419 91.9741935,30.8645161 91.9741935,30.7612903 C91.9741935,30.6580645 91.9741935,30.5548387 91.9741935,30.5548387 C91.9741935,30.1419355 91.8709677,29.8322581 91.7677419,29.6258065 C91.6645161,29.4193548 91.3548387,29.316129 91.0451613,29.316129 Z" id="Shape" fill="#000000"></path>
                    <path d="M14.6580645,9.08387097 C14.6580645,8.87741935 14.6580645,8.56774194 14.6580645,8.36129032 C14.6580645,8.25806452 14.6580645,8.0516129 14.6580645,7.9483871 C16.7225806,7.9483871 18.4774194,6.4 18.4774194,4.7483871 C18.4774194,3.92258065 17.9612903,3.2 17.5483871,2.78709677 C17.6516129,2.78709677 17.6516129,2.78709677 17.7548387,2.78709677 C18.0645161,3.09677419 18.8903226,4.02580645 18.8903226,5.16129032 C18.9935484,7.22580645 16.9290323,9.08387097 14.6580645,9.08387097 M12.5935484,1.96129032 C12.5935484,1.75483871 12.4903226,1.5483871 12.3870968,1.34193548 C12.3870968,1.13548387 12.4903226,0.929032258 12.8,1.13548387 C12.5935484,1.34193548 12.8,1.6516129 12.8,1.6516129 C12.8,1.6516129 13.2129032,1.44516129 13.1096774,1.23870968 C13.5225806,1.34193548 13.1096774,2.06451613 12.5935484,1.96129032 M12.0774194,3.09677419 C11.9741935,2.78709677 11.8709677,2.47741935 11.6645161,2.27096774 C11.4580645,2.06451613 11.1483871,1.75483871 10.7354839,1.75483871 C10.5290323,1.75483871 10.2193548,1.85806452 10.0129032,1.96129032 C9.90967742,1.85806452 9.80645161,1.5483871 9.80645161,1.34193548 C9.80645161,1.23870968 10.0129032,1.03225806 10.5290323,1.03225806 C11.5612903,1.03225806 12.1806452,1.5483871 12.1806452,2.27096774 C12.283871,2.58064516 12.1806452,2.78709677 12.0774194,3.09677419 M14.8645161,16.8258065 C14.9677419,16.8258065 15.0709677,16.8258065 15.0709677,16.8258065 C15.3806452,17.6516129 16.516129,19.2 16.6193548,19.3032258 L16.6193548,19.3032258 L16.6193548,19.3032258 C16.9290323,19.3032258 17.6516129,19.0967742 18.2709677,19.0967742 L18.2709677,19.0967742 C18.3741935,19.0967742 18.3741935,19.0967742 18.4774194,19.0967742 C18.4774194,19.0967742 18.5806452,19.2 18.5806452,19.3032258 C18.5806452,19.4064516 18.4774194,19.716129 18.4774194,19.8193548 C18.2709677,19.6129032 17.8580645,19.5096774 17.3419355,19.5096774 C17.1354839,19.5096774 16.9290323,19.5096774 16.8258065,19.6129032 L16.8258065,19.6129032 L16.8258065,19.6129032 L17.1354839,19.9225806 C17.6516129,20.4387097 18.0645161,20.8516129 18.0645161,21.1612903 C18.0645161,21.3677419 17.8580645,21.5741935 17.7548387,21.6774194 C17.7548387,21.1612903 17.2387097,20.4387097 16.6193548,20.0258065 L16.6193548,20.0258065 L16.6193548,20.2322581 C16.6193548,20.3354839 16.6193548,20.5419355 16.6193548,20.7483871 C16.6193548,21.7806452 16.516129,21.883871 16.2064516,21.883871 C16.1032258,21.883871 16.1032258,21.883871 16,21.883871 C16.2064516,21.6774194 16.3096774,21.3677419 16.3096774,20.7483871 L16.3096774,20.4387097 L16.3096774,20.2322581 C16.3096774,20.0258065 16.3096774,19.8193548 16.3096774,19.716129 L16.3096774,19.6129032 L16.2064516,19.6129032 C16,19.6129032 15.6903226,19.5096774 15.483871,19.5096774 C14.9677419,19.5096774 14.6580645,19.5096774 14.4516129,19.8193548 C14.2451613,19.716129 14.1419355,19.5096774 14.1419355,19.3032258 C14.1419355,19.0967742 14.2451613,19.0967742 14.4516129,19.0967742 C14.5548387,19.0967742 14.6580645,19.0967742 14.7612903,19.0967742 C14.9677419,19.0967742 15.2774194,19.2 16,19.2 L16,19.2 L16,19.2 C15.7935484,18.683871 15.3806452,18.0645161 14.6580645,17.1354839 C14.5548387,16.9290323 14.5548387,16.8258065 14.8645161,16.8258065 M8.46451613,19.3032258 L8.46451613,19.3032258 L8.46451613,19.3032258 C9.18709677,19.3032258 9.49677419,19.3032258 9.70322581,19.3032258 C9.80645161,19.3032258 9.90967742,19.3032258 10.0129032,19.3032258 C10.2193548,19.3032258 10.3225806,19.3032258 10.3225806,19.5096774 C10.3225806,19.6129032 10.116129,19.9225806 10.0129032,20.0258065 C9.80645161,19.8193548 9.39354839,19.716129 8.98064516,19.716129 C8.77419355,19.716129 8.46451613,19.716129 8.25806452,19.8193548 L8.25806452,19.8193548 L8.25806452,19.8193548 L8.25806452,19.9225806 C8.25806452,20.0258065 8.25806452,20.2322581 8.25806452,20.4387097 L8.25806452,20.6451613 L8.25806452,20.9548387 C8.25806452,21.4709677 8.36129032,21.883871 8.56774194,22.0903226 C8.56774194,22.0903226 8.46451613,22.0903226 8.36129032,22.0903226 C8.0516129,22.0903226 7.9483871,21.9870968 7.9483871,20.9548387 C7.9483871,20.7483871 7.9483871,20.5419355 7.9483871,20.4387097 L7.9483871,20.2322581 L7.9483871,20.2322581 C7.43225806,20.6451613 6.91612903,21.3677419 6.81290323,21.883871 C6.60645161,21.7806452 6.50322581,21.5741935 6.50322581,21.3677419 C6.50322581,21.0580645 6.91612903,20.6451613 7.43225806,20.1290323 L7.74193548,19.8193548 L7.74193548,19.8193548 L7.63870968,19.8193548 C7.32903226,19.6129032 7.12258065,19.6129032 7.01935484,19.6129032 C6.50322581,19.6129032 6.09032258,19.716129 5.88387097,19.9225806 C5.78064516,19.8193548 5.78064516,19.5096774 5.78064516,19.4064516 C5.78064516,19.3032258 5.78064516,19.2 5.88387097,19.2 C5.88387097,19.2 5.98709677,19.2 6.09032258,19.2 L6.09032258,19.2 C6.70967742,19.2 7.43225806,19.3032258 7.74193548,19.4064516 L7.74193548,19.4064516 L7.74193548,19.4064516 C7.74193548,19.3032258 8.98064516,17.7548387 9.29032258,16.9290323 C9.39354839,16.9290323 9.39354839,16.9290323 9.49677419,16.9290323 C9.70322581,16.9290323 9.80645161,17.1354839 9.90967742,17.3419355 C9.08387097,18.0645161 8.56774194,18.7870968 8.46451613,19.3032258 M5.26451613,5.16129032 C5.26451613,4.02580645 6.09032258,3.09677419 6.4,2.78709677 C6.50322581,2.78709677 6.50322581,2.78709677 6.60645161,2.78709677 C6.29677419,3.2 5.67741935,3.81935484 5.67741935,4.7483871 C5.67741935,6.50322581 7.53548387,7.9483871 9.6,7.9483871 C9.6,8.0516129 9.6,8.25806452 9.6,8.36129032 C9.6,8.56774194 9.6,8.87741935 9.6,9.08387097 C7.32903226,9.08387097 5.26451613,7.22580645 5.26451613,5.16129032 M21.0580645,8.77419355 C22.0903226,10.4258065 22.916129,10.4258065 24.1548387,10.4258065 C23.1225806,9.6 22.4,8.56774194 22.0903226,8.0516129 L20.1290323,4.95483871 C19.9225806,4.02580645 19.4064516,3.09677419 18.683871,2.47741935 C18.8903226,2.37419355 19.0967742,2.27096774 19.3032258,2.16774194 C18.0645161,2.16774194 16.8258065,1.5483871 16.1032258,1.5483871 C15.6903226,1.5483871 15.3806452,1.85806452 15.3806452,2.16774194 C15.3806452,2.58064516 15.7935484,2.99354839 16.516129,2.99354839 C16.7225806,2.99354839 16.9290323,2.99354839 17.1354839,2.89032258 C17.5483871,3.40645161 17.8580645,3.92258065 17.8580645,4.64516129 C17.8580645,5.98709677 16.2064516,7.01935484 14.6580645,7.01935484 C14.5548387,7.01935484 14.4516129,7.01935484 14.3483871,7.01935484 C14.2451613,6.70967742 13.7290323,6.09032258 13.7290323,5.47096774 C13.7290323,4.43870968 14.4516129,3.50967742 14.4516129,2.47741935 C14.4516129,1.85806452 14.1419355,1.44516129 14.0387097,1.23870968 C14.2451613,1.03225806 14.4516129,0.825806452 14.5548387,0.619354839 C14.4516129,0.619354839 14.3483871,0.722580645 14.1419355,0.722580645 C13.316129,0.722580645 12.6967742,0.516129032 12.0774194,0.516129032 C11.7677419,0.516129032 11.6645161,0.619354839 11.6645161,0.722580645 C11.6645161,0.722580645 11.6645161,0.825806452 11.6645161,0.825806452 C11.5612903,0.825806452 11.4580645,0.722580645 11.2516129,0.722580645 C11.0451613,0.722580645 10.8387097,0.619354839 10.6322581,0.619354839 C9.90967742,0.619354839 9.6,0.929032258 9.6,1.23870968 C9.6,1.44516129 9.80645161,1.85806452 10.0129032,2.16774194 C10.2193548,2.06451613 10.6322581,2.06451613 10.7354839,2.06451613 C11.1483871,2.06451613 11.4580645,2.47741935 11.6645161,2.89032258 C11.3548387,2.89032258 11.3548387,2.89032258 11.0451613,2.89032258 C10.3225806,2.89032258 9.80645161,2.58064516 9.70322581,2.58064516 C9.70322581,2.58064516 9.70322581,2.58064516 9.70322581,2.58064516 C9.70322581,2.68387097 9.90967742,2.99354839 10.3225806,3.09677419 C10.8387097,3.30322581 11.6645161,3.40645161 11.7677419,3.40645161 C11.7677419,3.40645161 11.6645161,3.71612903 11.4580645,3.71612903 C11.4580645,3.71612903 11.3548387,3.71612903 11.3548387,3.71612903 C10.8387097,3.61290323 10.6322581,3.50967742 9.90967742,3.30322581 C9.90967742,3.30322581 9.90967742,3.30322581 9.90967742,3.30322581 C9.90967742,3.61290323 10.6322581,4.23225806 11.2516129,4.43870968 C10.7354839,5.16129032 10.0129032,5.88387097 9.70322581,6.91612903 C9.6,6.91612903 9.49677419,6.91612903 9.39354839,6.91612903 C7.74193548,6.91612903 6.19354839,5.88387097 6.19354839,4.54193548 C6.19354839,3.81935484 6.50322581,3.30322581 6.91612903,2.78709677 C7.12258065,2.78709677 7.32903226,2.89032258 7.53548387,2.89032258 C8.25806452,2.89032258 8.67096774,2.47741935 8.67096774,2.06451613 C8.67096774,1.75483871 8.36129032,1.44516129 7.9483871,1.44516129 C7.43225806,1.5483871 6.19354839,2.16774194 4.8516129,2.16774194 C4.95483871,2.27096774 5.16129032,2.37419355 5.47096774,2.47741935 C4.7483871,3.2 4.23225806,4.02580645 4.02580645,4.95483871 L2.06451613,8.0516129 C1.75483871,8.56774194 1.03225806,9.6 0,10.4258065 C1.23870968,10.4258065 2.06451613,10.4258065 3.09677419,8.77419355 L4.12903226,7.22580645 C4.23225806,7.43225806 4.33548387,7.63870968 4.43870968,7.84516129 L2.47741935,11.0451613 C2.16774194,11.5612903 1.44516129,12.5935484 0.412903226,13.4193548 C1.6516129,13.4193548 2.47741935,13.4193548 3.50967742,11.7677419 L5.16129032,9.08387097 C5.36774194,9.08387097 5.57419355,9.18709677 5.67741935,9.29032258 L3.30322581,13.1096774 C2.99354839,13.6258065 2.27096774,14.6580645 1.23870968,15.3806452 C2.47741935,15.3806452 3.30322581,15.3806452 4.33548387,13.7290323 L6.70967742,10.0129032 C6.91612903,10.2193548 7.01935484,10.2193548 7.22580645,10.3225806 L4.33548387,14.8645161 C4.02580645,15.3806452 3.30322581,16.4129032 2.27096774,17.1354839 C3.50967742,17.1354839 4.33548387,17.1354839 5.36774194,15.483871 L8.25806452,10.8387097 C8.46451613,10.9419355 8.56774194,10.9419355 8.77419355,11.0451613 L5.47096774,16.3096774 C5.16129032,16.8258065 4.43870968,17.8580645 3.40645161,18.5806452 C4.64516129,18.5806452 5.47096774,18.5806452 6.50322581,16.9290323 L10.0129032,11.2516129 C10.0129032,11.2516129 10.116129,11.2516129 10.116129,11.2516129 C10.2193548,11.5612903 10.3225806,11.8709677 10.3225806,12.0774194 C10.3225806,13.8322581 9.18709677,15.3806452 7.74193548,16.6193548 C7.84516129,16.6193548 7.9483871,16.7225806 8.15483871,16.7225806 C8.46451613,16.7225806 8.67096774,16.7225806 8.77419355,16.7225806 C8.46451613,17.4451613 7.74193548,18.3741935 7.43225806,18.8903226 C7.01935484,18.7870968 6.29677419,18.7870968 5.88387097,18.7870968 C5.47096774,18.7870968 5.36774194,19.0967742 5.36774194,19.3032258 C5.36774194,19.716129 5.57419355,20.0258065 5.78064516,20.2322581 C5.88387097,20.0258065 5.98709677,19.716129 6.91612903,19.716129 C6.91612903,19.716129 6.91612903,19.716129 7.01935484,19.716129 C6.81290323,20.0258065 5.98709677,20.6451613 5.98709677,21.1612903 C5.98709677,21.4709677 6.4,21.9870968 6.81290323,21.9870968 C6.81290323,21.883871 6.81290323,21.7806452 6.81290323,21.6774194 C6.81290323,21.2645161 7.12258065,20.7483871 7.43225806,20.4387097 C7.43225806,20.5419355 7.43225806,20.5419355 7.43225806,20.6451613 C7.43225806,21.5741935 7.53548387,22.0903226 8.15483871,22.0903226 C8.46451613,22.0903226 8.67096774,21.883871 8.77419355,21.883871 C8.36129032,21.4709677 8.36129032,21.2645161 8.36129032,20.6451613 C8.36129032,20.5419355 8.36129032,20.3354839 8.36129032,20.1290323 C8.36129032,20.0258065 8.36129032,19.8193548 8.36129032,19.716129 C8.56774194,19.716129 8.67096774,19.716129 8.87741935,19.716129 C8.87741935,19.716129 9.70322581,19.6129032 9.90967742,20.1290323 C10.116129,19.9225806 10.5290323,19.6129032 10.5290323,19.3032258 C10.5290323,19.0967742 10.4258065,18.7870968 10.0129032,18.7870968 C9.80645161,18.7870968 9.29032258,18.8903226 8.87741935,18.8903226 C8.98064516,18.5806452 9.49677419,17.8580645 10.0129032,17.2387097 C10.116129,17.4451613 10.2193548,17.6516129 10.4258065,17.8580645 C10.4258065,17.4451613 10.6322581,16.3096774 11.2516129,15.6903226 C11.3548387,16.1032258 11.4580645,16.6193548 11.4580645,17.5483871 C11.4580645,19.9225806 10.8387097,21.6774194 9.70322581,21.9870968 C9.90967742,22.2967742 10.2193548,22.5032258 10.5290323,22.5032258 C10.9419355,22.5032258 11.2516129,21.9870968 11.4580645,21.4709677 C11.5612903,21.7806452 11.9741935,22.7096774 12.283871,22.7096774 C12.5935484,22.7096774 13.0064516,21.883871 13.1096774,21.4709677 C13.316129,21.9870968 13.6258065,22.5032258 14.0387097,22.5032258 C14.3483871,22.5032258 14.7612903,22.2967742 14.8645161,21.9870968 C13.6258065,21.6774194 13.1096774,19.9225806 13.1096774,17.5483871 C13.1096774,16.516129 13.2129032,16.1032258 13.316129,15.6903226 C13.9354839,16.4129032 14.1419355,17.5483871 14.1419355,17.8580645 C14.3483871,17.6516129 14.4516129,17.4451613 14.5548387,17.2387097 C14.9677419,17.7548387 15.5870968,18.5806452 15.6903226,18.8903226 C15.2774194,18.8903226 14.7612903,18.7870968 14.5548387,18.7870968 C14.1419355,18.7870968 14.0387097,18.9935484 14.0387097,19.3032258 C14.0387097,19.6129032 14.3483871,19.9225806 14.6580645,20.1290323 C14.8645161,19.716129 15.6903226,19.716129 15.6903226,19.716129 C15.8967742,19.716129 15.8967742,19.716129 16.2064516,19.716129 C16.2064516,19.8193548 16.2064516,20.0258065 16.2064516,20.1290323 C16.2064516,20.3354839 16.2064516,20.4387097 16.2064516,20.6451613 C16.2064516,21.1612903 16.2064516,21.4709677 15.7935484,21.883871 C15.8967742,21.883871 16.1032258,22.0903226 16.4129032,22.0903226 C17.0322581,22.0903226 17.1354839,21.6774194 17.1354839,20.6451613 C17.1354839,20.5419355 17.1354839,20.5419355 17.1354839,20.4387097 C17.4451613,20.7483871 17.7548387,21.2645161 17.7548387,21.6774194 C17.7548387,21.7806452 17.7548387,21.883871 17.7548387,21.9870968 C18.2709677,21.9870968 18.5806452,21.4709677 18.5806452,21.1612903 C18.5806452,20.6451613 17.8580645,20.0258065 17.5483871,19.716129 C17.5483871,19.716129 17.6516129,19.716129 17.6516129,19.716129 C18.4774194,19.716129 18.683871,20.0258065 18.7870968,20.2322581 C18.9935484,20.0258065 19.2,19.716129 19.2,19.3032258 C19.2,19.0967742 19.2,18.7870968 18.683871,18.7870968 C18.2709677,18.7870968 17.5483871,18.8903226 17.1354839,18.8903226 C16.8258065,18.3741935 16.1032258,17.4451613 15.7935484,16.7225806 C15.8967742,16.7225806 16.1032258,16.7225806 16.4129032,16.7225806 C16.516129,16.7225806 16.7225806,16.7225806 16.8258065,16.6193548 C15.3806452,15.3806452 14.2451613,13.8322581 14.2451613,12.0774194 C14.2451613,11.7677419 14.3483871,11.4580645 14.4516129,11.2516129 C14.4516129,11.2516129 14.5548387,11.2516129 14.5548387,11.2516129 L18.0645161,16.9290323 C19.0967742,18.5806452 19.9225806,18.5806452 21.1612903,18.5806452 C20.1290323,17.7548387 19.4064516,16.7225806 19.0967742,16.3096774 L15.7935484,11.0451613 C16,10.9419355 16.1032258,10.9419355 16.3096774,10.8387097 L19.2,15.483871 C20.2322581,17.1354839 21.0580645,17.1354839 22.2967742,17.1354839 C21.2645161,16.3096774 20.5419355,15.3806452 20.2322581,14.8645161 L17.0322581,10.3225806 C17.2387097,10.2193548 17.3419355,10.116129 17.5483871,10.0129032 L19.9225806,13.7290323 C20.9548387,15.3806452 21.7806452,15.3806452 23.0193548,15.3806452 C21.9870968,14.5548387 21.2645161,13.6258065 20.9548387,13.1096774 L18.5806452,9.29032258 C18.683871,9.18709677 18.8903226,9.08387097 18.9935484,8.87741935 L20.6451613,11.5612903 C21.6774194,13.2129032 22.5032258,13.2129032 23.7419355,13.2129032 C22.7096774,12.3870968 21.9870968,11.4580645 21.6774194,10.8387097 L19.716129,7.63870968 C19.8193548,7.43225806 19.9225806,7.22580645 20.0258065,7.01935484 L21.0580645,8.77419355 Z" id="Shape" fill="#000000"></path>
                    <polygon id="Path" fill="#000000" points="34.0645161 22.1935484 30.4516129 22.1935484 30.4516129 1.5483871 34.0645161 1.5483871"></polygon>
                    <polygon id="Path" fill="#FF0000" points="34.0645161 42.8387097 30.4516129 42.8387097 30.4516129 22.1935484 34.0645161 22.1935484"></polygon>
                    <polygon id="Path" fill="#FFCC00" points="34.0645161 63.483871 30.4516129 63.483871 30.4516129 42.8387097 34.0645161 42.8387097"></polygon>
                </g>
            </g>
        </g>
    </g>
</svg>