<?xml version="1.0" encoding="UTF-8"?>
<svg width="122px" height="50px" viewBox="0 0 122 50" version="1.1" xmlns="http://www.w3.org/2000/svg" xmlns:xlink="http://www.w3.org/1999/xlink">
    <title>zusammen-zukunft-gestalten</title>
    <g id="🎨-Design" stroke="none" stroke-width="1" fill="none" fill-rule="evenodd">
        <g id="Home" transform="translate(-1134.000000, -3923.000000)" fill-rule="nonzero">
            <g id="Section/Logo-Banner" transform="translate(145.000000, 3914.000000)">
                <g id="zusammen-zukunft-gestalten" transform="translate(989.000000, 9.000000)">
                    <path d="M76.6666667,0 L74.537037,6.57407407 L67.962963,6.75925926 L73.2407407,10.9259259 L71.2037037,17.5925926 L76.6666667,13.6111111 L82.1296296,17.5925926 L80.1851852,10.9259259 L85.462963,6.75925926 L78.8888889,6.57407407 C78.7962963,6.57407407 76.6666667,0 76.6666667,0 Z M110.462963,38.9814815 L103.888889,39.1666667 L109.166667,43.3333333 L107.222222,50 L112.592593,46.0185185 L118.055556,50 L116.111111,43.3333333 L121.388889,39.1666667 L114.814815,38.9814815 L112.592593,32.4074074 L110.462963,38.9814815 Z M98.6111111,13.1481481 L100.740741,19.7222222 L107.314815,19.9074074 L102.037037,24.0740741 L103.981481,30.7407407 L98.5185185,26.7592593 L93.0555556,30.7407407 L95,24.0740741 L89.8148148,19.9074074 L96.3888889,19.7222222 L98.6111111,13.1481481 Z" id="Shape" fill="#FFCB03"></path>
                    <path d="M7.77777778,7.22222222 L2.68518519,14.1666667 L7.03703704,14.1666667 L6.57407407,15.7407407 L-7.89491929e-14,15.7407407 L0.185185185,14.7222222 L5.37037037,7.77777778 L1.57407407,7.77777778 L1.75925926,6.2962963 L7.87037037,6.2962963 L7.77777778,7.22222222 Z M13.3333333,15.7407407 L11.7592593,15.7407407 L11.9444444,14.9074074 C11.4814815,15.5555556 10.6481481,15.9259259 9.81481481,15.9259259 C8.7962963,15.9259259 8.14814815,15.2777778 8.14814815,13.9814815 C8.14814815,13.5185185 8.24074074,13.0555556 8.33333333,12.5925926 L8.88888889,9.16666667 L10.5555556,9.16666667 L10,12.6851852 C9.90740741,13.0555556 9.90740741,13.3333333 9.90740741,13.7037037 C9.81481481,14.0740741 10,14.4444444 10.462963,14.537037 C10.5555556,14.537037 10.5555556,14.537037 10.6481481,14.537037 C11.1111111,14.537037 11.5740741,14.3518519 11.9444444,13.9814815 L12.6851852,9.16666667 L14.3518519,9.16666667 L13.3333333,15.7407407 Z M19.1666667,10.6481481 C18.7962963,10.3703704 18.3333333,10.2777778 17.8703704,10.2777778 C17.3148148,10.2777778 17.1296296,10.462963 17.1296296,10.8333333 C17.2222222,11.2037037 17.4074074,11.5740741 17.7777778,11.6666667 L18.1481481,11.8518519 C18.8888889,12.2222222 19.3518519,12.962963 19.3518519,13.7962963 C19.3518519,15 18.4259259,15.8333333 16.8518519,15.8333333 C16.1111111,15.8333333 15.462963,15.6481481 14.9074074,15.1851852 L15.462963,13.7962963 C15.8333333,14.1666667 16.3888889,14.3518519 16.8518519,14.4444444 C17.4074074,14.4444444 17.6851852,14.2592593 17.6851852,13.9814815 C17.5925926,13.5185185 17.3148148,13.1481481 16.9444444,12.962963 L16.6666667,12.7777778 C16.0185185,12.4074074 15.5555556,11.6666667 15.5555556,10.9259259 C15.5555556,9.72222222 16.5740741,8.98148148 18.0555556,8.98148148 C18.6111111,8.98148148 19.2592593,9.16666667 19.7222222,9.44444444 L19.1666667,10.6481481 Z M25.7407407,15.7407407 L24.1666667,15.7407407 L24.2592593,14.9074074 C23.8888889,15.5555556 23.1481481,15.9259259 22.4074074,15.9259259 C21.2962963,15.9259259 20.462963,15.0925926 20.462963,13.1481481 C20.462963,10.462963 22.2222222,8.88888889 24.0740741,8.88888889 C24.6296296,8.88888889 25.1851852,9.07407407 25.5555556,9.44444444 L25.9259259,9.07407407 L26.8518519,9.07407407 L25.7407407,15.7407407 Z M23.1481481,14.4444444 C23.6111111,14.4444444 24.0740741,14.2592593 24.3518519,13.8888889 L24.9074074,10.462963 C24.7222222,10.2777778 24.4444444,10.2777778 24.1666667,10.2777778 C23.1481481,10.1851852 22.2222222,11.1111111 22.2222222,13.1481481 C22.2222222,14.0740741 22.5925926,14.4444444 23.1481481,14.4444444 Z M37.2222222,12.2222222 L36.6666667,15.7407407 L34.9074074,15.7407407 L35.462963,12.2222222 C35.5555556,11.8518519 35.5555556,11.5740741 35.5555556,11.2037037 C35.6481481,10.8333333 35.462963,10.462963 35,10.3703704 C34.9074074,10.3703704 34.9074074,10.3703704 34.8148148,10.3703704 C34.3518519,10.3703704 33.8888889,10.5555556 33.5185185,10.9259259 C33.5185185,11.3888889 33.4259259,11.8518519 33.3333333,12.2222222 L32.962963,15.7407407 L31.2962963,15.7407407 L31.8518519,12.2222222 C31.9444444,11.8518519 31.9444444,11.5740741 31.9444444,11.2037037 C32.037037,10.8333333 31.8518519,10.462963 31.3888889,10.3703704 C31.2962963,10.3703704 31.2962963,10.3703704 31.2037037,10.3703704 C30.7407407,10.3703704 30.2777778,10.6481481 29.9074074,10.9259259 L29.2592593,15.7407407 L27.5925926,15.7407407 L28.6111111,9.07407407 L30.1851852,9.07407407 L30,9.90740741 C30.462963,9.25925926 31.2037037,8.88888889 32.037037,8.88888889 C32.6851852,8.7962963 33.3333333,9.25925926 33.5185185,9.90740741 C34.0740741,9.25925926 34.9074074,8.88888889 35.7407407,8.88888889 C36.8518519,8.88888889 37.4074074,9.62962963 37.4074074,10.8333333 C37.3148148,11.3888889 37.3148148,11.8518519 37.2222222,12.2222222 Z M48.1481481,12.2222222 L47.5925926,15.7407407 L45.9259259,15.7407407 L46.4814815,12.2222222 C46.5740741,11.8518519 46.5740741,11.5740741 46.5740741,11.2037037 C46.6666667,10.8333333 46.4814815,10.462963 46.0185185,10.3703704 C45.9259259,10.3703704 45.9259259,10.3703704 45.8333333,10.3703704 C45.3703704,10.3703704 44.9074074,10.5555556 44.537037,10.9259259 C44.537037,11.3888889 44.4444444,11.8518519 44.3518519,12.2222222 L43.8888889,15.7407407 L42.1296296,15.7407407 L42.6851852,12.2222222 C42.7777778,11.8518519 42.7777778,11.5740741 42.7777778,11.2037037 C42.8703704,10.8333333 42.6851852,10.462963 42.2222222,10.3703704 C42.1296296,10.3703704 42.1296296,10.3703704 42.037037,10.3703704 C41.5740741,10.3703704 41.1111111,10.6481481 40.7407407,10.9259259 L40.0925926,15.7407407 L38.4259259,15.7407407 L39.4444444,9.07407407 L41.0185185,9.07407407 L40.9259259,9.90740741 C41.3888889,9.25925926 42.1296296,8.88888889 42.962963,8.88888889 C43.6111111,8.7962963 44.2592593,9.25925926 44.4444444,9.90740741 C45,9.25925926 45.8333333,8.88888889 46.6666667,8.88888889 C47.7777778,8.88888889 48.3333333,9.62962963 48.3333333,10.8333333 C48.2407407,11.3888889 48.2407407,11.8518519 48.1481481,12.2222222 Z M51.6666667,12.8703704 L51.1111111,12.8703704 L51.1111111,13.0555556 C50.9259259,13.7037037 51.3888889,14.2592593 51.9444444,14.4444444 C52.037037,14.4444444 52.1296296,14.4444444 52.3148148,14.4444444 C52.8703704,14.4444444 53.4259259,14.2592593 53.8888889,13.8888889 L54.2592593,15.0925926 C53.7037037,15.6481481 52.8703704,15.9259259 52.1296296,15.8333333 C50.5555556,15.8333333 49.537037,15 49.537037,13.0555556 C49.537037,10.2777778 51.2962963,8.88888889 53.0555556,8.88888889 C53.8888889,8.7962963 54.6296296,9.35185185 54.7222222,10.1851852 C54.7222222,10.2777778 54.7222222,10.3703704 54.7222222,10.462963 C54.6296296,12.1296296 53.4259259,12.8703704 51.6666667,12.8703704 Z M51.2037037,11.7592593 L51.3888889,11.7592593 C52.6851852,11.7592593 53.0555556,11.3888889 53.0555556,10.7407407 C53.0555556,10.462963 52.8703704,10.1851852 52.5925926,10.1851852 C52.5925926,10.1851852 52.5,10.1851852 52.5,10.1851852 C52.037037,10.1851852 51.4814815,10.7407407 51.2037037,11.7592593 Z M61.4814815,12.2222222 L60.9259259,15.7407407 L59.2592593,15.7407407 L59.8148148,12.2222222 C59.9074074,11.8518519 59.9074074,11.5740741 59.9074074,11.2037037 C60,10.8333333 59.8148148,10.462963 59.4444444,10.3703704 C59.3518519,10.3703704 59.2592593,10.3703704 59.1666667,10.3703704 C58.7037037,10.3703704 58.1481481,10.6481481 57.8703704,10.9259259 L57.037037,15.7407407 L55.2777778,15.7407407 L56.2962963,9.07407407 L57.8703704,9.07407407 L57.6851852,9.90740741 C58.2407407,9.25925926 58.9814815,8.88888889 59.8148148,8.88888889 C60.8333333,8.88888889 61.3888889,9.53703704 61.3888889,10.8333333 C61.5740741,11.2962963 61.5740741,11.7592593 61.4814815,12.2222222 Z M63.5185185,15.9259259 C62.962963,15.9259259 62.5,15.462963 62.5,14.9074074 C62.5,14.3518519 62.962963,13.8888889 63.5185185,13.8888889 C64.0740741,13.8888889 64.537037,14.3518519 64.537037,14.9074074 C64.537037,15.462963 64.0740741,15.9259259 63.5185185,15.9259259 Z M7.77777778,23.7037037 L2.68518519,30.6481481 L7.03703704,30.6481481 L6.66666667,32.1296296 L-7.89491929e-14,32.1296296 L0.185185185,31.1111111 L5.37037037,24.1666667 L1.57407407,24.1666667 L1.75925926,22.7777778 L7.87037037,22.7777778 L7.77777778,23.7037037 Z M13.3333333,32.1296296 L11.7592593,32.1296296 L11.9444444,31.2962963 C11.4814815,31.9444444 10.6481481,32.3148148 9.81481481,32.3148148 C8.7037037,32.4074074 8.14814815,31.6666667 8.14814815,30.3703704 C8.14814815,29.9074074 8.24074074,29.4444444 8.33333333,28.9814815 L8.88888889,25.5555556 L10.5555556,25.5555556 L10,29.0740741 C9.90740741,29.4444444 9.90740741,29.7222222 9.90740741,30.0925926 C9.81481481,30.462963 10,30.8333333 10.462963,30.9259259 C10.5555556,30.9259259 10.5555556,30.9259259 10.6481481,30.9259259 C11.1111111,30.9259259 11.5740741,30.7407407 11.9444444,30.462963 L12.6851852,25.6481481 L14.3518519,25.6481481 L13.3333333,32.1296296 Z M21.0185185,25.462963 C21.0185185,25.6481481 21.1111111,25.9259259 21.1111111,26.1111111 C21.2037037,27.3148148 20.462963,28.5185185 19.3518519,28.9814815 L20.7407407,32.037037 L18.7962963,32.037037 L17.6851852,29.2592593 C17.5925926,29.2592593 17.4074074,29.2592593 17.3148148,29.2592593 L17.1296296,29.2592593 L16.6666667,32.037037 L15,32.037037 L16.4814815,22.4074074 L18.2407407,22.3148148 L17.3148148,28.0555556 L17.5925926,28.0555556 C18.4259259,28.1481481 19.2592593,27.5925926 19.4444444,26.7592593 C19.4444444,26.5740741 19.4444444,26.3888889 19.4444444,26.2037037 C19.4444444,25.9259259 19.4444444,25.7407407 19.3518519,25.462963 L21.0185185,25.462963 L21.0185185,25.462963 Z M27.2222222,32.1296296 L25.6481481,32.1296296 L25.8333333,31.2962963 C25.3703704,31.9444444 24.537037,32.3148148 23.7037037,32.3148148 C22.5925926,32.4074074 22.037037,31.6666667 22.037037,30.3703704 C22.037037,29.9074074 22.1296296,29.4444444 22.2222222,28.9814815 L22.7777778,25.5555556 L24.4444444,25.5555556 L23.8888889,29.0740741 C23.7962963,29.4444444 23.7962963,29.7222222 23.7962963,30.0925926 C23.7037037,30.462963 23.8888889,30.8333333 24.3518519,30.9259259 C24.4444444,30.9259259 24.4444444,30.9259259 24.537037,30.9259259 C25,30.9259259 25.462963,30.7407407 25.8333333,30.462963 L26.5740741,25.6481481 L28.2407407,25.6481481 L27.2222222,32.1296296 Z M35.0925926,28.6111111 L34.537037,32.1296296 L32.7777778,32.1296296 L33.3333333,28.6111111 C33.4259259,28.2407407 33.4259259,27.962963 33.4259259,27.5925926 C33.5185185,27.2222222 33.3333333,26.8518519 32.962963,26.7592593 C32.8703704,26.7592593 32.7777778,26.7592593 32.6851852,26.7592593 C32.2222222,26.7592593 31.6666667,27.037037 31.3888889,27.3148148 L30.6481481,32.1296296 L28.9814815,32.1296296 L30,25.462963 L31.5740741,25.462963 L31.4814815,26.2962963 C32.037037,25.6481481 32.7777778,25.2777778 33.6111111,25.2777778 C34.6296296,25.2777778 35.1851852,25.9259259 35.1851852,27.2222222 C35.1851852,27.6851852 35.1851852,28.1481481 35.0925926,28.6111111 Z M41.1111111,23.7962963 C40.9259259,23.7037037 40.7407407,23.7037037 40.5555556,23.6111111 C40,23.6111111 39.4444444,24.0740741 39.4444444,24.6296296 C39.4444444,24.6296296 39.4444444,24.7222222 39.4444444,24.7222222 L39.3518519,25.3703704 L40.9259259,25.3703704 L40.5555556,26.8518519 L39.0740741,26.8518519 L38.2407407,31.8518519 C37.8703704,34.1666667 36.8518519,35 34.9074074,35.0925926 L34.7222222,33.7037037 C35.9259259,33.6111111 36.3888889,33.1481481 36.5740741,31.8518519 L37.3148148,26.9444444 L36.4814815,26.9444444 L36.6666667,25.7407407 L37.5925926,25.5555556 L37.6851852,24.9074074 C37.962963,23.1481481 38.8888889,22.3148148 40.462963,22.3148148 C40.8333333,22.3148148 41.1111111,22.4074074 41.4814815,22.5 L41.1111111,23.7962963 Z M45.3703704,26.8518519 L43.7962963,26.8518519 L43.4259259,29.1666667 C43.3333333,29.537037 43.3333333,29.8148148 43.3333333,30.1851852 C43.2407407,30.462963 43.4259259,30.8333333 43.7962963,30.8333333 C43.8888889,30.8333333 43.8888889,30.8333333 43.9814815,30.8333333 C44.1666667,30.8333333 44.4444444,30.8333333 44.6296296,30.6481481 L44.7222222,31.9444444 C44.3518519,32.1296296 43.8888889,32.2222222 43.4259259,32.2222222 C42.5,32.3148148 41.7592593,31.6666667 41.6666667,30.8333333 C41.6666667,30.6481481 41.6666667,30.5555556 41.6666667,30.3703704 C41.6666667,29.9074074 41.7592593,29.537037 41.8518519,29.0740741 L42.2222222,26.7592593 L41.2962963,26.7592593 L41.4814815,25.5555556 L42.4074074,25.3703704 L42.8703704,23.5185185 L44.3518519,23.5185185 L44.0740741,25.3703704 L45.6481481,25.3703704 L45.3703704,26.8518519 Z M46.6666667,32.3148148 C46.1111111,32.3148148 45.6481481,31.8518519 45.6481481,31.2962963 C45.6481481,30.7407407 46.1111111,30.2777778 46.6666667,30.2777778 C47.2222222,30.2777778 47.6851852,30.7407407 47.6851852,31.2962963 C47.6851852,31.8518519 47.2222222,32.3148148 46.6666667,32.3148148 Z M8.14814815,41.0185185 C7.59259259,40.6481481 6.94444444,40.462963 6.2962963,40.462963 C4.35185185,40.462963 2.87037037,41.8518519 2.87037037,44.7222222 C2.87037037,46.3888889 3.61111111,47.2222222 5.09259259,47.2222222 C5.37037037,47.2222222 5.74074074,47.2222222 6.01851852,47.1296296 L6.38888889,45 L4.72222222,45 L4.90740741,43.5185185 L8.14814815,43.5185185 L7.40740741,47.7777778 C6.57407407,48.4259259 5.55555556,48.7037037 4.53703704,48.7037037 C2.5,48.7037037 0.833333333,47.5925926 0.833333333,44.8148148 C0.833333333,40.7407407 3.51851852,38.8888889 6.2962963,38.8888889 C7.12962963,38.8888889 7.87037037,39.0740741 8.61111111,39.537037 L8.14814815,41.0185185 Z M11.3888889,45.6481481 L10.8333333,45.6481481 L10.8333333,45.8333333 C10.6481481,46.4814815 11.1111111,47.037037 11.6666667,47.2222222 C11.7592593,47.2222222 11.9444444,47.2222222 12.037037,47.2222222 C12.5925926,47.2222222 13.1481481,47.037037 13.5185185,46.6666667 L13.8888889,47.8703704 C13.3333333,48.4259259 12.5,48.7037037 11.7592593,48.6111111 C10.1851852,48.6111111 9.16666667,47.7777778 9.16666667,45.8333333 C9.16666667,43.0555556 10.9259259,41.6666667 12.6851852,41.6666667 C13.5185185,41.5740741 14.2592593,42.1296296 14.3518519,42.962963 C14.3518519,43.0555556 14.3518519,43.1481481 14.3518519,43.2407407 C14.4444444,44.9074074 13.1481481,45.6481481 11.3888889,45.6481481 Z M11.0185185,44.537037 L11.2037037,44.537037 C12.5,44.537037 12.8703704,44.1666667 12.8703704,43.5185185 C12.8703704,43.2407407 12.6851852,42.962963 12.4074074,42.962963 C12.4074074,42.962963 12.3148148,42.962963 12.3148148,42.962963 C11.7592593,42.962963 11.2962963,43.5185185 11.0185185,44.537037 Z M19.2592593,43.5185185 C18.8888889,43.2407407 18.4259259,43.1481481 17.962963,43.1481481 C17.4074074,43.1481481 17.2222222,43.3333333 17.2222222,43.7037037 C17.3148148,44.0740741 17.5,44.4444444 17.8703704,44.537037 L18.2407407,44.7222222 C18.9814815,45.0925926 19.4444444,45.8333333 19.4444444,46.6666667 C19.4444444,47.8703704 18.5185185,48.7037037 16.9444444,48.7037037 C16.2037037,48.7037037 15.5555556,48.5185185 15,48.0555556 L15.5555556,46.6666667 C15.9259259,47.037037 16.4814815,47.2222222 16.9444444,47.3148148 C17.5,47.3148148 17.7777778,47.1296296 17.7777778,46.8518519 C17.6851852,46.3888889 17.4074074,46.0185185 17.037037,45.8333333 L16.6666667,45.5555556 C16.0185185,45.1851852 15.5555556,44.4444444 15.5555556,43.7037037 C15.5555556,42.5 16.5740741,41.7592593 18.0555556,41.7592593 C18.6111111,41.7592593 19.2592593,41.9444444 19.7222222,42.2222222 L19.2592593,43.5185185 Z M24.8148148,43.2407407 L23.2407407,43.2407407 L22.8703704,45.5555556 C22.7777778,45.9259259 22.7777778,46.2037037 22.7777778,46.5740741 C22.6851852,46.8518519 22.8703704,47.2222222 23.2407407,47.2222222 C23.3333333,47.2222222 23.3333333,47.2222222 23.4259259,47.2222222 C23.6111111,47.2222222 23.8888889,47.2222222 24.0740741,47.037037 L24.1666667,48.3333333 C23.7962963,48.5185185 23.3333333,48.6111111 22.8703704,48.6111111 C21.9444444,48.7037037 21.2037037,48.1481481 21.0185185,47.2222222 C21.0185185,47.037037 21.0185185,46.9444444 21.0185185,46.7592593 C21.0185185,46.2962963 21.1111111,45.9259259 21.2037037,45.462963 L21.5740741,43.1481481 L20.6481481,43.1481481 L20.8333333,41.9444444 L21.7592593,41.7592593 L22.2222222,39.9074074 L23.7037037,39.9074074 L23.4259259,41.7592593 L25,41.7592593 L24.8148148,43.2407407 Z M30.7407407,48.5185185 L29.1666667,48.5185185 L29.2592593,47.6851852 C28.8888889,48.3333333 28.1481481,48.7037037 27.4074074,48.7037037 C26.2962963,48.7037037 25.462963,47.8703704 25.462963,45.9259259 C25.462963,43.2407407 27.2222222,41.6666667 29.0740741,41.6666667 C29.6296296,41.6666667 30.1851852,41.8518519 30.5555556,42.2222222 L30.9259259,41.8518519 L31.7592593,41.8518519 L30.7407407,48.5185185 Z M28.0555556,47.2222222 C28.5185185,47.2222222 28.9814815,47.037037 29.2592593,46.6666667 L29.8148148,43.2407407 C29.6296296,43.0555556 29.3518519,43.0555556 29.0740741,43.0555556 C28.0555556,43.0555556 27.1296296,43.9814815 27.1296296,45.9259259 C27.1296296,46.8518519 27.5,47.2222222 28.0555556,47.2222222 Z M35.3703704,48.3333333 C35,48.5185185 34.6296296,48.6111111 34.2592593,48.6111111 C33.5185185,48.7037037 32.8703704,48.2407407 32.6851852,47.5 C32.6851852,47.3148148 32.6851852,47.2222222 32.6851852,47.037037 C32.6851852,46.4814815 32.7777778,45.9259259 32.8703704,45.3703704 L33.8888889,38.7962963 L35.6481481,38.6111111 L34.6296296,45.3703704 C34.537037,45.8333333 34.4444444,46.2962963 34.4444444,46.7592593 C34.4444444,47.1296296 34.6296296,47.2222222 34.9074074,47.2222222 C35.0925926,47.2222222 35.2777778,47.2222222 35.3703704,47.1296296 L35.3703704,48.3333333 Z M40.6481481,43.2407407 L39.0740741,43.2407407 L38.7037037,45.5555556 C38.6111111,45.9259259 38.6111111,46.2037037 38.6111111,46.5740741 C38.5185185,46.8518519 38.7037037,47.2222222 39.0740741,47.2222222 C39.1666667,47.2222222 39.1666667,47.2222222 39.2592593,47.2222222 C39.4444444,47.2222222 39.7222222,47.2222222 39.9074074,47.1296296 L40,48.4259259 C39.6296296,48.6111111 39.1666667,48.7037037 38.7037037,48.7037037 C37.7777778,48.7962963 37.037037,48.1481481 36.9444444,47.3148148 C36.9444444,47.2222222 36.9444444,47.037037 36.9444444,46.9444444 C36.9444444,46.4814815 37.037037,46.1111111 37.1296296,45.6481481 L37.5,43.3333333 L36.5740741,43.3333333 L36.7592593,42.1296296 L37.6851852,41.9444444 L38.1481481,40.0925926 L39.6296296,40.0925926 L39.3518519,41.9444444 L40.9259259,41.9444444 L40.6481481,43.2407407 Z M43.5185185,45.6481481 L42.962963,45.6481481 L42.962963,45.8333333 C42.7777778,46.4814815 43.2407407,47.037037 43.7962963,47.2222222 C43.8888889,47.2222222 43.9814815,47.2222222 44.1666667,47.2222222 C44.7222222,47.2222222 45.2777778,47.037037 45.6481481,46.6666667 L46.0185185,47.8703704 C45.462963,48.4259259 44.6296296,48.7037037 43.8888889,48.6111111 C42.3148148,48.6111111 41.2962963,47.7777778 41.2962963,45.8333333 C41.2962963,43.0555556 43.0555556,41.6666667 44.8148148,41.6666667 C45.6481481,41.5740741 46.3888889,42.1296296 46.4814815,42.962963 C46.4814815,43.0555556 46.4814815,43.1481481 46.4814815,43.2407407 C46.5740741,44.9074074 45.2777778,45.6481481 43.5185185,45.6481481 Z M43.0555556,44.537037 L43.2407407,44.537037 C44.537037,44.537037 44.9074074,44.1666667 44.9074074,43.5185185 C44.9074074,43.2407407 44.7222222,42.962963 44.4444444,42.962963 C44.4444444,42.962963 44.3518519,42.962963 44.3518519,42.962963 C43.8888889,42.962963 43.3333333,43.5185185 43.0555556,44.537037 L43.0555556,44.537037 Z M53.3333333,45 L52.7777778,48.5185185 L51.0185185,48.5185185 L51.5740741,45 C51.6666667,44.6296296 51.6666667,44.3518519 51.6666667,43.9814815 C51.7592593,43.6111111 51.5740741,43.2407407 51.2037037,43.1481481 C51.1111111,43.1481481 51.0185185,43.1481481 50.9259259,43.1481481 C50.462963,43.1481481 49.9074074,43.4259259 49.6296296,43.7037037 L48.8888889,48.5185185 L47.2222222,48.5185185 L48.2407407,41.8518519 L49.8148148,41.8518519 L49.6296296,42.6851852 C50.1851852,42.037037 50.9259259,41.6666667 51.7592593,41.6666667 C52.7777778,41.6666667 53.3333333,42.3148148 53.3333333,43.6111111 C53.4259259,44.1666667 53.4259259,44.6296296 53.3333333,45 L53.3333333,45 Z M55.3703704,48.7037037 C54.8148148,48.7037037 54.3518519,48.2407407 54.3518519,47.6851852 C54.3518519,47.1296296 54.8148148,46.6666667 55.3703704,46.6666667 C55.9259259,46.6666667 56.3888889,47.1296296 56.3888889,47.6851852 C56.3888889,48.2407407 55.9259259,48.7037037 55.3703704,48.7037037 Z" id="Shape" fill="#1F3C89"></path>
                </g>
            </g>
        </g>
    </g>
</svg>