<?xml version="1.0" encoding="UTF-8"?>
<svg width="115px" height="50px" viewBox="0 0 115 50" version="1.1" xmlns="http://www.w3.org/2000/svg" xmlns:xlink="http://www.w3.org/1999/xlink">
    <title>logo-exist</title>
    <g id="🎨-Design" stroke="none" stroke-width="1" fill="none" fill-rule="evenodd">
        <g id="Home" transform="translate(-875.000000, -3921.000000)">
            <g id="Section/Logo-Banner" transform="translate(145.000000, 3914.000000)">
                <g id="logo-exist" transform="translate(730.000000, 7.000000)">
                    <path d="M14.5490798,16.0671779 C20.9628834,16.0671779 24.5610429,19.9260736 24.5610429,26.2358896 C24.5610429,28.0088957 24.352454,29.5211656 24.0920245,31.0852761 L5.37116564,31.0852761 C5.26687117,31.6592025 5.21472393,32.1803681 5.21472393,32.7539877 C5.21472393,38.3340491 8.65644172,39.9503067 13.4018405,39.9503067 C15.8527607,39.9503067 18.5122699,39.3245399 20.9107362,38.3340491 L20.1288344,42.8184049 C17.5736196,43.4441718 14.9141104,43.9134969 12.2546012,43.9134969 C5.78834356,43.9134969 0,41.306135 0,31.9199387 C0,24.5671779 5.16257669,16.0671779 14.5490798,16.0671779 Z M83.3481595,15.9944785 C85.5638037,15.9944785 87.7417178,16.4144172 89.7662577,17.254908 L88.6966258,20.654908 C87.4358896,19.8911043 85.8696319,19.356135 83.8447853,19.356135 C81.3233129,19.356135 78.5726994,20.3493865 78.5726994,23.5202454 C78.5726994,27.990184 87.6653374,28.0282209 87.6653374,35.0193252 C87.6653374,39.0306748 84.8763804,43.5769939 78.4582822,43.5769939 C75.3638037,43.5769939 73.1478528,42.8892638 71.008589,42.048773 L72.2309816,38.5340491 C73.797546,39.5273006 75.9748466,40.2153374 77.8469325,40.2153374 C81.896319,40.2153374 83.6153374,37.693865 83.6153374,35.4779141 C83.6153374,30.0530675 74.5233129,31.0079755 74.5233129,23.5966258 C74.5233129,18.7447853 78.954908,15.9944785 83.3481595,15.9944785 Z M70.3978528,16.4527607 L64.6671779,43.1184049 L60.808589,43.1184049 L66.5389571,16.4527607 L70.3978528,16.4527607 Z M114.521166,16.4527607 L113.795399,19.8147239 L105.505521,19.8147239 L100.500613,43.1184049 L96.6423313,43.1184049 L101.646933,19.8147239 L93.3567485,19.8147239 L94.0825153,16.4527607 L114.521166,16.4527607 Z M14.0273006,20.0303681 C10.0122699,20.0303681 6.93558282,23.5242331 5.89263804,27.4349693 L19.5030675,27.4349693 C19.6070552,26.6530675 19.6592025,26.0273006 19.6592025,25.4015337 C19.6592025,22.2726994 17.7297546,20.0303681 14.0273006,20.0303681 Z" id="Combined-Shape" fill="#1D1D1B"></path>
                    <polyline id="Fill-47" fill="#D8232A" points="46.691411 29.8251534 55.7656442 47.6812883 46.691411 47.6812883 40.6904908 34.7282209 27.2251534 49.7303681 21.0046012 45.7055215 37.1779141 28.8739264 28.4693252 11.3104294 37.1779141 11.3104294 43.0322086 24.1171779 56.2782209 9.33435583 62.3521472 13.2128834 46.691411 29.8251534"></polyline>
                    <path d="M50.6684049,5.25766871 C50.6684049,7.99785276 48.4472393,10.2199387 45.7055215,10.2199387 C42.9641104,10.2199387 40.7420245,7.99785276 40.7420245,5.25766871 C40.7420245,2.51717791 42.9641104,0.294478528 45.7055215,0.294478528 C48.4472393,0.294478528 50.6684049,2.51717791 50.6684049,5.25766871" id="Fill-48" fill="#B4B5B4"></path>
                </g>
            </g>
        </g>
    </g>
</svg>