<?xml version="1.0" encoding="UTF-8"?>
<svg width="56px" height="53px" viewBox="0 0 56 53" version="1.1" xmlns="http://www.w3.org/2000/svg" xmlns:xlink="http://www.w3.org/1999/xlink">
    <title>microsoft-teams</title>
    <g id="🎨-Design" stroke="none" stroke-width="1" fill="none" fill-rule="evenodd">
        <g id="Integrations" transform="translate(-146.000000, -1103.000000)" fill-rule="nonzero">
            <g id="Section/Integrations" transform="translate(130.000000, 681.000000)">
                <g id="Integrations" transform="translate(16.000000, 234.000000)">
                    <g id="Microsoft-Teams" transform="translate(0.000000, 143.000000)">
                        <g id="Price" transform="translate(0.000000, 32.000000)">
                            <g id="microsoft-teams" transform="translate(0.000000, 13.000000)">
                                <circle id="Oval" fill="#7B83EB" cx="29.75" cy="8.5" r="8.16725"></circle>
                                <path d="M29.16725,10.25 L21.77,10.25 L21.80675,10.41275 L21.81025,10.42675 L21.84875,10.57725 C22.965512,14.8121357 27.2215573,17.4143813 31.5,16.47825 L31.5,12.58275 C31.4961561,11.2960033 30.4539967,10.2538439 29.16725,10.25 L29.16725,10.25 Z" id="Path" fill="#000000" opacity="0.1"></path>
                                <path d="M27.41725,12 L22.37025,12 C23.7222496,14.8505147 26.595109,16.6674263 29.75,16.66725 L29.75,14.33275 C29.7461561,13.0460033 28.7039967,12.0038439 27.41725,12 L27.41725,12 Z" id="Path" fill="#000000" opacity="0.2"></path>
                                <circle id="Oval" fill="#5059C9" cx="48.125" cy="11.125" r="6.125"></circle>
                                <path d="M53.375,19 L39.61825,19 C38.9996911,19 38.49825,19.5014411 38.49825,20.12 L38.49825,34.3125 C38.4201046,38.5457419 41.3152734,42.256112 45.4405,43.2095 C48.0223153,43.7512311 50.71079,43.1006781 52.7593084,41.4385062 C54.8078267,39.7763342 55.9982551,37.2795371 56,34.6415 L56,21.625 C56,20.1752525 54.8247475,19 53.375,19 Z" id="Path" fill="#5059C9"></path>
                                <path d="M43.7499977,21.625 L43.7499977,38.25 C43.7535295,44.5847014 39.5004388,50.1314248 33.3818117,51.7718075 C27.2631845,53.4121901 20.8058025,50.736907 17.64,45.25 C17.3032471,44.6903203 17.010692,44.1052101 16.765,43.4999977 C16.5359463,42.929371 16.3430644,42.3448804 16.1875,41.75 C15.8989909,40.6056322 15.7520586,39.4301741 15.7499977,38.25 L15.7499977,21.625 C15.7490695,20.9285219 16.0253324,20.2603021 16.5178172,19.7678172 C17.0103021,19.2753324 17.6785219,18.9990695 18.375,18.9999977 L41.125,18.9999977 C41.8214781,18.9990695 42.4896979,19.2753324 42.9821828,19.7678172 C43.4746676,20.2603021 43.7509305,20.9285219 43.7499977,21.625 Z" id="Path" fill="#7B83EB"></path>
                                <path d="M27.41725,12 L22.37025,12 C23.7222496,14.8505147 26.595109,16.6674263 29.75,16.66725 L29.75,14.33275 C29.7461561,13.0460033 28.7039967,12.0038439 27.41725,12 L27.41725,12 Z" id="Path" fill="#000000" opacity="0.2"></path>
                                <path d="M31.5,18.9999977 L31.5,41.1725 C31.5,42.259481 30.742245,43.1994283 29.68,43.43 C29.5153718,43.4789796 29.3442405,43.5025839 29.1725,43.5001913 L16.765,43.5001913 C16.5359463,42.929371 16.3430644,42.3448804 16.1875,41.75 C15.8989909,40.6056322 15.7520586,39.4301741 15.7499977,38.25 L15.7499977,21.625 C15.7490695,20.9285219 16.0253324,20.2603021 16.5178172,19.7678172 C17.0103021,19.2753324 17.6785219,18.9990695 18.375,18.9999977 L31.5,18.9999977 Z" id="Path" fill="#000000" opacity="0.1"></path>
                                <path d="M29.7499977,18.9999977 L29.7499977,42.9225 C29.7525567,43.0942388 29.7289529,43.265366 29.68,43.43 C29.4494283,44.492245 28.509481,45.25 27.4225,45.25 L17.64,45.25 C17.3032471,44.6903203 17.010692,44.1052101 16.765,43.4999977 C16.5359463,42.929371 16.3430644,42.3448804 16.1875,41.75 C15.8989909,40.6056322 15.7520586,39.4301741 15.7499977,38.25 L15.7499977,21.625 C15.7490695,20.9285219 16.0253324,20.2603021 16.5178172,19.7678172 C17.0103021,19.2753324 17.6785219,18.9990695 18.375,18.9999977 L29.7499977,18.9999977 Z" id="Path" fill="#000000" opacity="0.2"></path>
                                <path d="M29.7499977,18.9999977 L29.7499977,39.4225 C29.7442506,40.7055537 28.7055537,41.7442506 27.4225,41.75 L16.1875,41.75 C15.8989909,40.6056322 15.7520586,39.4301741 15.7499977,38.25 L15.7499977,21.625 C15.7490695,20.9285219 16.0253324,20.2603021 16.5178172,19.7678172 C17.0103021,19.2753324 17.6785219,18.9990695 18.375,18.9999977 L29.7499977,18.9999977 Z" id="Path" fill="#000000" opacity="0.2"></path>
                                <path d="M18.375,18.9999977 C17.6785219,18.9990695 17.0103021,19.2753324 16.5178172,19.7678172 C16.0253324,20.2603021 15.7490695,20.9285219 15.7499977,21.625 L15.7499977,38.25 C15.7520586,39.4301741 15.8989909,40.6056322 16.1875,41.75 L25.6725,41.75 C26.9555537,41.7442506 27.9942506,40.7055537 28,39.4225 L28,18.9999977 L18.375,18.9999977 Z" id="Path" fill="#000000" opacity="0.2"></path>
                                <path d="M2.33275,12 L25.66725,12 C26.9555923,12 28,13.0444077 28,14.33275 L28,37.66725 C28,38.9555923 26.9555923,40 25.66725,40 L2.33275,40 C1.04440775,40 0,38.9555923 0,37.66725 L0,14.33275 C0,13.0444077 1.04440775,12 2.33275,12 Z" id="Path" fill="#4B53BC"></path>
                                <polygon id="Path" fill="#FFFFFF" points="20.965 20.70625 15.7325 20.70625 15.7325 34.74125 12.299 34.74125 12.299 20.70625 7.035 20.70625 7.035 17.25875 20.965 17.25875"></polygon>
                            </g>
                        </g>
                    </g>
                </g>
            </g>
        </g>
    </g>
</svg>