<?xml version="1.0" encoding="UTF-8"?>
<svg width="56px" height="57px" viewBox="0 0 56 57" version="1.1" xmlns="http://www.w3.org/2000/svg" xmlns:xlink="http://www.w3.org/1999/xlink">
    <title>Oauth_logo</title>
    <g id="🎨-Design" stroke="none" stroke-width="1" fill="none" fill-rule="evenodd">
        <g id="Security" transform="translate(-715.000000, -1297.000000)">
            <g id="Section/User-authentication" transform="translate(233.000000, 1049.000000)">
                <g id="Text" transform="translate(482.000000, 5.000000)">
                    <g id="Oauth_logo" transform="translate(0.000000, 243.000000)">
                        <path d="M25.9642644,0.13981179 C38.3576534,-0.719540466 46.5751626,5.3452876 51.2737402,12.7345767 C53.6296668,16.4395517 55.941186,22.0666635 55.9518914,27.8483129 C55.9632494,34.1302228 53.9281776,39.5702628 51.2737402,43.561782 C48.5455399,47.6643663 45.0168855,51.0528805 40.5982144,53.2778288 C33.2120107,56.9971076 22.8894998,57.0988238 16.1282711,53.5177219 C8.59846783,49.5296618 2.80905882,43.837388 0.65469485,33.9657754 C-0.207462078,30.0152979 -0.306560576,24.9108839 0.894588005,20.5313847 C1.17645782,19.5040325 1.68868486,18.4228305 2.0941473,17.4126802 C4.04264813,12.5583496 7.35917568,8.33712733 11.4502611,5.41755471 C13.0941743,4.24445287 15.0884848,3.0777083 16.8480441,2.2988502 C19.037373,1.32983518 22.7234631,0.364466212 25.9642644,0.13981179 Z" id="Path" fill="#FFFFFF" fill-rule="nonzero"></path>
                        <path d="M49.4729523,28.5468638 C49.4729523,40.2599323 39.9776334,49.7545967 28.2647519,49.7545967 C16.5518705,49.7545967 7.05673828,40.2599323 7.05673828,28.5468638 C7.05673828,16.8340759 16.5518705,7.33866323 28.2647519,7.33866323 C39.9775399,7.33866323 49.4729523,16.8340759 49.4729523,28.5468638 Z" id="Path" fill="#000000" fill-rule="nonzero"></path>
                        <path d="M25.9642644,0.13981179 C38.3576534,-0.719540466 46.5751626,5.3452876 51.2737402,12.7345767 C53.6296668,16.4395517 55.941186,22.0666635 55.9518914,27.8483129 C55.9632494,34.1302228 53.9281776,39.5702628 51.2737402,43.561782 C48.5455399,47.6643663 45.0168855,51.0528805 40.5982144,53.2778288 C33.2120107,56.9971076 22.8894998,57.0988238 16.1282711,53.5177219 C8.59846783,49.5296618 2.80905882,43.837388 0.65469485,33.9657754 C-0.207462078,30.0152979 -0.306560576,24.9108839 0.894588005,20.5313847 C1.17645782,19.5040325 1.68868486,18.4228305 2.0941473,17.4126802 C4.04264813,12.5583496 7.35917568,8.33712733 11.4502611,5.41755471 C13.0941743,4.24445287 15.0884848,3.0777083 16.8480441,2.2988502 C19.037373,1.32983518 22.7234631,0.364466212 25.9642644,0.13981179 Z M21.7659472,2.17899712 C17.1626351,3.37247959 13.7873963,5.5106699 10.8505282,7.81667324 C6.61556299,11.1418956 3.91578336,15.7822294 2.33404045,21.3710108 C0.574294182,27.588787 1.70467151,35.1129807 4.13333261,39.8433446 C6.65183678,44.7489072 10.0334331,48.5568138 14.8088588,51.2386435 C19.454802,53.8477386 25.9893195,55.5230642 32.8014998,54.2374014 C38.8539873,53.095151 43.4507553,50.4584765 47.1955566,46.56054 C52.205827,41.3452478 56.2326851,31.7393313 53.5530057,21.6109039 C52.8366918,18.9039256 51.900211,16.0826101 50.4342077,13.6941493 C49.6421676,12.4038121 48.4799105,11.1344164 47.3155032,9.85576534 C42.9209523,5.02976172 35.8183012,0.871083908 26.6839439,1.45922416 C24.9456067,1.57113067 23.4179005,1.75062984 21.7659472,2.17899712 Z" id="Shape" fill="#000000" fill-rule="nonzero"></path>
                        <g id="hashpattern" transform="translate(1.682805, 2.208681)" stroke="#FFFFFF" stroke-width="0.5">
                            <g id="Group" transform="translate(0.000000, 0.560935)">
                                <line x1="27.8644407" y1="51.2124207" x2="52.3714992" y2="26.7059232" id="Path"></line>
                                <line x1="25.7220434" y1="49.271586" x2="50.3359599" y2="24.6581369" id="Path"></line>
                                <line x1="23.5795526" y1="47.3310317" x2="48.3005142" y2="22.6104441" id="Path"></line>
                                <line x1="21.4370618" y1="45.390197" x2="46.264975" y2="20.5627513" id="Path"></line>
                                <line x1="19.2946644" y1="43.4494558" x2="44.2295292" y2="18.5149649" id="Path"></line>
                                <line x1="17.1521736" y1="41.509182" x2="42.1938965" y2="16.4672721" id="Path"></line>
                                <line x1="15.0096828" y1="39.5679733" x2="40.1584508" y2="14.4195793" id="Path"></line>
                                <line x1="12.867192" y1="37.6272321" x2="38.122818" y2="12.371793" id="Path"></line>
                                <line x1="10.7247012" y1="35.6864908" x2="36.0868114" y2="10.3241002" id="Path"></line>
                                <line x1="8.58230384" y1="33.7456561" x2="34.0518331" y2="8.27640735" id="Path"></line>
                                <line x1="6.43981302" y1="31.8050083" x2="32.0162938" y2="6.22871452" id="Path"></line>
                                <line x1="4.2973222" y1="29.8642671" x2="29.9808481" y2="4.18092821" id="Path"></line>
                                <line x1="2.15483139" y1="27.9234324" x2="27.9453088" y2="2.13323539" id="Path"></line>
                                <line x1="0.0123405676" y1="25.9826912" x2="25.9097696" y2="0.085542571" id="Path"></line>
                            </g>
                            <g id="Group">
                                <line x1="0.00402003339" y1="26.7913723" x2="25.0007746" y2="51.7892487" id="Path"></line>
                                <line x1="2.03114524" y1="24.7352654" x2="27.0765142" y2="49.7818497" id="Path"></line>
                                <line x1="4.05827045" y1="22.6791586" x2="29.1522538" y2="47.7742638" id="Path"></line>
                                <line x1="6.08539566" y1="20.6230518" x2="31.2280868" y2="45.7668648" id="Path"></line>
                                <line x1="8.11242738" y1="18.5669449" x2="33.3037329" y2="43.7592788" id="Path"></line>
                                <line x1="10.1395526" y1="16.5108381" x2="35.3796594" y2="41.7517863" id="Path"></line>
                                <line x1="12.1666778" y1="14.4547312" x2="37.455399" y2="39.7442938" id="Path"></line>
                                <line x1="14.1937095" y1="12.3986244" x2="39.5311386" y2="37.7367078" id="Path"></line>
                                <line x1="16.2208347" y1="10.3425175" x2="41.6069716" y2="35.7292154" id="Path"></line>
                                <line x1="18.2479599" y1="8.28641068" x2="43.6826177" y2="33.7215359" id="Path"></line>
                                <line x1="20.2750851" y1="6.23030384" x2="45.7584508" y2="31.7142304" id="Path"></line>
                                <line x1="22.3021169" y1="4.17419699" x2="47.8341903" y2="29.7066444" id="Path"></line>
                                <line x1="24.3292421" y1="2.11818364" x2="49.9099299" y2="27.6992454" id="Path"></line>
                                <line x1="26.3564608" y1="0.0620767947" x2="51.9857629" y2="25.6916594" id="Path"></line>
                            </g>
                        </g>
                        <path d="M45.8760508,9.97571192 C43.6703613,7.77002216 40.958615,5.78244286 37.719403,4.57792867 C34.3618337,3.32938109 30.5637436,2.27697374 26.084211,2.65868994 C18.9485583,3.26693034 13.9384748,6.46846623 10.1307553,10.2156051 C7.46369655,12.8401259 5.45751291,16.0562461 4.13323912,19.8116118 C2.18885181,25.3256952 2.30683511,31.8341293 4.49307885,37.4443196 C6.3579069,42.2297486 9.4101409,46.0895416 13.7292461,49.0795116 C17.7895733,51.8904498 23.6171259,54.0705233 30.1623947,53.5177219 C38.1344013,52.8444131 43.9673763,48.7544498 47.7951025,44.0416618 C48.7744948,42.8360258 49.7482778,41.4732345 50.3139806,39.8434381 C50.8682778,38.6691209 51.1395833,37.8708171 51.3935933,37.4444131 C52.4567519,35.0621226 53.020024,32.5485734 53.192792,29.7676451 C53.7242778,21.214136 50.4332728,14.5330274 45.8760508,9.97571192 Z M43.526575,36.0356251 C43.5113362,36.0681593 43.4976868,36.0984498 43.4817937,36.1320124 C43.0863346,37.2636986 42.4050791,38.2099957 41.7203646,39.0472845 C39.0433963,42.3197787 34.9645583,45.1597921 29.3896134,45.6274248 C24.8122912,46.0111042 20.7370057,44.4974214 17.8976467,42.545555 C15.4302811,40.8493814 13.5547018,38.7498021 12.2394965,36.2265299 C12.1592828,36.0747036 11.3954765,34.3149573 11.3932327,34.2375483 C10.3512962,31.0057219 10.2608922,25.8090341 11.3303145,22.6905166 C12.0440107,20.6091677 13.2334731,18.3572011 14.8088588,16.5730542 C16.9839773,14.1095216 19.1606851,12.5309573 22.6056668,11.4151643 C24.1786217,10.9056485 25.5867553,10.3870642 27.5235699,10.3356451 C32.2466417,10.2099022 37.056191,12.3305166 39.6385482,14.6538154 C42.0116768,16.7888271 44.7163179,20.9476919 45.3962644,24.849555 C46.0960307,28.8655683 45.3492394,32.7865967 43.526575,36.0356251 Z" id="Shape" fill="#000000" fill-rule="nonzero"></path>
                        <path d="M35.3172087,39.8878932 C34.1542037,39.8878932 33.1335826,39.1513856 32.777389,38.0551319 L31.4820033,34.108207 L25.001803,34.108207 L23.7982237,38.0191386 C23.4349249,39.1367078 22.4065442,39.884808 21.2375559,39.884808 C20.9569015,39.884808 20.6781169,39.8404007 20.4089616,39.7530818 C19.0116728,39.333596 18.2184174,37.8296361 18.6465042,36.4024307 L24.1161803,19.0767412 C24.4713456,17.9745977 25.5169282,17.2058364 26.6590851,17.2058364 L29.5675326,17.2058364 C30.7161402,17.2058364 31.7616294,17.9615092 32.1098765,19.0435526 L37.8621703,36.3627913 C38.3221369,37.778778 37.5604808,39.298818 36.1652487,39.7529883 C35.8893623,39.8425509 35.6041269,39.8878932 35.3172087,39.8878932 L35.3172087,39.8878932 Z" id="Path" stroke="#000000" stroke-width="0.560934891" fill="#FFFFFF" fill-rule="nonzero"></path>
                        <g id="OAUTH" transform="translate(13.368948, 4.265442)" fill="#FFFFFF" fill-rule="nonzero">
                            <g id="Group">
                                <path d="M0.467539232,7.4187379 L0.460714524,7.40948247 C-0.221382304,6.47468447 -0.0212220367,5.16695826 0.983318865,4.43381636 C1.98785977,3.70076795 3.27829048,3.90653756 3.96038731,4.84124207 L3.96721202,4.8504975 C4.64930885,5.78529549 4.44914858,7.09311519 3.44460768,7.82616361 C2.44006678,8.55921202 1.14963606,8.35353589 0.467539232,7.4187379 Z M3.05316861,5.53184641 L3.04634391,5.52259098 C2.70361269,5.0529015 2.06545576,4.89135225 1.56790651,5.25446411 C1.07493823,5.61421035 1.03660768,6.25507846 1.3793389,6.72486144 L1.38616361,6.73411686 C1.72898831,7.20380634 2.36705175,7.36535559 2.86002003,7.00560935 C3.35766277,6.6424975 3.39599332,6.00162938 3.05316861,5.53184641 Z" id="Shape"></path>
                                <path d="M7.04384641,1.29173957 L8.06895492,0.962844741 L10.9427179,4.30358598 L9.80243072,4.66940902 L9.30301169,4.07388314 L7.822798,4.54880801 L7.76857429,5.32205676 L6.6502571,5.68086811 L7.04384641,1.29173957 Z M8.73039065,3.34457429 L7.95274791,2.390798 L7.86963606,3.62074124 L8.73039065,3.34457429 Z" id="Shape"></path>
                                <path d="M12.7888226,2.29674791 L12.797823,0.0340300501 L13.9320334,0.0385175292 L13.9231519,2.27823706 C13.9208147,2.85973957 14.2133422,3.13721536 14.6624641,3.13908514 C15.111586,3.14086144 15.4062638,2.87722204 15.408414,2.31301503 L15.4174825,0.0445943239 L16.5516928,0.049081803 L16.5428114,2.28300501 C16.5376694,3.58418698 15.7927479,4.15129215 14.6469449,4.14673871 C13.5012354,4.14203673 12.7838932,3.55763606 12.7888226,2.29674791 Z" id="Path"></path>
                                <polygon id="Path" points="20.6479199 1.9013823 19.4916461 1.54846077 19.7773489 0.612353923 23.158197 1.64419366 22.8724942 2.5803005 21.7162204 2.22747245 20.8255492 5.14582972 19.7573422 4.81983306"></polygon>
                                <polygon id="Path" points="26.1780835 2.95042404 27.1079265 3.56922871 26.2723205 4.82497496 27.465803 5.61925876 28.3015025 4.36341903 29.2313456 4.98222371 26.9985442 8.33745576 26.0686077 7.71865109 26.9171152 6.44364608 25.7235392 5.64936227 24.8751252 6.92436728 23.9452821 6.3055626"></polygon>
                            </g>
                            <g id="Group" transform="translate(0.841402, 38.797997)">
                                <path d="M28.6213289,0.830464107 L28.6284341,0.839532554 C29.3458698,1.74759265 29.1957262,3.06223706 28.2198865,3.83314858 C27.2440467,4.6040601 25.9466043,4.44774624 25.2291686,3.53968614 L25.2220634,3.5306177 C24.5046277,2.62246411 24.6548648,1.30791319 25.630611,0.537001669 C26.6064508,-0.233816361 27.9038932,-0.0775959933 28.6213289,0.830464107 Z M26.1093689,2.81495826 L26.1164741,2.82402671 C26.4769683,3.28034725 27.120828,3.41740234 27.6042604,3.03549917 C28.0831119,2.65714858 28.0970417,2.01525209 27.7364541,1.55893155 L27.7293489,1.54986311 C27.3689482,1.09354257 26.724995,0.956487479 26.2461436,1.33483806 C25.7627112,1.71674124 25.7488748,2.35863773 26.1093689,2.81495826 Z" id="Shape"></path>
                                <path d="M22.3165142,7.21567947 L21.3068314,7.58935559 L18.2888147,4.3783773 L19.4118998,3.96263105 L19.9371219,4.53571953 L21.3949917,3.99610017 L21.4150918,3.2212621 L22.516581,2.81355593 L22.3165142,7.21567947 Z M20.5412487,5.23913189 L21.3601202,6.15766277 L21.3890083,4.92528881 L20.5412487,5.23913189 Z" id="Shape"></path>
                                <path d="M16.5371085,6.44934891 L16.6368614,8.70982304 L15.503773,8.75983973 L15.4049549,6.52236394 C15.3793389,5.94142237 15.0738164,5.67834391 14.6251619,5.69816361 C14.1765075,5.71798331 13.8948247,5.99555259 13.9196928,6.55919866 L14.0197262,8.82537563 L12.8866377,8.87539232 L12.7881002,6.64371285 C12.7306978,5.34383973 13.4475726,4.74158264 14.5921603,4.6910985 C15.7368414,4.64052087 16.4814825,5.18967613 16.5371085,6.44934891 Z" id="Path"></path>
                                <polygon id="Path" points="8.66373289 7.18847412 9.83113189 7.50362604 9.576 8.44861436 6.1626177 7.5272788 6.41774958 6.58219699 7.58514858 6.89734891 8.38046077 3.95094491 9.45895159 4.24207012"></polygon>
                                <polygon id="Path" points="3.14590985 6.36735893 2.18773957 5.79314858 2.96323205 4.49916528 1.73356928 3.76209683 0.958076795 5.05608013 0 4.48186978 2.07209349 1.02473456 3.03017028 1.5990384 2.24280467 2.91274791 3.47256093 3.64981636 4.25992654 2.33610684 5.21800334 2.91041068"></polygon>
                            </g>
                        </g>
                    </g>
                </g>
            </g>
        </g>
    </g>
</svg>