<?xml version="1.0" encoding="UTF-8"?>
<svg width="675px" height="480px" viewBox="0 0 675 480" version="1.1" xmlns="http://www.w3.org/2000/svg" xmlns:xlink="http://www.w3.org/1999/xlink" preserveAspectRatio="xMinYMid slice">
    <title>Illustration</title>
    <defs>
        <linearGradient x1="14.2377336%" y1="5.1395137%" x2="50%" y2="94.8604863%" id="linearGradient-1">
            <stop stop-color="#FD6A5A" offset="0%"></stop>
            <stop stop-color="#FC607D" offset="100%"></stop>
        </linearGradient>
    </defs>
    <g id="🎨-Design" stroke="none" stroke-width="1" fill="none" fill-rule="evenodd">
        <g id="Home" transform="translate(-715.000000, -128.000000)">
            <g id="Section/Hero" transform="translate(145.000000, 34.000000)">
                <g id="Illustration" transform="translate(570.000000, 94.000000)">
                    <path d="M640.292704,72.8999981 C604.986819,37.4897937 491.542002,75.7004391 414.957593,53.0630154 C285.725596,14.8636027 160.233371,-14.3163986 97.7312615,54.1662035 C-1.81033796,163.232406 79.9937381,171.828968 80.280759,254.730221 C80.5677798,337.631474 -118.647173,441.904683 112.67704,472.534607 C344.001253,503.164531 465.100502,420.643446 539.097563,472.534607 C613.094624,524.425769 735.175334,168.062983 640.292704,72.8999981 Z" id="Path-4" fill="#FFF7F7"></path>
                    <g id="Pointers" transform="translate(169.019999, 35.640000)" fill="#9BD3FF" fill-rule="nonzero">
                        <g id="XMLID_78_" transform="translate(0.000000, 50.786999)">
                            <path d="M19.1478566,0.888814939 L9.10726754,65.2605647 C7.02909911,79.9353506 5.01205328,94.6717952 2.93388485,109.346581 C2.81163964,110.271463 4.21745947,110.703074 4.40082727,109.778192 C11.6132942,58.2314656 18.5366306,15.9952122 20.614799,1.32042629 C20.7370442,0.333886062 19.3312244,-0.0977252873 19.1478566,0.888814939 Z" id="XMLID_386_"></path>
                            <path d="M6.4789957,110.271463 C6.6012409,111.936249 5.13429848,113.292742 3.48398825,113.292742 C1.83367803,113.292742 0.488980808,111.936249 0.488980808,110.271463 C0.488980808,108.606676 1.83367803,107.250183 3.48398825,107.250183 C5.19542108,107.311842 6.3567505,108.298382 6.4789957,110.271463 Z" id="XMLID_114_"></path>
                        </g>
                        <g id="XMLID_80_" transform="translate(143.616926, 0.536384)">
                            <path d="M75.223088,71.7586228 C75.3453332,73.4089331 73.8783907,74.7536303 72.2280805,74.7536303 C70.5777703,74.7536303 69.2330731,73.4089331 69.2330731,71.7586228 C69.2330731,70.1083126 70.5777703,68.7636154 72.2280805,68.7636154 C73.8783907,68.7636154 75.0397202,69.8026996 75.223088,71.7586228 Z" id="XMLID_116_"></path>
                            <path d="M54.084403,84.6688361 C35.2150424,42.5785124 39.1870691,45.9939563 20.2454122,3.90363251 C19.667041,2.59772747 18.0765202,3.80317827 18.7271878,5.10908331 C37.5965483,47.1994071 33.6245216,43.7839632 52.5661786,85.8742869 C53.1445498,87.2806462 54.6627742,86.0751954 54.084403,84.6688361 Z" id="XMLID_107_" transform="translate(36.393542, 44.921181) rotate(-30.000000) translate(-36.393542, -44.921181) "></path>
                        </g>
                        <path d="M94.4344185,127.765723 C94.5566637,129.416033 93.0897213,130.76073 91.439411,130.76073 C89.7891008,130.76073 88.4444036,129.416033 88.4444036,127.765723 C88.4444036,126.115413 89.7891008,124.770715 91.439411,124.770715 C93.0897213,124.770715 94.2510507,125.8098 94.4344185,127.765723 Z" id="XMLID_115_"></path>
                        <path d="M92.3562501,127.215619 C86.0606222,97.2044224 86.7329708,99.096236 80.4373429,69.0850389 C80.2539751,68.1681999 78.7870326,68.5349355 78.9704004,69.5128971 C85.2660283,99.5240942 84.5936797,97.6322806 90.8893076,127.643478 C91.0726754,128.560317 92.5396179,128.132458 92.3562501,127.215619 Z" id="XMLID_153_"></path>
                    </g>
                    <g id="Window_2" transform="translate(132.538491, 0.197996)">
                        <rect id="XMLID_592_" fill="#008EFF" fill-rule="nonzero" x="0.391184623" y="0.239501811" width="182.096442" height="98.1873403"></rect>
                        <rect id="XMLID_139_" fill="#FC607D" fill-rule="nonzero" x="18.0922888" y="16.3269694" width="63.0296224" height="32.4194256"></rect>
                        <path d="M18.0922888,27.4757312 L18.0922888,48.746395 L37.4559276,48.746395 C34.2286545,39.5535564 26.8939428,31.729864 18.0922888,27.4757312 Z" id="XMLID_138_" fill="#9BD3FF" fill-rule="nonzero"></path>
                        <path d="M81.1219112,21.7546561 L81.1219112,16.3269694 L72.858136,16.3269694 C75.0585495,18.7229752 78.0413323,20.483306 81.1219112,21.7546561 Z" id="XMLID_137_" fill="#9BD3FF" fill-rule="nonzero"></path>
                        <path d="M38.8739719,29.1382658 C31.1969737,28.7470812 25.5736947,34.8104429 23.5688735,41.7539699 C23.3732812,42.4874411 24.497937,42.8297276 24.7424274,42.0962565 C26.404962,36.3751813 30.5124006,31.2897812 36.6735584,30.507412 C43.2259008,29.6272466 49.5339484,34.8104429 48.1646067,41.7539699 C48.0179125,42.4874411 49.1914663,42.8297276 49.3381606,42.0962565 C50.6095106,35.3483217 45.5241105,29.4316543 38.8739719,29.1382658 Z" id="XMLID_385_" fill="#FFFFFF" fill-rule="nonzero"></path>
                        <path d="M63.6163993,33.3435005 C61.0248012,33.3435005 58.8732857,31.2408832 58.8732857,28.600387 C58.8732857,25.9598908 60.9759031,23.8572734 63.6163993,23.8572734 C66.3057936,23.8572734 68.0661244,25.6176042 68.3595128,28.5514889 L68.3595128,28.5514889 C68.457309,29.7250428 68.0661244,30.8496985 67.2348571,31.729864 C66.3057936,32.7567236 64.9855455,33.3435005 63.6163993,33.3435005 Z M63.6163993,25.0797254 C61.6604762,25.0797254 60.0957377,26.6444639 60.0957377,28.600387 C60.0957377,30.5563101 61.6604762,32.1210486 63.6163993,32.1210486 C64.6432589,32.1210486 65.6701186,31.6809659 66.3546917,30.9474947 C66.9414686,30.3118197 67.2348571,29.4805524 67.185959,28.649285 L67.185959,28.649285 C66.9414686,26.3510754 65.7190166,25.0797254 63.6163993,25.0797254 Z" id="XMLID_1929_" fill="#FFFFFF" fill-rule="nonzero"></path>
                        <path d="M41.9056527,28.5514889 C39.3140546,28.5514889 37.1625392,26.4488715 37.1625392,23.8083753 C37.1625392,21.2167772 39.2651565,19.0652618 41.9056527,19.0652618 C44.595047,19.0652618 46.3553778,20.8255926 46.6487663,23.7594773 L46.6487663,23.7594773 C46.7465624,24.9330311 46.3553778,26.0576869 45.5241105,26.9378523 C44.595047,27.964712 43.2747989,28.5514889 41.9056527,28.5514889 Z M41.9056527,20.2877137 C39.9497296,20.2877137 38.3849911,21.8524522 38.3849911,23.8083753 C38.3849911,25.7642985 39.9497296,27.3290369 41.9056527,27.3290369 C42.9325124,27.3290369 43.959372,26.8889542 44.6439451,26.1554831 C45.230722,25.5198081 45.5241105,24.6885407 45.4752124,23.8572734 L45.4752124,23.8572734 C45.230722,21.5590638 43.959372,20.2877137 41.9056527,20.2877137 Z" id="XMLID_1918_" fill="#FFFFFF" fill-rule="nonzero"></path>
                        <path d="M73.6405053,43.1720142 C72.1246648,38.5755949 68.3106148,35.0060352 63.3719089,34.4681563 C60.8781069,34.2236659 58.3354069,34.7126467 56.1349934,35.9350986 C54.3746626,36.9130602 54.2279683,37.3531429 52.1742491,36.4240794 L47.1377471,34.1258698 C47.1377471,34.1258698 47.1377471,34.1258698 47.1377471,34.1747678 C47.1866451,34.2236659 47.1866451,34.3214621 47.2355432,34.3703602 C47.4311355,34.7615448 47.5778298,35.2016275 47.6267278,35.6417102 C49.7293452,36.6196717 51.8808606,37.5976333 53.983478,38.5266968 C54.2279683,38.6244929 54.4724587,38.6244929 54.7169491,38.4289006 C60.8781069,33.1968063 70.0220475,35.7884044 72.5158495,43.4654026 C72.7603398,44.2477719 73.8849956,43.9054853 73.6405053,43.1720142 Z" id="XMLID_113_" fill="#FFFFFF" fill-rule="nonzero"></path>
                        <path d="M13.3002772,24.3951523 C12.9579906,24.3951523 12.7135002,24.1506619 12.7135002,23.8083753 L12.7135002,11.7794482 C12.7135002,11.4371616 12.9579906,11.1926713 13.3002772,11.1926713 L25.9159813,11.1926713 C26.2582678,11.1926713 26.5027582,11.4371616 26.5027582,11.7794482 C26.5027582,12.1217347 26.2582678,12.3662251 25.9159813,12.3662251 L13.8870541,12.3662251 L13.8870541,23.7594773 C13.8870541,24.1506619 13.6425637,24.3951523 13.3002772,24.3951523 Z" id="XMLID_1923_" fill="#9BD3FF" fill-rule="nonzero"></path>
                        <path d="M25.6225928,53.9295913 L13.5936656,53.9295913 C13.2513791,53.9295913 13.0068887,53.6851009 13.0068887,53.3428144 L13.0068887,40.7271103 C13.0068887,40.3848237 13.2513791,40.1403333 13.5936656,40.1403333 C13.9359522,40.1403333 14.1804426,40.3848237 14.1804426,40.7271103 L14.1804426,52.7560374 L25.5736947,52.7560374 C25.9159813,52.7560374 26.1604717,53.0005278 26.1604717,53.3428144 C26.2093697,53.6362028 25.9648793,53.9295913 25.6225928,53.9295913 Z" id="XMLID_1921_" fill="#9BD3FF" fill-rule="nonzero"></path>
                        <path d="M86.1584132,53.9295913 L73.5427091,53.9295913 C73.2004226,53.9295913 72.9559322,53.6851009 72.9559322,53.3428144 C72.9559322,53.0005278 73.2004226,52.7560374 73.5427091,52.7560374 L85.5716362,52.7560374 L85.5716362,41.3138872 C85.5716362,40.9716007 85.8161266,40.7271103 86.1584132,40.7271103 C86.5006997,40.7271103 86.7451901,40.9716007 86.7451901,41.3138872 L86.7451901,53.3428144 C86.7451901,53.6362028 86.4518016,53.9295913 86.1584132,53.9295913 Z" id="XMLID_1920_" fill="#9BD3FF" fill-rule="nonzero"></path>
                        <path d="M85.8161266,24.9819292 C85.4738401,24.9819292 85.2293497,24.7374388 85.2293497,24.3951523 L85.2293497,12.3662251 L73.8360976,12.3662251 C73.493811,12.3662251 73.2493206,12.1217347 73.2493206,11.7794482 C73.2493206,11.4371616 73.493811,11.1926713 73.8360976,11.1926713 L85.8650247,11.1926713 C86.2073113,11.1926713 86.4518016,11.4371616 86.4518016,11.7794482 L86.4518016,24.3951523 C86.4518016,24.7374388 86.1584132,24.9819292 85.8161266,24.9819292 Z" id="XMLID_1919_" fill="#9BD3FF" fill-rule="nonzero"></path>
                        <path d="M155.69148,18.2828925 L98.4807288,18.2828925 C97.6983596,18.2828925 97.6983596,19.5053445 98.4807288,19.5053445 L155.69148,19.5053445 C156.424951,19.5053445 156.424951,18.2828925 155.69148,18.2828925 Z" id="XMLID_103_" fill="#FFD423"></path>
                        <path d="M155.69148,26.9867504 L98.4807288,26.9867504 C97.6983596,26.9867504 97.6983596,28.2092023 98.4807288,28.2092023 L155.69148,28.2092023 C156.424951,28.1603043 156.424951,26.9867504 155.69148,26.9867504 Z" id="XMLID_102_" fill="#FFD423"></path>
                        <path d="M155.69148,35.6417102 L98.4807288,35.6417102 C97.6983596,35.6417102 97.6983596,36.8641621 98.4807288,36.8641621 L155.69148,36.8641621 C156.424951,36.8641621 156.424951,35.6417102 155.69148,35.6417102 Z" id="XMLID_99_" fill="#FFD423"></path>
                        <path d="M155.69148,44.29667 L98.4807288,44.29667 C97.6983596,44.29667 97.6983596,45.5191219 98.4807288,45.5191219 L155.69148,45.5191219 C156.424951,45.5191219 156.424951,44.29667 155.69148,44.29667 Z" id="XMLID_96_" fill="#FFD423"></path>
                        <rect id="XMLID_94_" fill="#FFD423" x="136.86572" y="51.7291778" width="17.9944927" height="17.9944927"></rect>
                        <path d="M75.6453264,35.7395063 C75.2541418,35.4461179 74.765161,35.4950159 74.3739764,35.6906083 C74.2761803,35.6906083 74.2272822,35.7395063 74.129486,35.7884044 C74.0316899,35.8862006 73.9338937,35.9839967 73.8360976,36.0817929 C73.5916072,36.3262833 73.3960149,36.6685698 73.3471168,37.0108564 C73.2004226,38.0866141 74.4228745,39.1623718 75.4497341,38.5266968 C75.7431226,38.4289006 75.987613,38.2333083 76.1343072,37.9399198 C76.5743899,37.2064487 76.2810015,36.179589 75.6453264,35.7395063 Z" id="XMLID_83_" fill="#FFFFFF" fill-rule="nonzero"></path>
                    </g>
                    <g id="Chair_1" transform="translate(22.825514, 205.245820)" fill-rule="nonzero">
                        <path d="M114.482632,239.967331 C108.859352,206.472146 102.869337,162.647241 97.2460581,129.152056 C96.7570773,126.279294 92.4173727,127.501746 92.9063535,130.374508 C98.5296328,163.869693 104.519648,207.694598 110.142927,241.189783 C110.631908,244.001423 114.971612,242.778971 114.482632,239.967331 Z" id="XMLID_624_" fill="#D24A43"></path>
                        <path d="M164.72541,239.967331 C159.10213,206.472146 153.478851,172.976961 147.916694,139.481775 C147.427714,136.609013 143.088009,137.831465 143.57699,140.704227 C149.200269,174.199413 154.823548,207.694598 160.385705,241.189783 C160.874686,244.001423 165.21439,242.778971 164.72541,239.967331 Z" id="XMLID_623_" fill="#D24A43"></path>
                        <path d="M31.1725265,128.235217 C27.5051704,162.280506 24.20455,206.594391 20.5371939,240.63968 C20.2315809,243.512442 24.7546534,243.512442 25.0602664,240.63968 C28.7276225,206.594391 32.0282429,162.280506 35.695599,128.235217 C36.001212,125.362455 31.4781395,125.362455 31.1725265,128.235217 Z" id="XMLID_622_" fill="#D24A43"></path>
                        <path d="M83.7990859,46.5754219 L77.6257032,14.852792 C75.9142704,6.1733827 69.6186425,0.061122601 62.2839304,0.061122601 L16.0752441,0.061122601 C5.92889229,0.061122601 -1.58918763,11.6744168 0.733471212,23.7766918 L6.90685391,55.4381991 C8.61828674,64.1176084 14.9139146,70.2298685 22.2486268,70.2298685 L68.4573131,70.2298685 C78.6036648,70.2298685 86.1217448,58.6776969 83.7990859,46.5754219 Z" id="XMLID_571_" fill="#D24A43"></path>
                        <path d="M15.4028954,17.6644317 C14.1804434,16.8698379 12.5912558,17.1143283 11.7355394,18.3367803 C11.6132942,18.4590255 11.5521716,18.6423933 11.4299264,18.7646385 C10.6353326,19.8648453 10.879823,21.6374007 12.102275,22.4319946 C13.324727,23.2265884 14.9139146,22.982098 15.769631,21.7596459 L16.0752441,21.3317877 C16.8087153,20.1704583 16.6253475,18.3979029 15.4028954,17.6644317 Z" id="XMLID_564_" fill="#FFFFFF"></path>
                        <path d="M18.0311673,32.6394689 C16.8087153,31.8448751 15.2195276,32.0893655 14.3638112,33.3118175 C14.241566,33.4340627 14.1804434,33.6174305 14.0581982,33.7396757 C13.2636044,34.8398825 13.5080948,36.612438 14.7305468,37.4070318 C15.9529989,38.2016256 17.5421865,37.9571352 18.3979029,36.7346832 L18.7035159,36.306825 C19.4981097,35.1454956 19.2536193,33.3729401 18.0311673,32.6394689 Z" id="XMLID_563_" fill="#FFFFFF"></path>
                        <path d="M25.5492472,17.6644317 C24.3267952,16.8698379 22.7376076,17.1143283 21.8818911,18.3367803 C21.7596459,18.4590255 21.6985233,18.6423933 21.5762781,18.7646385 C20.7816843,19.8648453 21.0261747,21.6374007 22.2486268,22.4319946 C23.4710788,23.2265884 25.0602664,22.982098 25.9159828,21.7596459 L26.2215958,21.3317877 C26.955067,20.1704583 26.7105766,18.3979029 25.5492472,17.6644317 Z" id="XMLID_562_" fill="#FFFFFF"></path>
                        <path d="M20.7205617,47.6145062 C19.4981097,46.8199123 17.9089221,47.0644027 17.0532057,48.2868548 C16.9309605,48.4091 16.8698379,48.5924678 16.7475927,48.714713 C15.9529989,49.8149198 16.1974893,51.5874752 17.4199413,52.382069 C18.6423933,53.1766628 20.2315809,52.9321724 21.0872973,51.7097204 L21.3929103,51.2818622 C22.1263815,50.1205328 21.8818911,48.3479774 20.7205617,47.6145062 Z" id="XMLID_561_" fill="#FFFFFF"></path>
                        <path d="M24.0823048,65.4623056 C22.4319946,65.2178152 20.8428069,64.9122022 19.3147419,64.3620988 C23.287711,85.7550092 27.1995574,107.147919 31.1725265,128.54083 C32.6394689,128.296339 34.1675339,128.112972 35.6344764,127.990726 C31.7837525,107.147919 27.9330286,86.3051126 24.0823048,65.4623056 Z" id="XMLID_181_" fill="#D24A43"></path>
                        <path d="M124.751229,121.817344 L25.0602664,121.817344 C21.3317877,121.817344 21.3317877,134.225232 25.0602664,134.225232 L124.751229,134.225232 C128.479707,134.225232 128.479707,121.817344 124.751229,121.817344 Z" id="XMLID_180_" fill="#D24A43"></path>
                    </g>
                    <g id="Code" transform="translate(383.621208, 111.399758)" fill-rule="nonzero">
                        <rect id="XMLID_642_" fill="#000000" x="0.0721416474" y="10.2914663" width="67.6627193" height="52.1375786"></rect>
                        <path d="M50.4371648,21.1712892 L15.1694241,21.1712892 C14.1914625,21.1712892 14.1914625,22.6993543 15.1694241,22.6993543 L50.4371648,22.6993543 C51.4151265,22.6382317 51.4151265,21.1712892 50.4371648,21.1712892 Z" id="XMLID_120_" fill="#FFFFFF"></path>
                        <path d="M50.4371648,30.1563116 L15.1694241,30.1563116 C14.1914625,30.1563116 14.1914625,31.6843766 15.1694241,31.6843766 L50.4371648,31.6843766 C51.4151265,31.6843766 51.4151265,30.1563116 50.4371648,30.1563116 Z" id="XMLID_119_" fill="#FFFFFF"></path>
                        <path d="M50.4371648,39.1413339 L15.1694241,39.1413339 C14.1914625,39.1413339 14.1914625,40.669399 15.1694241,40.669399 L50.4371648,40.669399 C51.4151265,40.669399 51.4151265,39.1413339 50.4371648,39.1413339 Z" id="XMLID_118_" fill="#FFFFFF"></path>
                        <path d="M40.9020391,48.1874789 L14.9860563,48.1874789 C14.2525851,48.1874789 14.2525851,49.7155439 14.9860563,49.7155439 L40.9020391,49.7155439 C41.5743877,49.6544213 41.5743877,48.1874789 40.9020391,48.1874789 Z" id="XMLID_117_" fill="#FFFFFF"></path>
                        <path d="M11.9910488,26.0610973 C11.807681,26.0610973 11.6243132,25.9999747 11.4409454,25.8166069 L7.71246677,21.9047605 C7.40685376,21.5991475 7.46797636,21.1712892 7.71246677,20.8656762 L11.4409454,17.1371976 C11.7465584,16.8315846 12.2355392,16.8315846 12.4800296,17.1371976 C12.7856426,17.4428106 12.7856426,17.9317914 12.4800296,18.1762818 L9.24053179,21.4157796 L12.4800296,24.8386453 C12.7856426,25.1442583 12.72452,25.6332391 12.4800296,25.8777295 C12.3577844,25.9388521 12.1744166,26.0610973 11.9910488,26.0610973 Z" id="XMLID_2010_" fill="#FFFFFF"></path>
                        <path d="M44.2637821,53.994126 C44.0804143,53.994126 43.8970465,53.9330034 43.7136787,53.7496356 C43.4080657,53.4440226 43.4080657,52.9550417 43.7136787,52.7105513 L46.9531766,49.4710535 L43.7136787,46.0481878 C43.4080657,45.7425748 43.4691883,45.253594 43.7136787,45.0091036 C44.0192917,44.7034906 44.5082725,44.7646132 44.752763,45.0091036 L48.4812416,48.9209501 C48.7868546,49.2265631 48.725732,49.6544213 48.4812416,49.9600343 L44.752763,53.688513 C44.6305177,53.9330034 44.4471499,53.994126 44.2637821,53.994126 Z" id="XMLID_2007_" fill="#FFFFFF"></path>
                        <path d="M77.6978449,0.389604916 C75.3140634,2.65114115 72.930282,4.91267739 70.5465006,7.11309102 C69.8741519,7.78543963 70.9132362,8.82452385 71.5855848,8.15217524 C73.9693662,5.890639 76.3531476,3.62910277 78.7369291,1.42868913 C79.4704003,0.756340522 78.3701935,-0.282743694 77.6978449,0.389604916 Z" id="XMLID_353_" fill="#BCD7FD"></path>
                    </g>
                    <g id="Chair_2" transform="translate(280.151664, 320.767536)" fill="#D24A43" fill-rule="nonzero">
                        <path d="M116.132942,125.240209 C109.592824,83.6768407 103.052705,42.1134721 96.5125869,0.550103409 C95.1678897,1.28357462 93.7620699,1.83367803 92.2340049,2.32265884 C98.7130006,43.3359241 105.130874,84.4103119 111.609869,125.423577 C112.09885,128.296339 116.621923,128.112972 116.132942,125.240209 Z" id="XMLID_634_"></path>
                        <path d="M103.052705,3.78960126 L3.36174305,3.78960126 C-0.366735606,3.78960126 -0.366735606,16.1974893 3.36174305,16.1974893 L103.052705,16.1974893 C106.720061,16.1974893 106.781184,3.78960126 103.052705,3.78960126 Z" id="XMLID_632_"></path>
                    </g>
                    <g id="Man_1" transform="translate(209.249447, 106.227206)">
                        <g id="Body_1_" transform="translate(51.954211, 36.062335)" fill="url(#linearGradient-1)">
                            <path d="M51.46523,2.87276225 C23.9600596,-0.122245202 16.6864701,-4.40082727 10.9409456,20.6594391 C5.19542108,45.7197055 0.427858207,93.7009473 0.427858207,93.7009473 L42.7246981,116.988658 L123.284286,116.988658 C123.284286,116.988658 125.790313,0.916839014 96.2680965,1.16132942 C74.3250828,1.34469722 51.46523,2.87276225 51.46523,2.87276225 Z" id="XMLID_618_"></path>
                        </g>
                        <g id="Hand_4_" transform="translate(85.571641, 72.124669)" fill-rule="nonzero">
                            <path d="M49.7537972,50.7928814 C22.5542398,55.4993217 6.2956279,63.3841372 0.305613005,65.8901638 L0.550103409,80.6207107 L74.0805924,80.8652011 C70.0465007,68.8240487 60.4502524,56.8440189 49.7537972,50.7928814 Z" id="XMLID_2199_" fill="#FFCEA6"></path>
                            <path d="M51.7097204,0.61122601 C51.7097204,0.122245202 50.9762492,0.122245202 50.9762492,0.61122601 C50.6095136,16.5642249 50.242778,32.5172237 49.8760424,48.4702226 C49.8760424,48.8369582 50.3650232,48.9592034 50.548391,48.6535904 C50.7928814,48.2257322 51.7097204,0.61122601 51.7097204,0.61122601 Z" id="XMLID_538_" fill="#FFFFFF"></path>
                        </g>
                        <g id="Hand_3_" transform="translate(0.000000, 39.118465)" fill-rule="nonzero">
                            <path d="M90.7059398,84.4103119 C90.3392042,83.5545955 63.0785242,41.8078591 42.6635755,21.1484199 C42.6024529,21.0872973 42.6024529,20.9650521 42.5413303,20.9039295 C39.7296906,17.4199413 36.3679476,14.4249338 32.5783463,12.0411524 C31.7837525,11.5521716 30.9280361,11.0631908 30.0111971,10.5130874 C28.1163964,9.10726754 26.2215958,7.57920252 24.4490404,5.99001489 C23.0432206,4.76756288 20.0482131,0.550103409 17.6644317,1.22245202 C17.2365735,1.34469722 16.9309605,1.58918763 16.6864701,1.89480063 C16.6253475,1.95592323 16.6253475,1.95592323 16.6253475,2.01704583 C16.1363667,2.81163964 16.1974893,3.85072386 16.5031023,4.70644027 C16.9920831,6.2956279 18.0922899,7.57920252 19.4369871,8.61828674 C21.5762781,11.3688038 20.4760713,13.2636044 18.4590255,12.4690106 C16.6253475,11.3688038 14.6694242,10.4519648 12.5912558,9.90186136 C11.8577846,9.59624835 11.1243134,9.29063535 10.3297196,9.04614494 C8.25155113,4.82868548 5.01205328,-0.855716413 3.36174305,0.305613005 C1.83367803,1.65031023 0.672348611,4.40082727 1.40581982,7.27358951 C0.122245202,8.19042853 0.61122601,11.796662 1.22245202,13.4469722 C2.99500745,18.3367803 3.91184646,20.3538261 7.39583472,24.3267952 C11.0631908,28.483132 20.2927035,30.0111971 24.815776,32.7617141 C29.7055841,36.6735606 56.6606511,91.8061466 55.1937087,91.5005336 C55.0714635,91.5005336 91.6839014,86.549603 90.7059398,84.4103119 Z" id="XMLID_585_" fill="#FFCEA6"></path>
                            <path d="M27.6274156,20.9039295 C24.6935308,18.7035159 22.6153624,15.7085084 21.6374007,12.1633976 C21.5151555,11.6744168 20.7816843,11.9189072 20.9039295,12.3467654 C21.9430137,16.0752441 24.1434274,19.1924967 27.1995574,21.5151555 C27.6274156,21.8818911 27.9941512,21.2095425 27.6274156,20.9039295 Z" id="XMLID_567_" fill="#B5855E"></path>
                            <path d="M12.2245202,18.0922899 C11.2465586,17.2365735 10.3297196,16.9309605 9.04614494,16.6253475 C8.12930593,16.3808571 8.37379633,16.7475927 8.12930593,15.769631 C8.00706073,15.2806502 8.00706073,14.6694242 7.88481552,14.1804434 C7.33471212,11.4299264 6.0511375,8.92389974 4.27858207,6.72348611 C3.97296906,6.3567505 3.42286565,6.90685391 3.72847866,7.27358951 C5.99001489,10.0852292 7.21246691,13.3858496 7.39583472,16.9920831 C7.39583472,17.1754509 7.57920252,17.3588187 7.76257032,17.3588187 C9.22951275,17.2365735 10.5130874,17.6644317 11.6132942,18.6423933 C12.0411524,18.8868837 12.5912558,18.3979029 12.2245202,18.0922899 Z" id="XMLID_566_" fill="#B5855E"></path>
                            <path d="M13.2636044,13.63034 C12.1633976,12.6523784 10.9409456,12.2856428 9.53512575,12.4690106 C8.80165454,8.67940934 6.78460871,5.31766628 3.72847866,2.87276225 C3.36174305,2.56714924 2.81163964,3.11725265 3.17837525,3.42286565 C6.2345053,5.86776969 8.19042853,9.16839014 8.86277714,13.019114 C8.92389974,13.2024818 9.16839014,13.324727 9.35175795,13.2636044 C10.6353326,12.9579914 11.7355394,13.2636044 12.7746236,14.1804434 C13.1413592,14.4860564 13.63034,13.935953 13.2636044,13.63034 Z" id="XMLID_565_" fill="#B5855E"></path>
                            <path d="M10.3297196,21.5151555 C9.47400315,19.8648453 7.45695732,19.6814775 6.66236351,17.9089221 C5.50103409,15.464018 4.70644027,12.7746236 3.78960126,10.268597 C3.60623346,9.84073876 2.87276225,10.0241066 3.05613005,10.4519648 C4.03409166,13.019114 4.88980808,15.7085084 5.99001489,18.2145351 C6.2956279,18.8868837 6.6012409,19.3758645 7.15134431,19.8648453 C8.00706073,20.5983165 9.16839014,20.7816843 9.71849355,21.8818911 C9.90186136,22.370872 10.57421,22.0041363 10.3297196,21.5151555 Z" id="XMLID_560_" fill="#B5855E"></path>
                            <path d="M77.809071,25.6714924 C77.3812128,34.9010052 77.0144772,44.1916405 76.586619,53.4211532 C76.586619,53.910134 77.3200902,53.910134 77.3200902,53.4211532 C77.7479484,44.1916405 78.114684,34.9010052 78.5425422,25.6714924 C78.5425422,25.1825116 77.809071,25.1825116 77.809071,25.6714924 Z" id="XMLID_537_" fill="#FFFFFF"></path>
                        </g>
                        <g id="Legs_1_" transform="translate(37.896013, 152.195276)" fill-rule="nonzero">
                            <path d="M110.081804,188.624347 C110.570785,172.610225 110.815276,152.684257 110.815276,138.137078 C98.4685102,140.154124 86.3051126,139.237285 73.7749794,139.665143 C80.0094847,168.148275 80.2539751,170.654302 72.7970177,172.671348 C64.3620988,174.932884 64.789957,184.834745 65.2789378,188.624347 L110.081804,188.624347 Z" id="XMLID_2044_" fill="#FFCEA6"></path>
                            <path d="M56.5995285,188.624347 C57.6386127,173.404819 58.2498387,152.623135 57.7608579,137.892588 C52.9321724,138.014833 23.5322014,137.281362 21.7596459,137.403607 C26.8328218,158.063046 29.2777259,171.326651 18.5201481,173.649309 C10.0241066,175.482987 10.9409456,184.895868 11.6744168,188.624347 L56.5995285,188.624347 Z" id="XMLID_2042_" fill="#FFCEA6"></path>
                            <path d="M110.081804,188.624347 C110.387417,178.294627 110.570785,166.314597 110.69303,155.190284 C96.7570773,156.473858 85.5105187,156.473858 77.0144772,155.190284 C79.7038717,169.248482 78.5425422,171.143283 72.7358951,172.671348 C64.3009762,174.932884 64.7288344,184.834745 65.2178152,188.624347 L110.081804,188.624347 Z" id="XMLID_188_" fill="#008EFF"></path>
                            <path d="M56.5995285,188.624347 C57.2718771,178.722485 57.7608579,166.559088 57.8831031,155.190284 C47.1255253,156.596104 36.306825,156.351613 25.4881246,155.190284 C26.955067,165.581126 25.732615,172.121244 18.4590255,173.649309 C9.96298396,175.482987 10.879823,184.895868 11.6132942,188.624347 L56.5995285,188.624347 Z" id="XMLID_187_" fill="#008EFF"></path>
                            <path d="M110.081804,188.624347 C110.265172,182.939945 110.387417,176.766562 110.509663,170.532057 C106.536693,172.73247 102.380357,173.771555 97.5516711,171.876754 C94.2510507,170.593179 90.5836946,167.353681 86.9774612,167.048068 C83.7990859,166.742455 80.5595881,167.720417 77.809071,169.43185 C76.9533546,171.204405 75.3030444,171.937877 72.7970177,172.671348 C64.3620988,174.932884 64.789957,184.834745 65.2789378,188.624347 L110.081804,188.624347 Z" id="XMLID_186_" fill="#000000"></path>
                            <path d="M56.5995285,188.624347 C56.9051415,183.856784 57.2107545,178.539117 57.3941223,173.099206 C53.7267662,174.260535 49.7537972,173.954922 45.4140925,172.121244 C39.4852002,169.554095 30.7446683,163.31959 24.9380212,169.43185 C24.6935308,169.737463 24.3879178,169.920831 24.0823048,170.104198 C22.8598528,171.937877 21.0261747,173.099206 18.3979029,173.710432 C9.90186136,175.54411 10.8187004,184.956991 11.5521716,188.685469 L56.5995285,188.685469 L56.5995285,188.624347 Z" id="XMLID_185_" fill="#000000"></path>
                            <path d="M12.5912558,0.122245202 C2.01704583,7.02909911 -3.54511086,22.0652589 3.72847866,65.401183 C10.5130874,105.98659 15.5862632,129.029811 19.0091289,143.454744 C21.8207685,143.454744 50.9762492,143.943725 59.5334133,143.943725 C60.0223941,105.436487 55.8049347,72.9192629 55.8049347,72.9192629 C90.6448172,71.6356883 85.5105187,33.3118175 78.7870326,0.183367803 L12.5912558,0.183367803 L12.5912558,0.122245202 Z" id="XMLID_184_" fill="#008EFF"></path>
                            <path d="M53.2377854,58.1275935 C54.5824827,65.7679186 55.7438121,72.8581403 55.7438121,72.8581403 C74.2639602,72.1857917 81.4764271,61.0003558 83.1878599,45.7197055 C73.3471212,50.3039006 63.567505,55.0714635 53.2377854,58.1275935 Z" id="XMLID_183_" fill="#000000"></path>
                            <path d="M60.0835167,0.122245202 C55.4381991,9.04614494 54.7658505,26.5883314 59.4111681,60.0835167 C64.7288344,98.346265 67.6015967,127.196133 69.2519069,143.210254 C81.6597949,143.149131 99.6298396,143.699235 112.037728,142.965764 C114.482632,103.541686 111.793237,74.447328 111.793237,74.447328 C123.83439,74.0194698 130.863489,68.9462939 134.591967,61.1837236 C141.621066,46.5142993 136.914626,22.0041363 132.330431,0.183367803 L60.0835167,0.183367803 L60.0835167,0.122245202 Z" id="XMLID_182_" fill="#008EFF"></path>
                            <path d="M88.4444036,0.122245202 C99.5075944,12.1633976 118.149988,15.6473858 134.836458,12.6523784 C134.041864,8.43491893 133.186147,4.21745947 132.269308,0.122245202 L88.4444036,0.122245202 Z" id="XMLID_179_" fill="#000000"></path>
                            <path d="M62.2228078,0.122245202 L60.8781106,0.122245202 C55.4381991,4.21745947 55.0714635,12.8357462 55.0714635,19.3147419 C55.0103409,29.8278293 55.8660573,40.3409166 57.4552449,50.7317588 C57.5163675,51.2207396 58.2498387,51.0373718 58.1887161,50.548391 C56.7217737,41.196633 55.9271799,31.7226299 55.8049347,22.2486268 C55.7438121,15.0972824 55.2548313,4.21745947 62.2228078,0.122245202 Z" id="XMLID_172_" fill="#000000"></path>
                            <path d="M122.67306,62.8340338 C119.066827,62.1616852 115.216103,61.0003558 111.793237,59.1666777 C111.793237,65.706796 111.793237,74.3862054 111.793237,74.3862054 C122.42857,73.9583472 129.152056,69.9853781 133.125025,63.6897502 C129.579914,63.7508728 125.973681,63.4452598 122.67306,62.8340338 Z" id="XMLID_160_" fill="#000000"></path>
                            <path d="M52.8099272,55.9271799 C52.3209464,54.7658505 51.8319656,53.604521 51.2818622,52.4431916 C51.0984944,52.0153334 50.4261458,52.382069 50.6095136,52.8099272 C51.0984944,53.9712567 51.5874752,55.1325861 52.1375786,56.2939155 C52.382069,56.7217737 52.993295,56.3550381 52.8099272,55.9271799 Z" id="XMLID_126_" fill="#FFFFFF"></path>
                            <path d="M110.876398,52.5654368 C110.815276,52.076456 110.081804,52.076456 110.142927,52.5654368 C110.326295,53.910134 110.44854,55.2548313 110.631908,56.5384059 C110.69303,57.0273867 111.426502,57.0273867 111.365379,56.5384059 C111.243134,55.2548313 111.059766,53.910134 110.876398,52.5654368 Z" id="XMLID_125_" fill="#FFFFFF"></path>
                            <path d="M53.7267662,138.259323 L20.7205617,138.259323 C20.2315809,138.259323 20.2315809,138.992795 20.7205617,138.992795 L53.7267662,138.992795 C54.2157471,138.992795 54.2157471,138.259323 53.7267662,138.259323 Z" id="XMLID_124_" fill="#FFFFFF"></path>
                            <path d="M105.497609,138.259323 L72.4914047,138.259323 C72.0024239,138.259323 72.0024239,138.992795 72.4914047,138.992795 L105.497609,138.992795 C105.98659,138.992795 105.98659,138.259323 105.497609,138.259323 Z" id="XMLID_123_" fill="#FFFFFF"></path>
                        </g>
                        <g id="Head" transform="translate(85.571641, 0.000000)" fill-rule="nonzero">
                            <path d="M19.5592323,56.8440189 C23.4099562,59.5334133 27.0773122,59.5334133 30.1334423,58.0053483 C31.4170169,49.9982876 33.0673271,40.0964262 33.3729401,39.7296906 L16.1974893,32.8839593 L11.3688038,39.6074454 C11.9800298,45.4140925 14.7916694,53.5433984 19.5592323,56.8440189 Z" id="XMLID_2204_" fill="#FFCEA6"></path>
                            <path d="M30.9891587,52.687682 C32.0893655,46.2086863 33.1284497,40.0353036 33.3729401,39.7296906 L24.0823048,36.4290702 C23.3488336,42.1745947 26.7105766,48.1646096 30.9891587,52.687682 Z" id="XMLID_609_" fill="#000000"></path>
                            <path d="M5.07317588,13.5080948 C6.96797651,7.33471212 18.2145351,3.54511086 25.8548602,4.76756288 C29.2166033,5.31766628 30.6835457,2.93388485 31.6003847,5.56215669 C33.8619209,12.102275 41.6244913,32.0893655 39.1795872,38.3849934 C35.695599,47.4922609 23.7766918,46.3309315 17.4199413,40.7687748 C11.0020682,35.1454956 2.38378144,22.3097494 5.07317588,13.5080948 Z" id="XMLID_2200_" fill="#FFCEA6"></path>
                            <path d="M30.2556875,0.183367803 C26.7716992,-0.550103409 22.0041363,2.44490404 20.0482131,4.70644027 C13.019114,3.66735606 5.68440189,7.27358951 4.21745947,12.0411524 C-4.58419507,15.158405 2.87276225,33.6174305 10.8187004,33.2506949 C13.019114,31.6003847 13.2024818,29.2166033 14.6694242,26.4660862 C21.5151555,21.6374007 19.9259679,15.4028954 19.4981097,12.0411524 C21.8207685,12.8357462 31.4781395,8.67940934 32.5172237,5.92889229 C33.6785531,1.83367803 31.3558943,0.427858207 30.2556875,0.183367803 Z" id="XMLID_606_" fill="#952C28"></path>
                            <path d="M27.0161896,21.5151555 L26.343841,18.7035159 C26.2215958,18.2145351 25.427002,18.3979029 25.5492472,18.9480063 C25.7937376,19.8648453 25.9771054,20.8428069 26.2215958,21.7596459 C26.4049636,22.2486268 27.1384348,22.0041363 27.0161896,21.5151555 Z" id="XMLID_559_" fill="#000000"></path>
                            <path d="M34.4731469,19.1924967 L33.8007983,16.3808571 C33.6785531,15.8918763 32.8839593,16.0752441 33.0062045,16.6253475 C33.2506949,17.5421865 33.4340627,18.5201481 33.6785531,19.4369871 C33.8007983,19.9259679 34.5953921,19.7426001 34.4731469,19.1924967 Z" id="XMLID_558_" fill="#000000"></path>
                            <path d="M35.389986,23.9600596 C35.1454956,23.4710788 34.4731469,23.898937 34.7176373,24.3879178 C35.0232504,24.9991438 34.5953921,25.6714924 34.0452887,26.038228 C33.4951853,26.4049636 32.8228367,26.5272088 32.2116107,26.649454 C31.7226299,26.7716992 31.9059977,27.5051704 32.4561011,27.4440478 C33.3729401,27.26068 34.4120243,27.0161896 35.084373,26.2827184 C35.5733538,25.6103698 35.7567216,24.7546534 35.389986,23.9600596 Z" id="XMLID_557_" fill="#B5855E"></path>
                            <path d="M31.5392621,35.8789668 C30.8669135,36.001212 30.2556875,35.7567216 29.7667067,35.2677408 C29.3999711,34.9010052 28.8498677,35.4511086 29.2166033,35.8178442 C29.8889519,36.5513154 30.8057909,36.7958058 31.7837525,36.6735606 C32.2727333,36.5513154 32.0893655,35.7567216 31.5392621,35.8789668 Z" id="XMLID_555_" fill="#B5855E"></path>
                            <path d="M24.9991438,14.6694242 C24.5712856,14.9750372 24.0823048,15.2195276 23.6544466,15.5251406 C22.7987302,16.0752441 23.593324,17.4810639 24.4490404,16.9309605 C24.8768986,16.6253475 25.3658794,16.3808571 25.7937376,16.0752441 C26.7105766,15.5251406 25.9159828,14.1193208 24.9991438,14.6694242 Z" id="XMLID_552_" fill="#952C28"></path>
                            <path d="M33.8007983,13.3858496 C33.6174305,13.019114 33.0673271,12.8357462 32.7005915,13.0802366 C32.2727333,13.3858496 31.9059977,13.6914626 31.4781395,13.9970756 C31.1114039,14.241566 30.9280361,14.6694242 31.1725265,15.0972824 C31.3558943,15.464018 31.9059977,15.6473858 32.2727333,15.4028954 C32.7005915,15.0972824 33.0673271,14.7916694 33.4951853,14.4860564 C33.8619209,14.1804434 34.0452887,13.7525852 33.8007983,13.3858496 Z" id="XMLID_550_" fill="#952C28"></path>
                            <path d="M29.5222163,17.9089221 C29.2777259,17.4810639 28.483132,17.7866769 28.7887451,18.2145351 C30.1945649,20.5371939 29.6444615,23.593324 27.0161896,24.7546534 C24.3267952,25.9771054 21.3929103,24.2656726 20.7816843,21.4540329 C20.6594391,20.9650521 19.8648453,21.0872973 19.9870905,21.5762781 C20.6594391,24.6935308 23.7155692,26.7716992 26.8328218,25.6714924 C30.1945649,24.6324082 31.2947717,20.7816843 29.5222163,17.9089221 Z" id="XMLID_122_" fill="#FFFFFF"></path>
                            <path d="M40.0964262,13.6914626 C39.8519358,13.2636044 39.057342,13.5692174 39.362955,13.9970756 C40.7687748,16.3197345 40.2186714,19.3758645 37.5903996,20.5371939 C34.9010052,21.7596459 31.9671203,20.0482131 31.3558943,17.2365735 C31.2336491,16.7475927 30.4390553,16.8698379 30.5613005,17.3588187 C31.2336491,20.4760713 34.2897791,22.5542398 37.4070318,21.4540329 C40.7076522,20.3538261 41.8078591,16.5642249 40.0964262,13.6914626 Z" id="XMLID_121_" fill="#FFFFFF"></path>
                            <path d="M31.2336491,18.4590255 L30.0111971,19.0702515 C29.5222163,19.3147419 29.9500745,19.9870905 30.4390553,19.7426001 L31.6615073,19.1313741 C32.0893655,18.8868837 31.7226299,18.2145351 31.2336491,18.4590255 Z" id="XMLID_396_" fill="#FFFFFF"></path>
                            <path d="M20.9039295,23.287711 C17.5421865,24.0823048 13.5080948,25.5492472 10.1463518,26.2827184 C9.65737095,26.4049636 9.84073876,27.1995574 10.3908422,27.0773122 C13.8137078,26.2827184 17.9700447,24.815776 21.3929103,24.0211822 C21.2095425,23.7766918 21.0261747,23.5322014 20.9039295,23.287711 Z" id="XMLID_395_" fill="#FFFFFF"></path>
                            <path d="M5.13429848,31.7226299 C5.25654368,28.0552738 9.90186136,24.5712856 14.6694242,26.4660862 C15.9529989,30.2556875 17.4199413,33.9841661 18.8868837,37.7126448 C17.1754509,39.3018324 13.019114,40.7076522 10.0241066,39.5463228 C6.5401183,38.2016256 5.01205328,35.6344764 5.13429848,31.7226299 Z" id="XMLID_1908_" fill="#FFCEA6"></path>
                            <path d="M10.9409456,31.2336491 C10.4519648,30.9891587 10.0852292,31.7226299 10.5130874,31.9059977 C11.796662,32.5172237 13.019114,33.1895723 14.3026886,33.8007983 C14.6083016,33.9841661 14.9750372,33.6785531 14.9139146,33.3729401 C14.852792,33.2506949 11.9800298,31.7837525 10.9409456,31.2336491 Z" id="XMLID_393_" fill="#B5855E"></path>
                        </g>
                    </g>
                    <g id="Man_2" transform="translate(394.450928, 102.559850)">
                        <g id="Head_2_" transform="translate(72.735895, 0.000000)" fill-rule="nonzero">
                            <path d="M23.1654658,44.1305179 C23.9600596,44.4361309 40.7687748,69.1296617 40.7687748,69.1296617 L58.3720839,49.020326 L35.389986,31.9059977 L23.1654658,44.1305179 Z" id="XMLID_604_" fill="#8D5A3B"></path>
                            <path d="M28.5442546,51.46523 C25.732615,47.4311383 23.4099562,44.2527631 23.1043432,44.1305179 L27.6274156,39.5463228 C29.5222163,43.2748015 30.1945649,47.9812418 28.5442546,51.46523 Z" id="XMLID_603_" fill="#000000"></path>
                            <path d="M31.5392621,4.46194987 C26.649454,-0.366735606 14.241566,1.83367803 7.70144772,6.84573131 C4.82868548,9.04614494 2.20041363,7.57920252 2.68939444,10.5130874 C3.85072386,17.7866769 7.70144772,41.196633 12.2245202,45.0473569 C20.1704583,51.7097204 30.6224231,44.6806213 33.8007983,36.2457024 C36.918051,27.7496608 38.5072386,11.3688038 31.5392621,4.46194987 Z" id="XMLID_602_" fill="#8D5A3B"></path>
                            <path d="M0.550103409,9.65737095 C1.77255543,15.464018 12.4690106,12.4690106 17.9089221,9.71849355 C19.3758645,15.9529989 23.7766918,31.4170169 36.0623346,32.2727333 C41.0132652,21.2095425 40.5242844,4.58419507 33.3729401,5.13429848 C26.8328218,-3.97296906 14.1804434,1.89480063 7.64032512,6.96797651 C4.64531767,4.03409166 0.916839014,4.70644027 0.550103409,9.65737095 Z" id="XMLID_601_" fill="#000000"></path>
                            <path d="M32.0282429,19.1924967 C30.0111971,15.8307536 23.9600596,14.9750372 20.4760713,19.0702515 C21.1484199,23.287711 21.6985233,27.4440478 22.2486268,31.7226299 C24.6324082,32.3338559 29.2166033,31.5392621 31.4781395,28.9721129 C33.9841661,26.038228 34.1675339,22.7987302 32.0282429,19.1924967 Z" id="XMLID_599_" fill="#8D5A3B"></path>
                            <path d="M3.36174305,27.6885382 C3.17837525,26.038228 4.58419507,24.7546534 6.1733827,24.815776 C6.66236351,24.815776 7.09022171,25.427002 7.02909911,25.8548602 C7.02909911,25.9159828 6.96797651,25.9159828 6.96797651,25.9771054 C7.15134431,25.9771054 7.27358951,26.038228 7.45695732,26.038228 C8.61828674,26.4049636 7.94593813,28.177519 6.78460871,27.8107834 C6.78460871,27.8107834 6.72348611,27.871906 6.84573131,27.871906 C7.76257032,27.9941512 8.00706073,29.3388485 7.15134431,29.7055841 C5.50103409,30.3779327 3.54511086,29.3999711 3.36174305,27.6885382 Z" id="XMLID_595_" fill="#8D5A3B"></path>
                            <path d="M7.82369292,20.2315809 C7.64032512,21.1484199 7.39583472,22.0041363 7.21246691,22.9209754 C7.09022171,23.4099562 7.88481552,23.6544466 8.00706073,23.1654658 C8.19042853,22.2486268 8.43491893,21.3929103 8.61828674,20.4760713 C8.67940934,19.9259679 7.88481552,19.6814775 7.82369292,20.2315809 Z" id="XMLID_545_" fill="#000000"></path>
                            <path d="M27.5051704,21.1484199 C26.955067,21.8207685 26.4049636,22.4931172 25.8548602,23.2265884 C25.8548602,23.2265884 25.8548602,23.2265884 25.8548602,23.2265884 L25.427002,23.7766918 C25.121389,24.20455 25.6714924,24.7546534 26.038228,24.3879178 C26.7105766,23.5322014 27.4440478,22.676485 28.1163964,21.7596459 C28.4220094,21.3317877 27.8107834,20.7205617 27.5051704,21.1484199 Z" id="XMLID_543_" fill="#000000"></path>
                            <path d="M17.8477995,37.223664 C17.7866769,36.6735606 16.9920831,36.918051 17.0532057,37.4681544 C17.2976961,39.057342 16.5642249,40.6465296 15.2195276,41.5022461 C14.7916694,41.8078591 15.2195276,42.4802077 15.6473858,42.2357173 C17.2976961,41.1355104 18.0922899,39.2407098 17.8477995,37.223664 Z" id="XMLID_540_" fill="#000000"></path>
                            <path d="M9.65737095,15.8307536 C8.98502234,15.7085084 8.31267373,15.5862632 7.57920252,15.4028954 C7.15134431,15.3417728 6.66236351,15.5251406 6.5401183,15.9529989 C6.4178731,16.3808571 6.66236351,16.8698379 7.09022171,16.9920831 C7.76257032,17.1143283 8.43491893,17.2365735 9.16839014,17.4199413 C9.59624835,17.4810639 10.0852292,17.2976961 10.2074744,16.8698379 C10.3297196,16.4419797 10.0852292,15.8918763 9.65737095,15.8307536 Z" id="XMLID_539_" fill="#000000"></path>
                        </g>
                        <g id="Hand_2_" transform="translate(36.062335, 46.453177)" fill-rule="nonzero">
                            <path d="M71.4523205,31.7226299 C55.1325861,53.7267662 50.854004,65.2789378 50.854004,65.2789378 C50.854004,65.2789378 33.0062045,28.8498677 25.7937376,21.3929103 C25.7937376,21.3929103 4.70644027,13.8137078 2.07816843,17.6644317 C-0.550103409,21.5151555 0.550103409,29.0943581 2.13929103,33.6174305 C3.72847866,38.140503 9.90186136,40.6465296 15.8307536,40.0353036 C15.8307536,40.0353036 29.4610937,103.113828 41.5022461,105.7421 C53.4822758,108.370372 65.5234282,106.903429 66.9903707,106.720061 C75.058554,105.7421 106.475571,46.2086863 106.536693,44.1916405 C106.536693,42.1745947 71.4523205,31.7226299 71.4523205,31.7226299 Z" id="XMLID_548_" fill="#8D5A3B"></path>
                            <path d="M52.687682,69.0074165 C52.2598238,67.9683323 51.8319656,66.8681255 51.4041074,65.8290412 C51.2207396,65.401183 50.4872684,65.5845508 50.6706362,66.012409 C51.0984944,67.0514933 51.5263526,68.1517001 51.9542108,69.1907843 C52.1375786,69.6186425 52.8710498,69.4352747 52.687682,69.0074165 Z" id="XMLID_164_" fill="#FFFFFF"></path>
                            <g id="Cup_1_" transform="translate(2.444904, 0.000000)">
                                <rect id="XMLID_170_" fill="#008EFF" transform="translate(11.070257, 25.482764) rotate(8.870752) translate(-11.070257, -25.482764) " x="2.05502614" y="13.9921654" width="18.0304608" height="22.9811975"></rect>
                                <path d="M9.35175795,17.7255543 C8.67940934,22.2486268 8.00706073,26.7105766 7.39583472,31.2336491 C7.27358951,32.1504881 8.67940934,32.5783463 8.86277714,31.6615073 C9.53512575,27.1384348 10.2074744,22.676485 10.8187004,18.1534125 C10.9409456,17.1754509 9.47400315,16.7475927 9.35175795,17.7255543 Z" id="XMLID_166_" fill="#FFFFFF"></path>
                                <path d="M15.3417728,0.244490404 C12.0411524,1.83367803 10.3908422,5.68440189 11.491049,9.16839014 C11.796662,10.0852292 13.2024818,9.71849355 12.9579914,8.74053194 C12.0411524,5.86776969 13.4469722,2.81163964 16.1363667,1.52806502 C16.9920831,1.10020682 16.1974893,-0.183367803 15.3417728,0.244490404 Z" id="XMLID_141_" fill="#BCD7FD"></path>
                                <path d="M17.4199413,2.81163964 C15.2806502,4.21745947 14.1804434,6.6012409 14.547179,9.10726754 C14.6694242,10.0852292 16.1363667,9.65737095 16.0141215,8.67940934 C15.769631,6.84573131 16.6253475,5.07317588 18.2145351,4.09521426 C18.9480063,3.60623346 18.2145351,2.32265884 17.4199413,2.81163964 Z" id="XMLID_140_" fill="#BCD7FD"></path>
                            </g>
                            <g id="XMLID_29_" transform="translate(0.000000, 15.891876)">
                                <path d="M5.07317588,1.40581982 C4.33970467,1.16132942 3.97296906,2.01704583 4.27858207,2.50602664 C3.78960126,2.50602664 3.36174305,2.62827184 2.93388485,2.99500745 C1.71143283,3.97296906 1.89480063,5.99001489 3.17837525,6.84573131 C3.30062045,6.96797651 3.48398825,6.96797651 3.60623346,6.96797651 C3.66735606,7.64032512 3.78960126,8.31267373 4.03409166,8.80165454 C4.03409166,8.86277714 3.97296906,8.98502234 3.97296906,9.04614494 C3.54511086,9.10726754 3.11725265,9.35175795 2.68939444,9.77961615 C2.38378144,10.0852292 2.13929103,10.6353326 2.01704583,11.2465586 C0.794593813,12.8968688 -0.61122601,15.0361598 0.427858207,17.1754509 C1.03908422,18.3979029 2.38378144,19.1924967 3.78960126,18.8257611 C5.80664709,18.2756577 6.4178731,16.0141215 5.80664709,14.1804434 C5.86776969,14.0581982 5.86776969,13.935953 5.92889229,13.8137078 C5.99001489,13.63034 6.0511375,13.5080948 6.1122601,13.324727 C6.2345053,13.019114 6.2956279,12.6523784 6.3567505,12.2245202 C7.09022171,11.4299264 7.45695732,10.4519648 7.45695732,9.41288055 C8.06818333,8.74053194 8.55716413,7.88481552 8.74053194,7.15134431 C9.29063535,4.58419507 7.51807992,2.26153624 5.07317588,1.40581982 Z M3.97296906,4.15633687 C3.97296906,4.27858207 3.97296906,4.33970467 3.97296906,4.46194987 C3.97296906,4.64531767 4.03409166,4.76756288 4.09521426,4.88980808 C3.97296906,5.01205328 3.91184646,5.19542108 3.85072386,5.37878888 C3.48398825,5.01205328 3.60623346,4.40082727 3.97296906,4.15633687 Z" id="XMLID_167_" fill="#8D5A3B"></path>
                                <path d="M6.6012409,7.82369292 C4.64531767,7.33471212 3.23949785,5.74552449 2.87276225,3.78960126 C2.81163964,3.42286565 2.20041363,3.54511086 2.26153624,3.97296906 C2.62827184,6.1122601 4.27858207,7.88481552 6.4178731,8.43491893 C6.84573131,8.49604153 6.96797651,7.88481552 6.6012409,7.82369292 Z" id="XMLID_209_" fill="#000000"></path>
                                <path d="M4.76756288,11.7355394 C3.48398825,11.4299264 2.50602664,10.5130874 2.13929103,9.29063535 C2.01704583,8.92389974 1.46694242,9.04614494 1.52806502,9.47400315 C1.95592323,10.9409456 3.11725265,12.0411524 4.58419507,12.3467654 C5.01205328,12.407888 5.13429848,11.796662 4.76756288,11.7355394 Z" id="XMLID_210_" fill="#000000"></path>
                                <path d="M4.52307247,16.2586119 C3.30062045,16.0141215 2.32265884,15.0361598 2.13929103,13.7525852 C2.07816843,13.3858496 1.46694242,13.5080948 1.52806502,13.935953 C1.77255543,15.4028954 2.93388485,16.5642249 4.33970467,16.8698379 C4.76756288,16.9309605 4.95093068,16.3197345 4.52307247,16.2586119 Z" id="XMLID_211_" fill="#000000"></path>
                                <path d="M32.7617141,16.3808571 C32.5783463,12.7746236 30.8669135,8.06818333 27.8107834,5.50103409 C19.3147419,0.061122601 18.2145351,-0.550103409 17.1754509,0.366735606 C15.0972824,2.20041363 16.8698379,4.46194987 18.7646385,5.80664709 C19.1313741,6.4178731 20.5371939,7.88481552 20.8428069,8.12930593 C20.9650521,8.61828674 24.510163,16.3808571 25.5492472,17.6644317 C25.9159828,18.1534125 26.5883314,17.9700447 26.8328218,17.6033091 C27.4440478,17.7255543 28.1163964,17.6033091 28.6053773,17.2365735 C29.6444615,17.1143283 30.4390553,16.5031023 30.9891587,15.7085084 C31.1114039,16.0752441 31.1725265,16.3808571 31.2947717,16.7475927 C31.5392621,17.4199413 32.8228367,17.1754509 32.7617141,16.3808571 Z" id="XMLID_169_" fill="#8D5A3B"></path>
                                <path d="M25.3658794,16.1974893 C24.6935308,14.9139146 23.9600596,13.63034 23.287711,12.3467654 C23.1043432,11.9800298 22.5542398,12.2856428 22.7376076,12.6523784 L24.815776,16.5031023 C25.0602664,16.8698379 25.5492472,16.5642249 25.3658794,16.1974893 Z" id="XMLID_212_" fill="#000000"></path>
                            </g>
                        </g>
                        <g id="Legs_2_" transform="translate(0.000000, 153.417728)" fill-rule="nonzero">
                            <path d="M92.4173727,191.069251 C89.605733,178.539117 69.9853781,91.6227788 54.2157471,61.0614784 L36.7346832,58.0664709 L70.3521137,191.069251 L92.4173727,191.069251 L92.4173727,191.069251 Z" id="XMLID_197_" fill="#8D5A3B"></path>
                            <path d="M92.4173727,191.069251 C91.8061466,188.196488 90.2780816,181.473002 88.1387906,172.426857 C81.3541819,175.29962 73.8972246,176.583194 66.5625124,176.094213 L70.3521137,191.130373 L92.4173727,191.130373 L92.4173727,191.069251 Z" id="XMLID_195_" fill="#008EFF"></path>
                            <path d="M80.8652011,143.026886 C73.224876,113.382425 63.1396468,78.2980518 54.2157471,61.0003558 L36.7346832,58.0053483 L58.6776969,144.921687 C66.1346542,144.432706 73.530489,143.82148 80.8652011,143.026886 Z" id="XMLID_196_" fill="#000000"></path>
                            <path d="M180.372795,1.71143283 C156.657226,1.28357462 132.880534,0.061122601 109.164965,0.855716413 C109.531701,5.50103409 109.715069,8.25155113 109.715069,8.25155113 C109.715069,8.25155113 97.7350389,9.77961615 49.6926746,13.5080948 C1.65031023,17.2365735 -11.8577846,29.2777259 10.6964552,99.0186136 C33.2506949,168.759501 44.7417439,172.549103 30.6835457,176.033091 C12.6523784,180.556163 10.8187004,187.829753 10.9409456,191.008128 L74.0805924,191.008128 C68.0294549,109.470578 53.4211532,68.2128227 53.4211532,68.2128227 C53.4211532,68.2128227 53.4211532,68.2128227 96.2069739,68.9462939 C196.264672,70.7799719 185.445971,39.1795872 180.372795,1.71143283 Z" id="XMLID_193_" fill="#8D5A3B"></path>
                            <path d="M180.372795,1.71143283 C156.657226,1.28357462 132.880534,0.061122601 109.164965,0.855716413 C109.531701,5.50103409 109.715069,8.25155113 109.715069,8.25155113 C109.715069,8.25155113 97.7350389,9.77961615 49.6926746,13.5080948 C1.65031023,17.2365735 -11.8577846,29.2777259 10.6964552,99.0186136 C19.6814775,126.89052 26.8939444,144.188216 31.4781395,155.190284 C44.3138857,153.173238 57.2107545,151.767418 70.1076233,150.361598 C63.261892,95.7791157 53.4822758,68.2128227 53.4822758,68.2128227 C53.4822758,68.2128227 53.4822758,68.2128227 96.2680965,68.9462939 C196.264672,70.7799719 186.790669,62.5284208 180.372795,1.71143283 Z" id="XMLID_192_" fill="#000000"></path>
                            <path d="M74.141715,191.069251 C73.7138568,185.690462 73.2859986,180.495041 72.8581403,175.482987 C69.1296617,176.522072 65.3400604,177.072175 61.3059688,176.888807 C53.0544176,176.583194 44.8028665,173.465942 36.4901928,172.854716 C35.7567216,174.443903 33.9230435,175.29962 30.6835457,176.094213 C12.6523784,180.617286 10.8187004,187.890875 10.9409456,191.069251 L74.141715,191.069251 L74.141715,191.069251 Z" id="XMLID_191_" fill="#008EFF"></path>
                            <path d="M51.46523,66.5013898 C56.8440189,84.4714345 60.816988,102.93046 63.2007694,121.572853 C63.261892,122.061834 63.9953632,122.061834 63.9342406,121.572853 C61.5504592,102.93046 57.6386127,84.5325571 52.2598238,66.5013898 C51.9542108,66.4402672 51.7097204,66.5013898 51.46523,66.5013898 Z" id="XMLID_130_" fill="#FFFFFF"></path>
                            <path d="M123.773267,9.35175795 L112.771199,9.71849355 C112.282218,9.71849355 112.282218,10.5130874 112.771199,10.4519648 L123.773267,10.0852292 C124.262248,10.0852292 124.262248,9.35175795 123.773267,9.35175795 Z" id="XMLID_129_" fill="#FFFFFF"></path>
                            <path d="M75.7920252,178.050137 C75.7309026,177.561156 74.9974314,177.561156 75.058554,178.050137 C75.5475348,182.023106 76.0976382,186.057197 76.586619,190.030166 C76.6477416,190.519147 77.3812128,190.519147 77.3200902,190.030166 C76.8311094,186.057197 76.281006,182.084228 75.7920252,178.050137 Z" id="XMLID_128_" fill="#FFFFFF"></path>
                        </g>
                        <g id="Body" transform="translate(103.908422, 41.563369)">
                            <path d="M76.4643738,113.382425 L5.25654368,113.382425 C5.19542108,112.465586 5.07317588,111.487624 5.01205328,110.387417 C4.64531767,106.414448 4.21745947,101.463518 3.78960126,95.9013609 C3.72847866,94.9233993 3.60623346,93.9454377 3.54511086,92.9063535 C3.42286565,91.6227788 3.36174305,90.2780816 3.23949785,88.8722618 C3.17837525,87.8943002 3.11725265,86.9163386 2.99500745,85.8772544 C2.62827184,81.2319367 2.32265884,76.3421286 2.01704583,71.3911979 C1.95592323,70.4132363 1.89480063,69.3741521 1.83367803,68.3961905 C1.77255543,67.0514933 1.65031023,65.706796 1.58918763,64.4232214 C1.52806502,63.4452598 1.46694242,62.4061756 1.40581982,61.428214 C1.16132942,57.0273867 0.977961615,52.687682 0.794593813,48.4091 C0.733471212,47.4311383 0.733471212,46.3920541 0.672348611,45.4140925 C0.61122601,44.0693953 0.61122601,42.7246981 0.550103409,41.4411235 C0.550103409,40.4020392 0.488980808,39.4240776 0.488980808,38.446116 C0.366735606,32.5783463 0.366735606,27.0773122 0.550103409,22.4319946 C0.61122601,21.3929103 0.61122601,20.4149487 0.672348611,19.4369871 C0.733471212,18.8257611 0.733471212,18.2756577 0.794593813,17.6644317 C0.855716413,16.8698379 0.977961615,16.1363667 1.10020682,15.4028954 C1.28357462,14.3638112 1.52806502,13.324727 1.83367803,12.407888 C4.95093068,2.87276225 13.9970756,-1.77255543 19.0702515,0.916839014 C22.3097494,2.68939444 27.8107834,6.66236351 27.8107834,6.66236351 C30.2556875,8.43491893 32.5172237,10.3908422 34.7176373,12.407888 C35.7567216,13.3858496 36.7958058,14.3638112 37.7737674,15.4028954 C39.057342,16.6864701 40.279794,18.0311673 41.4411235,19.4369871 C42.2968399,20.4149487 43.1525563,21.3929103 43.9471501,22.4319946 C47.9201192,27.3829252 51.4041074,32.7617141 54.5213601,38.446116 C55.0714635,39.4240776 55.6215669,40.4631618 56.1105477,41.4411235 C56.7828963,42.7858207 57.4552449,44.0693953 58.0664709,45.4140925 C58.5554517,46.3920541 58.9833099,47.4311383 59.4722907,48.4091 C61.3670914,52.6265594 63.0785242,57.0273867 64.6065892,61.428214 C64.9733248,62.4061756 65.2789378,63.4452598 65.6456734,64.4232214 C66.0735316,65.7679186 66.5013898,67.0514933 66.9292481,68.3961905 C67.2348611,69.3741521 67.5404741,70.4132363 67.8460871,71.3911979 C69.2519069,76.2198834 70.4743589,81.0485689 71.5745657,85.8772544 C71.8190561,86.855216 72.0024239,87.8943002 72.2469143,88.8722618 C72.5525273,90.216959 72.7970177,91.5616562 73.0415082,92.9063535 C73.224876,93.8843151 73.4082438,94.9233993 73.5916116,95.9013609 C74.5084506,100.791169 75.2419218,105.680977 75.9142704,110.387417 C76.0365156,111.243134 76.1587608,112.037728 76.281006,112.893444 C76.4032512,113.015689 76.4643738,113.199057 76.4643738,113.382425 Z" id="XMLID_2045_" fill="#FFD423"></path>
                            <path d="M18.3367803,62.2839304 C17.2365735,52.8099272 16.1974893,43.3359241 15.0972824,33.8619209 C15.0361598,33.3729401 14.3026886,33.3729401 14.3638112,33.8619209 C15.464018,43.3359241 16.5031023,52.8099272 17.6033091,62.2839304 C17.8477995,62.2839304 18.0922899,62.2839304 18.3367803,62.2839304 Z" id="XMLID_150_" fill="#FFFFFF" fill-rule="nonzero"></path>
                            <g id="XMLID_208_" transform="translate(0.000000, 12.224520)" fill="#FFFFFF" fill-rule="nonzero">
                                <path d="M76.4643738,101.157905 L5.25654368,101.157905 C5.19542108,100.241066 5.07317588,99.263104 5.01205328,98.1628971 L76.0976382,98.1628971 C76.2198834,99.0186136 76.3421286,99.8132074 76.4643738,100.668924 C76.4032512,100.791169 76.4643738,100.974537 76.4643738,101.157905 Z" id="XMLID_190_"></path>
                                <path d="M72.3080369,76.6477416 L3.17837525,76.6477416 C3.11725265,75.66978 3.05613005,74.6918184 2.93388485,73.6527342 L71.6356883,73.6527342 C71.8801787,74.6306958 72.1246691,75.6086574 72.3080369,76.6477416 Z" id="XMLID_189_"></path>
                                <path d="M73.7138568,83.6157181 L3.72847866,83.6157181 C3.66735606,82.6377565 3.54511086,81.6597949 3.48398825,80.6207107 L73.1026308,80.6207107 C73.3471212,81.6597949 73.530489,82.6377565 73.7138568,83.6157181 Z" id="XMLID_497_"></path>
                                <path d="M37.83489,3.11725265 L1.16132942,3.11725265 C1.34469722,2.07816843 1.58918763,1.03908422 1.89480063,0.122245202 L34.7787599,0.122245202 C35.8178442,1.10020682 36.8569284,2.07816843 37.83489,3.11725265 Z" id="XMLID_412_"></path>
                                <path d="M44.0693953,10.0852292 L0.61122601,10.0852292 C0.672348611,9.04614494 0.672348611,8.06818333 0.733471212,7.09022171 L41.5633687,7.09022171 C42.4190851,8.06818333 43.2136789,9.10726754 44.0693953,10.0852292 Z" id="XMLID_134_"></path>
                                <path d="M56.2327929,29.0943581 L0.61122601,29.0943581 C0.61122601,28.0552738 0.550103409,27.0773122 0.550103409,26.0993506 L54.6436053,26.0993506 C55.1937087,27.0773122 55.6826895,28.1163964 56.2327929,29.0943581 Z" id="XMLID_410_"></path>
                                <path d="M59.5945359,36.1234572 L0.794593813,36.1234572 C0.733471212,35.1454956 0.733471212,34.1064113 0.672348611,33.1284497 L58.1887161,33.1284497 C58.6776969,34.1064113 59.1666777,35.084373 59.5945359,36.1234572 Z" id="XMLID_133_"></path>
                                <path d="M65.7679186,52.1375786 L1.58918763,52.1375786 C1.52806502,51.159617 1.46694242,50.1205328 1.40581982,49.1425712 L64.7288344,49.1425712 C65.09557,50.1205328 65.4623056,51.0984944 65.7679186,52.1375786 Z" id="XMLID_132_"></path>
                            </g>
                        </g>
                        <g id="Hand" transform="translate(33.006205, 109.409456)" fill-rule="nonzero">
                            <g id="XMLID_67_" transform="translate(0.000000, 1.222452)">
                                <path d="M127.440623,1.16132942 C127.073887,0.244490404 99.0797362,-0.794593813 90.0335912,1.03908422 L90.6448172,7.51807992 C59.9612715,8.00706073 40.0353036,13.324727 28.6664999,17.7866769 C21.2095425,19.5592323 9.04614494,21.9430137 5.68440189,25.732615 C1.71143283,30.2556875 -1.40581982,33.0062045 1.65031023,35.8789668 C1.28357462,36.5513154 2.62827184,39.3018324 4.09521426,38.5683612 C3.78960126,39.057342 4.70644027,40.5242844 7.09022171,40.6465296 C8.86277714,42.1745947 12.5301332,40.1575488 14.6694242,36.918051 C16.5642249,36.3679476 18.8257611,35.9400894 20.5983165,33.6174305 C20.5983165,33.6174305 29.5222163,37.9571352 40.7687748,31.5392621 C40.7687748,31.5392621 64.3620988,44.3750083 110.570785,40.1575488 C139.420653,37.529277 136.425645,24.0211822 127.440623,1.16132942 Z" id="XMLID_171_" fill="#8D5A3B"></path>
                                <path d="M94.4955411,7.70144772 C93.6398247,7.57920252 92.7229857,7.45695732 91.8672692,7.33471212 C91.3782884,7.27358951 91.1949206,8.00706073 91.6839014,8.06818333 C92.5396179,8.19042853 93.4564569,8.31267373 94.3121733,8.43491893 C94.8011541,8.49604153 94.9845219,7.76257032 94.4955411,7.70144772 Z" id="XMLID_165_" fill="#FFFFFF"></path>
                                <path d="M13.3858496,31.7837525 C11.0020682,34.0452887 8.98502234,36.6735606 7.39583472,39.5463228 C7.15134431,39.974181 7.82369292,40.3409166 8.06818333,39.9130584 C9.65737095,37.1014188 11.6132942,34.5342695 13.935953,32.3338559 C14.3026886,31.9671203 13.7525852,31.4170169 13.3858496,31.7837525 Z" id="XMLID_163_" fill="#000000"></path>
                                <path d="M10.268597,28.8498677 C7.64032512,31.4781395 5.68440189,34.5342695 4.40082727,38.0182578 C4.21745947,38.446116 4.95093068,38.6906064 5.13429848,38.2016256 C6.3567505,34.8398825 8.25155113,31.8448751 10.8187004,29.3388485 C11.185436,29.0332355 10.6353326,28.483132 10.268597,28.8498677 Z" id="XMLID_162_" fill="#000000"></path>
                                <path d="M8.74053194,26.2827184 C4.46194987,27.0773122 2.93388485,31.2947717 1.77255543,34.9621278 C1.65031023,35.4511086 2.38378144,35.6344764 2.50602664,35.1454956 C3.54511086,31.7226299 4.95093068,27.7496608 8.92389974,27.0161896 C9.41288055,26.955067 9.16839014,26.2215958 8.74053194,26.2827184 Z" id="XMLID_161_" fill="#000000"></path>
                            </g>
                            <path d="M138.870549,3.48398825 L72.9192629,3.48398825 C72.8581403,2.50602664 72.7970177,1.46694242 72.7358951,0.488980808 L138.014833,0.488980808 C138.259323,1.52806502 138.564936,2.50602664 138.870549,3.48398825 Z" id="Stripe" fill="#FFFFFF"></path>
                        </g>
                    </g>
                    <g id="Chair_3" transform="translate(451.294947, 166.738581)" fill="#D24A43" fill-rule="nonzero">
                        <path d="M100.974537,160.018969 L7.94593813,160.018969 C6.72348611,160.018969 5.68440189,159.041008 5.68440189,157.757433 C5.68440189,156.534981 6.66236351,155.495897 7.94593813,155.495897 L100.974537,155.495897 C111.732115,155.495897 121.02275,148.222307 123.651022,137.770343 L157.329575,2.13929103 C157.635188,0.916839014 158.85764,0.183367803 160.080092,0.488980808 C161.302544,0.794593813 162.036015,2.01704583 161.730402,3.23949785 L128.051849,138.870549 C124.873474,151.33956 113.74916,160.018969 100.974537,160.018969 Z" id="XMLID_2021_"></path>
                        <path d="M19.3147419,158.368659 C13.0802366,198.526208 6.78460871,238.622634 0.550103409,278.780183 C0.122245202,281.591823 4.46194987,282.814275 4.88980808,280.002635 C11.185436,239.478351 17.5421865,198.954066 23.8378144,158.490904 C22.3097494,158.490904 20.8428069,158.429782 19.3147419,158.368659 Z" id="XMLID_442_"></path>
                        <path d="M132.208186,279.269164 C125.668068,237.705795 119.127949,196.142426 112.587831,154.579058 C111.243134,155.312529 109.837314,155.862632 108.309249,156.351613 C114.788245,197.364879 121.206118,238.439266 127.685113,279.452532 C128.174094,282.325294 132.697167,282.141926 132.208186,279.269164 Z" id="XMLID_154_"></path>
                    </g>
                    <g id="Notebook_1_" transform="translate(406.064222, 203.674095)" fill="#000000" fill-rule="nonzero">
                        <path d="M22.7376076,50.1641929 C14.4249338,30.4215928 9.90186136,20.275241 1.58918763,0.532640896 C1.22245202,-0.323075518 -0.244490404,0.0436600881 0.122245202,0.960499103 C8.43491893,20.7030992 12.9579914,30.849451 21.2706651,50.5920511 C21.6985233,51.4477675 23.1654658,51.0810319 22.7376076,50.1641929 Z" id="XMLID_194_"></path>
                        <path d="M76.586619,50.1641929 L22.9209754,50.1641929 C21.9430137,50.1641929 21.9430137,51.6922579 22.9209754,51.6922579 L76.586619,51.6922579 C77.5645806,51.6311353 77.5645806,50.1641929 76.586619,50.1641929 Z" id="XMLID_513_"></path>
                    </g>
                    <g id="Notebook" transform="translate(226.975001, 180.796779)" fill-rule="nonzero">
                        <g id="XMLID_25_" transform="translate(12.224520, 0.000000)">
                            <rect id="XMLID_2192_" fill="#008EFF" x="15.9529989" y="0.183367803" width="12.5301332" height="30.5001779"></rect>
                            <rect id="XMLID_2126_" fill="#008EFF" x="0.427858207" y="7.64032512" width="12.5301332" height="30.5001779"></rect>
                            <rect id="XMLID_574_" fill="#9BD3FF" x="31.4170169" y="16.1363667" width="12.5301332" height="30.5001779"></rect>
                        </g>
                        <g id="XMLID_28_" transform="translate(0.000000, 22.498937)">
                            <g id="XMLID_27_" transform="translate(0.000000, 0.116425)">
                                <polygon id="XMLID_573_" fill="#000000" points="88.9333844 55.5604443 13.5080948 55.5604443 0.366735606 0.427858207 75.7920252 0.427858207"></polygon>
                                <path d="M103.602809,50.4261458 L49.937165,50.4261458 C48.9592034,50.4261458 48.9592034,51.9542108 49.937165,51.9542108 L103.602809,51.9542108 C104.58077,51.8930882 104.58077,50.4261458 103.602809,50.4261458 Z" id="XMLID_511_" fill="#000000"></path>
                                <path d="M32.9450819,29.5833389 C31.4170169,26.955067 29.8278293,24.3267952 28.2997642,21.6374007 C27.8107834,20.7816843 26.5272088,21.5762781 27.0161896,22.370872 C28.5442546,24.9991438 30.1334423,27.6274156 31.6615073,30.3168101 C32.1504881,31.1725265 33.4340627,30.4390553 32.9450819,29.5833389 Z" id="XMLID_136_" fill="#FFFFFF"></path>
                                <path d="M37.223664,29.7055841 C35.695599,27.1995574 34.2286565,24.6935308 32.7005915,22.1875041 C32.2116107,21.3317877 30.9280361,22.1263815 31.4170169,22.9209754 C32.9450819,25.427002 34.4120243,27.9330286 35.9400894,30.4390553 C36.4290702,31.2947717 37.7737674,30.5613005 37.223664,29.7055841 Z" id="XMLID_414_" fill="#FFFFFF"></path>
                            </g>
                        </g>
                    </g>
                    <g id="Woman" transform="translate(44.829650, 115.395596)" fill-rule="nonzero">
                        <g id="Body_2_" transform="translate(25.671492, 48.286855)">
                            <g id="XMLID_32_">
                                <path d="M113.076812,90.2780816 L76.4032512,88.1387906 L0.550103409,83.7379633 L4.52307247,18.7035159 L26.2827184,9.04614494 L45.0473569,0.672348611 C47.3088931,0.61122601 49.5093068,0.488980808 51.46523,0.427858207 C77.1367224,-0.672348611 81.4153045,-1.89480063 93.0285987,29.2166033 C105.619854,62.7729112 113.076812,90.2780816 113.076812,90.2780816 Z" id="XMLID_534_" fill="#FC607D"></path>
                                <path d="M73.1026308,59.5334133 L71.5745657,71.0855849 C71.5134431,71.5745657 72.2469143,71.5745657 72.3080369,71.0855849 L73.836102,59.5334133 C73.8972246,59.0444325 73.1637534,59.0444325 73.1026308,59.5334133 Z" id="XMLID_528_" fill="#FFFFFF"></path>
                                <path d="M76.2198834,44.3138857 C74.9363088,37.3459092 72.9192629,30.5613005 70.2909911,23.9600596 C70.1076233,23.5322014 69.3741521,23.7155692 69.5575199,24.1434274 C71.7579335,29.6444615 73.530489,35.2677408 74.752941,41.0743878 C75.4252896,44.0693953 75.975393,47.1255253 76.3421286,50.1816554 C76.7088642,53.3600306 76.7088642,57.0273867 73.7138568,58.9833099 C73.2859986,59.2278003 73.7138568,59.9001489 74.0805924,59.6556585 C79.1537682,56.3550381 77.1367224,49.0814486 76.2198834,44.3138857 Z" id="XMLID_436_" fill="#FFFFFF"></path>
                            </g>
                            <path d="M81.5375497,53.2377854 C77.3200902,57.0885093 75.058554,62.5895434 75.364167,68.2739453 C75.364167,68.7629261 76.1587608,68.7629261 76.0976382,68.2739453 C75.7920252,62.7729112 77.9313162,57.4552449 82.0265305,53.7267662 C82.3932661,53.4211532 81.9042853,52.9321724 81.5375497,53.2377854 Z" id="XMLID_151_" fill="#FFFFFF"></path>
                        </g>
                        <g id="Palm" transform="translate(110.631908, 86.182867)">
                            <g id="XMLID_20_" transform="translate(0.000000, 15.891876)">
                                <path d="M26.1604732,18.9480063 C29.4610937,15.9529989 32.3338559,11.6132942 29.1554807,7.45695732 C27.871906,5.74552449 25.9771054,4.52307247 23.8378144,3.60623346 C20.1093357,1.28357462 15.9529989,-0.244490404 11.4299264,0.794593813 C7.21246691,1.71143283 1.65031023,6.96797651 0.794593813,11.0631908 C-0.305613005,13.8748304 3.36174305,15.158405 4.46194987,18.0922899 C11.796662,18.2145351 19.0091289,17.8477995 26.1604732,18.9480063 Z M8.61828674,10.268597 C9.35175795,9.59624835 10.0852292,8.86277714 10.879823,8.19042853 C10.879823,8.19042853 10.9409456,8.19042853 10.9409456,8.19042853 C11.0020682,8.61828674 11.0631908,9.04614494 11.0631908,9.47400315 C10.879823,11.0020682 10.5130874,12.4690106 10.0241066,13.8748304 C9.84073876,14.1193208 9.65737095,14.4249338 9.53512575,14.6694242 C9.16839014,13.2636044 8.55716413,11.8577846 8.06818333,10.57421 C8.25155113,10.57421 8.43491893,10.4519648 8.61828674,10.268597 Z" id="XMLID_530_" fill="#FFCEA6"></path>
                                <path d="M17.1143283,9.10726754 C16.0141215,11.6132942 14.9750372,14.1193208 13.8748304,16.6253475 C13.6914626,17.0532057 14.3026886,17.4199413 14.547179,16.9920831 C15.6473858,14.4860564 16.6864701,11.9800298 17.7866769,9.47400315 C17.9700447,9.04614494 17.3588187,8.67940934 17.1143283,9.10726754 Z" id="XMLID_529_" fill="#B5855E"></path>
                                <path d="M22.0652589,11.0631908 C20.9650521,13.1413592 19.9259679,15.2195276 18.8257611,17.2976961 C18.5812707,17.7255543 19.2536193,18.0922899 19.4981097,17.6644317 C20.5983165,15.5862632 21.6374007,13.5080948 22.7376076,11.4299264 C22.9209754,11.0020682 22.2486268,10.6353326 22.0652589,11.0631908 Z" id="XMLID_526_" fill="#B5855E"></path>
                                <path d="M27.3829252,11.8577846 C26.343841,13.935953 25.2436342,16.0752441 24.20455,18.1534125 C23.9600596,18.5812707 24.6324082,18.9480063 24.8768986,18.5201481 C25.9159828,16.4419797 27.0161896,14.3026886 28.0552738,12.2245202 C28.2997642,11.796662 27.6274156,11.4299264 27.3829252,11.8577846 Z" id="XMLID_525_" fill="#B5855E"></path>
                            </g>
                            <g id="XMLID_58_" transform="translate(7.945938, 0.000000)">
                                <path d="M6.78460871,5.13429848 C6.66236351,5.86776969 6.6012409,6.6012409 6.4789957,7.33471212 C6.4178731,7.57920252 6.4178731,7.82369292 6.3567505,8.06818333 C5.43991149,15.0361598 4.52307247,22.0041363 3.60623346,28.9721129 C2.81163964,30.1945649 2.07816843,31.4170169 1.46694242,32.6394689 C1.10020682,31.0502813 0.61122601,29.4610937 3.47441761e-14,27.9330286 C0.855716413,21.3317877 1.71143283,14.6694242 2.62827184,8.06818333 C2.68939444,7.82369292 2.68939444,7.57920252 2.75051704,7.33471212 C2.81163964,6.6012409 2.93388485,5.86776969 3.05613005,5.13429848 C3.17837525,4.27858207 3.72847866,3.72847866 4.40082727,3.48398825 C4.88980808,3.30062045 5.43991149,3.30062045 5.92889229,3.48398825 C6.4789957,3.72847866 6.90685391,4.27858207 6.78460871,5.13429848 Z" id="XMLID_198_" fill="#008EFF"></path>
                                <path d="M4.76756288,0.977961615 C4.46194987,2.99500745 4.21745947,5.01205328 3.91184646,7.02909911 C3.78960126,8.00706073 5.25654368,8.31267373 5.37878888,7.33471212 C5.68440189,5.31766628 5.92889229,3.30062045 6.2345053,1.28357462 C6.3567505,0.305613005 4.88980808,0 4.76756288,0.977961615 Z" id="XMLID_435_" fill="#2252B2"></path>
                                <path d="M6.4789957,7.33471212 C6.4178731,7.57920252 6.4178731,7.82369292 6.3567505,8.06818333 L2.62827184,8.06818333 C2.68939444,7.82369292 2.68939444,7.57920252 2.75051704,7.33471212 L6.4789957,7.33471212 Z" id="XMLID_149_" fill="#000000"></path>
                            </g>
                        </g>
                        <g id="Hand_1_" transform="translate(0.000000, 48.898081)">
                            <path d="M109.226088,91.6839014 L0.183367803,91.6839014 C1.16132942,82.1487757 -0.794593813,53.1766628 7.21246691,25.1825116 C13.5692174,2.87276225 20.5983165,0.550103409 46.5754219,0.305613005 C53.2377854,0.244490404 61.1837236,0.305613005 70.7188493,0.183367803 L59.6556585,20.4149487 L37.6515222,60.6947428 C58.3720839,64.0564858 88.4444036,79.9483621 102.013621,87.5886872 C106.536693,90.0947138 109.226088,91.6839014 109.226088,91.6839014 Z" id="XMLID_535_" fill="#FC607D"></path>
                            <path d="M109.226088,91.6839014 C109.226088,91.6839014 80.1317299,74.141715 54.4602375,65.1566926 C47.0644027,72.6136499 41.9301043,82.0265305 37.3459092,91.6839014 L109.226088,91.6839014 Z" id="XMLID_2109_" fill="#FFCEA6"></path>
                            <path d="M52.5043142,63.8119954 C48.2257322,61.9171948 43.7637823,60.3891298 39.1795872,59.3500455 C38.9350968,59.2889229 38.6906064,59.2278003 38.446116,59.1666777 C35.1454956,58.4332065 31.8448751,57.8831031 28.4220094,57.5774901 C27.9330286,57.5163675 27.9330286,56.7828963 28.4220094,56.8440189 C31.7837525,57.1496319 35.1454956,57.6386127 38.3849934,58.3720839 C38.6294838,58.4332065 38.8739742,58.4943291 39.1184646,58.5554517 C43.8249049,59.6556585 48.4091,61.1837236 52.8099272,63.1396468 C53.3600306,63.3230146 52.9321724,63.9953632 52.5043142,63.8119954 Z" id="XMLID_438_" fill="#FFFFFF"></path>
                            <path d="M39.2407098,59.2889229 C38.9962194,59.2278003 38.751729,59.1666777 38.5072386,59.1055551 C38.5072386,58.8610647 38.5072386,58.6165743 38.5072386,58.3109613 C38.2016256,49.5704294 37.8960126,40.8298974 37.5903996,32.0893655 C37.5903996,31.6003847 38.3238708,31.6003847 38.3238708,32.0893655 C38.6294838,40.89102 38.9350968,49.6926746 39.2407098,58.4332065 C39.1795872,58.7999421 39.2407098,59.0444325 39.2407098,59.2889229 Z" id="XMLID_152_" fill="#FFFFFF"></path>
                        </g>
                        <g id="Head_1_" transform="translate(35.451109, 0.000000)">
                            <path d="M41.7467365,48.7758356 L33.8007983,83.9213311 L24.2656726,69.2519069 L16.5031023,57.3941223 L11.1243134,49.1425712 C17.7866769,49.0814486 25.732615,49.1425712 35.2677408,49.020326 C37.5903996,48.9592034 39.7296906,48.8980808 41.7467365,48.7758356 Z" id="XMLID_2026_" fill="#FFCEA6"></path>
                            <path d="M41.5633687,38.3238708 C41.0132652,38.8128516 34.9010052,64.1176084 34.9010052,64.1176084 L14.3638112,53.1766628 L27.8107834,32.1504881 L41.5633687,38.3238708 Z" id="XMLID_2025_" fill="#FFCEA6"></path>
                            <path d="M39.362955,45.9030733 C40.4020392,41.7467365 41.3188783,38.446116 41.5022461,38.2627482 L36.3679476,35.9400894 C36.0623346,39.5463228 36.9791736,43.5804145 39.362955,45.9030733 Z" id="XMLID_453_" fill="#000000"></path>
                            <path d="M8.67940934,20.7816843 C7.94593813,14.852792 16.0752441,7.45695732 23.0432206,5.62327929 C26.0993506,4.82868548 26.4660862,2.26153624 28.2386416,4.15633687 C32.5783463,8.80165454 46.6976671,23.9600596 46.9421575,29.0943581 C47.3088931,38.140503 36.8569284,41.5633687 29.3999711,39.2407098 C21.7596459,36.918051 9.65737095,29.2777259 8.67940934,20.7816843 Z" id="XMLID_2022_" fill="#FFCEA6"></path>
                            <path d="M36.1845798,43.3970467 C37.3459092,35.2677408 28.3608868,23.4710788 28.483132,22.0041363 C29.2777259,17.4810639 26.0993506,13.7525852 22.9209754,11.6132942 C25.1825116,11.4299264 29.2166033,6.78460871 29.0332355,4.09521426 C28.483132,0.244490404 26.038228,-0.122245202 24.9991438,0.061122601 C22.5542398,0.550103409 20.2315809,3.17837525 18.9480063,5.62327929 C18.1534125,5.43991149 17.2976961,5.50103409 16.3808571,5.92889229 C12.102275,8.06818333 7.88481552,11.9189072 6.66236351,16.7475927 C6.4789957,17.5421865 6.3567505,18.3367803 6.3567505,19.1313741 C4.40082727,21.3929103 3.54511086,24.3267952 4.76756288,27.566293 C4.76756288,27.566293 4.76756288,27.566293 4.76756288,27.6274156 C3.78960126,28.177519 2.87276225,28.8498677 2.13929103,29.7667067 C0.427858207,31.8448751 -0.122245202,34.7176373 0.733471212,37.2847866 C1.22245202,38.6906064 2.01704583,39.8519358 2.99500745,40.7076522 C2.13929103,44.8028665 3.30062045,49.1425712 7.39583472,51.2818622 C9.04614494,52.1375786 10.9409456,52.3209464 12.6523784,51.9542108 C13.935953,55.3770765 17.9700447,57.4552449 21.6374007,56.2327929 C22.8598528,55.8049347 23.8378144,55.1937087 24.5712856,54.3379923 C28.6053773,56.2327929 34.5953921,54.5824827 36.5513154,50.3039006 C37.6515222,48.103487 37.4681544,45.4140925 36.1845798,43.3970467 Z" id="XMLID_159_" fill="#000000"></path>
                            <path d="M22.4319946,30.0723197 C21.2095425,26.8939444 23.8378144,22.2486268 28.5442546,22.0652589 C31.0502813,24.7546534 33.6785531,27.3829252 36.306825,30.0111971 C35.4511086,31.9671203 32.4561011,34.7176373 29.4610937,34.9010052 C26.038228,35.084373 23.7766918,33.4951853 22.4319946,30.0723197 Z" id="XMLID_2020_" fill="#FFCEA6"></path>
                            <path d="M39.5463228,14.4249338 C38.5072386,13.4469722 36.8569284,13.6914626 36.0623346,14.7916694 C35.8178442,15.158405 36.001212,15.7085084 36.3679476,15.9529989 C36.4290702,15.9529989 36.4290702,15.9529989 36.4901928,16.0141215 C36.4290702,16.1363667 36.3679476,16.2586119 36.306825,16.3808571 C35.9400894,17.3588187 37.529277,17.8477995 37.8960126,16.8698379 C37.8960126,16.8698379 37.9571352,16.8087153 37.8960126,16.9309605 C37.529277,17.6033091 38.2627482,18.5201481 38.9962194,18.0922899 C40.279794,17.3588187 40.6465296,15.464018 39.5463228,14.4249338 Z" id="XMLID_158_" fill="#FFA79B"></path>
                            <path d="M30.6835457,11.3076812 L29.7667067,13.019114 C29.2777259,13.8748304 30.6224231,14.6083016 31.0502813,13.7525852 C31.3558943,13.2024818 31.6615073,12.6523784 31.9671203,12.0411524 C32.3949785,11.2465586 31.1114039,10.4519648 30.6835457,11.3076812 Z" id="XMLID_447_" fill="#952C28"></path>
                            <path d="M30.5001779,27.871906 C29.3388485,28.1163964 28.1163964,28.3608868 26.955067,28.6053773 C26.4660862,28.7276225 26.7105766,29.3999711 27.1384348,29.3388485 C28.2997642,29.0943581 29.5222163,28.8498677 30.6835457,28.6053773 C31.1725265,28.483132 30.9891587,27.7496608 30.5001779,27.871906 Z" id="XMLID_157_" fill="#D24A43"></path>
                            <path d="M41.1355104,26.8328218 C40.4631618,27.3218026 39.7296906,27.3829252 38.9962194,27.0773122 C38.5683612,26.8939444 38.3849934,27.6274156 38.8128516,27.8107834 C39.7296906,28.177519 40.7687748,28.0552738 41.5633687,27.5051704 C41.8689817,27.1995574 41.5022461,26.5272088 41.1355104,26.8328218 Z" id="XMLID_156_" fill="#D24A43"></path>
                            <path d="M34.9621278,15.0361598 C34.3509017,14.547179 33.6785531,14.0581982 33.0673271,13.5692174 C32.7005915,13.2636044 32.1504881,13.8137078 32.5172237,14.1193208 C33.1284497,14.6083016 33.8007983,15.0972824 34.4120243,15.5862632 C34.7787599,15.8918763 35.3288634,15.3417728 34.9621278,15.0361598 Z" id="XMLID_155_" fill="#000000"></path>
                        </g>
                        <g id="Legs" transform="translate(4.889808, 141.804434)">
                            <path d="M136.792381,189.846799 C136.486768,187.035159 134.714213,177.622278 125.362455,174.627271 C115.15498,171.387773 106.536693,177.377788 129.518791,119.127949 C123.712144,118.333355 117.905497,117.294271 112.09885,116.194064 C105.497609,114.91049 98.957491,113.688038 92.2951275,112.710076 C90.5836946,112.465586 88.8111392,112.221095 87.0997064,111.915482 C83.4323503,128.479707 80.5595881,153.478851 81.7820401,189.846799 L136.792381,189.846799 L136.792381,189.846799 Z" id="XMLID_2041_" fill="#FFCEA6"></path>
                            <path d="M217.535337,189.846799 C212.890019,171.754509 203.538261,178.172382 189.41894,169.859708 C182.695454,165.886739 180.800654,139.970756 178.477995,110.998643 C164.603164,114.177019 150.422721,116.31631 136.670136,120.044788 C145.655158,150.850579 156.046,182.634332 158.368659,189.846799 L217.535337,189.846799 Z" id="XMLID_2039_" fill="#FFCEA6"></path>
                            <path d="M108.859352,21.8207685 C83.3712277,19.8037227 83.3712277,19.8037227 83.3712277,19.8037227 L86.9774612,0.061122601 L2.44490404,0.061122601 C-2.44490404,65.5845508 -7.70144772,77.3200902 75.8531478,72.7970177 L96.3903417,71.2689527 C96.3903417,71.2689527 85.3882735,97.7961615 80.1317299,118.027742 C93.4564569,119.250194 129.274301,127.440623 129.641037,127.807359 C132.024818,121.633976 163.31959,26.0993506 108.859352,21.8207685 Z" id="XMLID_178_" fill="#008EFF"></path>
                            <path d="M28.7887451,18.0311673 C36.4290702,13.2636044 43.6415371,7.21246691 49.325939,0.061122601 L2.44490404,0.061122601 C1.65031023,10.3908422 0.916839014,19.3758645 0.488980808,27.1995574 C10.3908422,27.3218026 20.3538261,23.287711 28.7887451,18.0311673 Z" id="XMLID_177_" fill="#000000"></path>
                            <path d="M136.792381,189.846799 C136.486768,187.035159 134.714213,177.622278 125.362455,174.627271 C123.162041,173.8938 121.02275,173.649309 119.250194,173.099206 C114.482632,174.199413 109.776191,175.666355 104.825261,176.522072 C99.9354526,177.377788 95.1678897,177.377788 90.216959,176.94993 C87.2830742,176.705439 84.4103119,176.399826 81.4764271,176.399826 C81.4764271,180.739531 81.5986723,185.201481 81.7820401,189.907921 L136.792381,189.907921 L136.792381,189.846799 Z" id="XMLID_176_" fill="#952C28"></path>
                            <path d="M182.878822,115.827329 C178.905853,89.7891008 174.077168,64.8510796 169.370727,45.7808281 C160.874686,11.2465586 139.35953,15.769631 74.0805924,9.29063535 C74.0805924,9.29063535 97.3683033,46.8199123 122.367447,58.7999421 C122.122957,68.0905775 125.851435,97.5516711 134.102987,125.606945 C134.102987,125.606945 169.309605,118.638968 182.878822,115.827329 Z" id="XMLID_175_" fill="#008EFF"></path>
                            <path d="M217.535337,189.846799 C213.012264,172.24349 204.088365,177.805646 190.641392,170.532057 C185.445971,172.915838 180.556163,175.971968 174.994007,177.377788 C168.148275,179.150343 161.241421,177.622278 154.334567,177.438911 C156.229368,183.30668 157.635188,187.646385 158.368659,189.846799 L217.535337,189.846799 Z" id="XMLID_174_" fill="#952C28"></path>
                            <path d="M155.312529,32.0282429 C153.295483,27.3218026 149.505882,23.3488336 144.371583,22.1263815 C143.882603,22.0041363 143.699235,22.7376076 144.188216,22.8598528 C149.200269,24.0823048 152.928748,28.0552738 154.823548,32.8228367 C157.023962,38.3238708 156.534981,44.4972535 155.434774,50.242778 C153.295483,61.733827 149.750372,73.0415082 145.532913,83.9213311 C143.088009,90.2780816 140.337492,96.5125869 137.342484,102.624847 C137.159117,103.052705 137.770343,103.419441 138.014833,102.991583 C143.638112,91.6227788 148.28343,79.8261169 151.889663,67.6627193 C153.723341,61.428214 155.434774,55.1325861 156.473858,48.714713 C157.329575,43.1525563 157.512943,37.2847866 155.312529,32.0282429 Z" id="XMLID_439_" fill="#FFFFFF"></path>
                            <path d="M82.3321435,10.57421 C76.5254964,10.4519648 70.6577267,10.3908422 64.8510796,10.268597 C64.3620988,10.268597 64.3620988,11.0020682 64.8510796,11.0020682 C70.6577267,11.1243134 76.5254964,11.185436 82.3321435,11.3076812 C82.8211243,11.3076812 82.8211243,10.57421 82.3321435,10.57421 Z" id="XMLID_433_" fill="#FFFFFF"></path>
                            <path d="M99.0797362,66.5625124 C98.4073876,67.4182289 97.7350389,68.2128227 97.0626903,69.0685391 C96.7570773,69.4352747 97.3071807,69.9853781 97.6127937,69.6186425 C98.2851423,68.7629261 98.957491,67.9683323 99.6298396,67.1126159 C99.9354526,66.6847577 99.3853492,66.1957768 99.0797362,66.5625124 Z" id="XMLID_127_" fill="#FFFFFF"></path>
                        </g>
                    </g>
                    <g id="Pad" transform="translate(108.397155, 207.690724)" fill-rule="nonzero">
                        <path d="M30.1945649,18.7646385 C26.955067,15.0972824 23.7155692,11.4299264 20.4760713,7.76257032 C19.8648453,7.02909911 18.7646385,8.12930593 19.4369871,8.80165454 C22.676485,12.4690106 25.9159828,16.1363667 29.1554807,19.8037227 C29.7667067,20.5371939 30.8057909,19.4981097 30.1945649,18.7646385 Z" id="XMLID_148_" fill="#D24A43"></path>
                        <path d="M45.3529699,0.794593813 C45.3529699,-0.183367803 43.8249049,-0.183367803 43.8249049,0.794593813 C44.0082727,7.39583472 44.1916405,13.935953 44.4361309,20.5371939 C44.4361309,21.5151555 45.9641959,21.5151555 45.9641959,20.5371939 C45.7808281,13.935953 45.5974603,7.33471212 45.3529699,0.794593813 Z" id="XMLID_147_" fill="#D24A43"></path>
                        <path d="M24.3267952,21.5762781 L16.0141215,15.0972824 C15.2806502,14.4860564 14.1804434,15.5862632 14.9750372,16.1363667 L23.287711,22.6153624 C24.0211822,23.2265884 25.121389,22.1875041 24.3267952,21.5762781 Z" id="XMLID_146_" fill="#D24A43"></path>
                        <g id="XMLID_24_" transform="translate(0.000000, 25.671492)">
                            <path d="M0.427858207,22.6153624 L81.9042853,22.6153624 L93.7009473,4.27858207 C94.7400315,2.62827184 93.5787021,0.488980808 91.6227788,0.488980808 L18.0311673,0.488980808 C15.8918763,0.488980808 13.8748304,1.58918763 12.713501,3.36174305 L0.427858207,22.6153624 Z" id="XMLID_520_" fill="#000000"></path>
                            <path d="M32.4561011,21.8818911 C28.7276225,18.1534125 24.9380212,14.3638112 21.2095425,10.6353326 C20.5371939,9.96298396 19.4369871,11.0020682 20.1704583,11.6744168 C23.898937,15.4028954 27.6885382,19.1924967 31.4170169,22.9209754 C32.0282429,23.593324 33.1284497,22.5542398 32.4561011,21.8818911 Z" id="XMLID_473_" fill="#008EFF"></path>
                            <path d="M98.2240197,21.8818911 C94.4955411,18.1534125 90.7059398,14.3638112 86.9774612,10.6353326 C86.3051126,9.96298396 85.2049057,11.0020682 85.938377,11.6744168 C89.6668556,15.4028954 93.4564569,19.1924967 97.1849355,22.9209754 C97.8572841,23.593324 98.8963684,22.5542398 98.2240197,21.8818911 Z" id="XMLID_173_" fill="#008EFF"></path>
                            <path d="M14.9750372,3.60623346 C13.5080948,6.0511375 12.0411524,8.49604153 10.57421,10.9409456 C10.3297196,11.3688038 11.0020682,11.7355394 11.2465586,11.3076812 L15.6473858,3.97296906 C15.8918763,3.54511086 15.2195276,3.17837525 14.9750372,3.60623346 Z" id="XMLID_135_" fill="#FFFFFF"></path>
                        </g>
                    </g>
                    <g id="Cup" transform="translate(212.916803, 222.360148)">
                        <rect id="XMLID_2115_" fill="#FFD423" x="7.70144772" y="10.7575778" width="18.3979029" height="22.8598528"></rect>
                        <path d="M10.8187004,28.2386416 C7.27358951,31.2336491 2.87276225,28.0552738 2.20041363,24.1434274 C1.52806502,20.4149487 4.64531767,14.4860564 8.98502234,17.6644317 C9.77961615,18.2145351 10.5130874,16.9309605 9.71849355,16.3808571 C4.40082727,12.5301332 -0.183367803,19.4369871 0.672348611,24.3879178 C1.58918763,29.5833389 7.39583472,33.0673271 11.8577846,29.3388485 C12.5912558,28.6664999 11.5521716,27.6274156 10.8187004,28.2386416 Z" id="XMLID_2112_" fill="#FFD423"></path>
                        <path d="M14.7916694,1.71143283 C15.5251406,1.03908422 14.4249338,-1.66533454e-16 13.7525852,0.672348611 C11.3076812,2.93388485 11.2465586,6.90685391 13.5692174,9.29063535 C14.241566,9.96298396 15.2806502,8.92389974 14.6083016,8.25155113 C12.8357462,6.4178731 12.8968688,3.42286565 14.7916694,1.71143283 Z" id="XMLID_104_" fill="#9BD3FF" fill-rule="nonzero"></path>
                        <path d="M18.2145351,2.01704583 C18.9480063,1.34469722 17.8477995,0.305613005 17.1754509,0.977961615 C14.7305468,3.23949785 14.6694242,7.21246691 16.9920831,9.59624835 C17.6644317,10.268597 18.7035159,9.22951275 18.0311673,8.55716413 C16.2586119,6.66236351 16.3808571,3.72847866 18.2145351,2.01704583 Z" id="XMLID_26_" fill="#9BD3FF" fill-rule="nonzero"></path>
                    </g>
                    <g id="Clock" transform="translate(409.739893, 20.668037)" fill="#008EFF" fill-rule="nonzero">
                        <path d="M32.8228367,64.7288344 C14.9750372,64.7288344 0.488980808,50.242778 0.488980808,32.3949785 C0.488980808,14.547179 14.9750372,0.061122601 32.8228367,0.061122601 C51.5874752,0.061122601 63.3841372,11.796662 65.1566926,32.3338559 L65.1566926,32.3338559 C65.8290412,40.1575488 63.1396468,47.797874 57.5774901,53.910134 C51.3429848,60.6947428 42.0523495,64.7288344 32.8228367,64.7288344 Z M32.8228367,1.58918763 C15.8307536,1.58918763 1.95592323,15.4028954 1.95592323,32.4561011 C1.95592323,49.4481842 15.769631,63.3230146 32.8228367,63.3230146 C41.6856139,63.3230146 50.4872684,59.4722907 56.4772833,52.993295 C61.7949496,47.2477705 64.3009762,39.974181 63.6897502,32.5783463 L63.6897502,32.5783463 C61.9171948,12.8357462 50.6706362,1.58918763 32.8228367,1.58918763 Z" id="XMLID_1964_"></path>
                        <path d="M33.1284497,13.1413592 C33.1284497,12.1633976 31.6003847,12.1633976 31.6003847,13.1413592 L32.0282429,30.9280361 C32.0282429,31.9059977 33.5563079,31.9059977 33.5563079,30.9280361 L33.1284497,13.1413592 Z" id="XMLID_93_"></path>
                        <path d="M46.5142993,33.4340627 L34.5342695,33.4340627 C33.5563079,33.4340627 33.5563079,34.9621278 34.5342695,34.9621278 L46.5142993,34.9621278 C47.4922609,34.9010052 47.4922609,33.4340627 46.5142993,33.4340627 Z" id="XMLID_92_"></path>
                    </g>
                    <g id="Window_1" transform="translate(230.251486, 39.154494)" fill-rule="nonzero">
                        <rect id="XMLID_112_" fill="#9BD3FF" x="4.25413277" y="0" width="83.6157131" height="65.2300359"></rect>
                        <rect id="XMLID_366_" fill="#FFFFFF" x="15.060608" y="43.2747989" width="22.1997273" height="8.94834825"></rect>
                        <path d="M65.4745262,52.8099241 L42.052347,52.8099241 L42.052347,42.688022 L65.4745262,42.688022 L65.4745262,52.8099241 Z M43.2747989,51.5874721 L64.3009724,51.5874721 L64.3009724,43.8615758 L43.2747989,43.8615758 L43.2747989,51.5874721 Z" id="XMLID_1911_" fill="#008EFF"></path>
                        <g id="XMLID_74_" transform="translate(60.144636, 47.920116)" fill="#FFFFFF">
                            <polygon id="XMLID_111_" points="0.244490389 0.0977961557 1.7603308 10.3174944 9.82851365 4.88980779"></polygon>
                            <path d="M8.36157131,10.4641887 C7.09022129,8.75275594 5.81887126,7.04132321 4.49862316,5.32989049 C4.05854046,4.74311355 2.98278275,5.32989049 3.47176353,5.91666742 C4.74311355,7.62810015 6.01446358,9.33953287 7.33471168,11.0509656 C7.77479438,11.6866406 8.80165401,11.0998637 8.36157131,10.4641887 Z" id="XMLID_110_"></path>
                        </g>
                        <rect id="XMLID_109_" fill="#FC607D" x="15.060608" y="15.0117099" width="57.6019357" height="4.2052347"></rect>
                        <path d="M66.0613032,24.5957332 L15.6473849,24.5957332 C14.8650157,24.5957332 14.8650157,25.8181851 15.6473849,25.8181851 L66.0613032,25.8181851 C66.8436724,25.8181851 66.8436724,24.5957332 66.0613032,24.5957332 Z" id="XMLID_108_" fill="#008EFF"></path>
                        <path d="M66.0613032,30.9035852 L15.6473849,30.9035852 C14.8650157,30.9035852 14.8650157,32.1260372 15.6473849,32.1260372 L66.0613032,32.1260372 C66.8436724,32.1260372 66.8436724,30.9035852 66.0613032,30.9035852 Z" id="XMLID_358_" fill="#008EFF"></path>
                        <path d="M82.9800381,8.89945017 C81.3664016,7.2858136 79.752765,5.72107511 78.1880265,4.10743854 C77.6501476,3.56955968 76.7699822,4.40082701 77.3567592,4.93870586 C78.9703957,6.55234243 80.5840323,8.11708092 82.1487708,9.73071749 C82.6866497,10.3174944 83.517917,9.43732903 82.9800381,8.89945017 Z" id="XMLID_357_" fill="#000000"></path>
                        <path d="M78.1880265,9.77961557 C79.8016631,8.165979 81.3664016,6.55234243 82.9800381,4.98760394 C83.517917,4.44972508 82.6866497,3.56955968 82.1487708,4.15633662 C80.5351342,5.76997319 78.9703957,7.38360976 77.3567592,8.94834825 C76.8188803,9.4862271 77.6501476,10.3174944 78.1880265,9.77961557 Z" id="XMLID_356_" fill="#000000"></path>
                        <path d="M13.1046849,63.3230108 C13.3980733,66.9414686 10.1708002,69.8753533 6.55234243,69.8753533 C2.93388467,69.8753533 2.77953392e-14,66.9414686 2.77953392e-14,63.3230108 C2.77953392e-14,59.7045531 2.93388467,56.7706684 6.55234243,56.7706684 C10.1708002,56.7706684 12.7135002,58.9710819 13.1046849,63.3230108 Z" id="XMLID_1567_" fill="#008EFF"></path>
                        <path d="M72.6625437,6.99242513 C72.8092379,8.6060617 71.3422956,9.97520788 69.6797609,9.97520788 C68.0172263,9.97520788 66.6969782,8.65495978 66.6969782,6.99242513 C66.6969782,5.37878856 68.0172263,4.00964238 69.6797609,4.00964238 C71.3422956,4.00964238 72.4669514,5.03650202 72.6625437,6.99242513 Z" id="XMLID_76_" fill="#FC607D"></path>
                        <path d="M5.9655655,60.6336165 L5.9655655,66.0124051 C5.9655655,66.7947744 7.18801744,66.7947744 7.18801744,66.0124051 L7.18801744,60.6336165 C7.13911937,59.8512473 5.9655655,59.8512473 5.9655655,60.6336165 Z" id="XMLID_299_" fill="#FFFFFF"></path>
                    </g>
                    <g id="Shadow" transform="translate(35.050034, 446.680094)" fill="#D2DAE3" fill-rule="nonzero">
                        <path d="M334.64624,0.122245202 L0.977961615,0.122245202 C-1.38777878e-16,0.122245202 -1.38777878e-16,1.65031023 0.977961615,1.65031023 L334.64624,1.65031023 C335.563079,1.65031023 335.563079,0.122245202 334.64624,0.122245202 Z" id="XMLID_2018_"></path>
                        <path d="M578.219805,0.122245202 L345.098205,0.122245202 C344.120243,0.122245202 344.120243,1.65031023 345.098205,1.65031023 L578.219805,1.65031023 C579.197767,1.65031023 579.197767,0.122245202 578.219805,0.122245202 Z" id="XMLID_2016_"></path>
                    </g>
                    <path d="M507.711108,255.244107 L44.890773,255.244107 C44.6462826,255.244107 44.2184244,258.239115 44.3406696,259.706057 C44.4017922,259.706057 44.4629148,259.706057 44.5240374,259.706057 L507.711108,259.706057 C510.644992,259.76718 510.644992,255.244107 507.711108,255.244107 Z" id="Table" fill="#D24A43" fill-rule="nonzero"></path>
                </g>
            </g>
        </g>
    </g>
</svg>