<?xml version="1.0" encoding="UTF-8"?>
<svg width="1110px" height="400px" viewBox="0 0 1110 400" version="1.1" xmlns="http://www.w3.org/2000/svg" xmlns:xlink="http://www.w3.org/1999/xlink">
    <title>Image</title>
    <defs>
        <rect id="path-1" x="0" y="0" width="1110" height="400" rx="8"></rect>
        <linearGradient x1="28.8266437%" y1="0%" x2="50%" y2="100%" id="linearGradient-3">
            <stop stop-color="#FD6A5A" offset="0%"></stop>
            <stop stop-color="#FC607D" offset="100%"></stop>
        </linearGradient>
    </defs>
    <g id="🎨-Design" stroke="none" stroke-width="1" fill="none" fill-rule="evenodd">
        <g id="Home" transform="translate(-145.000000, -1310.000000)">
            <g id="Section/Automate" transform="translate(0.000000, 1090.000000)">
                <g id="Image" transform="translate(145.000000, 220.000000)">
                    <mask id="mask-2" fill="white">
                        <use xlink:href="#path-1"></use>
                    </mask>
                    <use id="image" fill="#FFEDEB" xlink:href="#path-1"></use>
                    <rect id="image" fill="#FFEDEB" mask="url(#mask-2)" x="0" y="68" width="1110" height="332" rx="8"></rect>
                    <g id="Teammates-2" mask="url(#mask-2)">
                        <g transform="translate(26.000000, -57.000000)">
                            <g id="Window_4" transform="translate(758.592072, 112.232011)">
                                <rect id="XMLID_429_" fill="#9BD3FF" fill-rule="nonzero" x="0" y="0.172800016" width="161.568015" height="131.241612"></rect>
                                <path d="M53.5680051,63.849606 C48.9024046,100.91521 44.2368042,137.894413 39.6576037,174.960017 C39.4848037,176.256017 41.5584039,176.256017 41.6448039,174.960017 C46.3104044,137.894413 50.9760048,100.91521 55.5552052,63.849606 C55.7280053,62.5536059 53.6544051,62.5536059 53.5680051,63.849606 Z" id="XMLID_261_" fill="#9BD3FF" fill-rule="nonzero"></path>
                                <rect id="XMLID_259_" fill="#FFFFFF" fill-rule="nonzero" x="21.513602" y="24.4512023" width="74.044807" height="10.108801"></rect>
                                <path d="M149.558414,52.704005 L109.03681,52.704005 L109.03681,23.4144022 L149.558414,23.4144022 L149.558414,52.704005 Z M111.02401,50.7168048 L147.571214,50.7168048 L147.571214,25.4880024 L111.02401,25.4880024 L111.02401,50.7168048 Z" id="XMLID_2972_" fill="#FFFFFF" fill-rule="nonzero"></path>
                                <rect id="XMLID_254_" fill="#FFFFFF" fill-rule="nonzero" x="21.513602" y="42.595204" width="74.044807" height="10.108801"></rect>
                                <path d="M91.4976086,61.7760058 L22.4640021,61.7760058 C21.168002,61.7760058 21.168002,63.763206 22.4640021,63.763206 L91.4112086,63.763206 C92.7936088,63.849606 92.7936088,61.7760058 91.4976086,61.7760058 Z" id="XMLID_253_" fill="#FFFFFF" fill-rule="nonzero"></path>
                                <path d="M64.022406,88.0416083 L22.4640021,88.0416083 C21.168002,88.0416083 21.168002,90.0288085 22.4640021,90.0288085 L64.022406,90.0288085 C65.3184062,90.1152085 65.3184062,88.0416083 64.022406,88.0416083 Z" id="XMLID_92_" fill="#EBF4FF" fill-rule="nonzero"></path>
                            </g>
                            <g id="Graphic" transform="translate(44.064004, 177.752026)">
                                <rect id="XMLID_431_" fill="#E4F3FF" fill-rule="nonzero" x="0.172800016" y="150.681614" width="113.616011" height="277.171226"></rect>
                                <rect id="XMLID_147_" fill="#E4F3FF" fill-rule="nonzero" x="144.028814" y="199.152019" width="113.616011" height="228.700822"></rect>
                                <rect id="XMLID_146_" fill="#E4F3FF" fill-rule="nonzero" x="287.971227" y="0.777600073" width="113.616011" height="427.16164"></rect>
                                <rect id="XMLID_427_" fill="#E4F3FF" fill-rule="nonzero" x="431.827241" y="150.681614" width="113.616011" height="277.171226"></rect>
                                <rect id="XMLID_144_" fill="#E4F3FF" fill-rule="nonzero" x="575.683254" y="82.5120078" width="113.616011" height="345.340833"></rect>
                                <rect id="XMLID_425_" fill="#E4F3FF" fill-rule="nonzero" x="719.625668" y="150.681614" width="113.616011" height="277.171226"></rect>
                                <rect id="XMLID_424_" fill="#E4F3FF" fill-rule="nonzero" x="863.481681" y="208.22402" width="113.616011" height="219.628821"></rect>
                            </g>
                            <g id="Scheme_1_" transform="translate(0.000000, 88.040009)">
                                <path d="M816.480077,428.88964 C781.315274,335.145632 800.496076,232.070422 772.329673,136.857613 C761.011272,98.5824093 741.13927,61.8624058 710.985667,35.2512033 C683.337664,10.886401 647.827261,-2.67840025 610.848058,1.12320011 C576.374454,4.66560044 543.456051,22.9824022 527.81765,54.7776052 C508.636848,93.8304089 515.635249,139.190413 503.193647,180.057617 C497.232047,199.584019 486.777646,218.332821 469.152044,229.564822 C450.403243,241.488023 427.07524,242.870423 405.648038,239.155223 C359.596834,231.033622 322.96323,198.892819 279.158426,184.377617 C235.440022,169.948816 187.142418,172.886416 143.942414,187.747218 C102.98881,201.830419 66.2688063,226.627221 34.8192033,256.176024 C26.8704025,263.692825 19.1808018,271.468826 11.7504011,279.590426 C10.886401,280.540826 12.2688012,282.009627 13.2192012,281.059227 C74.044807,214.61762 161.395215,163.036815 254.534424,180.230417 C278.208026,184.636817 299.894428,194.227218 321.06243,205.459219 C340.502432,215.74082 359.683234,227.059221 380.505636,234.576022 C416.188839,247.363223 460.771243,248.227223 486.864046,216.51842 C512.179248,185.760018 511.574448,143.337614 516.240049,105.92641 C519.004849,83.8944079 524.016049,61.2576058 537.235251,42.854404 C547.862452,28.0800027 563.241653,17.1936016 580.089655,10.540801 C614.995258,-3.02400029 654.652862,1.12320011 686.707265,20.1312019 C721.440068,40.6944038 746.32327,75.1680071 761.443272,112.060811 C798.422475,202.089619 780.883274,302.745629 804.038476,395.798437 C806.889676,407.203238 810.345676,418.521639 814.492877,429.494441 C815.011277,430.617641 816.912077,430.099241 816.480077,428.88964 Z" id="XMLID_408_" fill="#FC607D" fill-rule="nonzero"></path>
                                <path d="M25.3152024,276.912026 C25.4016024,285.033627 19.6992019,289.440027 12.7872012,289.440027 C5.87520055,289.440027 0.259200024,283.824027 0.259200024,276.912026 C0.259200024,270.000025 4.49280042,264.124825 12.6144012,263.865625 C19.5264018,263.606425 25.2288024,270.000025 25.3152024,276.912026 Z" id="XMLID_311_" fill="#FC607D" fill-rule="nonzero"></path>
                                <path d="M350.956833,217.03682 C351.043233,223.430421 346.550433,226.886421 341.107232,226.886421 C335.664032,226.886421 331.257631,222.480021 331.257631,217.03682 C331.257631,211.59362 334.627232,206.92802 341.020832,206.75522 C346.464033,206.582419 350.870433,211.59362 350.956833,217.03682 Z" id="XMLID_309_" fill="#FC607D" fill-rule="nonzero"></path>
                                <path d="M799.027275,295.747228 C799.113675,301.017628 795.398475,303.782429 790.992075,303.782429 C786.499274,303.782429 782.956874,300.153628 782.956874,295.747228 C782.956874,291.254427 785.721674,287.539227 790.905675,287.366427 C795.312075,287.193627 798.940875,291.340827 799.027275,295.747228 Z" id="XMLID_116_" fill="#FC607D" fill-rule="nonzero"></path>
                            </g>
                            <g id="Woman_1" transform="translate(52.704005, 202.952020)">
                                <g id="Legs_1_" transform="translate(0.000000, 171.072016)" fill="#FC607D" fill-rule="nonzero">
                                    <g id="XMLID_159_" transform="translate(0.000000, 4.320000)">
                                        <path d="M10.368001,288.057627 C19.6992019,287.884827 58.6656055,289.353627 63.849606,289.526427 C67.7376064,273.456026 73.6128069,244.252823 76.0320072,230.688022 C80.4384076,205.459219 102.55681,24.1056023 105.75361,0.777600073 L29.3760028,0.777600073 C28.6848027,4.83840046 27.8208026,8.64000082 27.4752026,12.3552012 C26.7840025,19.4400018 26.2656025,26.2656025 25.7472024,32.9184031 C20.908802,94.867209 21.168002,143.164814 23.5872022,236.044822 C20.4768019,244.857623 14.4288014,265.593625 10.368001,288.057627 Z" id="XMLID_369_"></path>
                                    </g>
                                    <g id="XMLID_158_" transform="translate(53.568005, 0.000000)">
                                        <path d="M61.4304058,295.228828 C78.9696075,295.747228 97.2864092,295.488028 112.492811,295.747228 C113.961611,264.643225 113.788811,247.795223 113.011211,229.564822 C110.50561,173.232016 96.7680091,87.2640082 88.3008083,35.9424034 C86.7456082,26.5248025 85.3632081,18.2304017 84.240008,11.5776011 L5.52960052,0.345600033 C4.49280042,23.3280022 65.8368062,248.054423 65.8368062,248.054423 C64.8000061,257.126424 62.3808059,275.788826 61.4304058,295.228828 Z" id="XMLID_131_"></path>
                                    </g>
                                </g>
                                <g id="Head_2_" transform="translate(71.712007, 0.000000)" fill-rule="nonzero">
                                    <path d="M39.0528037,46.4832044 C38.4480036,47.0880044 32.9184031,76.8960073 32.9184031,76.8960073 L8.29440078,65.4048062 L22.6368021,40.0896038 L39.0528037,46.4832044 Z" id="XMLID_2997_" fill="#FFCEA6"></path>
                                    <path d="M36.9792035,55.5552052 C37.9296036,50.6304048 38.7936037,46.7424044 39.0528037,46.5696044 L33.0048031,44.2368042 C32.7456031,48.3840046 34.0416032,52.963205 36.9792035,55.5552052 Z" id="XMLID_407_" fill="#000000"></path>
                                    <path d="M15.0336014,13.1328012 C17.6256017,6.65280063 29.9808028,3.62880034 38.1888036,5.61600053 C41.7312039,6.48000061 43.5456041,4.06080038 44.3232042,6.99840066 C46.2240044,14.1696013 52.2720049,37.5840035 49.5936047,42.9408041 C44.9280042,52.3584049 32.313603,50.1120047 26.0064025,43.5456041 C19.5264018,36.8928035 11.4048011,22.3776021 15.0336014,13.1328012 Z" id="XMLID_2996_" fill="#FFCEA6"></path>
                                    <path d="M43.3728041,1.0368001 C39.7440038,-0.0864000082 34.3008032,2.76480026 31.968003,5.01120047 C24.7968023,5.18400049 17.0208016,8.12160077 15.0336014,13.1328012 C12.6144012,19.3536018 -3.54240033,31.968003 0.777600073,43.6320041 C3.45600033,50.8896048 21.8592021,58.8384056 28.7712027,53.5680051 C36.9792035,47.3472045 33.6960032,26.9568025 34.6464033,25.4016024 C37.9296036,21.168002 36.7200035,15.6384015 34.7328033,11.6640011 C37.1520035,12.7008012 43.8912041,10.281601 45.1872043,7.34400069 C46.8288044,3.11040029 44.4960042,1.38240013 43.3728041,1.0368001 Z" id="XMLID_2995_" fill="#697CCC"></path>
                                    <path d="M24.0192023,30.2400029 C24.5376023,26.2656025 29.8080028,22.9824022 34.7328033,25.4016024 C35.7696034,29.5488028 36.9792035,33.6960032 38.2752036,37.8432036 C36.2880034,39.3984037 31.708803,40.5216038 28.5984027,39.0528037 C24.9696024,37.4112035 23.5008022,34.4736033 24.0192023,30.2400029 Z" id="XMLID_2994_" fill="#FFCEA6"></path>
                                    <path d="M50.2848047,23.7600022 C49.7664047,22.2048021 47.9520045,21.513602 46.4832044,22.2048021 C45.9648043,22.4640021 45.8784043,23.1552022 46.1376044,23.5008022 C46.1376044,23.5872022 46.2240044,23.5872022 46.2240044,23.5872022 C46.0512043,23.6736022 45.9648043,23.7600022 45.7920043,23.8464023 C44.8416042,24.6240023 46.2240044,26.0064025 47.1744045,25.2288024 C47.1744045,25.2288024 47.2608045,25.2288024 47.1744045,25.3152024 C46.3968044,25.8336024 46.6560044,27.1296026 47.6928045,27.1296026 C49.3344047,27.1296026 50.8032048,25.4016024 50.2848047,23.7600022 Z" id="XMLID_398_" fill="#FFCEA6"></path>
                                    <path d="M43.1136041,12.4416012 C42.336004,12.9600012 41.5584039,13.4784013 40.8672039,13.9104013 C39.7440038,14.6016014 40.7808038,16.3296015 41.904004,15.6384015 C42.681604,15.1200014 43.4592041,14.6016014 44.1504042,14.1696013 C45.2736043,13.4784013 44.2368042,11.6640011 43.1136041,12.4416012 Z" id="XMLID_2981_" fill="#697CCC"></path>
                                    <path d="M44.5824042,18.5760018 C44.4960042,19.5264018 44.4096042,20.3904019 44.3232042,21.340802 C44.2368042,21.9456021 45.2736043,21.9456021 45.3600043,21.340802 C45.4464043,20.3904019 45.5328043,19.5264018 45.6192043,18.5760018 C45.6192043,17.8848017 44.6688042,17.8848017 44.5824042,18.5760018 Z" id="XMLID_124_" fill="#000000"></path>
                                    <path d="M47.6928045,35.7696034 C46.4832044,35.7696034 45.3600043,34.9920033 44.9280042,33.8688032 C44.6688042,33.2640031 43.7184041,33.5232032 43.9776042,34.1280032 C44.5824042,35.6832034 46.0512043,36.8064035 47.6928045,36.8064035 C48.2976046,36.8064035 48.2976046,35.7696034 47.6928045,35.7696034 Z" id="XMLID_344_" fill="#B5855E"></path>
                                    <path d="M34.7328033,32.313603 L31.708803,29.8080028 C31.1904029,29.3760028 30.4992029,30.0672028 31.0176029,30.4992029 C32.054403,31.363203 33.0048031,32.140803 34.0416032,33.0048031 C34.4736033,33.4368032 35.1648033,32.6592031 34.7328033,32.313603 Z" id="XMLID_123_" fill="#B5855E"></path>
                                </g>
                                <g id="Body" transform="translate(25.056002, 64.800006)" fill-rule="nonzero">
                                    <path d="M116.812811,142.300813 C118.627211,119.750411 120.268811,85.8816081 121.564811,59.3568056 C124.156812,3.54240033 104.02561,0.0864000082 67.7376064,0.345600033 C16.5024016,0.691200065 13.9104013,-0.95040009 8.03520076,43.1136041 C3.88800037,74.649607 1.38240013,121.651211 0.604800057,143.424014 C8.20800077,143.942414 97.2864092,141.955213 116.812811,142.300813 Z" id="XMLID_130_" fill="#BCD7FD"></path>
                                    <path d="M89.3376084,73.2672069 C85.5360081,82.1664078 86.0544081,92.8800088 89.4240084,102.29761 C92.4480087,110.85121 98.0640093,117.158411 105.32161,119.664011 C101.52001,108.69121 96.9408091,97.9776092 93.5712088,87.0048082 C92.1024087,82.5120078 90.7200086,77.9328074 89.3376084,73.2672069 Z" id="XMLID_333_" fill="#000000"></path>
                                </g>
                                <g id="Hand_3_" transform="translate(133.056013, 53.568005)" fill-rule="nonzero">
                                    <path d="M0.432000041,40.0032038 L27.9072026,34.2144032 C27.9072026,34.2144032 49.8528047,77.9328074 48.6432046,78.3648074 C47.3472045,78.8832074 22.3776021,85.9680081 21.600002,85.4496081 C20.908802,84.931208 0.432000041,40.0032038 0.432000041,40.0032038 Z" id="XMLID_367_" fill="#BCD7FD"></path>
                                    <path d="M27.9936026,34.1280032 C37.8432036,31.363203 54.5184051,27.5616026 54.5184051,27.5616026 C54.5184051,27.5616026 59.3568056,15.5520015 65.4048062,7.08480067 C66.4416063,5.61600053 75.0816071,1.46880014 76.5504072,0.864000082 C91.4112086,-4.49280042 81.5616077,37.8432036 81.5616077,37.8432036 C81.5616077,37.8432036 43.7184041,70.9344067 43.2000041,70.1568066 C42.595204,69.4656066 27.9936026,34.1280032 27.9936026,34.1280032 Z" id="XMLID_320_" fill="#FFCEA6"></path>
                                    <path d="M63.763206,22.5504021 C63.676806,19.0080018 63.072006,15.8112015 61.7760058,12.5280012 C62.6400059,10.713601 63.331206,8.81280083 63.763206,6.73920064 C64.022406,5.52960052 62.6400059,4.2336004 61.5168058,5.09760048 C59.3568056,6.73920064 57.7152054,8.64000082 56.6784053,10.886401 C56.5920053,10.972801 56.5056053,11.059201 56.5056053,11.2320011 C53.9136051,16.5888016 52.790405,22.1184021 53.136005,28.1664027 C53.222405,29.0304027 53.7408051,29.4624028 54.4320051,29.5488028 C55.0368052,29.9808028 55.8144053,29.9808028 56.3328053,29.5488028 C56.8512054,30.4992029 58.3200055,30.9312029 58.9248056,29.7216028 C59.2704056,29.1168027 59.5296056,28.5984027 59.7888056,27.9936026 C60.1344057,27.8208026 60.3936057,27.5616026 60.5664057,27.0432026 C60.9120057,26.1792025 61.2576058,25.1424024 61.5168058,24.0192023 C62.4672059,24.2784023 63.763206,23.6736022 63.763206,22.5504021 Z" id="XMLID_112_" fill="#FFCEA6"></path>
                                    <path d="M61.6896058,14.4288014 C61.4304058,13.8240013 60.5664057,14.3424014 60.8256057,14.9472014 C62.0352059,17.6256017 62.6400059,20.4768019 62.7264059,23.4144022 C62.7264059,24.0192023 63.763206,24.1056023 63.763206,23.4144022 C63.590406,20.3040019 62.8992059,17.2800016 61.6896058,14.4288014 Z" id="XMLID_295_" fill="#B5855E"></path>
                                </g>
                                <g id="Point_2" transform="translate(181.440017, 14.688001)" fill="#FC607D" fill-rule="nonzero">
                                    <path d="M53.8272051,48.6432046 C54.0000051,61.2576058 45.1008043,68.1696064 34.3008032,68.1696064 C23.5008022,68.1696064 14.7744014,59.4432056 14.7744014,48.6432046 C14.7744014,37.8432036 21.427202,28.6848027 34.0416032,28.2528027 C44.8416042,27.9072026 53.6544051,37.8432036 53.8272051,48.6432046 Z" id="XMLID_115_"></path>
                                    <path d="M27.0432026,1.55520015 C26.7840025,0.259200024 24.8832023,0.864000082 25.0560024,2.0736002 C26.0928025,7.08480067 27.0432026,12.1824011 28.0800027,17.1936016 C28.3392027,18.4896017 30.2400029,17.9712017 30.0672028,16.6752016 C29.1168027,11.6640011 28.0800027,6.65280063 27.0432026,1.55520015 Z" id="XMLID_290_"></path>
                                    <path d="M60.3072057,10.281601 C56.7648054,14.2560013 53.136005,18.3168017 49.5936047,22.2912021 C48.7296046,23.2416022 50.1120047,24.7104023 51.0624048,23.7600022 L61.7760058,11.7504011 C62.5536059,10.800001 61.1712058,9.33120088 60.3072057,10.281601 Z" id="XMLID_96_"></path>
                                    <path d="M8.38080079,36.8064035 C6.3936006,35.5968034 4.32000041,34.4736033 2.33280022,33.2640031 C1.20960011,32.5728031 0.172800016,34.3872032 1.29600012,34.9920033 C3.28320031,36.2016034 5.35680051,37.3248035 7.34400069,38.5344036 C8.4672008,39.2256037 9.5040009,37.4976035 8.38080079,36.8064035 Z" id="XMLID_288_"></path>
                                </g>
                                <g id="Hand_2_" transform="translate(92.448009, 59.616006)" fill-rule="nonzero">
                                    <path d="M61.0848058,137.635213 C69.2928065,128.822412 77.4144073,119.923211 84.758408,110.41921 C84.499208,107.39521 83.9808079,105.32161 83.9808079,105.32161 C83.9808079,105.32161 74.390407,74.9088071 60.9984058,35.5968034 C48.3840046,-1.38240013 41.2128039,4.75200045 0.345600033,5.44320051 C0.345600033,5.44320051 0.172800016,7.94880075 -2.45563593e-14,12.2688012 C25.9200024,51.0624048 46.7424044,93.2256088 61.0848058,137.635213 Z" id="XMLID_171_" fill="#BCD7FD"></path>
                                    <path d="M141.091213,7.25760068 C141.177613,4.92480046 139.276808,3.28320031 138.153613,4.14720039 C138.412813,2.33280022 134.956813,-0.172800016 133.920013,1.64160015 C133.574413,0.172800016 131.500812,-1.0368001 129.254412,1.90080018 C127.958412,3.54240033 126.835212,8.20800077 126.230412,10.886401 C125.712012,11.6640011 120.441611,16.0704015 118.886411,17.4528016 C116.985611,17.7984017 117.072011,7.25760068 117.158411,5.18400049 C117.331211,1.81440017 114.480011,-0.345600033 113.616011,1.64160015 C112.060811,5.09760048 110.24641,10.540801 109.98721,14.3424014 C109.81441,16.0704015 108.95041,23.5872022 104.28481,29.2896028 C98.4960093,33.9552032 91.8432087,39.9168038 85.276808,46.0512043 C86.1408081,64.7136061 88.7328084,83.1168078 92.8800088,101.26081 C108.00001,80.0928076 122.342412,55.5552052 128.822412,41.7312039 C129.427212,41.1264039 137.289613,29.9808028 137.548813,29.7216028 C140.918413,25.0560024 143.769614,17.8848017 144.115214,11.5776011 C143.856014,9.07200086 142.646413,6.3936006 141.091213,7.25760068 Z" id="XMLID_173_" fill="#FFCEA6"></path>
                                    <path d="M128.908812,17.2800016 C128.476812,17.7120017 127.699212,17.1072016 128.131212,16.6752016 C131.760012,12.9600012 133.574413,8.12160077 133.228813,3.02400029 C133.142413,2.41920023 134.179213,2.24640021 134.265613,2.93760028 C134.524813,8.20800077 132.710413,13.3920013 128.908812,17.2800016 Z" id="XMLID_114_" fill="#B5855E"></path>
                                    <path d="M133.228813,19.1808018 C136.080013,15.0336014 137.462413,10.368001 137.203213,5.44320051 C137.203213,4.75200045 138.153613,4.83840046 138.240013,5.52960052 C138.412813,10.713601 136.944013,15.5520015 134.092813,19.7856019 C133.747213,20.3040019 132.883213,19.6992019 133.228813,19.1808018 Z" id="XMLID_300_" fill="#B5855E"></path>
                                    <path d="M136.598413,21.513602 C139.017613,17.4528016 140.486413,13.1328012 140.918413,8.38080079 C141.004813,7.68960073 141.955213,7.86240074 141.955213,8.55360081 C141.523213,13.4784013 140.054413,17.9712017 137.462413,22.1184021 C137.030413,22.7232021 136.252813,22.1184021 136.598413,21.513602 Z" id="XMLID_299_" fill="#B5855E"></path>
                                    <path d="M91.1520086,40.5216038 C79.9200075,50.7168048 68.2560064,62.2080059 61.2576058,68.8608065 C47.0016044,82.5120078 48.2112045,139.363213 48.2112045,139.363213 C60.5664057,147.312014 76.4640072,138.326413 117.590411,76.7232072 C108.86401,67.4784064 98.2368093,51.0624048 91.1520086,40.5216038 Z" id="XMLID_298_" fill="#BCD7FD"></path>
                                    <path d="M109.64161,20.0448019 C109.55521,19.4400018 108.60481,19.3536018 108.60481,20.0448019 C108.95041,23.7600022 104.97601,26.8704025 102.72961,29.3760028 C100.310409,32.054403 97.9776092,34.7328033 95.558409,37.4112035 C95.126409,37.9296036 95.817609,38.6208036 96.2496091,38.1024036 C99.2736094,34.6464033 102.29761,31.276803 105.32161,27.8208026 C107.39521,25.6608024 109.90081,23.3280022 109.64161,20.0448019 Z" id="XMLID_297_" fill="#B5855E"></path>
                                    <path d="M71.1072067,64.3680061 C70.6752067,63.331206 70.2432066,62.2080059 69.8112066,61.1712058 C69.6384066,60.8256057 69.5520066,60.4800057 69.3792065,60.1344057 C65.9232062,51.4944049 62.4672059,42.854404 59.0112056,34.2144032 C58.7520055,33.6096032 59.7888056,33.3504031 59.9616057,33.9552032 C63.331206,42.422404 66.7008063,50.9760048 70.1568066,59.4432056 C70.3296066,59.7888056 70.4160066,60.1344057 70.5888067,60.4800057 C71.1072067,61.6896058 71.5392068,62.8992059 72.0576068,64.1952061 C72.3168068,64.7136061 71.3664067,64.9728061 71.1072067,64.3680061 Z" id="XMLID_294_" fill="#FFFFFF"></path>
                                    <path d="M77.0688073,54.4320051 C74.9088071,56.4192053 72.7488069,58.4064055 70.5888067,60.3936057 L69.8112066,61.0848058 C69.6384066,60.7392057 69.5520066,60.3936057 69.3792065,60.0480057 C69.6384066,59.7888056 69.8976066,59.6160056 70.1568066,59.3568056 C72.2304068,57.4560054 74.304007,55.5552052 76.2912072,53.6544051 C76.8960073,53.308805 77.5872073,54.0000051 77.0688073,54.4320051 Z" id="XMLID_111_" fill="#FFFFFF"></path>
                                </g>
                            </g>
                            <g id="Window_3" transform="translate(216.000020, 336.872032)">
                                <path d="M113.702411,0.777600073 C102.03841,55.2960052 90.3744085,109.72801 78.7104074,164.246416 C79.4016075,164.332816 80.0928076,164.332816 80.6976076,164.419216 C92.3616087,109.98721 104.02561,55.5552052 115.689611,1.12320011 C116.035211,-0.172800016 114.048011,-0.432000041 113.702411,0.777600073 Z" id="XMLID_2968_" fill="#FECA55" fill-rule="nonzero"></path>
                            </g>
                            <g id="Window_1" transform="translate(171.936016, 94.952010)">
                                <path d="M109.03681,65.3184062 L27.5616026,65.3184062 C27.0432026,65.3184062 26.5248025,64.8864061 26.5248025,64.2816061 L26.5248025,9.07200086 C26.5248025,8.55360081 26.9568025,8.03520076 27.5616026,8.03520076 L109.03681,8.03520076 C109.55521,8.03520076 110.07361,8.4672008 110.07361,9.07200086 L110.07361,64.2816061 C109.98721,64.8000061 109.55521,65.3184062 109.03681,65.3184062 Z" id="XMLID_422_" fill="#FFD423"></path>
                                <path d="M136.339213,37.0656035 L121.219211,22.9824022 C120.268811,22.1184021 118.800011,23.5008022 119.750411,24.4512023 C121.996812,26.6112025 124.329612,28.6848027 126.576012,30.8448029 C127.612812,31.795203 133.315213,35.8560034 133.401613,37.2384035 C133.660813,39.3120037 129.513612,41.4720039 128.044812,42.768004 C125.280012,45.1008043 122.515212,47.3472045 119.836811,49.6800047 C118.800011,50.5440048 120.268811,51.9264049 121.305611,51.1488048 C126.316812,47.0016044 131.328012,42.768004 136.252813,38.6208036 C136.771213,38.1888036 136.684813,37.4112035 136.339213,37.0656035 Z" id="XMLID_3003_" fill="#008EFF" fill-rule="nonzero"></path>
                                <path d="M0.604800057,37.0656035 L15.7248015,22.9824022 C16.6752016,22.1184021 18.1440017,23.5008022 17.1936016,24.4512023 C14.9472014,26.6112025 12.6144012,28.6848027 10.368001,30.8448029 C9.33120088,31.795203 3.62880034,35.8560034 3.54240033,37.2384035 C3.28320031,39.3120037 7.4304007,41.4720039 8.89920084,42.768004 C11.6640011,45.1008043 14.4288014,47.3472045 17.1072016,49.6800047 C18.1440017,50.5440048 16.6752016,51.9264049 15.6384015,51.1488048 C10.627201,47.0016044 5.61600053,42.768004 0.691200065,38.6208036 C0.259200024,38.1888036 0.259200024,37.4112035 0.604800057,37.0656035 Z" id="XMLID_3002_" fill="#008EFF" fill-rule="nonzero"></path>
                                <rect id="XMLID_419_" fill="#FFFFFF" fill-rule="nonzero" x="33.9552032" y="13.8240013" width="69.0336065" height="7.4304007"></rect>
                                <path d="M95.558409,24.8832023 L34.9920033,24.8832023 C33.6960032,24.8832023 33.6960032,26.8704025 34.9920033,26.8704025 L95.558409,26.8704025 C96.8544091,26.9568025 96.8544091,24.8832023 95.558409,24.8832023 Z" id="XMLID_418_" fill="#FFFFFF" fill-rule="nonzero"></path>
                                <rect id="XMLID_3001_" fill="#FFFFFF" fill-rule="nonzero" x="81.3888077" y="42.422404" width="20.908802" height="13.8240013"></rect>
                                <path d="M60.4800057,63.590406 C65.0592061,86.7456082 69.7248066,109.81441 74.304007,132.969613 C74.563207,134.265613 76.4640072,133.747213 76.2912072,132.451212 C71.7120068,109.46881 67.1328063,86.5728082 62.5536059,63.590406 L60.4800057,63.590406 Z" id="XMLID_273_" fill="#FFD423"></path>
                                <path d="M38.6208036,0.345600033 L26.5248025,0.345600033 C25.2288024,0.345600033 25.2288024,2.33280022 26.5248025,2.33280022 L38.6208036,2.33280022 C39.9168038,2.33280022 39.9168038,0.345600033 38.6208036,0.345600033 Z" id="XMLID_225_" fill="#FF5950" fill-rule="nonzero"></path>
                            </g>
                            <g id="Man" transform="translate(523.584049, 56.936006)">
                                <g id="Legs" transform="translate(15.552001, 313.632030)" fill-rule="nonzero">
                                    <g id="XMLID_177_" fill="#008EFF">
                                        <path d="M42.076804,15.1200014 C30.1536028,83.6352079 25.3152024,308.620829 26.7840025,339.897632 L80.6112076,344.908833 C80.6112076,344.908833 89.2512084,247.276823 85.104008,228.096022 C85.104008,228.096022 113.184011,23.1552022 112.147211,0.172800016 L42.076804,15.1200014 Z" id="XMLID_135_"></path>
                                    </g>
                                    <g id="XMLID_178_" transform="translate(73.440007, 7.776001)">
                                        <path d="M144.460814,327.024031 L91.0656086,334.800032 C80.1792076,311.990429 57.8016055,248.918423 49.9392047,218.505621 C43.5456041,193.622418 5.96160056,24.0192023 2.59200024,0.691200065 L83.5488079,0.691200065 C84.326408,4.75200045 84.931208,8.64000082 85.5360081,12.2688012 C87.0048082,21.081602 88.0416083,28.5984027 88.7328084,35.1648033 C89.1648084,38.9664037 89.7696085,44.1504042 90.5472085,50.3712048 C96.5952091,97.5456092 111.888011,202.694419 111.888011,202.694419 C119.404811,212.71682 144.460814,327.024031 144.460814,327.024031 Z" id="XMLID_375_" fill="#008EFF"></path>
                                        <path d="M25.8336024,111.974411 C22.8096022,97.4592092 19.6992019,82.9440078 16.6752016,68.4288065 C16.5888016,68.0832064 16.5888016,67.8240064 16.5024016,67.4784064 C16.7616016,67.5648064 17.1072016,67.6512064 17.3664016,67.7376064 C17.4528016,68.0832064 17.5392017,68.3424064 17.5392017,68.6880065 C20.5632019,83.0304078 23.5872022,97.3728092 26.6112025,111.715211 C26.7840025,112.233611 25.9200024,112.492811 25.8336024,111.974411 Z" id="XMLID_2983_" fill="#000000"></path>
                                        <path d="M17.5392017,68.6880065 C17.2800016,68.6016065 16.9344016,68.5152065 16.5888016,68.4288065 L1.0368001,63.936006 C0.604800057,63.763206 0.691200065,63.158406 1.12320011,63.158406 C1.81440017,63.072006 12.0096011,66.3552063 16.3296015,67.5648064 C16.5888016,67.6512064 16.9344016,67.7376064 17.1936016,67.8240064 C17.4528016,68.0832064 17.5392017,68.3424064 17.5392017,68.6880065 Z" id="XMLID_363_" fill="#000000"></path>
                                    </g>
                                </g>
                                <path d="M150.854414,70.8480067 C169.862416,86.9184082 197.337619,111.02401 210.72962,127.699212 C228.182422,149.472014 221.184021,163.123215 187.747218,231.811222 C184.312985,238.851399 180.622807,246.403467 176.591906,254.636981 C176.594646,254.689229 176.598136,254.741409 176.601617,254.793624 C177.206417,264.124825 177.552017,274.665626 177.811217,285.465627 C178.416017,320.19843 177.724817,356.572834 177.724817,356.572834 L54.1728051,353.462433 C54.1728051,328.320031 52.531205,280.886427 52.2720049,258.163224 L50.7958973,256.091213 C2.46996023,188.278137 -7.73020873,176.002865 5.35680051,150.940814 C15.1200014,132.192012 37.0656035,103.68001 52.2720049,84.758408 C61.4304058,91.6704087 71.2800067,97.6320092 81.0432076,103.76641 C70.5024067,130.982412 54.1728051,169.516816 54.1728051,169.516816 C64.3680061,178.588817 84.758408,202.521619 96.7680091,216.95042 C98.9280093,219.456021 100.82881,221.788821 102.29761,223.603221 L102.29761,223.603221 L122.256012,221.616021 C122.256012,221.616021 122.286191,221.606967 122.344858,221.589423 L122.256012,221.529621 C122.256012,221.529621 123.033612,220.060821 124.502412,217.555221 C124.588812,217.382421 124.675212,217.296021 124.761612,217.12322 C127.958412,211.59362 133.920013,201.398419 140.486413,190.684818 C148.953614,176.774417 158.544015,161.740815 164.419216,154.483215 C164.419216,154.483215 140.486413,119.318411 124.675212,94.2624089 C129.945612,89.7696085 147.312014,73.958407 150.854414,70.8480067 Z" id="Combined-Shape" fill="url(#linearGradient-3)"></path>
                                <g id="Hands" transform="translate(49.248005, 0.000000)" fill-rule="nonzero">
                                    <g id="Hand_5_" transform="translate(63.072006, 53.568005)">
                                        <path d="M61.9488058,97.8912092 C59.4432056,98.4096093 56.9376054,98.9280093 54.3456051,99.4464094 C53.7408051,99.5328094 54.0000051,100.569609 54.6048052,100.396809 C57.1104054,99.8784094 59.6160056,99.3600094 62.2080059,98.8416093 C62.8128059,98.7552093 62.5536059,97.8048092 61.9488058,97.8912092 Z" id="XMLID_332_" fill="#000000"></path>
                                        <path d="M32.6592031,29.6352028 C36.2880034,26.9568025 39.8304038,24.1920023 43.3728041,21.427202 C29.2032028,9.33120088 18.2304017,0.604800057 18.2304017,0.604800057 L0.518400049,20.822402 C3.02400029,25.5744024 7.94880075,33.6960032 13.8240013,42.9408041 C19.6128019,38.0160036 26.6112025,34.1280032 32.6592031,29.6352028 Z" id="XMLID_381_" fill="#8D5A3B"></path>
                                    </g>
                                    <g id="Hand_4_" transform="translate(0.000000, 31.968003)">
                                        <path d="M30.5856029,74.7360071 C34.6464033,64.4544061 37.9296036,55.3824052 39.4848037,50.1984047 L19.0080018,33.2640031 C19.0080018,33.2640031 11.4048011,42.249604 1.20960011,54.9504052 C10.368001,62.4672059 20.3904019,68.7744065 30.5856029,74.7360071 Z" id="XMLID_380_" fill="#8D5A3B"></path>
                                        <path d="M3.88800037,135.388813 C3.02400029,134.179213 2.24640021,133.056013 1.38240013,131.846412 C1.0368001,131.328012 0.172800016,131.846412 0.518400049,132.364812 C1.38240013,133.574413 2.1600002,134.697613 3.02400029,135.907213 C3.36960032,136.425613 4.2336004,135.907213 3.88800037,135.388813 Z" id="XMLID_331_" fill="#000000"></path>
                                        <path d="M26.2656025,53.8272051 C26.6976025,55.0368052 28.3392027,55.9008053 29.5488028,55.4688052 C29.8080028,55.3824052 30.1536028,55.2960052 30.4128029,55.1232052 L30.4992029,55.6416053 C30.5856029,56.3328053 30.8448029,56.9376054 31.276803,57.3696054 C30.9312029,59.6160056 30.4128029,61.8624058 29.7216028,64.022406 C29.5488028,64.6272061 29.5488028,65.2320062 29.8080028,65.7504062 C33.1776031,60.6528057 37.3248035,55.9872053 39.6576037,50.2848047 C39.9168038,49.6800047 40.2624038,49.0752046 40.6080038,48.4704046 C40.6080038,48.3840046 40.6080038,48.2976046 40.6080038,48.2976046 C45.5328043,38.2752036 43.5456041,8.4672008 39.4848037,10.108801 C35.1648033,11.8368011 36.1152034,15.6384015 36.3744034,19.2672018 C35.1648033,19.5264018 32.227203,21.9456021 31.881603,22.3776021 C31.363203,21.254402 30.8448029,20.2176019 30.3264029,19.1808018 C33.2640031,14.6016014 35.1648033,9.41760089 36.0288034,3.88800037 C36.5472034,0.432000041 31.363203,-1.0368001 30.7584029,2.33280022 C30.4992029,2.33280022 30.2400029,2.33280022 30.0672028,2.41920023 C23.4144022,6.82560064 19.1808018,12.2688012 17.5392017,19.6992019 C15.8976015,27.3024026 15.5520015,34.9920033 15.7248015,42.768004 C15.4656015,45.5328043 15.1200014,48.3840046 14.8608014,51.1488048 C14.6880014,52.617605 15.6384015,53.481605 16.7616016,53.7408051 C17.5392017,54.5184051 18.7488018,54.7776052 19.7856019,54.3456051 C20.2176019,54.2592051 20.6496019,54.0864051 20.995202,53.8272051 C21.254402,54.0864051 21.513602,54.4320051 21.8592021,54.6912052 C23.4144022,56.0736053 25.4016024,55.5552052 26.2656025,53.8272051 Z" id="XMLID_313_" fill="#8D5A3B"></path>
                                        <path d="M28.2528027,18.1440017 C28.0800027,19.6992019 27.9072026,21.254402 27.7344026,22.8960022 C27.6480026,23.5008022 28.6848027,23.5008022 28.7712027,22.8960022 C28.9440027,21.340802 29.1168027,19.7856019 29.2896028,18.1440017 C29.2896028,17.5392017 28.2528027,17.5392017 28.2528027,18.1440017 Z" id="XMLID_307_" fill="#000000"></path>
                                        <path d="M25.3152024,21.168002 C24.8832023,20.0448019 26.0064025,19.0944018 26.5248025,17.9712017 C27.2160026,16.5888016 27.5616026,15.1200014 27.8208026,13.5648013 C27.9072026,12.9600012 26.9568025,12.6144012 26.8704025,13.3056013 C26.4384025,15.9840015 25.4880024,18.3168017 23.8464023,20.3904019 C23.6736022,20.5632019 23.5872022,20.908802 23.8464023,21.081602 C25.5744024,22.6368021 26.2656025,24.7104023 25.8336024,27.0432026 C25.6608024,27.6480026 26.6976025,27.9072026 26.7840025,27.3024026 C27.0432026,26.2656025 27.0432026,25.2288024 26.8704025,24.1920023 C26.6112025,22.9824022 25.7472024,22.2912021 25.3152024,21.168002 Z" id="XMLID_306_" fill="#000000"></path>
                                    </g>
                                    <g id="Point_3" transform="translate(19.008002, 0.000000)" fill="#FC607D">
                                        <path d="M54.9504052,41.6448039 C55.1232052,56.5056053 44.6688042,64.6272061 31.968003,64.6272061 C19.2672018,64.6272061 8.98560085,54.3456051 8.98560085,41.6448039 C8.98560085,28.9440027 16.8480016,18.1440017 31.708803,17.6256017 C44.4096042,17.1936016 54.7776052,28.9440027 54.9504052,41.6448039 Z" id="XMLID_312_"></path>
                                        <path d="M73.5264069,0.691200065 C69.0336065,4.92480046 64.5408061,9.15840086 59.9616057,13.3920013 C59.0112056,14.2560013 60.4800057,15.7248015 61.4304058,14.8608014 C65.9232062,10.627201 70.4160066,6.3936006 74.9952071,2.1600002 C75.8592072,1.20960011 74.476807,-0.259200024 73.5264069,0.691200065 Z" id="XMLID_109_"></path>
                                        <path d="M8.89920084,20.4768019 L1.81440017,13.3920013 C0.864000082,12.4416012 -0.518400049,13.9104013 0.345600033,14.8608014 L7.4304007,21.9456021 C8.38080079,22.8096022 9.76320092,21.340802 8.89920084,20.4768019 Z" id="XMLID_267_"></path>
                                        <path d="M78.6240074,23.3280022 C74.217607,24.0192023 69.8976066,24.7104023 65.4912062,25.4016024 C64.1952061,25.5744024 64.7136061,27.5616026 66.0096062,27.3888026 C70.4160066,26.6976025 74.7360071,26.0064025 79.1424075,25.3152024 C80.4384076,25.0560024 79.9200075,23.1552022 78.6240074,23.3280022 Z" id="XMLID_266_"></path>
                                    </g>
                                    <path d="M82.9440078,59.1840056 C83.0304078,58.8384056 83.1168078,58.4928055 83.0304078,58.0608055 C82.1664078,54.8640052 81.3888077,51.5808049 80.5248076,48.3840046 C80.6112076,39.8304038 76.1184072,31.363203 68.2560064,23.9328023 C65.7504062,21.600002 64.022406,24.1056023 66.0096062,27.3024026 C67.3056064,30.8448029 69.1200065,33.9552032 71.7120068,36.7200035 C71.7120068,37.0656035 70.3296066,47.7792045 70.3296066,53.049605 C70.3296066,53.7408051 60.4800057,58.5792055 58.1472055,63.072006 C58.4064055,68.9472065 61.6032058,74.217607 67.2192063,77.3280073 C69.2928065,78.4512074 70.8480067,76.1184072 69.8112066,74.476807 C69.9840066,74.390407 70.1568066,74.217607 70.3296066,74.044807 C71.7120068,74.390407 73.3536069,73.3536069 72.8352069,71.6256068 C72.8352069,71.5392068 72.7488069,71.4528067 72.7488069,71.3664067 C73.958407,71.3664067 75.1680071,70.3296066 74.9088071,68.9472065 C75.2544071,68.9472065 75.6864071,68.7744065 75.9456072,68.6016065 C75.9456072,68.6016065 76.0320072,68.6880065 76.0320072,68.6880065 C76.9824073,69.7248066 79.1424075,69.2928065 79.4016075,67.8240064 C79.7472075,65.6640062 79.8336075,63.504006 79.8336075,61.4304058 C81.2160077,62.2944059 83.5488079,61.2576058 82.9440078,59.1840056 C82.9440078,59.1840056 82.9440078,59.1840056 82.9440078,59.1840056 Z" id="Finger" fill="#8D5A3B"></path>
                                    <path d="M31.363203,33.6096032 C30.6720029,33.5232032 27.2160026,36.5472034 26.3520025,37.8432036 C26.0064025,38.3616036 26.0064025,38.9664037 26.1792025,39.3984037 C25.3152024,40.4352038 24.3648023,41.4720039 23.3280022,42.422404 C21.427202,44.1504042 24.2784023,47.0016044 26.1792025,45.2736043 C29.0304027,42.681604 31.449603,39.7440038 33.5232032,36.5472034 C34.5600033,34.9056033 32.9184031,33.4368032 31.363203,33.6096032 Z" id="Finger_1_" fill="#952C28"></path>
                                </g>
                                <g id="Head" transform="translate(81.216008, 161.568015)" fill-rule="nonzero">
                                    <path d="M43.4592041,56.1600053 C38.1888036,47.2608045 28.3392027,30.4128029 27.9072026,28.9440027 L8.4672008,34.9920033 L14.1696013,50.8896048 L17.4528016,60.1344057 L20.0448019,67.3056064 L33.2640031,64.4544061 C36.1152034,61.1712058 39.7440038,58.5792055 43.4592041,56.1600053 Z" id="XMLID_184_" fill="#8D5A3B"></path>
                                    <path d="M24.5376023,29.9808028 L8.4672008,34.9920033 L13.7376013,49.6800047 C19.0944018,44.3232042 23.6736022,37.4112035 24.5376023,29.9808028 Z" id="XMLID_402_" fill="#000000"></path>
                                    <path d="M45.8784043,21.686402 C47.1744045,11.6640011 26.9568025,-2.41920023 20.0448019,4.66560044 C14.7744014,9.93600094 1.12320011,21.9456021 0.518400049,29.9808028 C-0.259200024,40.5216038 12.2688012,45.0144042 21.254402,42.508804 C30.0672028,40.0896038 44.4960042,31.536003 45.8784043,21.686402 Z" id="XMLID_401_" fill="#8D5A3B"></path>
                                    <path d="M40.4352038,31.363203 C43.2864041,28.4256027 45.4464043,25.1424024 45.8784043,21.686402 C46.7424044,15.2928014 38.7936037,7.25760068 31.1040029,4.14720039 C31.0176029,3.88800037 30.8448029,3.71520035 30.6720029,3.45600033 C29.8080028,2.33280022 28.2528027,1.55520015 27.0432026,1.81440017 C25.9200024,0.345600033 23.8464023,-0.432000041 22.0320021,0.604800057 C19.5264018,1.90080018 19.6128019,5.09760048 19.5264018,5.2704005 C21.081602,7.94880075 24.1920023,10.540801 26.1792025,12.3552012 C29.2032028,15.2064014 33.0912031,18.2304017 35.9424034,19.7856019 C35.7696034,19.8720019 31.1904029,28.4256027 40.4352038,31.363203 Z" id="XMLID_400_" fill="#000000"></path>
                                    <path d="M42.422404,37.4976035 C43.5456041,34.1280032 40.6080038,29.4624028 35.7696034,29.6352028 C33.3504031,32.6592031 30.7584029,35.5104034 28.1664027,38.4480036 C29.1168027,40.4352038 32.4000031,43.0272041 35.4240033,43.0272041 C38.9664037,42.9408041 41.2128039,41.1264039 42.422404,37.4976035 Z" id="XMLID_399_" fill="#8D5A3B"></path>
                                    <path d="M16.1568015,66.3552063 C13.4784013,62.3808059 14.5152014,58.1472055 15.4656015,55.3824052 C19.2672018,55.7280053 39.5712037,55.8144053 43.5456041,55.6416053 C43.5456041,55.7280053 40.6080038,65.8368062 32.5728031,69.5520066 C27.6480026,71.8848068 18.8352018,70.3296066 16.1568015,66.3552063 Z" id="XMLID_357_" fill="#8D5A3B"></path>
                                    <path d="M37.5840035,36.6336035 L34.3008032,36.3744034 C33.6960032,36.2880034 33.6960032,37.3248035 34.3008032,37.4112035 L37.5840035,37.6704036 C38.2752036,37.6704036 38.2752036,36.6336035 37.5840035,36.6336035 Z" id="XMLID_351_" fill="#000000"></path>
                                    <path d="M13.5648013,22.5504021 C12.6144012,22.1184021 11.5776011,21.686402 10.972801,20.822402 C10.454401,20.0448019 10.454401,18.7488018 11.4912011,18.4032017 C12.0960011,18.2304017 11.8368011,17.2800016 11.2320011,17.4528016 C10.0224009,17.7984017 9.41760089,19.0944018 9.67680091,20.3040019 C9.93600094,21.9456021 11.6640011,22.8096022 13.0464012,23.4144022 C13.6512013,23.6736022 14.1696013,22.8096022 13.5648013,22.5504021 Z" id="XMLID_127_" fill="#000000"></path>
                                    <path d="M15.5520015,31.449603 C14.7744014,32.140803 13.5648013,32.313603 12.6144012,31.881603 C12.0096011,31.622403 11.4912011,32.4864031 12.0960011,32.7456031 C13.5648013,33.3504031 15.0336014,33.1776031 16.2432015,32.140803 C16.7616016,31.708803 16.0704015,31.0176029 15.5520015,31.449603 Z" id="XMLID_349_" fill="#000000"></path>
                                    <path d="M27.8208026,18.4032017 C27.6480026,18.0576017 27.4752026,17.7120017 27.3024026,17.3664016 C26.6976025,16.2432015 24.9696024,17.1936016 25.5744024,18.4032017 C25.7472024,18.7488018 25.9200024,19.0944018 26.0928025,19.4400018 C26.6112025,20.5632019 28.3392027,19.5264018 27.8208026,18.4032017 Z" id="XMLID_348_" fill="#000000"></path>
                                    <path d="M17.4528016,8.89920084 C16.8480016,8.64000082 16.2432015,8.38080079 15.7248015,8.12160077 C15.2064014,7.94880075 14.6016014,7.94880075 14.3424014,8.4672008 C14.0832013,8.89920084 14.1696013,9.59040091 14.6880014,9.84960093 C15.2928014,10.108801 15.8976015,10.368001 16.4160015,10.627201 C16.9344016,10.800001 17.5392017,10.800001 17.7984017,10.281601 C18.0576017,9.93600094 17.9712017,9.15840086 17.4528016,8.89920084 Z" id="XMLID_126_" fill="#000000"></path>
                                    <path d="M24.2784023,20.908802 C23.5872022,21.427202 22.9824022,21.9456021 22.2912021,22.5504021 C21.7728021,22.9824022 22.5504021,23.6736022 22.9824022,23.2416022 C23.6736022,22.7232021 24.2784023,22.2048021 24.9696024,21.600002 C25.4880024,21.254402 24.7104023,20.4768019 24.2784023,20.908802 Z" id="XMLID_338_" fill="#000000"></path>
                                    <path d="M14.7744014,11.5776011 C14.0832013,12.0960011 13.4784013,12.6144012 12.7872012,13.2192012 C12.2688012,13.6512013 13.0464012,14.3424014 13.4784013,13.9104013 C14.1696013,13.3920013 14.7744014,12.8736012 15.4656015,12.2688012 C15.9840015,11.8368011 15.2928014,11.1456011 14.7744014,11.5776011 Z" id="XMLID_337_" fill="#000000"></path>
                                </g>
                            </g>
                            <g id="Woman_2" transform="translate(780.192074, 214.184021)">
                                <path d="M207.01442,104.45761 L196.560019,157.334415 L188.870418,195.955218 L91.6704087,163.728015 C91.6704087,163.728015 95.817609,149.126414 101.52001,131.587212 C99.2736094,126.057612 105.40801,113.616011 106.53121,109.12321 C109.55521,97.6320092 109.46881,96.1632091 109.72801,95.385609 L159.235215,81.3024077 L168.134416,78.7968074 L177.897617,83.1168078 L190.771218,92.5344087 L207.01442,104.45761 Z" id="Body_2_" fill="#FC607D" fill-rule="nonzero"></path>
                                <path d="M188.956818,56.7648054 C187.747218,61.1712058 181.180817,65.4912062 185.241617,67.4784064 C179.884817,74.044807 177.465617,85.7088081 183.168017,91.3248086 C186.364818,94.4352089 204.076819,95.385609 208.31042,96.6816091 C211.76642,97.7184092 216.17282,97.2864092 217.728021,93.6576088 C221.011221,95.817609 225.417621,95.558409 228.528022,92.9664088 C231.984022,90.0288085 233.020822,85.104008 231.984022,80.7840076 C230.774422,75.8592072 227.232021,72.0576068 223.084821,69.2928065 C220.233621,67.3920064 216.60482,65.7504062 213.32162,66.8736063 C216.25922,62.9856059 216.34562,57.5424054 212.97602,53.7408051 C209.34722,49.6800047 203.385619,49.3344047 199.152019,52.3584049 C199.324819,51.1488048 199.497619,49.8528047 199.670419,48.6432046 C199.843219,48.4704046 199.843219,48.2112045 199.670419,48.1248045 C199.497619,47.8656045 199.152019,47.8656045 199.065619,48.1248045 C194.486418,48.9888046 190.252818,52.0992049 188.956818,56.7648054 Z" id="Hair" fill="#952C28" fill-rule="nonzero"></path>
                                <g id="Leg_1_" transform="translate(0.000000, 163.296015)" fill-rule="nonzero">
                                    <path d="M163.555215,13.5648013 C161.222415,13.1328012 158.803215,12.7872012 156.470415,12.3552012 C144.201614,10.281601 131.846412,8.29440078 119.664011,6.04800057 C110.33281,4.32000041 101.08801,1.81440017 91.7568087,0.345600033 C67.5648064,73.872007 50.6304048,191.030418 47.9520045,210.21122 C45.9648043,224.121621 42.422404,292.896028 41.8176039,325.296031 C41.5584039,337.651232 37.9296036,344.044832 31.968003,346.982433 C15.8112015,354.931233 1.90080018,350.265633 0.864000082,368.409635 L68.5152065,368.409635 C68.5152065,368.409635 99.8784094,270.518426 94.6944089,241.920023 C94.5216089,242.006423 147.744014,68.1696064 163.555215,13.5648013 Z" id="XMLID_2993_" fill="#FFCEA6"></path>
                                    <path d="M80.7840076,325.728031 C88.9056084,295.660828 97.3728092,257.990424 94.5216089,242.006423 C94.5216089,242.006423 147.744014,68.1696064 163.555215,13.4784013 C161.222415,13.0464012 158.803215,12.7008012 156.470415,12.2688012 C144.201614,10.195201 131.846412,8.20800077 119.664011,5.96160056 C110.33281,4.2336004 101.08801,1.72800016 91.7568087,0.259200024 C67.5648064,73.785607 50.6304048,190.944018 47.9520045,210.12482 C46.0512043,223.689621 42.595204,289.440027 41.8176039,322.79043 C54.7776052,323.740831 67.8240064,324.777631 80.7840076,325.728031 Z" id="XMLID_392_" fill="#9BD3FF"></path>
                                </g>
                                <g id="Leg" transform="translate(106.272010, 168.480016)" fill-rule="nonzero">
                                    <path d="M115.171211,343.872032 C87.2640082,350.352033 89.8560085,356.918434 88.5600084,363.312034 L158.630415,363.312034 C144.288014,267.321625 118.368011,229.737622 118.368011,229.737622 C113.788811,191.462418 83.9808079,44.9280042 83.9808079,44.9280042 L86.4000082,13.1328012 C74.304007,11.1456011 62.2080059,9.24480087 50.1120047,7.17120068 C37.8432036,5.09760048 25.4880024,3.11040029 13.3056013,0.864000082 C11.9232011,0.604800057 10.627201,0.345600033 9.24480087,0.0864000082 L0.259200024,33.2640031 C0.259200024,33.2640031 47.6064045,172.713616 63.158406,221.961621 C78.7968074,271.209626 134.784013,339.292832 115.171211,343.872032 Z" id="XMLID_2992_" fill="#FFCEA6"></path>
                                    <path d="M149.731214,315.96483 C135.648013,254.707224 118.368011,229.737622 118.368011,229.737622 C113.788811,191.462418 83.9808079,44.9280042 83.9808079,44.9280042 L86.4000082,13.1328012 C74.304007,11.1456011 62.2080059,9.24480087 50.1120047,7.17120068 C37.8432036,5.09760048 25.4880024,3.11040029 13.3056013,0.864000082 C11.9232011,0.604800057 10.627201,0.345600033 9.24480087,0.0864000082 L0.259200024,33.2640031 C0.259200024,33.2640031 47.6064045,172.713616 63.158406,221.961621 C73.5264069,254.707224 101.69281,295.747228 113.616011,320.97603 C125.712012,319.07523 137.808013,317.77923 149.731214,315.96483 Z" id="XMLID_389_" fill="#9BD3FF"></path>
                                    <path d="M56.5056053,40.8672039 C65.1456061,51.1488048 75.6000071,58.5792055 87.6960083,63.244806 C85.4496081,51.9264049 83.9808079,44.9280042 83.9808079,44.9280042 L86.4000082,13.1328012 C74.304007,11.1456011 62.2080059,9.24480087 50.1120047,7.17120068 C46.3104044,6.56640062 42.508804,5.87520055 38.7936037,5.2704005 C40.3488038,18.3168017 48.7296046,31.622403 56.5056053,40.8672039 Z" id="XMLID_388_" fill="#000000"></path>
                                </g>
                                <g id="Hand" transform="translate(22.464002, 0.000000)" fill-rule="nonzero">
                                    <path d="M145.670414,78.7104074 L136.166413,84.326408 L81.4752077,116.812811 L61.3440058,128.822412 C53.9136051,115.257611 45.1872043,102.47041 37.1520035,89.1648084 C40.6944038,87.4368083 44.4960042,85.5360081 48.5568046,83.3760079 C91.6704087,60.6528057 99.3600094,59.7024056 137.894413,75.4272071 C140.400013,76.4640072 142.992013,77.5872073 145.670414,78.7104074 Z" id="XMLID_386_" fill="#FC607D"></path>
                                    <g id="Pen" transform="translate(12.096001, 0.000000)">
                                        <path d="M47.1744045,235.872022 C46.6560044,236.908822 45.8784043,238.204822 44.9280042,239.500823 C44.4960042,240.019223 44.0640042,240.624023 43.6320041,241.142423 C35.5104034,251.251224 17.5392017,265.852825 9.24480087,262.396825 C-0.518400049,258.336024 -0.432000041,235.008022 1.98720019,222.739221 C2.0736002,222.134421 2.24640021,221.616021 2.33280022,221.097621 C2.33280022,221.011221 2.41920023,220.838421 2.41920023,220.752021 C2.59200024,220.147221 2.67840025,219.542421 2.85120027,219.110421 C3.11040029,218.160021 3.36960032,217.382421 3.71520035,216.69122 L64.6272061,78.8832074 L67.9104064,71.4528067 L95.9904091,7.94880075 C96.2496091,7.34400069 96.5088091,6.82560064 96.8544091,6.3936006 C97.2000092,5.78880055 97.7184092,5.2704005 98.1504093,4.75200045 C102.47041,0.432000041 110.76481,-0.604800057 119.404811,1.72800016 C119.750411,1.81440017 120.182411,1.90080018 120.528011,2.0736002 C120.614411,2.0736002 120.700811,2.1600002 120.787211,2.1600002 C121.046411,2.24640021 121.305611,2.33280022 121.564811,2.41920023 C121.996812,2.59200024 122.342412,2.67840025 122.774412,2.85120027 C123.206412,3.02400029 123.552012,3.11040029 123.984012,3.28320031 C124.243212,3.36960032 124.588812,3.54240033 124.848012,3.62880034 C125.193612,3.80160036 125.539212,3.97440038 125.884812,4.14720039 C126.230412,4.32000041 126.576012,4.49280042 126.921612,4.66560044 C127.267212,4.83840046 127.612812,5.01120047 127.872012,5.18400049 C135.648013,9.76320092 140.400013,17.1936016 140.140813,23.4144022 C140.140813,24.1056023 140.054413,24.7968023 139.881613,25.4880024 C139.795213,26.0928025 139.536013,26.6112025 139.363213,27.2160026 L111.283211,90.7200086 L110.50561,92.5344087 L108.00001,98.1504093 L47.1744045,235.872022 Z" id="XMLID_2989_" fill="#008EFF"></path>
                                        <path d="M114.912011,89.9424085 L110.76481,99.2736094 L61.8624058,77.5872073 L64.3680061,71.9712068 L66.6144063,66.9600063 L93.1392088,6.91200065 C93.3984088,6.3072006 93.7440088,5.70240054 94.1760089,5.09760048 C94.1760089,5.09760048 94.1760089,5.01120047 94.2624089,5.01120047 C94.6944089,4.49280042 95.212809,3.97440038 95.731209,3.54240033 C95.731209,3.54240033 95.731209,3.45600033 95.817609,3.45600033 C100.82881,-0.518400049 110.59201,-0.864000082 119.491211,1.55520015 C119.836811,1.64160015 120.268811,1.72800016 120.614411,1.90080018 C120.700811,1.90080018 120.787211,1.98720019 120.873611,1.98720019 C121.132811,2.0736002 121.392011,2.1600002 121.651211,2.24640021 C122.083212,2.41920023 122.428812,2.50560024 122.860812,2.67840025 C123.292812,2.85120027 123.638412,2.93760028 124.070412,3.11040029 C124.329612,3.1968003 124.675212,3.36960032 124.934412,3.45600033 C125.280012,3.62880034 125.625612,3.80160036 125.971212,3.97440038 C126.316812,4.14720039 126.662412,4.32000041 127.008012,4.49280042 C127.353612,4.66560044 127.699212,4.83840046 127.958412,5.01120047 C135.820813,9.5040009 142.041613,17.2800016 142.732813,23.6736022 C142.732813,23.9328023 142.819213,24.1056023 142.819213,24.3648023 C142.819213,24.8832023 142.819213,25.4016024 142.819213,25.8336024 C142.819213,26.0928025 142.732813,26.2656025 142.732813,26.5248025 C142.646413,27.1296026 142.473613,27.7344026 142.214413,28.2528027 L115.776011,87.9552083 L114.912011,89.9424085 Z" id="XMLID_2988_" fill="#008EFF"></path>
                                        <path d="M103.16161,11.1456011 C98.2368093,9.41760089 93.3120088,7.77600073 88.3872083,6.04800057 C87.1776082,5.61600053 85.5360081,6.3936006 85.017608,7.51680071 C76.2912072,25.6608024 67.4784064,43.8912041 58.7520055,62.0352059 C57.0240054,65.5776062 62.3808059,68.5152065 64.022406,64.9728061 C72.4032068,47.5200045 80.7840076,30.1536028 89.1648084,12.7008012 C93.3120088,14.1696013 97.4592092,15.5520015 101.60641,17.0208016 C105.40801,18.2304017 106.79041,12.3552012 103.16161,11.1456011 Z" id="XMLID_326_" fill="#008EFF"></path>
                                        <rect id="XMLID_316_" fill="#FFFFFF" transform="translate(89.251779, 81.953795) rotate(-66.121284) translate(-89.251779, -81.953795) " x="88.2581833" y="55.1699207" width="1.98719065" height="53.5677479"></rect>
                                        <path d="M142.646413,26.6112025 L94.1760089,5.18400049 C94.1760089,5.18400049 94.1760089,5.09760048 94.2624089,5.09760048 C94.6944089,4.57920043 95.212809,4.06080038 95.731209,3.62880034 L142.819213,24.4512023 C142.819213,24.9696024 142.819213,25.4880024 142.819213,25.9200024 C142.732813,26.1792025 142.646413,26.4384025 142.646413,26.6112025 Z" id="XMLID_315_" fill="#FFFFFF"></path>
                                        <path d="M44.8416042,239.587223 C44.4096042,240.105623 43.9776042,240.710423 43.5456041,241.228823 L1.98720019,222.825621 C2.0736002,222.220821 2.24640021,221.702421 2.33280022,221.184021 C2.33280022,221.097621 2.41920023,220.924821 2.41920023,220.838421 L44.8416042,239.587223 Z" id="XMLID_314_" fill="#FFFFFF"></path>
                                    </g>
                                    <path d="M68.6880065,218.073621 C64.5408061,217.382421 62.2944059,211.68002 60.7392057,208.05122 C61.8624058,205.977619 63.504006,204.076819 65.1456061,209.69282 C66.0960062,212.80322 72.2304068,214.61762 69.9840066,208.31042 C68.9472065,205.372819 67.9968064,199.411219 64.2816061,194.054418 C63.072006,192.412818 60.4800057,189.475218 57.6288054,187.488018 C55.6416053,175.305617 51.4080049,149.990414 49.0752046,136.080013 L54.8640052,128.390412 L57.7152054,121.996812 C51.2352048,107.91361 47.0880044,101.43361 40.7808038,87.3504082 C1.55520015,107.04961 -7.4304007,105.49441 7.94880075,147.398414 C14.7744014,166.060816 28.0800027,191.203218 33.0048031,200.707219 C36.3744034,213.49442 43.5456041,225.331221 48.9024046,229.996822 C52.4448049,233.107222 55.5552052,232.070422 55.2960052,230.256022 C55.5552052,230.256022 55.9008053,230.169622 56.1600053,230.169622 C59.0112056,231.552022 62.1216059,230.169622 61.8624058,228.528022 C62.1216059,228.355222 62.4672059,228.268822 62.7264059,228.096022 C63.936006,228.355222 65.6640062,228.355222 67.0464063,227.145621 C68.8608065,225.676821 68.1696064,224.640021 67.5648064,224.035221 C67.6512064,223.948821 67.7376064,223.862421 67.8240064,223.689621 C71.0208067,223.776021 72.2304068,218.678421 68.6880065,218.073621 Z" id="XMLID_120_" fill="#FFCEA6"></path>
                                    <path d="M66.5280063,222.912021 C61.2576058,221.184021 57.3696054,216.86402 56.1600053,211.50722 C55.9872053,210.90242 55.0368052,211.16162 55.2096052,211.76642 C56.5056053,217.468821 60.7392057,222.048021 66.2688063,223.862421 C66.8736063,224.121621 67.1328063,223.084821 66.5280063,222.912021 Z" id="XMLID_319_" fill="#B5855E"></path>
                                    <path d="M61.6896058,226.886421 C57.1104054,224.899221 53.7408051,221.097621 52.1856049,216.34562 C52.0128049,215.74082 50.9760048,216.00002 51.2352048,216.60482 C52.790405,221.616021 56.3328053,225.676821 61.1712058,227.750421 C61.7760058,228.009622 62.2944059,227.145621 61.6896058,226.886421 Z" id="XMLID_117_" fill="#B5855E"></path>
                                    <path d="M55.7280053,229.305622 C52.1856049,226.800021 49.5072047,223.430421 47.8656045,219.369621 C47.6064045,218.764821 46.6560044,219.024021 46.9152044,219.628821 C48.6432046,223.948821 51.4080049,227.491221 55.2096052,230.169622 C55.7280053,230.601622 56.2464053,229.737622 55.7280053,229.305622 Z" id="XMLID_317_" fill="#B5855E"></path>
                                    <path d="M48.4704046,133.401613 C47.6064045,131.241612 46.7424044,128.995212 45.9648043,126.835212 C45.7056043,126.230412 44.7552042,126.489612 45.0144042,127.094412 C45.8784043,129.254412 46.7424044,131.500812 47.5200045,133.660813 C47.7792045,134.265613 48.7296046,134.006413 48.4704046,133.401613 Z" id="XMLID_324_" fill="#B5855E"></path>
                                </g>
                                <g id="Hand_1_" transform="translate(69.984007, 82.944008)" fill-rule="nonzero">
                                    <path d="M133.920013,69.7248066 C124.502412,68.0832064 114.739211,65.6640062 105.06241,65.3184062 L100.051209,79.9200075 C78.3648074,74.390407 49.3344047,70.7616067 36.2016034,69.2928065 C34.9056033,65.4912062 32.8320031,62.0352059 29.8080028,59.3568056 C25.8336024,55.7280053 19.6992019,54.0864051 17.1936016,49.0752046 C16.0704015,46.8288044 12.2688012,47.8656045 12.5280012,50.3712048 C12.7872012,54.3456051 15.0336014,56.6784053 18.0576017,59.0976056 C18.8352018,59.7024056 20.2176019,60.4800057 20.736002,61.4304058 C23.5008022,66.0960062 19.0944018,66.8736063 16.4160015,66.2688063 C12.5280012,65.4912062 8.38080079,58.4064055 6.65280063,56.8512054 C4.83840046,54.3456051 0.604800057,56.8512054 2.41920023,59.5296056 C2.85120027,60.2208057 3.36960032,60.9984058 3.97440038,61.7760058 C2.1600002,61.8624058 0.518400049,63.590406 1.81440017,65.4048062 C2.1600002,65.8368062 2.50560024,66.2688063 2.85120027,66.7872063 C1.12320011,66.8736063 -0.518400049,69.3792065 1.0368001,71.1936067 C1.38240013,71.6256068 1.72800016,72.0576068 2.0736002,72.4896068 C0.864000082,73.0080069 -0.0864000082,74.476807 0.777600073,76.0320072 C6.48000061,86.5728082 16.2432015,94.1760089 27.3888026,97.5456092 C35.3376033,102.29761 55.2096052,112.924811 94.7808089,127.526412 C135.820813,142.646413 134.179213,123.811212 149.212814,78.9696075 C149.904014,76.7232072 139.622413,70.6752067 133.920013,69.7248066 Z" id="XMLID_383_" fill="#FFCEA6"></path>
                                    <path d="M156.470415,55.1232052 C154.051215,63.331206 152.064014,70.7616067 149.299214,78.7968074 C141.782413,77.2416073 134.179213,75.6864071 126.576012,74.304007 C118.108811,72.7488069 109.64161,71.2800067 101.08801,70.1568066 L106.27201,17.2800016 L107.91361,0.0864000082 C114.393611,2.59200024 120.355211,4.75200045 125.712012,6.82560064 C153.705615,17.3664016 165.715216,23.6736022 156.470415,55.1232052 Z" id="XMLID_382_" fill="#FC607D"></path>
                                    <path d="M111.542411,48.6432046 C109.03681,54.9504052 106.53121,61.2576058 104.02561,67.4784064 C103.76641,68.0832064 104.71681,68.4288065 104.97601,67.8240064 C107.48161,61.5168058 109.98721,55.2096052 112.492811,48.9888046 C112.665611,48.4704046 111.715211,48.0384045 111.542411,48.6432046 Z" id="XMLID_330_" fill="#FFFFFF"></path>
                                    <path d="M113.270411,82.2528078 C109.64161,81.3024077 106.01281,80.3520076 102.38401,79.4880075 C101.77921,79.3152075 101.52001,80.2656076 102.12481,80.4384076 C105.75361,81.3888077 109.38241,82.3392078 113.011211,83.2032079 C113.616011,83.3760079 113.875211,82.3392078 113.270411,82.2528078 Z" id="XMLID_329_" fill="#B5855E"></path>
                                    <path d="M13.2192012,71.2800067 C10.108801,69.1200065 7.51680071,66.3552063 5.52960052,63.158406 C5.18400049,62.6400059 4.32000041,63.072006 4.66560044,63.676806 C6.73920064,67.0464063 9.41760089,69.8976066 12.7008012,72.2304068 C13.3056013,72.4896068 13.8240013,71.6256068 13.2192012,71.2800067 Z" id="XMLID_322_" fill="#B5855E"></path>
                                    <path d="M9.76320092,74.476807 C7.68960073,72.7488069 5.96160056,70.7616067 4.49280042,68.4288065 C4.2336004,67.9968064 3.45600033,68.4288065 3.71520035,68.8608065 C5.18400049,71.1936067 6.99840066,73.2672069 9.07200086,75.0816071 C9.59040091,75.4272071 10.195201,74.8224071 9.76320092,74.476807 Z" id="XMLID_190_" fill="#B5855E"></path>
                                    <path d="M3.80160036,63.244806 C3.71520035,62.6400059 2.67840025,62.8992059 2.85120027,63.504006 C3.88800037,69.6384066 4.92480046,75.7728072 5.96160056,81.9072077 C6.04800057,82.5120078 7.08480067,82.2528078 6.91200065,81.6480077 C5.87520055,75.5136071 4.83840046,69.3792065 3.80160036,63.244806 Z" id="XMLID_118_" fill="#B5855E"></path>
                                </g>
                                <g id="Head_1_" transform="translate(152.928014, 25.920002)" fill-rule="nonzero">
                                    <path d="M20.3040019,38.1024036 C20.3040019,38.6208036 13.2192012,48.8160046 8.03520076,56.2464053 C7.86240074,58.7520055 7.77600073,61.3440058 7.60320072,63.849606 L31.708803,64.6272061 L38.7072037,45.7920043 L20.3040019,38.1024036 Z" id="XMLID_27_" fill="#FFCEA6"></path>
                                    <path d="M12.4416012,49.9392047 C16.5024016,44.0640042 20.3040019,38.5344036 20.3040019,38.1024036 L29.9808028,42.508804 C26.2656025,47.4336045 19.0944018,49.5936047 12.4416012,49.9392047 Z" id="XMLID_143_" fill="#000000"></path>
                                    <path d="M54.6912052,21.513602 C54.4320051,14.5152014 43.6320041,7.60320072 35.3376033,6.82560064 C31.708803,6.48000061 30.7584029,3.62880034 29.1168027,6.13440058 C24.9696024,12.3552012 11.5776011,31.1904029 12.3552012,38.3616036 C13.5648013,48.8160046 26.2656025,50.8032048 34.4736033,46.6560044 C42.681604,42.508804 55.1232052,31.449603 54.6912052,21.513602 Z" id="XMLID_2999_" fill="#FFCEA6"></path>
                                    <path d="M31.881603,0.777600073 C35.6832034,0.95040009 39.9168038,5.35680051 41.2992039,8.20800077 C48.0384045,10.713601 54.4320051,16.0704015 54.6912052,21.427202 C54.9504052,28.0800027 49.5072047,35.2512033 43.3728041,40.5216038 C41.5584039,38.1888036 41.990404,35.6832034 41.2128039,32.4000031 C35.3376033,25.5744024 38.7072037,19.4400018 40.0896038,16.0704015 C37.4112035,16.2432015 28.4256027,9.33120088 28.0800027,6.22080059 C27.9072026,1.64160015 30.6720029,0.777600073 31.881603,0.777600073 Z" id="XMLID_142_" fill="#952C28"></path>
                                    <path d="M49.6800047,40.5216038 C50.5440048,36.6336035 46.5696044,31.795203 41.1264039,32.4864031 C38.7072037,36.1152034 36.2880034,39.5712037 33.6960032,43.1136041 C35.0784033,45.1872043 39.0528037,47.7792045 42.508804,47.4336045 C46.4832044,46.9152044 48.8160046,44.6688042 49.6800047,40.5216038 Z" id="XMLID_2998_" fill="#FFCEA6"></path>
                                    <path d="M45.1872043,39.2256037 C43.5456041,39.4848037 41.990404,39.7440038 40.3488038,40.0032038 C39.7440038,40.0896038 40.0032038,41.0400039 40.6080038,40.9536039 C42.249604,40.6944038 43.8048041,40.4352038 45.4464043,40.1760038 C46.1376044,40.0896038 45.7920043,39.1392037 45.1872043,39.2256037 Z" id="XMLID_356_" fill="#B5855E"></path>
                                    <path d="M26.7840025,37.8432036 C25.9200024,38.6208036 24.6240023,38.7072037 23.6736022,37.9296036 C23.1552022,37.4976035 22.4640021,38.1888036 22.9824022,38.6208036 C24.2784023,39.7440038 26.2656025,39.7440038 27.4752026,38.5344036 C27.9072026,38.1024036 27.2160026,37.3248035 26.7840025,37.8432036 Z" id="XMLID_129_" fill="#B5855E"></path>
                                    <path d="M24.0192023,26.0928025 C23.2416022,25.9200024 22.3776021,25.6608024 21.7728021,25.1424024 C21.168002,24.5376023 20.908802,23.3280022 21.9456021,23.0688022 C22.5504021,22.8960022 22.2912021,21.9456021 21.686402,22.1184021 C20.4768019,22.3776021 19.8720019,23.6736022 20.3040019,24.7968023 C20.822402,26.1792025 22.3776021,26.6976025 23.6736022,27.0432026 C24.3648023,27.2160026 24.6240023,26.2656025 24.0192023,26.0928025 Z" id="XMLID_354_" fill="#D24A43"></path>
                                    <path d="M25.4016024,13.9104013 C25.1424024,13.8240013 24.8832023,13.7376013 24.6240023,13.6512013 C23.4144022,13.2192012 22.8096022,15.1200014 24.1056023,15.5520015 C24.3648023,15.6384015 24.6240023,15.7248015 24.8832023,15.8112015 C26.0928025,16.2432015 26.6112025,14.3424014 25.4016024,13.9104013 Z" id="XMLID_353_" fill="#952C28"></path>
                                    <path d="M35.2512033,19.6128019 C34.9920033,19.4400018 34.6464033,19.1808018 34.3872032,19.0080018 C33.9552032,18.6624018 33.2640031,18.9216018 33.0048031,19.3536018 C32.7456031,19.8720019 32.9184031,20.3904019 33.3504031,20.736002 C33.6096032,20.908802 33.9552032,21.168002 34.2144032,21.340802 C34.6464033,21.686402 35.3376033,21.427202 35.5968034,20.995202 C35.9424034,20.4768019 35.6832034,19.9584019 35.2512033,19.6128019 Z" id="XMLID_128_" fill="#952C28"></path>
                                    <path d="M32.7456031,22.2912021 C32.227203,22.9824022 31.708803,23.6736022 31.1904029,24.2784023 C30.7584029,24.7968023 31.708803,25.3152024 32.054403,24.7968023 C32.5728031,24.1056023 33.0912031,23.4144022 33.6096032,22.8096022 C34.0416032,22.2912021 33.1776031,21.7728021 32.7456031,22.2912021 Z" id="XMLID_341_" fill="#000000"></path>
                                    <path d="M23.4144022,16.5024016 C22.8960022,17.1936016 22.3776021,17.8848017 21.8592021,18.4896017 C21.427202,19.0080018 22.3776021,19.5264018 22.7232021,19.0080018 C23.2416022,18.3168017 23.7600022,17.6256017 24.2784023,17.0208016 C24.7104023,16.5024016 23.8464023,15.9840015 23.4144022,16.5024016 Z" id="XMLID_121_" fill="#000000"></path>
                                    <path d="M42.768004,63.849606 L37.7568036,66.5280063 L23.2416022,74.304007 L0.0864000082,86.7456082 L5.70240054,58.4064055 L6.3072006,55.2960052 L7.4304007,49.5936047 C9.84960093,50.6304048 12.4416012,51.6672049 15.1200014,52.790405 L24.8832023,57.1104054 C31.449603,59.6160056 37.4112035,61.7760058 42.768004,63.849606 Z" id="XMLID_2982_" fill="#FFCEA6"></path>
                                </g>
                            </g>
                        </g>
                    </g>
                </g>
            </g>
        </g>
    </g>
</svg>