<?xml version="1.0" encoding="UTF-8"?>
<svg width="56px" height="57px" viewBox="0 0 56 57" version="1.1" xmlns="http://www.w3.org/2000/svg" xmlns:xlink="http://www.w3.org/1999/xlink">
    <title>slack</title>
    <g id="🎨-Design" stroke="none" stroke-width="1" fill="none" fill-rule="evenodd">
        <g id="Integrations" transform="translate(-146.000000, -959.000000)" fill-rule="nonzero">
            <g id="Section/Integrations" transform="translate(130.000000, 681.000000)">
                <g id="Integrations" transform="translate(16.000000, 234.000000)">
                    <g id="Slack">
                        <g id="Price" transform="translate(0.000000, 33.000000)">
                            <g id="slack" transform="translate(0.000000, 11.000000)">
                                <path d="M20.5287582,0 C17.4336601,0.0022875817 14.9287582,2.51405229 14.9310442,5.60915033 C14.9287582,8.70424837 17.4359477,11.2160131 20.5310458,11.2183007 L26.1310473,11.2183007 L26.1310473,5.61143791 C26.1333333,2.51633987 23.6261438,0.0045751634 20.5287582,0 C20.5310458,0 20.5310458,0 20.5287582,0 M20.5287582,14.9607843 L5.6,14.9607843 C2.50490196,14.9630719 -0.0022875817,17.4748366 -6.25167732e-06,20.5699346 C-0.0045751634,23.6650327 2.50261438,26.1767974 5.59771242,26.1813725 L20.5287582,26.1813725 C23.6238562,26.179085 26.1310458,23.6673203 26.1287597,20.5722222 C26.1310458,17.4748366 23.6238562,14.9630719 20.5287582,14.9607843 Z" id="Shape" fill="#36C5F0"></path>
                                <path d="M55.9908512,20.5699346 C55.9931373,17.4748366 53.4859477,14.9630719 50.3908497,14.9607843 C47.2957516,14.9630719 44.7885621,17.4748366 44.7908481,20.5699346 L44.7908481,26.1813725 L50.3908497,26.1813725 C53.4859477,26.179085 55.9931373,23.6673203 55.9908512,20.5699346 Z M41.0598055,20.5699346 L41.0598055,5.60915033 C41.0620915,2.51633987 38.5571895,0.0045751634 35.4620915,0 C32.3669935,0.0022875817 29.8598039,2.51405229 29.8620853,5.60915033 L29.8620853,20.5699346 C29.8575163,23.6650327 32.3647059,26.1767974 35.4598039,26.1813725 C38.554902,26.179085 41.0620915,23.6673203 41.0598055,20.5699346 Z" id="Shape" fill="#2EB67D"></path>
                                <path d="M35.4598039,56.1029412 C38.554902,56.1006536 41.0620915,53.5888889 41.0598055,50.4937908 C41.0620915,47.3986928 38.554902,44.8869281 35.4598039,44.8846405 L29.8598024,44.8846405 L29.8598024,50.4937908 C29.8575163,53.5866013 32.3647059,56.098366 35.4598039,56.1029412 Z M35.4598039,41.1398693 L50.3908497,41.1398693 C53.4859477,41.1375817 55.9931373,38.625817 55.9908559,35.530719 C55.9954248,32.4356209 53.4882353,29.9238562 50.3931373,29.919281 L35.4620915,29.919281 C32.3669935,29.9215686 29.8598039,32.4333333 29.8620899,35.5284314 C29.8598039,38.625817 32.3647059,41.1375817 35.4598039,41.1398693 L35.4598039,41.1398693 Z" id="Shape" fill="#ECB22E"></path>
                                <path d="M-1.56416219e-06,35.530719 C-0.0022875817,38.625817 2.50490196,41.1375817 5.6,41.1398693 C8.69509804,41.1375817 11.2022876,38.625817 11.2000016,35.530719 L11.2000016,29.9215686 L5.6,29.9215686 C2.50490196,29.9238562 -0.0022875817,32.4356209 -1.56416219e-06,35.530719 Z M14.9310395,35.530719 L14.9310395,50.4915033 C14.9264706,53.5866013 17.4336601,56.098366 20.5287582,56.1029412 C23.6238562,56.1006536 26.1310458,53.5888889 26.1287644,50.4937908 L26.1287644,35.5352941 C26.1333333,32.4401961 23.6261438,29.9284314 20.5310458,29.9238562 C17.4336601,29.9238562 14.9287582,32.4356209 14.9310395,35.530719 C14.9310395,35.530719 14.9310395,35.5330065 14.9310395,35.530719" id="Shape" fill="#E01E5A"></path>
                            </g>
                        </g>
                    </g>
                </g>
            </g>
        </g>
    </g>
</svg>