<?xml version="1.0" encoding="UTF-8"?>
<svg width="668px" height="468px" viewBox="0 0 668 468" version="1.1" xmlns="http://www.w3.org/2000/svg" xmlns:xlink="http://www.w3.org/1999/xlink">
    <title>Illustration</title>
    <g id="🎨-Design" stroke="none" stroke-width="1" fill="none" fill-rule="evenodd">
        <g id="Contact-us" transform="translate(13.000000, -1823.000000)" fill-rule="nonzero">
            <g id="Section/Support" transform="translate(-13.000000, 1823.000000)">
                <g id="Illustration">
                    <g id="Section/Support-Copy" transform="translate(490.898630, 321.977479) scale(-1, 1) translate(-490.898630, -321.977479) translate(314.398630, 175.977479)">
                        <g id="Illustration-support" transform="translate(176.045312, 146.000000) scale(-1, 1) translate(-176.045312, -146.000000) translate(0.045312, 0.000000)">
                            <g id="Window_3" transform="translate(175.769713, 102.108268) scale(-1, 1) translate(-175.769713, -102.108268) translate(0.269713, 10.108268)">
                                <polygon id="XMLID_212_" fill="#E0F1FF" points="0.390756929 0 350.802351 0 350.802351 183.011996 0.390756929 183.011996"></polygon>
                                <rect id="XMLID_210_" fill="#FFFFFF" x="59.3709262" y="50.306615" width="66.7863682" height="57.2454585"></rect>
                                <rect id="XMLID_209_" fill="#FFFFFF" x="153.912668" y="32.9595064" width="143.981002" height="122.297116"></rect>
                                <rect id="XMLID_104_" fill="#9BD3FF" x="166.055644" y="44.235127" width="91.9396757" height="12.142976"></rect>
                                <path d="M252.107782,69.3884345 L166.73905,69.3884345 C165.827842,69.3884345 165.827842,71.1231454 166.73905,71.1231454 L252.107782,71.1231454 C253.018989,71.1231454 253.018989,69.3884345 252.107782,69.3884345 Z" id="XMLID_87_" fill="#9BD3FF"></path>
                                <path d="M252.107782,85.0008323 L166.73905,85.0008323 C165.827842,85.0008323 165.827842,86.7355431 166.73905,86.7355431 L252.107782,86.7355431 C253.018989,86.7355431 253.018989,85.0008323 252.107782,85.0008323 Z" id="XMLID_86_" fill="#9BD3FF"></path>
                                <path d="M252.107782,99.7458746 L166.73905,99.7458746 C165.827842,99.7458746 165.827842,101.478476 166.73905,101.478476 L252.107782,101.478476 C253.018989,101.550668 253.018989,99.7458746 252.107782,99.7458746 Z" id="XMLID_85_" fill="#9BD3FF"></path>
                                <path d="M290.937289,46.8371933 C291.228468,50.6856275 287.850785,53.7760367 284.007214,53.7760367 C280.163643,53.7760367 277.077139,50.6856275 277.077139,46.8371933 C277.077139,42.405663 280.163643,39.8983498 284.007214,39.8983498 C287.792549,39.8983498 290.587873,42.0558054 290.937289,46.8371933 Z" id="XMLID_84_" fill="#9BD3FF"></path>
                                <rect id="XMLID_83_" fill="#9BD3FF" x="342.996152" y="32.092151" width="6.07148802" height="111.021495"></rect>
                                <path d="M350.802351,8.67355431 L350.802351,10.4082652 L23.6233844,10.4082652 C22.7148694,10.4082652 22.7148694,8.67355431 23.6233844,8.67355431 L350.802351,8.67355431 Z" id="XMLID_56_" fill="#FFFFFF"></path>
                                <path d="M108.991542,42.5004161 L60.0569255,42.5004161 C59.1422598,42.5004161 59.1422598,44.235127 60.0569255,44.235127 L108.991542,44.235127 C109.906208,44.235127 109.906208,42.5004161 108.991542,42.5004161 Z" id="XMLID_37_" fill="#FFFFFF"></path>
                            </g>
                            <g id="Letter" transform="translate(269.104373, 0.343411)">
                                <rect id="XMLID_504_" fill="#008EFF" x="24.4541247" y="0" width="41.1371136" height="30.6567744"></rect>
                                <path d="M44.4166755,14.1163752 C44.2740859,14.1163752 44.0602014,14.0450804 43.9176117,13.9737856 L27.591097,3.77862569 C27.163328,3.49344639 27.0920332,2.99438262 27.3059177,2.56661367 C27.591097,2.13884473 28.0901608,1.99625508 28.5179297,2.28143438 L44.4166755,12.1914149 L62.9533298,1.63978096 C63.3810988,1.42589649 63.8801625,1.56848613 64.1653418,1.99625508 C64.3792263,2.42402402 64.2366367,2.92308779 63.8088677,3.20826709 L44.8444445,13.9737856 C44.7018548,14.1163752 44.5592652,14.1163752 44.4166755,14.1163752 Z" id="XMLID_780_" fill="#FFFFFF"></path>
                                <path d="M16.9681682,9.76739092 L6.48782901,9.76739092 C5.70358594,9.76739092 5.70358594,11.5497615 6.48782901,11.5497615 L16.9681682,11.5497615 C17.7524112,11.5497615 17.7524112,9.76739092 16.9681682,9.76739092 Z" id="XMLID_446_" fill="#008EFF"></path>
                                <path d="M16.6829889,3.92121533 L1.49719131,3.92121533 C0.356474121,3.92121533 0.356474121,5.70358594 1.49719131,5.70358594 L16.6829889,5.70358594 C17.8237061,5.70358594 17.8237061,3.92121533 16.6829889,3.92121533 Z" id="XMLID_445_" fill="#008EFF"></path>
                                <path d="M59.3172938,37.5010776 L26.0226109,37.5010776 C24.8818937,37.5010776 24.8818937,39.2834482 26.0226109,39.2834482 L59.3172938,39.2834482 C60.458011,39.2834482 60.458011,37.5010776 59.3172938,37.5010776 Z" id="XMLID_756_" fill="#008EFF"></path>
                                <path d="M59.3172938,45.0583289 L26.0226109,45.0583289 C24.8818937,45.0583289 24.8818937,46.8406995 26.0226109,46.8406995 L59.3172938,46.8406995 C60.458011,46.8406995 60.458011,45.0583289 59.3172938,45.0583289 Z" id="XMLID_755_" fill="#008EFF"></path>
                                <path d="M59.3172938,53.2572337 L26.0226109,53.2572337 C24.8818937,53.2572337 24.8818937,55.0396043 26.0226109,55.0396043 L59.3172938,55.0396043 C60.458011,55.0396043 60.458011,53.2572337 59.3172938,53.2572337 Z" id="XMLID_754_" fill="#008EFF"></path>
                            </g>
                            <g id="Group-7" transform="translate(38.940251, 26.249798)">
                                <path d="M311.415774,223.413552 L26.7498165,223.413552 C25.8372428,223.413552 25.8372428,224.782413 26.7498165,224.782413 L311.415774,224.782413 C312.328347,224.839449 312.328347,223.413552 311.415774,223.413552 Z" id="XMLID_214_" fill="#D2DAE3"></path>
                                <g id="Man" transform="translate(0.000000, 23.384701)">
                                    <path d="M142.931855,26.0083503 L180.290341,21.8447328 L225.291631,39.2977048 C225.291631,39.2977048 226.660492,158.616716 223.922771,157.932285 C221.128014,157.247855 120.28862,151.658341 120.28862,149.548014 C120.28862,147.437688 113.672461,93.0254811 113.672461,93.0254811 L142.931855,26.0083503 Z" id="Body_1_" fill="#FC607D"></path>
                                    <g id="Hand_2_">
                                        <path d="M109.394772,39.2977048 C94.3943417,67.1882384 90.2307242,75.5725092 90.2307242,75.5725092 L43.9176091,34.449657 C43.8035374,28.0046053 42.776892,21.388446 40.3243502,15.456717 C37.244414,8.09909155 32.4534021,7.129482 27.320175,1.36886054 C24.3543105,-1.99625496 20.8180874,2.56661352 23.783952,5.93172902 L26.8068523,9.58202381 C26.8638882,11.4071712 27.8905336,16.1981831 28.118677,18.0233305 C23.1565575,13.2893544 16.5403982,6.38801587 10.1523824,3.42215136 C8.38427083,2.62364938 6.73023101,3.25104379 5.76062146,4.44879677 C4.2776892,4.61990434 3.07993622,5.87469317 2.73772109,7.30058957 C1.31182469,8.38427083 0.513322704,10.6086692 1.76811154,12.4908525 C0.798501984,13.5174979 0.28517928,15.0004301 0.969609552,16.5974341 C1.02664541,16.7115058 1.08368126,16.7685417 1.08368126,16.8826134 C0.684430272,17.2818644 1.19775298,18.7077608 0.798501984,19.392191 C-0.969609552,22.5291631 4.16361749,35.0770514 13.6886054,41.3509956 C16.4833624,47.8530832 22.3010197,52.0737365 22.7573065,52.1878082 C32.8526531,65.762342 67.8156328,114.128748 84.8693537,129.984716 C104.204509,148.008046 120.117513,125.421847 133.007616,84.2989952 C145.89772,43.1191071 148.350261,29.2023583 148.350261,29.2023583 L181.488094,22.2439838 C139.452668,19.7344062 124.452238,11.3501353 109.394772,39.2977048 Z" id="XMLID_206_" fill="#FFCEA6"></path>
                                        <path d="M181.659201,22.186948 L180.860699,22.3580556 L158.388572,27.0920316 L148.521369,29.1453224 C148.521369,29.1453224 146.068827,43.1191071 133.178724,84.2419593 C132.323186,86.9226445 131.467648,89.5462939 130.61211,92.0558716 C119.376047,82.4738478 107.797768,73.291075 96.1054174,64.2223739 C99.0712819,58.5758241 103.348971,50.4767326 109.451808,39.1836331 C121.030086,17.6811154 132.551329,17.7381512 156.563425,19.9625496 C163.464763,20.589944 171.335711,21.4454819 180.57552,22.0158404 C180.917735,22.1299121 181.25995,22.1299121 181.659201,22.186948 Z" id="XMLID_2767_" fill="#FC607D"></path>
                                        <path d="M132.152078,44.4879677 C131.125433,55.7810672 130.098788,67.0741667 129.015106,78.3672661 C128.95807,78.823553 129.699537,78.823553 129.699537,78.3672661 C130.726182,67.0741667 131.752827,55.7810672 132.836509,44.4879677 C132.836509,44.0316808 132.152078,44.0316808 132.152078,44.4879677 Z" id="XMLID_163_" fill="#FFFFFF"></path>
                                        <path d="M92.683266,81.3901665 C92.2269792,80.021306 91.7706923,78.5954096 91.3144055,77.226549 C91.2003337,76.827298 90.5159035,76.9984056 90.6299752,77.3976566 C91.086262,78.7665171 91.5425489,80.1924135 91.9988357,81.5612741 C92.1129074,82.0175609 92.7973377,81.8464534 92.683266,81.3901665 Z" id="XMLID_160_" fill="#B5855E"></path>
                                        <path d="M20.0766213,19.5632986 C16.1411472,15.3996811 12.1486373,11.1790278 8.21316326,7.01541029 C7.92798398,6.67319515 7.41466128,7.18651786 7.69984056,7.52873299 C11.6353146,11.6923505 15.6278245,15.9130038 19.5632986,20.0766213 C19.9055137,20.3618006 20.3618006,19.8484779 20.0766213,19.5632986 Z" id="XMLID_157_" fill="#B5855E"></path>
                                        <path d="M15.5707887,24.0691312 C11.9775298,19.9625496 8.32723498,15.7989321 4.73397605,11.6923505 C4.44879677,11.3501353 3.93547406,11.863458 4.22065334,12.2056732 C7.81391227,16.3122548 11.4642071,20.4758723 15.057466,24.5824539 C15.3426453,24.8676332 15.855968,24.3543105 15.5707887,24.0691312 Z" id="XMLID_156_" fill="#B5855E"></path>
                                        <path d="M11.9204939,28.5749639 C9.01166525,25.3239201 6.15987245,22.0728763 3.25104379,18.8218325 C2.96586451,18.4796173 2.45254181,18.99294 2.73772109,19.3351552 C5.64654974,22.586199 8.49834254,25.8372428 11.4071712,29.0882866 C11.7493863,29.4305017 12.262709,28.917179 11.9204939,28.5749639 Z" id="XMLID_155_" fill="#B5855E"></path>
                                        <path d="M30.2290037,33.4800475 C28.517928,29.6586451 28.1757129,25.4950276 29.1453224,21.388446 C29.2593941,20.9321592 28.5749639,20.7610516 28.4608921,21.2173384 C27.4342467,25.4950276 27.8334977,29.8297527 29.6016093,33.8222626 C29.7727168,34.2785495 30.4001112,33.8792985 30.2290037,33.4800475 Z" id="XMLID_154_" fill="#B5855E"></path>
                                    </g>
                                    <g id="Legs_1_" transform="translate(17.681115, 107.797768)">
                                        <path d="M137.057162,22.6432348 C124.794453,22.2439838 112.474708,21.787697 100.211999,20.8751233 C101.466788,31.6549001 102.550469,40.8947088 102.550469,41.7502466 C102.550469,43.8605733 203.389863,49.4500872 206.184619,50.1345174 C207.040157,50.3626609 207.496444,39.4688124 207.724588,24.2402388 C184.168779,23.8980237 160.612971,23.4417368 137.057162,22.6432348 Z" id="XMLID_198_" fill="#008EFF"></path>
                                        <path d="M185.138389,26.920924 C227.116779,18.8218325 280.901591,2.68068523 282.441559,42.6628203 C283.981527,82.5879195 231.850755,84.6412103 173.731217,84.5271386 C115.668716,84.356031 112.58878,84.356031 102.607505,95.8202381 C93.3106604,106.542979 84.755282,115.440573 73.690326,105.459298 L107.854804,51.7885573 C107.91184,51.8455931 164.092158,31.0275057 185.138389,26.920924 Z" id="XMLID_197_" fill="#008EFF"></path>
                                        <path d="M220.500619,24.2402388 C224.664237,25.5520635 228.827854,25.7802069 233.162579,25.2098484 C239.89281,24.3543105 245.710468,21.388446 249.702978,16.7685417 C238.923201,16.7115058 226.489384,18.6507249 213.88446,21.1032667 C215.766643,22.6432348 218.675472,23.6698802 220.500619,24.2402388 Z" id="XMLID_196_" fill="#000000"></path>
                                        <path d="M118.121258,48.0812266 C111.904349,50.305625 107.91184,51.7885573 107.91184,51.7885573 L73.7473618,105.459298 C84.8693537,115.440573 93.3676963,106.485943 102.664541,95.8202381 C107.683696,90.0596166 110.93474,87.2078238 120.117513,85.7819274 C117.664971,73.5192184 117.379792,60.6861508 118.121258,48.0812266 Z" id="XMLID_195_" fill="#000000"></path>
                                        <path d="M178.978516,70.3252105 C178.978516,70.3252105 169.795743,64.3934814 157.647106,56.8647484 C155.993066,70.7244614 154.339026,84.5841745 151.829449,98.2727799 C165.803233,102.721577 168.712062,106.2578 173.046787,114.299855 C179.834054,126.961815 186.279106,137.684556 200.25289,130.726182 L178.978516,70.3252105 Z" id="XMLID_114_" fill="#FFCEA6"></path>
                                        <path d="M160.612971,58.6898958 C143.502214,48.0241908 118.748652,33.0237606 106.086692,27.4342467 C65.0779117,9.35388038 13.9737847,-19.3351552 2.11032667,19.0499759 C-9.75313138,57.435107 43.2902147,72.093322 102.94972,86.0100709 C128.387712,91.9417999 143.55925,95.5350588 153.141273,98.6720309 C156.335281,85.4967481 159.643361,72.2644296 160.612971,58.6898958 Z" id="XMLID_192_" fill="#008EFF"></path>
                                        <path d="M178.978516,70.3252105 C178.978516,70.3252105 174.301576,67.3023101 167.22913,62.8535133 C167.970596,67.0741667 169.225385,71.2377841 169.624636,75.5725092 C169.966851,79.8501984 168.940205,83.7856725 167.286166,87.7211465 C165.175839,92.683266 162.495154,97.2461345 161.639616,102.094182 C167.685417,105.174118 170.023887,108.59627 173.103823,114.299855 C179.89109,126.961815 186.336142,137.684556 200.309926,130.726182 L178.978516,70.3252105 Z" id="XMLID_189_" fill="#000000"></path>
                                        <path d="M156.677496,55.838103 C138.140843,46.5412585 118.748652,39.0125255 98.7861026,33.3089399 C98.3298157,33.1948682 98.1587082,33.8792985 98.614995,33.9933702 C118.520509,39.6969558 137.855664,47.2256888 156.335281,56.4654974 C156.734532,56.636605 157.076747,56.0662465 156.677496,55.838103 Z" id="XMLID_168_" fill="#FFFFFF"></path>
                                        <path d="M225.690882,33.1378323 C202.933576,32.7385813 180.233305,34.5066929 157.818214,38.3851311 C151.373162,39.5258482 144.985146,40.780637 138.654166,42.2635693 C138.197879,42.377641 138.426023,43.0620713 138.825274,42.9479996 C161.012221,37.8147725 183.712492,34.7918722 206.469799,33.9933702 C212.857815,33.7652268 219.302866,33.7081909 225.690882,33.8222626 C226.147169,33.8792985 226.147169,33.1378323 225.690882,33.1378323 Z" id="XMLID_167_" fill="#FFFFFF"></path>
                                        <path d="M75.1732582,22.3010197 C66.3327005,19.5632986 57.435107,16.8255775 48.5945493,14.1448923 C48.1382625,14.0308206 47.9671549,14.658215 48.4234417,14.8293226 C57.2639994,17.5670436 66.161593,20.3047647 75.0021506,22.98545 C75.4014016,23.0995217 75.5725092,22.4721273 75.1732582,22.3010197 Z" id="XMLID_166_" fill="#FFFFFF"></path>
                                    </g>
                                    <g id="Hand_1_" transform="translate(158.559680, 21.673625)">
                                        <path d="M21.6736253,0.171107568 C47.1686529,2.62364938 79.5650191,-1.19775298 83.4434573,22.1299121 C87.2648597,45.5146131 90.0596166,56.2943899 91.8277282,73.0629315 C93.5958397,89.8314732 99.8697839,110.022166 78.9376247,112.132493 C58.0054656,114.24282 9.86720309,118.064222 9.86720309,118.064222 L0.456286848,92.5691943 C0.456286848,92.5691943 39.5258482,78.5954096 52.0737365,74.7740072 L49.6211947,24.5254181 L21.6736253,0.171107568 Z" id="XMLID_187_" fill="#FFCEA6"></path>
                                        <path d="M90.8581186,65.1919834 C77.7398717,65.4771627 64.6216249,66.0475213 51.7315214,68.2148838 L49.6211947,24.5824539 L32.3963662,9.52498795 L22.3010197,0.684430272 L22.0158404,0.456286848 L21.6736253,0.171107568 C27.3772109,0.741466128 33.4230116,0.969609552 39.4117765,1.25478883 C60.2298639,2.28143424 80.420557,3.99250992 83.3864215,22.186948 C86.6374653,41.6361749 89.1470429,52.4159517 90.8581186,65.1919834 Z" id="XMLID_2610_" fill="#FC607D"></path>
                                        <path d="M51.0470911,32.2822945 C51.0470911,31.8260076 50.3626609,31.8260076 50.3626609,32.2822945 C50.4196967,43.1191071 50.4767326,53.8988839 50.5337684,64.7356966 C50.5337684,65.1919834 51.2181987,65.1919834 51.2181987,64.7356966 C51.1611628,53.8988839 51.104127,43.0620713 51.0470911,32.2822945 Z" id="XMLID_162_" fill="#FFFFFF"></path>
                                        <path d="M59.032111,74.7740072 C57.3780711,74.7740072 55.7810672,74.7169714 54.1270273,74.7169714 C53.6707405,74.7169714 53.6707405,75.4014016 54.1270273,75.4014016 C55.7810672,75.4014016 57.3780711,75.4584375 59.032111,75.4584375 C59.4883978,75.4584375 59.4883978,74.7740072 59.032111,74.7740072 Z" id="XMLID_161_" fill="#B5855E"></path>
                                    </g>
                                </g>
                                <g id="Notebook" transform="translate(80.420557, 87.264860)">
                                    <polygon id="XMLID_186_" fill="#000000" points="90.8581186 76.9984056 21.6165894 74.6599355 0.342215136 17.3959361 69.5837443 19.6773703"></polygon>
                                    <path d="M116.410182,76.428047 L22.186948,73.2340391 C21.2743743,73.1770033 21.2173384,74.6028997 22.1299121,74.6028997 L116.353146,77.7969076 C117.26572,77.8539434 117.322756,76.4850829 116.410182,76.428047 Z" id="XMLID_172_" fill="#000000"></path>
                                    <path d="M37.1303423,49.7352664 C36.9021988,49.7352664 36.7310913,49.7352664 36.5029478,49.6782306 C34.848908,49.507123 33.3659758,48.5945493 32.2822945,47.1686529 C31.1986132,45.7427565 30.6282547,43.9176091 30.7423264,42.0924617 C30.8563981,40.2102785 31.7119359,38.5562387 33.1378323,37.4725574 C36.7310913,34.7348363 39.8680633,35.1340873 42.6057844,38.7273462 L42.6057844,38.7273462 C43.6894657,40.1532426 44.1457525,41.9213542 43.9176091,43.7465016 C43.6894657,45.5146131 42.776892,47.1116171 41.2939597,48.1952983 C39.9821351,49.2219437 38.5562387,49.7352664 37.1303423,49.7352664 Z M37.4725574,37.1873781 C36.3888761,37.1873781 35.248159,37.7007008 33.9363343,38.6703104 C31.4837925,40.5524936 31.7119359,44.1457525 33.3659758,46.3701509 C34.2215136,47.5108681 35.3622307,48.1952983 36.6740554,48.30937 C37.9288442,48.4234417 39.2406689,48.0241908 40.4384219,47.1686529 C42.776892,45.4005414 43.2331789,42.0354259 41.4650673,39.6969558 C40.1532426,37.9858801 38.8984538,37.1873781 37.4725574,37.1873781 Z" id="XMLID_2761_" fill="#FFFFFF"></path>
                                    <path d="M81.3901665,56.5225333 C77.2835849,45.2294338 73.2340391,33.9933702 69.1274575,22.7002707 C68.9563499,22.3010197 68.3289555,22.4721273 68.4430272,22.8713783 C72.5496088,34.1644777 76.5991546,45.4005414 80.7057362,56.6936409 C80.8768438,57.0928919 81.5042382,56.9217843 81.3901665,56.5225333 Z" id="XMLID_110_" fill="#FFFFFF"></path>
                                    <path d="M60.4009715,5.41840632 C59.7165412,7.52873299 59.032111,9.63905966 58.3476807,11.6923505 C58.0625014,12.5478883 59.431362,12.8901035 59.7165412,12.0916015 C60.4009715,9.9812748 61.0854018,7.87094813 61.7698321,5.81765731 C62.0550113,4.96211947 60.6861508,4.56286848 60.4009715,5.41840632 Z" id="XMLID_102_" fill="#008EFF"></path>
                                    <path d="M79.1657681,0.85553784 L71.5229634,13.2323186 C71.0666766,13.9737847 72.2644296,14.7152508 72.7207164,13.9167489 C75.2873299,9.81016723 77.7969076,5.7035856 80.3635211,1.53996811 C80.819808,0.798501984 79.622055,0.114071712 79.1657681,0.85553784 Z" id="XMLID_101_" fill="#008EFF"></path>
                                    <path d="M90.4588676,30.1719678 C87.2648597,30.7993622 84.1278876,31.4267567 80.9338797,32.0541511 C80.0783418,32.2252586 80.420557,33.5941192 81.3331307,33.4230116 C84.5271386,32.7956172 87.6641107,32.1682228 90.8581186,31.5408284 C91.7136565,31.3697208 91.3714413,30.0008603 90.4588676,30.1719678 Z" id="XMLID_100_" fill="#008EFF"></path>
                                </g>
                                <g id="Head_1_" transform="translate(162.281193, 34.000000) scale(-1, 1) translate(-162.281193, -34.000000) translate(131.781193, 0.000000)">
                                    <path d="M34.478175,46.3701509 C38.3280952,61.7698321 28.2327487,68.3574734 21.1317846,67.7585969 C9.92423894,66.7319515 2.28148177,57.6916839 0.228190958,46.0563693 C2.90887619,45.9422976 5.39101811,45.8014772 7.67461671,45.6339082 C22.6411491,45.9917735 32.1175091,46.2086698 36.1036968,46.2845971 C37.643665,46.2845971 32.9382068,46.3701509 34.478175,46.3701509 Z" id="XMLID_777_" fill="#FFCEA6"></path>
                                    <path d="M4.10658163,50.305625 L30.6282547,59.2887723 L34.1359598,52.273362 L38.5847566,43.2902147 L46.2845971,27.719426 L27.1205495,19.2496014 C26.2650117,21.2173384 4.10658163,50.305625 4.10658163,50.305625 Z" id="XMLID_776_" fill="#FFCEA6"></path>
                                    <path d="M34.050406,52.273362 L33.8792985,52.6155772 C30.6282547,49.107872 28.7460714,44.4879677 28.2327487,39.4402944 C27.5483184,32.7670993 29.7727168,27.2061033 31.9971152,21.388446 L46.1134896,27.6338722 L38.413649,43.2046609 L34.050406,52.273362 Z" id="XMLID_434_" fill="#000000"></path>
                                    <path d="M28.7460714,2.99438244 C36.6170196,-3.7643665 60.0587564,5.73210353 57.9199118,15.7418963 C56.2943899,23.1850755 51.6744855,43.8890912 47.0545812,46.7979199 C37.9003263,52.7011309 27.4627647,45.0868442 24.6394898,36.0181431 C21.7306611,26.8638882 20.9606771,9.66757759 28.7460714,2.99438244 Z" id="XMLID_775_" fill="#FFCEA6"></path>
                                    <path d="M28.1471949,18.8218325 C31.6549001,22.3295376 38.4992028,15.1430198 40.1247247,11.891976 C44.6590753,13.7741592 53.0433461,13.7741592 57.3210353,11.5497608 C53.6422226,3.33659758 35.4192666,-2.82327487 28.6605176,2.99438244 C25.0672587,6.07431866 23.2706292,11.5497608 22.6717528,17.2818644 C24.553936,17.1963106 26.8638882,17.5385257 28.1471949,18.8218325 Z" id="XMLID_432_" fill="#D24A43"></path>
                                    <path d="M16.7685417,15.1430198 C19.0784938,12.3197449 24.7250436,12.2341911 27.2916571,16.5118803 C26.0939041,20.2762468 24.9817049,24.1261671 23.9550595,27.9760874 C21.7306611,28.2327487 17.6240795,26.949442 15.9130038,24.2972747 C14.0308206,21.1317846 14.2874819,18.222956 16.7685417,15.1430198 Z" id="XMLID_774_" fill="#FFA79B"></path>
                                    <g id="Headphones" transform="translate(14.258964, 0.000000)" fill="#000000">
                                        <path d="M14.4871074,21.8162149 C14.4871074,27.8049798 11.3216174,30.7138085 7.38614335,30.7138085 C3.45066929,30.7138085 0.199625496,26.6927806 0.199625496,21.8162149 C0.199625496,16.9396492 3.53622307,12.9186214 7.38614335,12.9186214 C11.3216174,12.9186214 14.4871074,16.9396492 14.4871074,21.8162149 Z" id="XMLID_430_"></path>
                                        <path d="M44.0887167,5.47544218 C42.6343024,3.67881271 40.409904,3.16549001 38.2710594,2.82327487 C34.6778004,2.30995217 31.0845415,1.96773703 27.5768364,1.53996811 C23.9835774,1.11219919 20.3903185,0.598876488 16.7970596,0.256661352 C14.3159999,0.085553784 11.7493863,0.171107568 9.69609552,1.71107568 C4.90508362,5.21878082 6.01728281,11.891976 7.04392822,16.8540954 C7.21503578,17.5385257 8.24168119,17.1963106 8.07057362,16.5974341 C6.87282065,11.1219919 5.93172902,2.82327487 13.2893544,1.45441433 C15.855968,1.02664541 18.5081353,1.53996811 21.0747488,1.88218325 C23.8980237,2.22439838 26.7212985,2.56661352 29.5445734,2.90882866 C34.2500315,3.50770514 42.8054099,2.73772109 44.4309318,8.46982462 C45.7997924,13.2608365 43.1476251,18.1374022 44.1742705,22.9284141 C44.345378,23.6128444 45.2864697,23.2706292 45.2009159,22.6717528 C44.0887167,17.1963106 48.0241908,10.3520079 44.0887167,5.47544218 Z" id="XMLID_429_"></path>
                                        <path d="M19.2781193,37.215896 C12.690478,36.1036968 8.49834254,30.2004858 9.69609552,23.6128444 C9.7816493,22.9284141 8.84055768,22.6717528 8.66945011,23.356183 C7.38614335,30.4571471 11.8349401,37.0447885 18.9359042,38.2425414 C19.6203345,38.3280952 19.9625496,37.3014498 19.2781193,37.215896 Z" id="XMLID_428_"></path>
                                    </g>
                                    <path d="M42.8624458,39.0125255 C41.3224777,39.1836331 39.8680633,37.3870036 40.5524936,35.9325893 C40.809155,35.3337128 39.9536171,34.8203901 39.611402,35.4192666 C38.5847566,37.5581112 40.381386,40.381386 42.776892,40.1247247 C43.5468761,39.9536171 43.5468761,38.9269717 42.8624458,39.0125255 Z" id="XMLID_424_" fill="#B5855E"></path>
                                    <path d="M50.9900553,28.7460714 C50.8189477,28.0616412 49.8778561,28.4038563 49.9634099,29.0027328 C50.305625,30.5427009 48.5945493,31.3982387 47.3967963,30.5427009 C46.8834736,30.114932 46.3701509,31.0560236 46.8834736,31.4837925 C48.9367645,32.9382068 51.503378,31.0560236 50.9900553,28.7460714 Z" id="XMLID_422_" fill="#B5855E"></path>
                                    <path d="M43.2902147,20.8751233 C42.9479996,21.6451074 42.5202307,22.5006452 42.1780155,23.2706292 C41.9213542,23.8695057 42.776892,24.3828284 43.1191071,23.783952 C43.4613223,23.0139679 43.8890912,22.1584301 44.2313063,21.388446 C44.4879677,20.7895695 43.5468761,20.2762468 43.2902147,20.8751233 Z" id="XMLID_421_" fill="#000000"></path>
                                    <path d="M53.9844377,22.586199 C53.6422226,23.356183 53.2144537,24.2117209 52.8722385,24.9817049 C52.6155772,25.5805814 53.471115,26.0939041 53.8133301,25.4950276 C54.1555453,24.7250436 54.5833142,23.8695057 54.9255293,23.0995217 C55.1821907,22.5006452 54.2410991,21.9873225 53.9844377,22.586199 Z" id="XMLID_420_" fill="#000000"></path>
                                    <path d="M46.4557047,16.9396492 C45.8568282,16.8540954 45.2579517,16.6829879 44.744629,16.5974341 C44.2313063,16.5118803 43.6324298,16.7685417 43.4613223,17.3674182 C43.2902147,17.8807409 43.6324298,18.5651711 44.2313063,18.6507249 C44.8301828,18.7362787 45.4290593,18.9073863 45.942382,18.99294 C46.4557047,19.0784938 47.0545812,18.8218325 47.2256888,18.222956 C47.3967963,17.7096333 47.0545812,17.1107568 46.4557047,16.9396492 Z" id="XMLID_419_" fill="#952C28"></path>
                                    <path d="M55.2677445,17.2818644 C54.8399755,17.1963106 54.4122066,17.025203 54.0699915,16.9396492 C52.7866847,16.5974341 52.1878082,18.5651711 53.471115,18.99294 C53.8988839,19.0784938 54.3266528,19.2496014 54.668868,19.3351552 C55.9521747,19.6773703 56.5510512,17.6240795 55.2677445,17.2818644 Z" id="XMLID_418_" fill="#952C28"></path>
                                </g>
                            </g>
                        </g>
                    </g>
                    <g id="Shadows" transform="translate(0.221574, 442.897167)" fill="#D2DAE3">
                        <path d="M319.581075,0.284882398 L0.854647195,0.284882398 C-0.170929439,0.284882398 -0.170929439,1.65231791 0.854647195,1.65231791 L319.581075,1.65231791 C320.606651,1.70929439 320.606651,0.284882398 319.581075,0.284882398 Z" id="XMLID_213_"></path>
                    </g>
                    <g id="Window_2" transform="translate(0.791339, 199.037834)">
                        <rect id="XMLID_185_" fill="#E0F1FF" x="9.97088395" y="10.9964606" width="208.078104" height="155.773695"></rect>
                        <rect id="XMLID_99_" fill="#FC607D" x="32.5905464" y="32.2486875" width="81.5333424" height="64.1555161"></rect>
                        <rect id="XMLID_98_" fill="#FC607D" x="17.9475911" y="16.9220145" width="9.74297803" height="8.37554251"></rect>
                        <path d="M188.250289,93.6123561 C188.079359,93.6123561 187.90843,93.5553796 187.737501,93.4414267 L129.678468,36.7498294 C129.393585,36.464947 129.393585,36.0661116 129.678468,35.7812292 C129.96335,35.4963468 130.362186,35.4963468 130.647068,35.7812292 L188.706101,92.4728265 C188.990983,92.7577089 188.990983,93.1565443 188.706101,93.4414267 C188.592148,93.5553796 188.421218,93.6123561 188.250289,93.6123561 Z" id="XMLID_2609_" fill="#FFFFFF"></path>
                        <path d="M130.874974,94.2960739 C130.704044,94.2960739 130.533115,94.2390974 130.362186,94.1251444 C130.077303,93.840262 130.077303,93.4414267 130.362186,93.1565443 L187.053783,35.0975115 C187.338665,34.8126291 187.737501,34.8126291 188.022383,35.0975115 C188.307265,35.3823939 188.307265,35.7812292 188.022383,36.0661116 L131.330786,94.1251444 C131.216833,94.2390974 131.045903,94.2960739 130.874974,94.2960739 Z" id="XMLID_2605_" fill="#FFFFFF"></path>
                        <path d="M23.3033802,175.77244 L1.42441199,175.77244 C1.02557663,175.77244 0.740694236,175.487557 0.740694236,175.088722 L0.740694236,152.29813 C0.740694236,151.899295 1.02557663,151.614412 1.42441199,151.614412 C1.82324735,151.614412 2.10812975,151.899295 2.10812975,152.29813 L2.10812975,174.348028 L23.2464037,174.348028 C23.6452391,174.348028 23.9301215,174.63291 23.9301215,175.031746 C23.9301215,175.430581 23.6452391,175.77244 23.3033802,175.77244 Z" id="XMLID_2608_" fill="#9BD3FF"></path>
                        <path d="M226.937319,175.259652 L204.146727,175.259652 C203.747891,175.259652 203.463009,174.974769 203.463009,174.575934 C203.463009,174.177098 203.747891,173.892216 204.146727,173.892216 L226.196624,173.892216 L226.196624,152.753942 C226.196624,152.355107 226.481507,152.070224 226.880342,152.070224 C227.279177,152.070224 227.56406,152.355107 227.56406,152.753942 L227.56406,174.575934 C227.621036,174.974769 227.336154,175.259652 226.937319,175.259652 Z" id="XMLID_2607_" fill="#9BD3FF"></path>
                        <path d="M0.968600155,23.7022155 C0.569764797,23.7022155 0.284882398,23.4173332 0.284882398,23.0184978 L0.284882398,1.13952959 C0.284882398,0.740694236 0.569764797,0.455811837 0.968600155,0.455811837 L23.759192,0.455811837 C24.1580274,0.455811837 24.4429098,0.740694236 24.4429098,1.13952959 C24.4429098,1.53836495 24.1580274,1.82324735 23.759192,1.82324735 L1.65231791,1.82324735 L1.65231791,22.9615213 C1.65231791,23.3603567 1.36743551,23.7022155 0.968600155,23.7022155 Z" id="XMLID_2606_" fill="#9BD3FF"></path>
                        <path d="M104.72277,107.571594 L33.616123,107.571594 C32.7044993,107.571594 32.7044993,108.939029 33.616123,108.939029 L104.72277,108.939029 C105.634393,108.939029 105.634393,107.571594 104.72277,107.571594 Z" id="XMLID_97_" fill="#003865"></path>
                        <path d="M104.72277,116.972713 L33.616123,116.972713 C32.7044993,116.972713 32.7044993,118.340148 33.616123,118.340148 L104.72277,118.340148 C105.634393,118.340148 105.634393,116.972713 104.72277,116.972713 Z" id="XMLID_95_" fill="#003865"></path>
                        <path d="M89.1681907,126.373832 L33.4451936,126.373832 C32.7614758,126.373832 32.7614758,127.741267 33.4451936,127.741267 L89.1681907,127.741267 C89.9088849,127.741267 89.9088849,126.373832 89.1681907,126.373832 Z" id="XMLID_91_" fill="#003865"></path>
                        <path d="M90.8205086,46.6637369 C84.0403075,58.5148446 77.2601065,70.4229289 70.4799054,82.2740367 C64.7822574,75.3229061 59.0846094,68.3717756 53.3869615,61.4776216 C52.8171967,60.7939038 51.8485965,61.762504 52.4183613,62.4462217 C58.3439152,69.6252582 64.2124926,76.8042946 70.1380465,83.9833311 C70.4229289,84.3251899 71.0496702,84.211237 71.2205996,83.8693781 C78.1717301,71.7333879 85.1228607,59.5404213 92.0739912,47.4044311 C92.4728265,46.6067604 91.2763205,45.8660661 90.8205086,46.6637369 Z" id="XMLID_90_" fill="#FFFFFF"></path>
                        <rect id="XMLID_2535_" fill="#FECA55" x="165.402721" y="141.358646" width="31.3940403" height="13.6173786"></rect>
                    </g>
                    <g id="Path" transform="translate(443.910087, 310.648431)" fill="#D24A43">
                        <path d="M1.41174648,5.70397514 C1.0698876,5.70397514 0.728028724,5.41909274 0.728028724,5.07723386 C0.614075764,3.65282187 0.500122805,2.28538635 0.329193366,0.917950842 C0.272216886,0.519115484 0.557099285,0.177256606 0.955934643,0.177256606 C1.35477,0.120280126 1.69662888,0.405162524 1.69662888,0.803997882 C1.81058184,2.17143339 1.98151128,3.59584539 2.09546424,4.9632809 C2.15244072,5.36211626 1.86755832,5.70397514 1.46872296,5.70397514 C1.46872296,5.70397514 1.41174648,5.70397514 1.41174648,5.70397514 Z" id="XMLID_2612_"></path>
                    </g>
                    <g id="Woman" transform="translate(34.407462, 0.759685)">
                        <g id="Body" transform="translate(13.674355, 38.744006)">
                            <path d="M70.7647878,97.4867567 L94.0111915,14.5290023 L75.1519767,0.398835358 C44.783513,17.7766617 33.1603112,23.3603567 7.5778718,79.0833538 C4.95695373,84.7240253 2.62091807,90.1937673 0.455811837,95.4356035 C23.9301215,96.1193212 47.3474546,96.7460625 70.7647878,97.4867567 Z" id="XMLID_182_" fill="#008EFF"></path>
                            <path d="M61.4776216,36.6358764 C52.5323143,43.0172422 43.5300305,52.9881261 42.5614303,64.383422 C41.8207361,73.2717529 46.5497839,82.3310131 52.019526,88.9972613 C54.4695146,91.9600382 57.3183386,94.8658387 60.5659979,97.0879214 C63.9845867,97.2018743 67.346199,97.2588508 70.7647878,97.3728038 L91.105391,24.8987216 C80.5647423,26.7789455 70.195023,30.4254402 61.4776216,36.6358764 Z" id="XMLID_180_" fill="#000000"></path>
                        </g>
                        <g id="Legs" transform="translate(0.000000, 129.906374)">
                            <path d="M262.718548,155.033001 C240.953533,153.494636 239.073309,155.830672 230.355907,108.939029 C229.330331,103.526264 228.475684,98.1704745 227.734989,93.0425913 C226.937319,93.4984032 226.082671,93.954215 225.285001,94.4100268 C217.821082,98.5693099 210.015304,102.215805 202.095573,105.463464 C197.081643,107.514617 192.010737,109.451817 186.996806,111.616924 C193.606078,127.228479 204.317656,149.278377 221.809435,179.589864 L277.646386,168.137592 C277.646386,168.137592 279.18475,156.229507 262.718548,155.033001 Z" id="XMLID_194_" fill="#FFCEA6"></path>
                            <path d="M262.718548,155.033001 C251.722087,154.235331 245.796533,154.463236 241.466321,148.765588 C238.389591,149.791165 235.882626,152.241154 233.261708,154.292307 C230.46986,156.457413 227.621036,158.565543 224.544306,160.38879 C221.068741,162.439944 217.422246,164.092261 213.604822,165.231791 C216.111787,169.789909 218.846658,174.575934 221.752459,179.589864 L277.589409,168.137592 C277.646386,168.137592 279.18475,156.229507 262.718548,155.033001 Z" id="XMLID_188_" fill="#6A3B32"></path>
                            <path d="M210.869951,191.497948 C190.871207,180.330558 188.079359,181.75497 200.671161,133.381939 C202.095573,127.798244 203.690915,122.385478 205.286256,117.143642 C204.317656,117.200619 203.29208,117.314572 202.323479,117.371548 C193.378172,117.998289 184.375888,117.998289 175.430581,117.542478 C169.732933,117.257595 164.092261,116.801783 158.394614,116.630854 C157.710896,134.350539 158.109731,160.046931 161.186461,196.511878 L219.30247,210.471345 C219.245494,210.528092 225.968718,199.930467 210.869951,191.497948 Z" id="XMLID_183_" fill="#FFCEA6"></path>
                            <path d="M158.109731,125.063373 C160.274837,125.291279 162.382967,125.576161 164.548073,125.861044 C172.638733,127.000573 180.78637,127.684291 188.934007,128.311032 C193.207243,128.652891 202.380456,127.969173 206.653692,128.254056 C219.245494,82.0461307 232.976825,49.3416314 196.910714,37.1486648 C159.762049,24.6138392 82.1031072,14.3580729 82.1031072,14.3580729 L84.0403075,7.46391884 C61.3066921,4.84300077 38.5730767,2.05115327 15.7824849,0.227905919 C-4.78602429,48.8858196 -6.32438925,79.5391656 20.2836268,80.8496247 C49.1137255,82.2170602 162.952732,80.8496247 162.952732,80.8496247 C162.952732,80.8496247 158.679496,90.9914381 158.109731,125.063373 Z" id="XMLID_179_" fill="#FF695A"></path>
                            <path d="M210.869951,191.497948 C200.785114,185.857277 195.03049,183.407288 193.492125,176.114299 C190.130513,175.715463 186.654947,176.911969 183.293335,177.70964 C179.703817,178.564287 176.057322,179.248005 172.353851,179.589864 C168.137592,179.988699 163.978309,179.931723 159.819026,179.304982 C160.217861,184.774724 160.616696,190.529348 161.129485,196.568855 L219.245494,210.528092 C219.245494,210.528092 225.968718,199.930467 210.869951,191.497948 Z" id="XMLID_174_" fill="#6A3B32"></path>
                            <path d="M216.453646,54.2985851 C216.453646,54.2985851 227.279177,78.6845184 231.780319,95.7774624 C231.780319,95.7774624 201.126973,116.68783 191.327019,120.847113 C181.584041,125.063373 216.453646,54.2985851 216.453646,54.2985851 Z" id="XMLID_170_" fill="#FF695A"></path>
                            <path d="M200.614185,131.159856 C200.101397,132.527292 199.645585,133.951704 199.132797,135.319139 C198.961867,135.717975 199.645585,135.945881 199.816514,135.490069 C200.329303,134.122633 200.785114,132.698221 201.297903,131.330786 C201.468832,130.93195 200.785114,130.761021 200.614185,131.159856 Z" id="XMLID_153_" fill="#952C28"></path>
                            <path d="M75.7217415,20.5115327 C73.6136118,19.8278149 71.505482,19.1440972 69.4543287,18.4603794 C68.9985169,18.3464265 68.8275875,18.9731677 69.2833993,19.1440972 L75.5508121,21.1952504 C75.9496474,21.3092034 76.1205769,20.6824621 75.7217415,20.5115327 Z" id="XMLID_152_" fill="#000000"></path>
                            <path d="M218.447823,66.4345753 C216.567599,77.8298713 214.630399,89.1681907 212.750175,100.563487 C212.693199,101.019298 213.31994,101.190228 213.433893,100.734416 C215.314117,89.3391201 217.251317,78.0008007 219.131541,66.6055048 C219.188517,66.2066694 218.5048,65.9787635 218.447823,66.4345753 Z" id="XMLID_137_" fill="#FFFFFF"></path>
                            <path d="M166.086438,78.7414949 C165.402721,79.1973068 164.719003,79.6531186 163.978309,80.1089304 C163.579473,80.3368364 163.978309,80.9635776 164.320167,80.7356717 C165.003885,80.2798599 165.687603,79.824048 166.428297,79.3682362 C166.770156,79.0833538 166.428297,78.513589 166.086438,78.7414949 Z" id="XMLID_113_" fill="#FFFFFF"></path>
                        </g>
                        <g id="Palm" transform="translate(127.627314, 140.731905)">
                            <path d="M41.3079478,16.6371321 C42.9032892,17.0929439 43.6439834,15.4976025 43.1311951,14.4150494 C46.5497839,14.0731905 43.3021246,7.91973068 42.5044538,6.7232246 C36.2370411,-2.16510623 16.0103908,-0.569764797 0.341858878,4.95695373 L24.2150039,16.1243438 L41.3649243,18.175497 C41.7637596,16.8080615 41.8777126,17.2638733 41.3079478,16.6371321 Z" id="XMLID_181_" fill="#FFCEA6"></path>
                            <path d="M40.6812065,15.7255084 C38.1742414,12.0790137 35.040535,8.94530731 31.3940403,6.38136572 C31.0521814,6.09648333 30.6533461,6.7232246 31.0521814,7.008107 C34.5847232,9.51507211 37.6044766,12.5348255 40.0544652,16.1243438 C40.3393476,16.4092261 40.9660889,16.0673673 40.6812065,15.7255084 Z" id="XMLID_108_" fill="#B5855E"></path>
                            <path d="M21.5940858,5.75462445 C21.2522269,5.46974205 20.7964151,5.92555389 21.0812975,6.26741277 C23.4743096,8.43251899 24.9556981,11.281343 25.3545335,14.5290023 C25.4115099,14.9848142 26.0952277,14.9848142 26.0382512,14.5290023 C25.6963923,11.1104135 24.1580274,8.09066012 21.5940858,5.75462445 Z" id="XMLID_106_" fill="#B5855E"></path>
                            <path d="M42.2765479,13.0476138 C40.8521359,9.34414267 38.3451708,6.26741277 34.9835585,4.2162595 C34.5847232,3.98835358 34.2428643,4.55811837 34.6416996,4.84300077 C37.889359,6.83717756 40.2823711,9.74297803 41.6498067,13.2755198 C41.7637596,13.6743551 42.4474774,13.5034257 42.2765479,13.0476138 Z" id="XMLID_105_" fill="#B5855E"></path>
                            <path d="M34.926582,16.0673673 C33.2172877,15.440626 32.0207816,14.3010964 31.2231109,12.705755 C31.1661344,12.591802 31.0521814,12.5348255 30.9382285,12.5348255 C29.342887,12.705755 27.9754515,12.3638961 26.608016,11.4522724 C26.2091807,11.2243665 25.8673218,11.7941313 26.2661571,12.0790137 C27.0068514,12.591802 27.8045221,12.9906374 28.7161458,13.1615668 C29.6847459,13.3894727 30.3684637,13.1045903 31.0521814,13.9592375 C32.1347345,15.2696966 33.1033347,16.1813202 34.6986761,16.8080615 C35.154488,16.865038 35.3254174,16.1813202 34.926582,16.0673673 Z" id="XMLID_107_" fill="#B5855E"></path>
                        </g>
                        <g id="Notebook_1_" transform="translate(124.778491, 97.999545)">
                            <path d="M80.3368364,11.1104135 C69.9671171,28.032428 59.5404213,44.9544425 49.170702,61.8764569 C48.7148901,62.6171512 49.9683727,63.186916 50.4241845,62.4462217 C60.7939038,45.5242073 71.2205996,28.6021928 81.5903189,11.6801783 C82.0461307,10.9394841 80.7926482,10.3697193 80.3368364,11.1104135 Z" id="XMLID_175_" fill="#000000"></path>
                            <path d="M63.6997043,20.4545562 C60.6799509,13.7883081 57.7171739,7.12205996 54.6974205,0.455811837 C54.3555616,-0.341858878 53.1020791,0.341858878 53.5009144,1.13952959 C56.5206678,7.80577772 59.4834448,14.4720258 62.5031982,21.138274 C62.8450571,21.9359447 64.0415632,21.2522269 63.6997043,20.4545562 Z" id="XMLID_2604_" fill="#FECA55"></path>
                            <path d="M54.0137027,28.2603339 C48.9997725,23.8161685 44.0428188,19.3150266 39.0288886,14.8708612 C38.3451708,14.3010964 37.3765707,15.2696966 38.0602884,15.8394614 C43.0742186,20.2836268 48.0311724,24.7847687 53.0451026,29.2289341 C53.6718439,29.7986989 54.6974205,28.8300987 54.0137027,28.2603339 Z" id="XMLID_103_" fill="#FECA55"></path>
                            <path d="M49.9683727,61.5345981 L0.854647195,53.6718439 C-0.0569764797,53.5578909 -0.227905919,54.9253264 0.626741277,55.0392794 L49.7404668,62.9020336 C50.6520904,63.072963 50.8230199,61.7055275 49.9683727,61.5345981 Z" id="XMLID_176_" fill="#000000"></path>
                        </g>
                        <g id="Window_1" transform="translate(160.673673, 144.150494)">
                            <path d="M100.620463,178.67824 L0.227905919,103.75417 L77.6589418,0 L178.051499,74.9240708 L100.620463,178.67824 Z M2.16510623,103.469287 L100.335581,176.74104 L176.114299,75.2089532 L77.9438242,1.93720031 L2.16510623,103.469287 Z" id="XMLID_2582_" fill="#9BD3FF"></path>
                            <path d="M142.953988,76.3484828 L84.6670488,32.5905464 C84.0403075,32.1347345 83.1856603,33.2172877 83.8124016,33.730076 L142.09934,77.4880124 C142.726082,77.9438242 143.580729,76.8612711 142.953988,76.3484828 Z" id="XMLID_82_" fill="#9BD3FF"></path>
                            <path d="M131.672645,91.4472499 L73.3857058,47.6893135 C72.7589646,47.2335017 71.9043174,48.3160548 72.5310586,48.8288431 L130.817997,92.5867795 C131.444739,92.9856148 132.299386,91.9030617 131.672645,91.4472499 Z" id="XMLID_81_" fill="#9BD3FF"></path>
                            <path d="M119.080843,108.141358 L60.7939038,64.383422 C60.1671625,63.9276102 59.3125154,65.0101633 59.9392566,65.5229516 L118.226195,109.280888 C118.852937,109.7367 119.707584,108.59717 119.080843,108.141358 Z" id="XMLID_80_" fill="#9BD3FF"></path>
                            <rect id="XMLID_79_" fill="#FC607D" transform="translate(101.866519, 121.350691) rotate(36.890524) translate(-101.866519, -121.350691) " x="94.88676" y="114.370933" width="13.9595176" height="13.9595176"></rect>
                            <polygon id="XMLID_2533_" fill="#FECA55" points="99.8797689 135.547045 92.3588736 145.574906 91.5042264 146.714435 91.0484145 146.372576 80.3368364 138.338893 87.9716846 128.197079 88.7123789 127.171503 89.2821437 127.627314"></polygon>
                            <path d="M163.294591,78.2856831 C162.49692,79.4821892 160.787626,79.6531186 159.648096,78.7984714 C158.508566,77.9438242 158.280661,76.2915063 159.135308,75.1519767 C160.160884,73.7845412 161.642273,73.7845412 162.781802,74.6391884 C163.921332,75.4938356 164.263191,76.7473181 163.294591,78.2856831 Z" id="XMLID_78_" fill="#008EFF"></path>
                            <path d="M155.089978,72.1322233 C154.292307,73.3287294 152.583013,73.4996588 151.443483,72.6450116 C150.303953,71.7903644 150.076047,70.1380465 150.930695,68.9985169 C151.956271,67.6310814 153.43766,67.6310814 154.577189,68.4857286 C155.716719,69.3403758 156.058578,70.5938583 155.089978,72.1322233 Z" id="XMLID_77_" fill="#008EFF"></path>
                            <path d="M146.543506,65.6938811 C145.745835,66.8903872 144.036541,67.0613166 142.897011,66.2066694 C141.757481,65.3520222 141.529576,63.6997043 142.384223,62.5601747 C143.409799,61.1927392 144.891188,61.1927392 146.030717,62.0473864 C147.170247,62.9020336 147.512106,64.2124926 146.543506,65.6938811 Z" id="XMLID_76_" fill="#008EFF"></path>
                            <path d="M83.1286839,22.3917565 C82.786825,22.3917565 82.5019426,22.1638506 82.4449661,21.8219917 L79.5961421,8.83135435 C79.5391656,8.43251899 79.7670716,8.09066012 80.1089304,7.97670716 C80.5077658,7.91973068 80.8496247,8.1476366 80.9635776,8.48949547 L83.8124016,21.4801328 C83.8693781,21.8789682 83.6414722,22.2208271 83.2996133,22.33478 C83.1856603,22.3917565 83.1286839,22.3917565 83.1286839,22.3917565 Z" id="XMLID_58_" fill="#9BD3FF"></path>
                            <path d="M75.1519767,17.3208498 C74.8101178,17.3208498 74.5252354,17.0929439 74.468259,16.751085 C74.4112825,16.3522497 74.6391884,16.0103908 74.9810473,15.8964378 L87.9716846,13.0476138 C88.37052,12.9906374 88.7123789,13.2185433 88.8263318,13.5604022 C88.8833083,13.9592375 88.6554024,14.3010964 88.3135435,14.4150494 L75.3229061,17.2638733 C75.2659297,17.3208498 75.2089532,17.3208498 75.1519767,17.3208498 Z" id="XMLID_57_" fill="#9BD3FF"></path>
                            <path d="M92.3588736,145.574906 L91.5042264,146.714435 L91.105391,146.372576 C90.0798144,140.333069 89.0542378,134.236586 88.0286611,128.197079 L88.7693554,127.228479 L89.3391201,127.627314 C90.3077203,133.609845 91.3332969,139.592375 92.3588736,145.574906 Z" id="XMLID_20_" fill="#FFFFFF"></path>
                        </g>
                        <g id="Neck" transform="translate(88.313544, 26.209181)">
                            <path d="M32.5335699,12.7627314 C31.7358992,13.0476138 13.6743551,36.464947 13.6743551,36.464947 L0.512788317,12.9906374 L21.1952504,0 L32.5335699,12.7627314 Z" id="XMLID_2532_" fill="#FFCEA6"></path>
                            <path d="M26.3231336,20.2266503 C29.570793,16.1243438 32.191711,12.8766844 32.5335699,12.7627314 L27.2347573,6.7232246 C25.5824394,11.1104135 25.297557,15.7824849 26.3231336,20.2266503 Z" id="XMLID_74_" fill="#000000"></path>
                        </g>
                        <g id="Hand" transform="translate(68.941540, 38.174241)">
                            <path d="M133.666821,157.255084 C130.419162,156.34346 127.912197,154.919048 125.348255,153.095801 C124.778491,152.526036 117.770384,149.791165 117.200619,149.164424 C118.568054,146.657459 125.91802,149.2214 128.481962,150.019071 C130.476138,150.588836 134.521469,149.2214 131.159856,146.201647 C128.254056,143.637705 115.377371,136.230763 114.294818,136.344716 C110.648324,134.749374 106.489041,134.407516 102.500687,134.749374 C80.6786952,113.895983 51.79162,93.8972385 43.4160775,83.8693781 C43.4160775,83.8693781 43.3021246,71.619435 43.0172422,59.4834448 C42.9032892,54.5834675 42.6753833,48.7718666 42.4474774,41.9916655 C41.5358537,18.4034029 39.2567945,5.24183613 25.6394159,0.227905919 C25.6394159,0.227905919 3.41858878,17.4917793 2.96277694,38.8009827 C2.50696511,60.1101861 -5.35578909,100.335581 9.74297803,115.035512 C24.8987216,129.792421 76.8042946,152.924871 89.2251672,158.337637 C91.8460853,160.787626 97.4867567,164.092261 99.1960511,165.630626 C103.982075,170.986416 111.84483,174.405004 119.308748,173.949192 C120.676184,173.892216 121.587808,173.151522 122.100596,172.239898 C122.328502,171.784086 122.84129,171.613157 123.354079,171.670133 C124.094773,171.784086 124.835467,171.898039 125.576161,171.955016 C127.456385,172.125945 128.538938,170.929439 128.766844,169.505027 C128.880797,168.878286 129.450562,168.365497 130.077303,168.422474 C130.077303,168.422474 130.077303,168.422474 130.13428,168.422474 C133.097057,168.65038 134.065657,165.516673 132.983104,163.46552 C133.097057,163.46552 133.154033,163.46552 133.267986,163.46552 C138.794705,163.579473 137.712151,158.394614 133.666821,157.255084 Z" id="XMLID_66_" fill="#FFCEA6"></path>
                            <path d="M12.4778491,63.3008689 C21.138274,62.6741277 29.7417224,61.5345981 38.3451708,60.224139 C39.8835358,59.9962331 41.4788772,59.7113507 43.0172422,59.4834448 C42.9032892,54.5834675 42.6753833,48.7718666 42.4474774,41.9916655 C41.5358537,18.4034029 39.2567945,5.24183613 25.6394159,0.227905919 C25.6394159,0.227905919 3.41858878,17.4917793 2.96277694,38.8009827 C2.7918475,45.7521132 1.88022383,54.754397 1.19650607,64.2124926 C4.89997725,63.8706337 8.66042491,63.5857513 12.4778491,63.3008689 Z" id="XMLID_65_" fill="#008EFF"></path>
                            <path d="M120.790137,170.644557 C116.118066,170.131768 111.787853,168.308521 108.198335,165.288768 C107.856476,165.003885 107.343688,165.516673 107.685547,165.801556 C111.445994,168.935262 115.89016,170.872463 120.790137,171.385251 C121.245949,171.385251 121.245949,170.644557 120.790137,170.644557 Z" id="XMLID_63_" fill="#B5855E"></path>
                            <path d="M127.285456,166.314344 C122.84129,165.972485 118.682007,164.320167 115.206442,161.52832 C114.864583,161.243438 114.351795,161.756226 114.693654,162.041108 C118.340148,165.003885 122.613384,166.71318 127.285456,167.055038 C127.741267,167.055038 127.741267,166.314344 127.285456,166.314344 Z" id="XMLID_62_" fill="#B5855E"></path>
                            <path d="M130.362186,161.870179 C126.373832,159.648096 122.328502,157.48299 118.340148,155.260907 C117.941313,155.033001 117.599454,155.659743 117.998289,155.887648 C121.986643,158.109731 126.031973,160.274837 130.020327,162.49692 C130.362186,162.724826 130.704044,162.098085 130.362186,161.870179 Z" id="XMLID_61_" fill="#B5855E"></path>
                            <path d="M42.8463127,84.097284 C41.934689,83.1856603 40.9660889,82.2170602 40.0544652,81.3054365 C39.7126063,80.9635776 39.2567945,81.476366 39.5416769,81.8182248 C40.4533006,82.7298485 41.4219007,83.6984487 42.3335244,84.6100723 C42.6753833,84.8949547 43.1311951,84.3821664 42.8463127,84.097284 Z" id="XMLID_60_" fill="#B5855E"></path>
                            <path d="M82.0461307,116.801783 C77.9438242,113.269242 73.7845412,109.7367 69.6822347,106.147182 C69.3403758,105.862299 68.8275875,106.375088 69.1694463,106.65997 C73.2717529,110.192512 77.4310359,113.725053 81.5333424,117.314572 C81.8752013,117.599454 82.3879896,117.086666 82.0461307,116.801783 Z" id="XMLID_59_" fill="#FFFFFF"></path>
                        </g>
                        <g id="Head" transform="translate(48.430008, 0.000000)">
                            <path d="M69.3973523,2.10812975 C74.9240708,-1.88022383 86.7182021,2.16510623 92.3588736,8.03368364 C94.8088622,10.5976252 97.6007097,9.57204859 96.689086,12.3638961 C94.4670033,19.2580501 86.6612256,42.2765479 82.1600837,44.6695601 C73.1008234,49.4555844 64.2124926,41.5358537 62.3892453,32.7614758 C60.6229744,24.0440744 61.5345981,7.80577772 69.3973523,2.10812975 Z" id="XMLID_2530_" fill="#FFCEA6"></path>
                            <path d="M99.0251217,7.008107 C96.5751331,4.15928302 90.6495792,3.6464947 87.5728493,4.27323598 C81.5903189,0.626741277 73.6136118,-1.02557663 69.3973523,2.05115327 C64.1555161,5.86857741 61.9904099,14.3580729 61.648551,22.2208271 C64.497375,22.2208271 66.2066694,20.3406032 69.2264228,18.9731677 C78.0008007,19.3150266 84.6100723,14.2441199 86.3763432,11.2243665 C87.8007552,13.3894727 94.6379328,14.8708612 97.2588508,13.1615668 C100.791393,10.5976252 99.7658159,7.91973068 99.0251217,7.008107 Z" id="XMLID_73_" fill="#FECA55"></path>
                            <path d="M80.5077658,20.6824621 C80.1659069,21.1952504 79.7670716,21.7650152 79.4252127,22.2778036 C79.0263773,22.7905919 79.938001,23.3033802 80.3368364,22.7905919 C80.6786952,22.2778036 81.0775306,21.7080388 81.4193895,21.1952504 C81.8182248,20.6254856 80.9066012,20.1126973 80.5077658,20.6824621 Z" id="XMLID_72_" fill="#000000"></path>
                            <path d="M90.4786497,23.1894272 C90.1367909,23.7022155 89.7379555,24.2719803 89.3960966,24.7847687 C88.9972613,25.297557 89.9088849,25.8103453 90.3077203,25.297557 C90.6495792,24.7847687 91.0484145,24.2150039 91.3902734,23.7022155 C91.7891088,23.1324508 90.8774851,22.6196624 90.4786497,23.1894272 Z" id="XMLID_71_" fill="#000000"></path>
                            <path d="M87.060061,28.8300987 C86.7182021,28.5452163 86.2623902,29.0580046 86.6042491,29.342887 C87.3449434,29.9696283 86.6042491,30.881252 85.8635549,31.0521814 C85.1228607,31.2231109 84.3251899,30.9382285 83.6414722,30.6533461 C83.2426368,30.4824166 82.9007779,31.1091579 83.3565898,31.2800873 C84.4961194,31.7358992 85.9205314,32.191711 87.0030845,31.2800873 C87.7437787,30.6533461 87.8007552,29.45684 87.060061,28.8300987 Z" id="XMLID_70_" fill="#B5855E"></path>
                            <path d="M83.1286839,18.4603794 C82.4449661,18.28945 81.7042719,18.1185205 81.0205541,17.9475911 C80.1659069,17.7196852 79.8810245,19.0871207 80.7356717,19.3150266 C81.4193895,19.4859561 82.1600837,19.6568855 82.8438015,19.8278149 C83.7554251,19.9987444 84.0403075,18.6313089 83.1286839,18.4603794 Z" id="XMLID_69_" fill="#D24A43"></path>
                            <path d="M92.4728265,19.8847914 C92.0739912,19.713862 91.6751558,19.5429325 91.219344,19.3150266 C90.4216733,18.9731677 89.794932,20.2266503 90.5926027,20.5685092 C90.9914381,20.7394386 91.3902734,20.910368 91.8460853,21.138274 C92.7007325,21.4801328 93.3274737,20.2266503 92.4728265,19.8847914 Z" id="XMLID_68_" fill="#D24A43"></path>
                            <path d="M79.4821892,37.6614531 C78.627542,37.4335472 78.0577772,36.6928529 78.0008007,35.8382057 C77.9438242,35.3823939 77.2601065,35.4393704 77.3170829,35.8951822 C77.4310359,37.0916883 78.2287066,38.003312 79.3682362,38.3451708 C79.824048,38.4591238 79.938001,37.775406 79.4821892,37.6614531 Z" id="XMLID_67_" fill="#B5855E"></path>
                            <path d="M67.1752696,18.6313089 C67.0613166,18.4034029 66.8334107,18.28945 66.6624812,18.28945 C66.7194577,17.9475911 66.4915518,17.5487557 65.9787635,17.5487557 C61.0218097,17.7766617 56.8625267,20.7394386 55.0392794,25.2405805 C45.5811837,15.440626 29.3998635,15.554579 20.5685092,26.3231336 C19.3150266,27.8614986 18.6313089,27.9754515 16.6941085,28.146381 C15.3836495,28.2603339 14.0731905,28.6591693 12.8197079,29.1719576 C10.3127428,30.2545107 8.1476366,32.1347345 6.78020108,34.5277467 C4.04533006,39.3707475 5.24183613,45.4102543 8.88833083,49.3416314 C3.87440062,51.1079023 -0.284882398,55.3241618 0.284882398,61.0218097 C0.968600155,67.6880579 7.23601292,69.6252582 12.9906374,69.3403758 C19.5429325,68.9985169 26.8928984,67.7450343 32.2486875,63.6427278 C36.9207588,60.0532096 39.6556299,53.9567263 37.9463355,48.2021018 C50.0823256,54.1276557 56.0078795,36.8068059 56.8055502,35.2684409 C65.6369046,34.5847232 64.1555161,27.8045221 65.2950457,26.0952277 C67.8589873,22.6196624 69.0554934,22.448733 67.1752696,18.6313089 Z" id="XMLID_64_" fill="#FECA55"></path>
                            <path d="M59.5973978,19.4859561 C58.3439152,22.9045448 61.3066921,27.918475 66.3206224,28.146381 C68.9415404,25.183604 71.619435,22.33478 74.354306,19.4859561 C73.3857058,17.3778263 70.1380465,14.4150494 66.9473636,14.2441199 C63.3578454,14.0731905 60.9078568,15.7824849 59.5973978,19.4859561 Z" id="XMLID_2495_" fill="#FFCEA6"></path>
                            <path d="M67.0043401,19.9417679 C67.5171284,21.1952504 68.0299167,22.448733 68.5427051,23.759192 C68.7136345,24.1580274 68.0868932,24.3859333 67.8589873,23.9870979 C67.8020108,23.9301215 67.8020108,23.8161685 67.7450343,23.759192 C67.7450343,23.7022155 67.7450343,23.7022155 67.7450343,23.6452391 C67.2892225,22.5057095 66.7764342,21.3661799 66.3206224,20.1696738 C66.2066694,19.713862 66.8334107,19.4859561 67.0043401,19.9417679 Z" id="XMLID_2494_" fill="#B5855E"></path>
                        </g>
                    </g>
                </g>
            </g>
        </g>
    </g>
</svg>