<?xml version="1.0" encoding="utf-8"?>
<!-- Generator: Adobe Illustrator 24.1.3, SVG Export Plug-In . SVG Version: 6.00 Build 0)  -->
<svg version="1.1" id="Laag_1" xmlns="http://www.w3.org/2000/svg" xmlns:xlink="http://www.w3.org/1999/xlink" x="0px" y="0px"
	 viewBox="0 0 754 144" style="enable-background:new 0 0 754 144;" xml:space="preserve">
<style type="text/css">
	.st0{fill:#FF695A;}
</style>
<g>
	<g>
		<path class="st0" d="M116.5,14.6c0-7.4,6.1-13.5,13.5-13.5c7.4,0,13.5,6.1,13.5,13.5v44c0,12.1,8.1,20.7,20.7,20.7
			c12.6,0,20.7-8.5,20.7-20.7v-44c0-7.4,6.1-13.5,13.5-13.5c7.4,0,13.5,6.1,13.5,13.5v42c0,26.9-20.4,46.5-47.6,46.5
			s-47.6-19.5-47.6-46.5V14.6z"/>
		<path class="st0" d="M321.6,13.5c2.5,2.7,3.8,5.4,3.8,9.2c0,6.1-4.3,10.3-10.6,10.3c-3.6,0-5.8-0.9-8.3-2.7
			c-3.6-2.7-9.7-7.2-19.3-7.2c-17.3,0-26.3,13.5-26.3,28.5c0,15,9,28.5,26.3,28.5c9.7,0,15.7-4.5,19.3-7.2c2.5-1.8,4.7-2.7,8.3-2.7
			c6.3,0,10.6,4.3,10.6,10.3c0,3.8-1.3,6.5-3.8,9.2c-6.5,7.2-18.6,13.2-34.6,13.2c-32.6,0-53-22.7-53-51.4s20.4-51.4,53-51.4
			C302.9,0.3,315.1,6.3,321.6,13.5z"/>
		<path class="st0" d="M433.1,13.5c2.5,2.7,3.8,5.4,3.8,9.2c0,6.1-4.3,10.3-10.6,10.3c-3.6,0-5.8-0.9-8.3-2.7
			c-3.6-2.7-9.7-7.2-19.3-7.2c-17.3,0-26.3,13.5-26.3,28.5c0,15,9,28.5,26.3,28.5c9.7,0,15.7-4.5,19.3-7.2c2.5-1.8,4.7-2.7,8.3-2.7
			c6.3,0,10.6,4.3,10.6,10.3c0,3.8-1.3,6.5-3.8,9.2c-6.5,7.2-18.6,13.2-34.6,13.2c-32.6,0-53-22.7-53-51.4s20.4-51.4,53-51.4
			C414.5,0.3,426.6,6.3,433.1,13.5z"/>
		<path class="st0" d="M561.5,88.5c0,7.2-4.3,13.7-13,13.7c-9,0-13-6.5-13-13.7V88c-5.2,8.8-15,15-29.2,15
			c-30.5,0-48.7-23.1-48.7-51.4c0-30.8,21.8-51.4,52.1-51.4c31.7,0,51.9,20.7,51.9,51.4V88.5z M509.6,23.6
			C494.1,23.6,484,36,484,51.7c0,15,8.8,28.1,25.6,28.1c16.2,0,25.4-13,25.4-28.1C535,35.3,525.6,23.6,509.6,23.6z"/>
	</g>
	<g>
		<path class="st0" d="M25.6,142.2c-1.8,1.1-3.8,1.6-6.1,1.6c-6.5,0-12.1-5.2-12.1-11.2c0-4.7,2.2-7.6,6.5-11c9.4-7.4,15-13,20-24.2
			L12.7,46.7c-0.7-1.6-1.1-3.1-1.1-4.9c0-6.7,4.9-12.3,12.1-12.3c5.8,0,9.4,2.7,11.2,7.2l14.2,36L70.2,8c1.3-4.5,4.7-7.2,11.2-7.2
			c7.2,0,11.9,5.6,11.9,12.3c0,1.8-0.4,3.8-0.9,4.9c-5.6,17.1-14.8,42.7-25.1,68.2C56.8,112.4,44,131.2,25.6,142.2z"/>
	</g>
	<circle class="st0" cx="12.2" cy="13.3" r="12.6"/>
	<circle class="st0" cx="587.4" cy="90.2" r="12.6"/>
</g>
<g>
	<path class="st0" d="M668.3,77c-3.8,0-6.9-3.2-6.9-7V43.7h-35.8V70c0,3.8-2.9,7-6.8,7s-7-3.2-7-7V6.8c0-3.8,3.2-7,7-7
		s6.8,3.2,6.8,7v24h35.8v-24c0-3.8,3.1-7,6.9-7s6.9,3.2,6.9,7V70C675.2,73.8,672.1,77,668.3,77z"/>
	<path class="st0" d="M753.8,70.1c0,3.5-2.7,6.9-6.9,6.9c-3.1,0-5-1.4-6.1-3.7L727.6,46h-22.8v24.1c0,3.8-3.1,6.9-6.9,6.9
		s-6.9-3.1-6.9-6.9V7.6c0-3.8,3.1-6.9,6.9-6.9H727c18.8,0,26.8,9.3,26.8,22.6c0,8.8-3.8,16.4-12.5,20.1L753,67.1
		C753.5,68,753.8,69.1,753.8,70.1z M728.9,13.4h-24.1v20.7h24.1c7.6,0,11-5.5,11-10.6C739.9,18.5,736.5,13.4,728.9,13.4z"/>
</g>
</svg>
