<?xml version="1.0" encoding="UTF-8"?>
<svg width="148px" height="36px" viewBox="0 0 148 36" version="1.1" xmlns="http://www.w3.org/2000/svg" xmlns:xlink="http://www.w3.org/1999/xlink">
    <title>logo</title>
    <g id="⚙️-Symbols" stroke="none" stroke-width="1" fill="none" fill-rule="evenodd">
        <g id="Nav-Bar-Desktop" transform="translate(0.000000, -7.000000)" fill="#FF695A">
            <g id="Nav-Bar">
                <g id="logo" transform="translate(0.000000, 7.000000)">
                    <path d="M20.1597494,0.135136888 C21.9291985,0.135136888 23.0902764,1.52310277 23.0902764,3.18826618 C23.0902764,3.6323757 22.9796858,4.13212255 22.8690952,4.40956736 C21.4868363,8.6283605 19.2198527,14.9566739 16.6762696,21.2852345 C14.0775144,27.7243279 10.9258064,32.3872306 6.39183933,35.1072778 C5.94947705,35.3849698 5.45194264,35.4959972 4.89874349,35.4959972 C3.2955497,35.4959972 1.91304443,34.2190587 1.91304443,32.7203127 C1.91304443,31.5546489 2.46599728,30.8330946 3.51673084,30.0005129 C5.83888648,28.1684375 7.22114545,26.7807188 8.43764171,24.0052816 L3.2248604,11.4831736 C3.0588514,11.0947014 2.94850713,10.705982 2.94850713,10.2618725 C2.94850713,8.59670904 4.16475709,7.20899044 5.9342062,7.20899044 C7.37188359,7.20899044 8.25636184,7.87490744 8.69872412,8.98518123 L12.1974748,17.8987758 L17.3952315,1.91157496 C17.7270032,0.801301165 18.5563093,0.135136888 20.1597494,0.135136888 Z M70.7881859,-8.52651283e-14 C74.7142742,-8.52651283e-14 77.6999733,1.49874598 79.3034134,3.27518406 C79.9117847,3.94134833 80.2433101,4.60751261 80.2433101,5.55136897 C80.2433101,7.05011496 79.1928228,8.10475142 77.6448011,8.10475142 C76.7598303,8.10475142 76.2071237,7.88269666 75.5987525,7.43858715 C74.7142742,6.77242287 73.2211784,5.66239635 70.8436043,5.66239635 C66.5859905,5.66239635 64.3744255,8.99297046 64.3744255,12.712264 C64.3744255,16.4315576 66.5859905,19.7621317 70.8436043,19.7621317 C73.2211784,19.7621317 74.7142742,18.6521052 75.5987525,17.9856936 C76.2071237,17.5418314 76.7598303,17.3195294 77.6448011,17.3195294 C79.1928228,17.3195294 80.2433101,18.3744131 80.2433101,19.8731591 C80.2433101,20.8167682 79.9117847,21.4831797 79.3034134,22.1490967 C77.6999733,23.9255348 74.7142742,25.4242808 70.7881859,25.4242808 C62.7709854,25.4242808 57.7392376,19.8175218 57.7392376,12.712264 C57.7392376,5.60675902 62.7709854,-8.52651283e-14 70.7881859,-8.52651283e-14 Z M98.2593019,-8.52651283e-14 C102.184898,-8.52651283e-14 105.170843,1.49874598 106.774283,3.27518406 C107.382654,3.94134833 107.71418,4.60751261 107.71418,5.55136897 C107.71418,7.05011496 106.663939,8.10475142 105.115671,8.10475142 C104.230946,8.10475142 103.677994,7.88269666 103.069869,7.43858715 C102.184898,6.77242287 100.692294,5.66239635 98.3144741,5.66239635 C94.0571066,5.66239635 91.8452952,8.99297046 91.8452952,12.712264 C91.8452952,16.4315576 94.0571066,19.7621317 98.3144741,19.7621317 C100.692294,19.7621317 102.184898,18.6521052 103.069869,17.9856936 C103.677994,17.5418314 104.230946,17.3195294 105.115671,17.3195294 C106.663939,17.3195294 107.71418,18.3744131 107.71418,19.8731591 C107.71418,20.8167682 107.382654,21.4831797 106.774283,22.1490967 C105.170843,23.9255348 102.184898,25.4242808 98.2593019,25.4242808 C90.2418551,25.4242808 85.2101074,19.8175218 85.2101074,12.712264 C85.2101074,5.60675902 90.2418551,-8.52651283e-14 98.2593019,-8.52651283e-14 Z M125.619433,0.000148366209 C133.415699,0.000148366209 138.392028,5.10716054 138.392028,12.7121651 L138.392028,21.816163 C138.392028,23.592601 137.341787,25.2023744 135.185148,25.2023744 C132.973337,25.2023744 131.978022,23.592601 131.978022,21.816163 L131.978022,21.7051356 C130.706353,23.8700458 128.273361,25.4244292 124.790127,25.4244292 C117.270215,25.4244292 112.79142,19.7066427 112.79142,12.7121651 C112.79142,5.10716054 118.154939,0.000148366209 125.619433,0.000148366209 Z M48.9168934,0.222203125 C50.7415147,0.222203125 52.2346105,1.72094911 52.2346105,3.55277723 L52.2346105,13.9334663 C52.2346105,20.5946145 47.2028628,25.4244292 40.5122565,25.4244292 C33.8218965,25.4244292 28.7901488,20.5946145 28.7901488,13.9334663 L28.7901488,3.55277723 C28.7901488,1.72094911 30.2832446,0.222203125 32.1078658,0.222203125 C33.9324871,0.222203125 35.4253366,1.72094911 35.4253366,3.55277723 L35.4253366,14.4329659 C35.4253366,17.4307051 37.4159669,19.5402253 40.5122565,19.5402253 C43.6087924,19.5402253 45.5991764,17.4307051 45.5991764,14.4329659 L45.5991764,3.55277723 C45.5991764,1.72094911 47.0922722,0.222203125 48.9168934,0.222203125 Z M144.775247,19.109988 C146.489524,19.109988 147.879172,20.505125 147.879172,22.226173 C147.879172,23.947221 146.489524,25.3423579 144.775247,25.3423579 C143.06097,25.3423579 141.671568,23.947221 141.671568,22.226173 C141.671568,20.505125 143.06097,19.109988 144.775247,19.109988 Z M125.619433,5.77332482 C121.804428,5.77332482 119.316017,8.82645412 119.316017,12.7121651 C119.316017,16.4314587 121.47241,19.6512527 125.619433,19.6512527 C129.600448,19.6512527 131.867677,16.4314587 131.867677,12.7121651 C131.867677,8.65978941 129.545275,5.77332482 125.619433,5.77332482 Z M3.10392506,0.116516929 C4.81820203,0.116516929 6.20785012,1.51165384 6.20785012,3.23270186 C6.20785012,4.95350261 4.81820203,6.3488868 3.10392506,6.3488868 C1.38964809,6.3488868 -1.07306454e-14,4.95350261 -1.07306454e-14,3.23270186 C-1.07306454e-14,1.51165384 1.38964809,0.116516929 3.10392506,0.116516929 Z"></path>
                </g>
            </g>
        </g>
    </g>
</svg>